<?xml version="1.0" encoding="UTF-8"?>
<svg width="319px" height="319px" viewBox="0 0 319 319" version="1.1" xmlns="http://www.w3.org/2000/svg" xmlns:xlink="http://www.w3.org/1999/xlink">
     
    <title>3U_LOGO</title>
     
    <g id="页面-1" stroke="none" stroke-width="1" fill="none" fill-rule="evenodd">
        <g id="航司LOGO备份-3" transform="translate(-110.000000, -1120.000000)">
            <g id="切图" transform="translate(109.000000, 80.000000)"></g>
            <g id="1_四川航空_3U" transform="translate(110.000000, 1120.000000)" fill="#D70110">
                <path d="M257.548898,270.592653 C247.171755,268.192653 222.025633,267.88898 203.880327,267.862857 C172.908898,267.862857 146.169306,258.060408 141.023184,234.811429 C138.920327,225.302857 142.881143,214.866939 140.170939,214.014694 C136.931755,213.018776 130.685224,224.532245 124.487673,232.715102 C99.8542041,265.237551 74.2150204,271.017143 60.2558367,269.70449 C55.9031837,265.795918 51.7986939,261.665306 47.9227755,257.302857 C64.0142041,256.819592 96.2231837,251.346939 120.55951,227.010612 C125.940735,221.668571 149.437878,193.106939 151.720327,195.686531 C152.647673,196.770612 146.192163,206.749388 144.500735,217.358367 C138.231347,256.195918 181.944,259.47102 211.165224,258.82449 C237.872163,258.194286 259.106449,252.137143 270.169306,258.037551 C266.192163,262.481633 261.986449,266.667755 257.548898,270.592653 M84.4256327,287.363265 C96.5921633,280.300408 113.914612,267.164082 124.536653,244.881633 C129.049306,235.497143 132.373388,229.133061 136.39298,221.482449 C136.438694,221.443265 136.471347,221.38449 136.507265,221.325714 C136.732571,220.969796 136.957878,220.764082 137.098286,220.813061 C137.245224,220.858776 137.297469,221.113469 137.277878,221.482449 C137.297469,221.596735 137.326857,221.681633 137.297469,221.756735 C136.732571,226.690612 133.209306,247.862857 147.81502,262.537143 C168.856653,283.634286 213.911347,287.033469 225.986449,291.915102 C205.950531,301.995102 183.33502,307.702857 159.387265,307.702857 C132.07298,307.702857 106.443592,300.297143 84.4256327,287.363265 M159.387265,10.3934694 C234.378286,10.3934694 296.549714,66.2138776 306.623184,138.475102 C287.700735,138.902857 241.552163,179.898776 209.816653,201.799184 C192.154612,213.97551 161.989714,222.749388 174.123592,193.822041 C178.136653,184.228571 183.256653,174.92898 178.600327,169.306122 C173.036245,162.622041 160.748898,167.183673 159.720327,167.542857 C65.1113469,199.075918 29.7448163,161.44 14.7276735,124.796735 C30.2444082,59.2914286 89.2093061,10.3934694 159.387265,10.3934694 M247.733388,209.841633 C238.074612,214.915918 176.644408,245.825306 162.31298,218.308571 C153.277878,200.966531 173.591347,183.683265 169.101551,177.717551 C166.015837,173.65551 156.693388,178.697143 147.442776,183.04 C118.619918,196.600816 75.2142041,226.99102 13.0917551,185.430204 C12.0109388,179.41551 11.3056327,173.302857 10.9627755,167.056327 C26.4893061,181.296327 45.4574694,190.870204 72.0501224,194.171429 C115.201143,199.542857 164.997061,162.778776 174.685224,171.875918 C178.355429,175.324082 169.953796,188.74449 167.550531,195.062857 C155.442776,227.026939 187.387265,226.661224 209.979918,216.587755 C260.487673,194.063673 285.960327,162.628571 307.615837,170.099592 C307.217469,175.853061 306.420735,181.541224 305.369306,187.102041 C288.190531,183.826939 271.351347,197.446531 247.733388,209.841633 M288.490939,232.666122 C276.481143,227.190204 244.252571,238.700408 210.37502,244.839184 C163.452571,253.348571 143.018286,235.085714 151.220735,206.426122 C152.820735,200.803265 158.806041,192.388571 155.805224,190.337959 C152.804408,188.248163 142.822367,198.213878 141.000327,199.742041 C125.996245,212.52898 122.378286,215.546122 106.531755,225.227755 C82.0027755,240.199184 47.2174694,239.154286 31.6746122,235.013878 C28.4321633,229.580408 25.5162449,223.941224 22.9856327,218.086531 C59.906449,225.351837 91.5897143,233.067755 141.173388,194.204082 C145.953796,190.458776 163.256653,177.64898 165.003592,181.32898 C165.947265,183.356735 160.673796,189.237551 156.507265,200.359184 C145.401959,229.998367 164.729306,246.76898 211.423184,237.534694 C244.464816,230.974694 281.35298,210.850612 297.036245,215.15102 C294.557878,221.182041 291.704,227.059592 288.490939,232.666122 M159.387265,0 C71.6844082,0 0.350530612,71.3502041 0.350530612,159.053061 C0.350530612,246.749388 71.6844082,318.099592 159.387265,318.099592 C247.083592,318.099592 318.437061,246.749388 318.437061,159.053061 C318.437061,71.3502041 247.083592,0 159.387265,0" id="Fill-59"></path>
                <path d="M61.1792653,65.3234286 C81.6298776,71.4360816 82.8870204,98.6883265 103.011102,108.144653 C121.394776,116.784653 139.115592,118.587102 145.051918,121.676082 C149.819265,124.151184 152.392327,127.726694 152.885388,130.276898 C150.612735,130.208327 143.628245,129.731592 138.841306,134.257306 C138.067429,134.982204 134.067429,134.773224 134.067429,135.645061 C134.060898,136.735673 137.068245,136.461388 139.651102,138.192 C144.470694,141.460571 153.962939,143.713633 159.961306,143.553633 C167.954776,143.354449 173.940082,139.893224 175.491102,139.403429 C178.527837,138.476082 181.254367,138.338939 185.100898,141.251592 C185.100898,141.251592 185.283755,141.352816 185.368653,141.352816 C185.479673,141.352816 185.558041,141.310367 185.613551,141.251592 L189.913959,139.018122 C191.31151,134.583837 168.036408,134.257306 177.091102,128.046694 C186.449469,121.685878 199.513959,97.3430204 224.731918,89.1601633 C224.731918,89.1601633 239.68702,86.5479184 250.524571,93.9634286 L250.534367,93.9634286 C250.593143,94.0450612 250.691102,94.0875102 250.834776,94.0875102 C250.906612,94.0875102 251.148245,94.0189388 251.148245,94.0189388 C253.437224,93.147102 266.018449,87.3087347 265.211918,68.676898 C265.211918,68.6605714 265.249034,68.6605714 265.249034,68.6605714 C265.249034,68.4515918 265.07151,68.2752653 264.882122,68.2752653 C264.80702,68.2752653 264.666612,68.3503673 264.666612,68.3503673 C260.699265,70.5773061 246.965388,83.8540408 220.402122,83.8540408 L219.089469,83.7560816 C176.901714,83.6907755 159.069878,121.362612 159.069878,121.362612 C117.789878,105.649959 108.428245,72.5626122 88.2225306,63.2891429 C81.3947755,60.1609796 67.4421224,63.5340408 61.4306939,64.2850612 L61.4241633,64.272 C61.3523265,64.272 61.3033469,64.2850612 61.218449,64.3177143 L61.1792653,64.3177143 L61.1792653,64.3307755 C61.0290612,64.4222041 60.9245714,64.592 60.9245714,64.8042449 C60.9017143,65.0001633 61.0029388,65.2058776 61.1792653,65.2940408 L61.1792653,65.3234286 Z" id="Fill-57"></path>
            </g>
        </g>
    </g>
</svg>