<?xml version="1.0" encoding="UTF-8"?>
<svg width="320px" height="320px" viewBox="0 0 320 320" version="1.1" xmlns="http://www.w3.org/2000/svg" xmlns:xlink="http://www.w3.org/1999/xlink">
     
    <title>8L_LOGO</title>
     
    <defs>
        <polygon id="path-1" points="0 0.468732934 11.9673459 0.468732934 11.9673459 97.8456136 0 97.8456136"></polygon>
    </defs>
    <g id="页面-1" stroke="none" stroke-width="1" fill="none" fill-rule="evenodd">
        <g id="航司LOGO备份-3" transform="translate(-647.000000, -601.000000)">
            <g id="切图" transform="translate(109.000000, 80.000000)"></g>
            <g id="2_祥鹏航空_8L" transform="translate(703.000000, 601.000000)">
                <path d="M143.340187,305.117064 C145.67178,304.545893 148.130299,304.220298 151.15999,304.484499 C154.12001,304.745251 157.355957,304.963234 159.997969,306.445658 C162.14262,307.648015 163.770596,310.052729 166.378117,310.297615 C168.277883,310.474209 169.974151,309.260126 171.379315,308.126751 C172.861739,306.935431 174.022707,305.349534 175.902467,304.78733 C178.418932,304.029218 180.704996,303.725697 182.658568,301.803167 C184.4928,299.991699 186.120776,297.548355 187.123775,295.170545 C187.568019,294.122018 187.44868,292.344351 187.954319,291.096466 C188.506865,289.725103 190.079655,289.08219 190.543214,287.527335 C191.026089,285.89591 190.574256,282.001184 190.90744,279.917927 C192.810654,268.023354 191.630371,254.576686 191.06058,242.594506 C190.842596,237.925802 193.599119,233.851723 194.319981,229.347886 C194.679377,227.084585 194.423454,224.862674 193.319741,222.8415 C192.032537,220.476106 193.143837,219.273749 193.702592,216.8918 C194.077854,215.299005 194.266175,213.66344 194.384134,212.034085 C194.641437,208.470473 194.522098,204.890305 194.568316,201.320485 C194.610395,197.973476 194.602117,194.328466 195.716867,191.138736 C196.376335,189.252078 196.219056,187.496485 195.863109,185.716748 C195.583732,184.32676 195.176738,182.920906 194.940129,181.426066 C194.28549,177.283005 196.272172,173.470367 195.315392,169.211417 C194.235133,164.441999 188.261978,156.991939 185.040517,153.342789 C180.299382,147.972537 177.518716,147.351699 183.240086,140.608705 C185.68412,137.731464 187.56457,134.235455 190.161054,130.880858 C191.78765,128.776217 192.236034,129.909591 192.554041,127.545577 C192.721667,126.301141 190.731535,125.910013 190.611507,124.835963 C190.428704,123.135555 192.665102,122.854109 192.913437,121.377203 C193.546002,117.638377 191.48206,114.225836 190.933653,110.607038 C190.190716,105.643781 189.957557,100.632926 190.351444,95.6262093 C190.670141,91.5928297 192.002874,87.3952728 192.048402,83.389486 C192.098759,79.330583 190.459746,75.2634022 189.475372,71.2921063 C187.83222,64.6594836 186.560192,58.4738644 187.862572,51.7646716 C192.833418,26.088868 174.443497,13.6507171 150.159751,14.3764081 C144.016901,14.5605902 138.038917,12.6904872 131.908484,12.6877279 C126.117442,12.6842788 120.485059,14.2860417 114.755411,14.9013614 C112.067181,15.1883267 112.4928,13.2085423 110.49715,13.0250501 C103.263693,15.2228177 92.3024479,8.45981892 87.5157844,14.2750046 L65.8478371,15.7898501 L52.4632527,17.3716081 C46.6266826,14.7516704 34.8886994,14.6137063 27.9842874,19.242401 C23.5880623,22.1927626 22.4581365,25.2127962 22.6719808,30.3098788 C22.8368479,34.2135722 24.691085,32.3103578 21.6,34.4281063 C19.9533988,35.554583 15.9324359,32.9553399 16.3959952,37.9779219 C16.6139784,40.3377974 18.827612,41.5001447 21.0564216,41.1538549 C18.2385054,41.591201 14.9211593,51.1769447 14.5120958,53.5271626 C13.5118563,59.2506022 17.3500168,61.8526046 17.7901222,67.0510908 C17.8901461,68.1479051 16.3235641,69.6261902 16.104891,71.3873016 C15.6682347,74.614971 17.4762539,78.4303674 16.9437126,80.701256 C15.8372407,85.4561878 14.0988934,86.3343291 17.0740886,90.1255818 C18.8586539,92.3971602 22.0063042,90.7657351 19.9609868,95.1267794 C18.5399569,98.1681974 16.3042491,96.7630333 15.7723976,100.641893 C15.4040335,103.292183 17.3155257,107.98917 17.725279,110.660844 C18.4523497,115.444058 19.0876743,120.267282 19.5746874,125.07809 C20.298309,132.223249 20.1568958,135.586813 18.1653844,142.407757 C16.6905485,147.455172 18.3799186,154.536178 18.5447856,159.748461 C18.793121,167.495833 19.8961437,175.26666 19.3063473,183.02231 C18.7317269,190.608954 16.2890731,197.69203 16.1428311,205.36973 C16.0248719,211.542243 16.5567234,217.703718 17.1541078,223.84105 C17.1927377,224.234937 17.1734228,224.702636 17.276206,225.085486 C17.9391234,227.482612 16.3690922,229.500336 16.0662611,231.756049 C15.9324359,232.771464 15.9669269,234.004173 16.2311281,234.972681 C16.5994922,236.313692 17.330012,237.531225 17.6480192,238.883273 C17.9273964,240.067005 17.8480671,241.261773 18.1191665,242.46413 C18.766218,245.320676 19.0656,248.284834 19.3484263,251.199326 C19.8575138,256.471623 20.0265198,261.861189 21.3751186,267.007939 C22.7830419,272.389227 26.4487473,275.349936 25.7520287,281.077515 C25.0435832,286.925812 21.8221222,292.3478 22.0711473,298.341649 C22.4429605,307.317591 36.1455521,307.563167 42.5601916,308.28334 C51.2339928,309.256676 59.9733269,309.555369 68.6892072,309.829917 C80.2236934,310.20173 91.6250443,311.128159 103.133317,311.791766 C107.368814,312.032514 107.973097,311.04814 111.584996,309.270473 C118.232105,305.993136 125.720105,309.58917 133.263981,307.996375 C137.14698,307.172729 140.119416,305.908288 143.340187,305.117064" id="Fill-1" fill="#DA2128"></path>
                <path d="M189.643344,137.46547 C188.341653,140.250274 189.302572,150.072627 191.957001,152.106217 C196.253892,150.525149 193.764331,137.864186 189.643344,137.46547" id="Fill-3" fill="#DA2128"></path>
                <path d="M5.04534611,107.221193 C5.13295329,107.197049 5.21021317,98.0928 5.2212503,97.5257677 C5.30126946,93.4537581 5.3737006,89.3831281 5.44268263,85.3097389 C5.5771976,77.3126515 5.68480958,69.312115 5.75034251,61.3122683 C5.3702515,61.4578204 5.02534132,61.5709509 4.67008383,61.6454515 C4.04234731,65.4573988 3.18007186,69.1900168 1.73282874,72.7184479 C2.39091737,80.1581605 2.83516168,87.6116695 3.14902994,95.0727665 C3.20283593,96.3082347 2.3378012,107.882731 5.04534611,107.221193" id="Fill-5" fill="#DA2128"></path>
                <path d="M4.55088287,49.8273111 C8.22279665,52.7107602 2.65456671,41.2017974 7.04389365,40.5368105 C2.92014754,26.3058165 10.1805068,24.4219171 17.8133691,16.8966668 C21.761211,13.0150477 23.3581451,9.43419018 27.2301068,7.39922012 C27.2149308,7.14260695 27.202514,6.88599377 27.2107919,6.62524168 C26.9465907,6.33965605 26.7313667,6.02371832 26.5368374,5.69881293 C24.403223,5.46910275 22.2558122,5.26560575 20.2946529,5.92300455 C16.4799463,7.18813509 15.3810625,10.5434213 11.1724685,15.2045375 C4.67712,22.4000537 2.19928527,23.9438716 2.06890922,38.8536489 C2.01993198,42.8145974 0.978303234,48.6359914 4.55088287,49.8273111" id="Fill-7" fill="#DA2128"></path>
                <path d="M77.5195976,5.92265964 C95.2700551,4.74513629 112.772177,2.40250635 130.610242,2.56668359 C130.249466,2.12036982 129.943875,1.64922251 129.607243,1.18704287 C127.087329,0.900077605 124.643296,0.521366228 122.299976,0.000551856287 L73.3689485,0.000551856287 C64.3343713,0.090228503 54.9900647,1.9741279 45.9830802,3.64556263 C45.9561772,4.20086802 45.8837461,4.74375665 45.749921,5.26526084 C55.9247713,5.46461892 66.8894659,6.6193782 77.5195976,5.92265964" id="Fill-9" fill="#DA2128"></path>
                <path d="M35.2229863,317.547351 C35.2029816,317.535624 35.1836666,317.523897 35.1650414,317.51286 C35.1567636,317.451466 35.1615923,317.409387 35.1533145,317.344544 C34.9387804,317.28315 34.7207971,317.198992 34.5028139,317.134149 C26.9768738,312.726197 18.4099947,309.382638 12.3326774,303.473636 C12.0222582,302.787955 11.7318438,302.098135 11.4752307,301.406245 C9.71687856,296.638206 8.26963545,291.659083 7.20869174,286.695826 C6.89827257,285.244444 7.04106539,278.266911 4.18658874,281.231069 C3.04976479,282.414111 3.06907976,285.704554 3.32500311,287.170422 C4.25557078,292.501354 6.22431808,296.772032 8.1427085,301.720113 C8.57177677,302.818307 9.03947497,303.909603 9.62168335,304.993311 C11.0309863,306.625426 12.4975444,308.203735 14.2276139,309.723409 C17.2621337,312.680669 20.7657313,314.923965 24.6025121,316.256697 C26.9196187,317.674278 29.1567061,318.738671 31.2123708,319.262935 C32.6030486,319.768573 33.7440115,319.710628 34.579384,319.106345 C34.9153265,319.500233 34.9229145,319.343644 34.648366,318.673138 C35.0581193,318.723495 35.2374726,318.328918 35.1650414,317.547351 L35.2229863,317.547351 Z" id="Fill-11" fill="#DA2128"></path>
                <path d="M206.884852,110.867652 C206.520627,109.274167 205.720435,107.761391 205.211348,106.207226 C204.268363,103.326536 203.755827,100.293396 203.448857,97.2843995 C203.346073,93.7511396 203.238461,90.2413337 203.12809,86.7487732 C203.20397,83.4017648 203.399879,80.0202654 203.599237,76.6746366 C204.219386,66.4094199 204.789177,55.8586175 201.891242,46.8157624 C201.917455,45.9638343 201.958845,45.0863828 202.009201,44.1709911 C202.985297,42.1870678 203.032205,39.3187947 203.073594,36.5270917 C203.123261,34.5128163 203.16603,32.4219708 203.559918,30.7484666 L203.559918,30.6884522 L203.559918,30.5953265 C203.035654,28.2858079 202.503113,26.0190582 201.702921,23.7943875 C200.909628,21.5876522 199.726586,20.4770414 198.076536,18.8490654 C196.25334,17.0513935 194.71711,14.9391636 192.822174,13.1697744 C189.470337,10.0407492 185.5425,6.61372168 181.145585,5.07404263 C175.484919,3.08873964 169.411051,2.48238754 163.453072,2.19473246 C160.101925,2.03262467 156.746639,1.99192527 153.392732,1.97192048 C152.378006,1.96640192 149.892583,1.46904144 149.256569,2.31407138 C147.498907,4.64773365 153.683836,4.44492647 154.687525,4.6187612 C158.010389,5.19338156 161.31187,5.90113725 164.57472,6.75168575 C169.974634,8.15684982 175.351094,9.70066778 180.58614,11.6266462 C183.183314,12.5806678 185.794284,13.6009121 188.253494,14.8805289 C190.113939,15.8511061 193.216751,17.3093863 194.208713,19.2167396 C195.400033,21.5048738 194.005906,23.1852762 196.203673,25.2395612 C197.068708,26.0721744 197.911669,26.8475325 198.141379,28.2223444 C197.942021,29.671657 197.238404,30.6194702 196.520991,31.6059133 C196.314734,31.8818414 196.096751,32.1625983 195.904981,32.4564618 L195.797369,32.605463 L195.847726,32.7841265 C196.578936,35.4082031 195.962236,38.196457 197.203223,40.750172 C197.708861,41.7924905 198.497326,42.1332618 199.048492,42.9976067 C199.849374,44.2434223 199.603798,46.6929744 199.436171,48.1567732 C199.332009,49.0611277 199.079534,50.1068953 198.738763,50.9933145 C198.351774,52.0094199 197.356363,52.7916762 197.034217,53.7719109 C195.804957,57.4817648 199.665192,60.898445 199.807985,64.4999971 C199.952847,68.2243372 200.105987,71.9472977 200.239812,75.6730175 C199.883865,78.0894582 199.358912,80.4217408 198.82706,82.7043564 C197.670231,87.5951828 196.589973,92.2190486 197.313594,97.505142 C197.643328,99.8036235 198.447659,102.022776 199.313383,104.350919 C200.074945,106.417621 200.82547,108.540888 201.251089,110.753832 C202.346524,116.464165 200.098399,122.093099 200.511601,127.673746 C200.909628,133.048826 201.940219,137.86998 201.683606,143.331288 C201.407678,149.155441 200.764076,155.053406 201.764315,160.843758 C202.074734,162.641429 202.487937,164.585343 204.123501,162.83182 C206.087419,160.728558 205.24101,154.609161 205.160991,152.07821 C204.885063,143.560309 204.533254,135.051374 204.295956,126.532783 C204.353211,126.509329 204.39529,126.493463 204.39529,126.50588 C204.384253,121.984107 206.611683,117.527178 207.049719,113.039207 C207.12215,112.291441 207.04489,111.571959 206.884852,110.867652" id="Fill-13" fill="#DA2128"></path>
                <path d="M204.34514,230.990348 C204.291334,230.971723 204.214764,230.968274 204.158199,230.952408 C204.88182,223.683771 204.80525,216.39237 204.395497,209.103038 C204.00092,207.392284 203.713265,205.52632 203.100014,203.879029 C202.817878,203.108499 202.54126,201.412921 202.048038,200.830712 C201.799013,200.543747 201.58034,200.403024 201.38857,200.373361 C200.81119,200.280236 200.454553,201.155618 200.182764,201.828882 C199.324628,203.960427 198.673437,206.165093 198.267823,208.429084 C197.161351,214.640916 197.962232,220.96312 198.719655,227.164605 C198.991444,229.412729 199.247368,231.660854 199.481907,233.908288 C199.50812,252.64312 198.949365,272.101572 197.704929,291.264782 C198.222295,305.836547 180.759492,309.386363 170.326649,312.170478 C169.460925,313.070003 155.73281,314.077831 140.505715,314.402736 C140.238065,316.172126 140.475363,317.175124 141.229337,317.328954 C153.748196,317.849769 164.291411,317.678003 164.299689,317.34482 C164.287272,317.746985 170.959214,317.187541 171.549011,317.095105 C172.66721,316.919201 173.754366,316.709496 174.795995,316.280427 C175.795545,315.870674 176.604014,315.874123 177.702898,315.874123 C179.057705,315.874123 179.801332,315.80928 181.041629,315.352619 C182.316417,314.8863 183.550505,314.444815 184.745274,313.790866 C185.947631,313.136226 187.092733,312.365697 188.149538,311.492384 C189.126323,310.688054 189.873399,309.424993 190.853634,308.696542 C194.70559,305.836547 195.261586,303.94437 198.260235,299.900643 C205.735818,289.732691 205.179823,273.847508 204.532771,263.404317 C205.179823,252.160935 205.099804,241.138985 204.34514,230.990348" id="Fill-15" fill="#DA2128"></path>
                <g id="编组" transform="translate(0.000000, 163.015588)">
                    <mask id="mask-2" fill="white">
                        <use xlink:href="#path-1"></use>
                    </mask>
                    <g id="Clip-18"></g>
                    <path d="M0.051874491,74.9983042 C-0.0909183234,79.0951473 0.051874491,83.2292407 0.592003832,87.5337198 C0.789982275,89.122376 1.61362778,97.6464862 4.13009246,97.8423952 C6.35131401,98.0141605 5.46282539,91.2587497 5.4359224,90.0143138 C5.2903703,82.7608527 6.65345533,75.5080814 8.65255473,68.5912527 C9.23407329,66.5852551 9.11611401,64.5778778 9.5527703,62.6056814 C9.95907449,60.7638611 11.3173308,60.3541078 11.8429739,58.6950898 C12.3251583,57.1754156 11.2683535,55.5288144 11.0000134,54.0760527 C10.640617,52.1259305 10.9386194,50.3682683 11.4518457,48.468503 C12.2872182,45.3877653 11.6470649,43.3093365 10.579223,40.4203689 C9.4679224,37.4086132 9.46447329,34.4851545 9.54794156,31.3064623 C9.59829844,29.4211832 9.65969246,27.5165892 9.39894036,25.6423473 C9.13473916,23.7522395 8.26556551,22.5119425 7.49641581,20.8267114 C5.89948168,17.3438084 7.49917509,14.7797461 8.26970443,11.5196551 C8.53045653,10.4138731 8.85191281,8.67138683 7.72198707,7.93327904 C6.60723737,7.20137964 5.94845892,8.43063952 4.91027928,7.34279281 C3.53684695,5.90313772 4.72333796,2.24777964 4.50535473,0.468732934 C1.39909365,2.10153772 3.43613317,7.71460599 3.35680383,10.4055952 C3.29885892,12.3826204 3.23401581,14.4700168 2.01234395,16.1311042 C0.289172695,18.4758036 1.07349844,21.7193389 1.35011641,24.3848048 C1.70951281,27.8463234 2.22273916,31.2892168 2.64835832,34.7424575 C2.42554635,42.378079 2.22618826,50.0068024 2.01579305,57.6410443 C1.01279425,63.6052311 0.253991856,69.2652072 0.051874491,74.9983042" id="Fill-17" fill="#DA2128" mask="url(#mask-2)"></path>
                </g>
                <path d="M116.252597,317.317641 C118.654551,318.568975 127.213153,317.964693 129.059112,315.624822 C127.791222,311.699054 116.720295,313.607097 116.252597,317.317641" id="Fill-19" fill="#DA2128"></path>
                <path d="M110.51612,131.52653 C112.335866,131.447201 114.150783,131.207833 115.96984,131.135402 C119.182333,131.008475 122.330673,131.771417 125.524541,131.95146 C128.657016,132.128054 131.728096,131.3727 134.857121,131.351316 C134.891612,133.3311 134.425293,135.237074 134.301126,137.201682 C134.194204,138.890363 134.378386,140.583182 134.428743,142.267723 C134.520489,145.356049 134.765375,148.503009 134.470822,151.583747 C134.309404,153.291742 133.919655,155.239105 134.93714,156.769127 C134.846084,156.627714 134.741921,156.48768 134.649485,156.347646 C135.676628,157.965965 136.381624,158.722008 138.368996,159.155905 C140.026635,159.52013 141.738769,159.480121 143.431588,159.485923 C143.986893,159.488399 144.527023,159.471153 145.032661,159.429074 C146.568201,159.304217 148.089255,158.440561 148.746654,157.006425 C149.611689,155.097692 149.034309,153.001328 148.873581,151.012576 C148.743895,149.406674 148.984642,147.826985 149.130194,146.231431 C149.355765,143.765323 148.896345,141.333706 148.651459,138.890363 C148.41761,136.550492 148.903933,134.080935 148.41761,131.782454 C148.34035,131.430645 151.446611,131.361663 153.958937,131.363733 C155.467574,131.365112 156.758228,131.392015 157.034156,131.399603 C159.156733,131.470655 161.171008,131.146439 163.302553,131.111948 C164.765662,131.097462 166.248086,131.124365 167.715334,131.292681 C168.80663,131.414779 170.713983,132.343967 171.72457,132.194276 C173.161466,131.991469 174.382448,132.306717 176.396723,131.742444 C178.403411,131.158856 179.63681,129.073529 179.924465,127.430377 C180.260407,125.713414 180.349394,124.157869 179.972752,122.276729 C179.754769,121.360648 179.349844,120.323158 178.525509,119.434669 C176.405001,117.161021 172.065341,116.484997 168.029892,116.55191 C164.861547,116.604336 161.851861,117.39487 158.74629,117.913615 C157.601188,118.104696 156.463674,118.152983 155.307535,118.097108 C153.940311,118.032954 151.048584,118.908336 150.041447,117.643896 C149.33714,116.763685 149.757931,115.05569 149.727578,114.01751 C149.666874,112.041175 149.56616,110.068288 149.467516,108.092643 C149.37508,106.247373 149.271607,104.389687 149.313686,102.540969 C149.355765,100.777788 153.607128,101.248935 154.740503,101.391038 C156.417456,101.604193 157.89919,101.900126 159.638228,101.927029 C163.885451,101.992561 168.15199,102.216753 172.398525,102.219512 C174.624575,102.224341 176.780263,101.950482 178.227507,100.812279 C180.272824,99.2077566 180.698443,96.4967626 180.410788,94.0465207 C180.222467,92.517189 179.774774,90.6167339 178.120584,89.2660656 C177.056192,88.3975818 175.819344,88.2071914 174.715631,88.1961543 C174.056163,88.1885662 173.448431,88.2416824 172.957279,88.2540992 C171.296192,88.3016968 169.633725,88.3265303 167.976086,88.3341183 C166.317068,88.3417063 164.65943,88.3292896 163.001102,88.3106644 C159.615463,88.2685854 156.230515,88.1809782 152.822113,88.0968201 C152.136431,88.0795746 151.442472,88.1506261 150.769207,88.1478668 C150.26012,88.1423483 149.937974,87.8098549 149.712402,87.3863051 C147.786424,83.7854429 149.172273,78.9435938 149.420608,75.0930165 C149.424747,75.0343818 149.417159,74.9384968 149.41371,74.857098 C149.478553,73.528504 149.382668,72.9497447 150.845777,72.8586884 C151.87292,72.7917758 152.891095,73.0656345 153.913408,73.0959866 C156.586462,73.1760057 159.258826,73.2574046 161.929121,73.3560489 C162.285068,73.3719147 162.645154,73.3801926 163.001102,73.393989 C164.417303,73.4540034 165.789356,73.5367818 167.148992,73.5367818 C168.507938,73.5367818 169.859986,73.4540034 171.22721,73.1835938 C174.095483,72.6089734 177.718419,73.3105207 179.357432,70.3367051 C181.153035,67.0966189 181.233744,59.9418022 176.783023,58.6642549 C176.852005,58.6739123 176.918228,58.6815004 176.98652,58.6925375 C174.688728,57.9689159 172.788963,58.010995 170.76365,58.1572369 C170.736057,58.1593063 170.709154,58.160686 170.68708,58.1648249 C167.733959,58.391086 163.935119,58.9339746 161.407617,56.9810932 C158.627641,54.8323028 159.106376,50.1491123 159.955545,47.1725375 C160.58811,44.9809782 161.461423,42.8728872 163.709547,41.9664632 C165.707957,41.1600632 168.094046,41.2214572 170.211794,41.3456249 C173.708493,41.5511914 179.104958,42.6121351 180.158314,37.9744728 C180.651535,35.7960201 179.656125,33.0877854 178.737284,31.1507698 C177.472153,28.4880632 174.792201,27.7216728 171.9936,27.6340656 C168.868024,27.5381806 165.42858,28.2666309 162.93212,28.5998141 C157.130041,29.3793111 151.741854,30.2084752 148.861164,35.9753734 C146.932426,39.8431962 146.261921,44.2304537 145.940465,48.4969926 C145.88252,49.2716608 145.594865,59.1257447 145.716963,59.1236752 L136.407837,59.25888 L136.47337,55.0240728 L136.614783,50.0566764 C136.679626,47.4677806 136.285049,44.7878285 135.756647,42.2603267 C135.093729,39.1085375 134.279051,35.5138836 131.957806,33.1298644 C128.56182,29.6455818 124.087646,28.2404177 119.312019,28.3169878 C115.824287,28.3735531 112.288958,29.0171554 108.858481,29.176504 C105.016872,29.3544776 103.638611,30.6196081 103.638611,34.7102429 C103.638611,36.5486141 104.066989,38.5104632 105.799128,39.4603459 C107.348465,40.3088249 109.282031,40.3060656 110.998304,40.4598956 C114.544671,40.7785926 119.99839,39.8128441 122.372752,43.1888249 C123.766879,45.1706788 123.938644,47.7823387 124.034529,50.1222093 C124.14904,52.8014716 124.306319,55.4869423 124.332532,58.168274 C124.352537,59.8459171 123.981413,60.0487243 122.243066,60.0521734 C120.442635,60.0563123 118.696699,59.585165 116.899028,59.5141135 C113.453375,59.3802884 108.206601,58.0641111 105.200364,60.391565 C102.282424,62.6479674 103.170913,65.9839387 103.186778,69.227474 C104.657475,70.5595171 105.265207,71.2996944 107.32639,71.6770261 C109.502084,72.0736728 111.70744,72.2461279 113.916244,72.3130405 C118.957451,72.4675602 124.007626,72.5179171 129.046764,72.6593303 C130.318793,72.6938213 131.563229,72.5475794 132.819392,72.5827602 C133.240872,72.5944872 133.662352,72.6269087 134.087281,72.6938213 C136.3968,73.0587363 135.059928,81.3296824 134.998534,82.8707411 C134.93714,84.337989 135.542802,86.33088 135.182026,87.7305255 C134.772273,89.3219411 132.532426,89.09568 131.238323,89.09568 C127.56503,89.0977495 123.893116,88.9618549 120.223962,88.8314788 C119.00298,88.7893998 117.781308,88.7418022 116.558946,88.7017926 C114.441198,88.6293614 112.093739,88.1271722 109.830438,88.0981998 C108.470802,88.0768153 107.142208,88.2258165 105.90881,88.7397327 C102.405212,90.2049111 102.615607,93.6898836 103.45029,96.7706213 C104.591943,101.016466 105.572867,101.118559 109.891832,101.253074 C112.086151,101.317917 114.31841,101.486923 116.539631,101.582808 C119.986663,101.735258 123.464048,101.988423 126.944881,102.080169 C128.316934,102.122937 129.671741,101.84494 131.023789,101.666276 C131.690156,101.582808 132.356522,101.517275 133.026338,101.519345 C134.559119,101.524863 133.693394,105.898324 133.768584,106.899254 C133.907238,108.623115 134.003123,110.355943 133.972771,112.086703 C133.945868,113.622243 134.164541,115.604097 133.425054,117.016159 C132.482759,118.8159 129.90559,118.410976 128.208632,118.413735 C126.478563,118.413735 124.747114,118.437879 123.015665,118.363378 C118.753265,118.176437 114.563296,117.599057 110.28641,117.804624 C107.629222,117.93224 104.737495,118.737261 103.446841,121.259244 C102.301049,123.505299 101.983732,126.684681 102.784613,129.097673 C103.477193,131.18024 106.931813,131.482382 108.715689,131.541017 C109.317212,131.563091 109.918046,131.553433 110.51612,131.52653" id="Fill-21" fill="#FFDD00"></path>
                <path d="M94.156823,146.342906 C94.4237835,144.546614 94.0795631,142.798609 94.1409571,140.992659 C94.2368422,138.212683 93.6815368,135.476856 93.3373164,132.729991 C92.9999943,130.015548 93.3862937,127.359739 93.1676206,124.659783 C92.8958314,121.885325 92.7082002,118.897713 92.8192613,116.117737 C93.0027535,111.531121 93.0834625,106.932779 93.1179535,102.341335 C93.1489954,97.8906137 93.1489954,93.4260963 92.9075583,88.9788244 C92.8116733,87.214264 92.436411,85.3434711 92.63232,83.577531 C92.8772062,81.3942496 93.8567511,79.0550687 92.597829,76.9987143 C90.5821739,73.766216 82.5209332,72.8377178 80.8446697,76.8234999 C79.9134122,79.0571382 80.9060637,83.8672556 80.8791607,86.323016 C80.812938,90.2798256 80.7563727,94.2331861 80.6687655,98.1858568 C80.4880326,106.072573 80.2590122,113.95446 80.0706913,121.840487 C79.9830841,125.969062 79.9134122,130.093497 79.852708,134.22966 C79.8064901,138.441703 79.722332,142.408171 80.2507344,146.607107 C80.5535655,149.002853 80.2196925,151.157162 79.9672182,153.526695 C79.737508,155.672036 80.2969523,157.293804 82.364344,158.218853 C84.9808326,159.390168 87.3703703,159.107342 90.0434242,158.570662 C90.5221595,158.474777 90.9698529,158.295423 91.4175463,158.099514 C95.0563487,156.510858 93.5856517,149.586441 94.122332,146.560889 C94.1333691,146.488458 94.1444062,146.415337 94.156823,146.342906" id="Fill-23" fill="#FFDD00"></path>
                <path d="M34.3721619,149.923694 C34.3376709,152.106286 34.6970673,155.616092 36.1456901,157.161979 C38.5007368,159.681893 43.015611,159.684652 45.97632,158.498161 C50.211817,156.801203 49.5413116,151.807594 49.1508733,148.230875 C48.464502,141.923848 49.8634577,135.53887 50.0048709,129.251848 C50.104205,124.472082 49.2115775,119.727498 49.3578194,114.942214 C49.5488996,108.221294 49.8131008,101.674209 49.6247799,94.9153495 C49.5178577,90.9254285 48.645235,86.7940944 48.7328422,82.8731554 C48.783199,80.824389 49.4268014,78.5417734 48.0706146,76.7434117 C46.3095032,74.4787315 43.6164446,74.338698 41.0234098,74.8057063 C39.2664374,75.1223339 37.6736422,74.8429566 36.6009715,76.5226692 C34.5556541,79.7275746 35.804229,84.6846237 35.7738769,88.2689303 C35.7207607,95.0471051 35.2151224,101.815623 35.1537284,108.598626 C35.0957835,114.821496 34.448732,121.027809 34.2728278,127.256197 C34.2417859,127.910837 34.2921428,128.541333 34.360435,129.163551 C34.510126,130.467311 34.7660493,131.717955 34.8081284,133.067244 C34.8929763,135.987943 33.6450913,138.800341 33.7865044,141.764499 C33.9244685,144.558272 34.3990649,147.114746 34.3721619,149.923694" id="Fill-25" fill="#FFDD00"></path>
                <path d="M36.0643602,31.3644762 C36.0457351,31.4175923 36.0298692,31.4831253 36.015383,31.5334822 C36.007795,31.4789863 35.98848,31.4244905 35.98848,31.3644762 C36.015383,31.3555085 36.0374572,31.3644762 36.0643602,31.3644762 M39.9135578,41.0771468 C41.9588752,41.4061911 43.8427746,41.9573576 45.976389,41.8614726 C51.363886,41.6434893 56.7644896,42.0208211 62.1630237,41.7828331 C66.1239722,41.5993408 70.045601,41.9414917 73.977577,41.2868522 C76.9686381,40.7708666 80.0093662,40.8295013 83.0425063,41.0378271 C85.0188417,41.1744115 86.1715315,42.2139708 88.28928,41.7235085 C90.0007243,41.3247923 92.0343147,41.2371851 93.2449495,39.7816642 C95.0909087,37.5383684 97.5528776,32.0660235 95.397189,29.4240115 C93.5622668,27.1945121 89.5226788,27.2434893 86.9289543,27.1655396 C77.7267507,26.8765049 68.2493087,28.8714654 59.0953926,27.5463205 C55.9401543,27.0862103 53.2795171,27.7153265 50.0925471,27.7111875 C47.1256297,27.7077384 43.9883267,28.3127109 41.0310668,28.5962271 C37.9448105,28.8873313 35.3027986,30.9567923 34.6171171,33.6126007 C34.2418549,35.0563947 34.4377638,36.6705744 35.4290357,38.2675085 C36.5244704,39.9010031 37.9951674,40.7660378 39.9135578,41.0771468" id="Fill-27" fill="#FFDD00"></path>
                <path d="M71.5652062,155.005394 C71.5921092,154.938481 71.6183224,154.871569 71.6500541,154.806036 C72.0060014,154.001705 72.2274338,153.009744 72.2888278,152.131602 C72.3688469,150.932695 72.2888278,149.728958 72.1474146,148.537638 C72.0549787,147.787804 71.6948925,146.867583 71.9059775,146.117059 C72.0135895,145.743866 72.2508877,145.45966 72.2888278,145.040939 C72.3157308,144.717413 72.1708685,144.454592 72.1508637,144.133825 C72.1315487,143.811679 72.1280996,143.506778 72.0894697,143.183253 C72.1053356,143.306731 72.1280996,143.435037 72.1398266,143.555066 C71.2623751,138.400728 72.5992469,133.176029 72.0204877,128.004446 C71.6528134,124.689859 72.9324302,121.385619 72.9827871,118.064824 C73.0248661,113.869337 72.1398266,109.726275 72.7330721,105.531478 C73.5684446,99.6300647 72.5571679,92.9884743 72.568205,86.9780695 C72.572344,83.0798946 73.1317883,79.211382 73.2697523,75.3194156 C73.3532206,72.9919617 73.0890194,70.6748551 72.9055272,68.3591281 C72.8130913,67.1816048 71.9942745,65.3832431 72.9669212,64.3988695 C74.4486553,62.9012695 77.6887416,64.2305533 79.4884829,64.2381413 C84.2523823,64.2526275 91.5403344,64.0898299 94.3168613,59.4287138 C95.7530673,57.0108934 94.9370098,52.1131689 92.2639559,50.6893796 C89.921326,49.4421844 86.4770529,50.1782228 83.9812829,50.2258204 C79.8223559,50.2948024 75.5054601,50.1602874 71.2554769,50.2506539 C65.5982601,50.3824096 59.930696,50.5127856 54.2714098,50.4127617 C50.8588685,50.3561964 47.4773691,49.9195401 44.0613787,50.2134036 C41.1082577,50.4665677 36.6202865,51.1522491 35.5483056,54.4461413 C35.2151224,55.4677653 35.2792757,56.5790659 35.4406937,57.6255234 C35.5710697,58.5050443 35.8007799,61.021509 36.4478314,61.6299305 C38.4662457,63.521418 42.9045499,63.6214419 45.4817188,63.6807665 C48.422423,63.747679 51.3527799,63.4565749 54.2824469,63.2227257 C55.8179871,63.102697 57.3956062,63.1661605 57.7860446,64.9258922 C58.3379008,67.4147641 57.4383751,70.4306587 57.6487703,73.0209341 C57.9543607,76.9080719 58.6090002,80.7786539 58.8007703,84.6657916 C58.9890913,89.1268599 57.9357356,93.6934707 57.9357356,98.1855808 C57.9357356,103.631713 58.6090002,109.245471 58.0426577,114.667459 C57.5570242,119.344441 56.7216517,123.835861 56.5650625,128.634941 C56.3657044,134.041753 57.5370194,139.31681 57.5873763,144.682922 C57.6184182,147.401504 57.2500541,150.131813 57.2921332,152.822802 C57.3073092,153.961696 57.4142314,155.21234 58.0123056,156.21258 C58.5683008,157.144527 59.5940637,157.699832 60.4673763,158.28342 C60.7929715,158.500024 61.1868589,158.609705 61.5352182,158.780781 C61.8615032,158.942199 62.1677835,159.122932 62.5237308,159.229854 C62.9024422,159.344364 63.3046074,159.394721 63.6998745,159.424383 C63.966835,159.443698 64.5994002,159.576144 64.8332493,159.458874 C64.7863416,159.482328 64.7518505,159.516819 64.7173595,159.547171 C64.8670505,159.424383 65.7017332,159.518889 65.9245451,159.493365 C66.3529236,159.443698 66.7785428,159.362989 67.1965739,159.250549 C68.0188398,159.027047 68.8162721,158.675928 69.5088517,158.16822 C70.0910601,157.741911 70.6498146,157.173499 70.9685116,156.514031 C71.2009811,156.033916 71.3582601,155.507583 71.5652062,155.005394" id="Fill-29" fill="#FFDD00"></path>
                <path d="M138.858355,207.687389 L138.767299,207.663245 L138.709354,207.64462 L138.709354,207.631513 C138.767299,207.637032 138.83973,207.64462 138.9163,207.650828 C138.897675,207.663245 138.87836,207.677041 138.858355,207.687389 M178.216056,208.102661 C176.538412,207.865362 174.577253,208.596572 172.973421,209.002876 C171.253699,209.440222 169.460856,209.619576 167.696295,209.767197 C165.095672,209.983111 162.552305,210.527379 159.968238,210.837109 C157.137905,211.17581 154.319989,210.709492 151.492415,210.603949 C147.93846,210.469434 143.952678,211.017152 140.563591,209.672692 C139.597842,209.285703 139.199126,208.777305 139.41435,207.692907 C139.855145,205.488931 142.076367,205.942833 143.845066,205.87799 C146.139409,205.797971 148.433062,205.867643 150.726714,205.949731 C153.245938,206.038028 155.770681,206.149779 158.294733,206.088385 C162.131514,205.995259 165.762039,205.989741 169.181478,204.005128 C172.176678,202.265401 175.007011,199.65719 176.633608,196.572313 C179.161109,191.780821 179.016937,185.940802 178.729282,180.670574 C178.682374,179.784845 178.533373,178.810819 178.299524,177.956131 C177.782848,176.072232 177.296525,174.226273 176.285248,172.548629 C175.287078,170.89375 174.092309,169.232663 172.578844,168.004783 C172.78579,168.070316 172.965143,168.16827 173.156913,168.288989 C172.291189,167.801976 170.185167,166.427164 169.940281,166.262297 C165.558542,162.783532 158.474087,162.246852 153.112803,161.994378 C148.86144,161.79502 143.718829,162.427585 139.45298,163.036007 C135.412702,163.614076 129.307102,160.698206 125.972511,164.050732 C124.244511,165.785631 123.82441,168.751858 124.866039,170.909616 C126.044942,173.345372 128.644875,174.061406 131.070283,174.664998 C134.497311,175.514857 137.751883,176.285386 141.309977,175.96462 C145.013622,175.631437 148.666911,174.700869 152.404357,174.860217 C155.801723,175.00577 164.249263,175.357578 166.068319,178.744596 C167.148578,180.757492 168.109497,183.226359 167.822532,185.405501 C167.545914,187.530838 167.305857,190.076965 165.800669,191.731844 C164.406542,193.259106 161.587936,193.6661 159.6116,194.041362 C156.938547,194.544241 154.448985,194.783609 151.97115,194.89536 C148.961464,195.028495 145.963505,194.97055 142.673062,194.97055 C138.346508,194.97055 131.571093,195.169219 128.541402,198.81216 C126.294657,201.520395 125.777291,205.479274 125.949747,208.880088 C126.044942,210.739154 126.289828,212.645128 126.949296,214.395202 C127.508051,215.876246 128.89459,217.815331 130.410815,218.446517 C131.858748,219.052179 133.574331,218.876275 135.106422,219.015619 C138.605881,219.339834 142.109478,218.6645 145.606868,218.834886 C148.528947,218.978368 151.523457,219.012859 154.480027,219.012859 C162.690269,219.012859 171.812453,219.853061 179.96613,219.079082 C181.544439,218.258886 181.552027,217.232433 181.858307,215.752768 C182.206666,214.003384 181.903835,212.271935 180.96223,210.760538 C180.574551,210.14039 180.073052,209.772026 179.613632,209.236035 C179.180424,208.724189 178.961751,208.210962 178.216056,208.102661" id="Fill-31" fill="#FFDD00"></path>
                <path d="M126.486082,234.824094 C128.64522,234.766839 130.805047,235.06829 132.962115,234.958609 C136.982389,234.751663 140.949545,235.195907 144.960161,235.187629 C148.770729,235.180041 152.633723,234.746834 156.448429,235.065531 C159.343605,235.310417 162.238781,235.245574 165.137406,235.217981 C168.109842,235.191078 171.107802,235.333871 174.053335,234.855136 C176.293181,234.490911 179.820923,234.019763 181.55858,232.407653 C182.677469,231.365335 183.588032,228.899227 183.370048,227.168468 C183.343145,226.938068 183.293478,226.724913 183.221047,226.525555 C182.654015,224.93207 180.911529,224.782379 179.487739,224.342274 C175.519893,223.117153 171.414082,223.633828 167.340003,223.633828 C164.099917,223.633828 160.825339,223.495864 157.592841,223.596578 C153.56498,223.726264 149.521253,223.737301 145.498911,223.606925 C142.171907,223.500003 138.831797,223.342724 135.504103,223.342724 C132.456477,223.342724 129.415749,223.752477 126.370882,223.561397 C124.853967,223.465512 121.900846,223.189584 121.177224,221.617483 C120.343232,219.817742 120.779888,217.419926 120.901986,215.511193 C121.097205,212.432525 121.709766,209.091035 121.032362,206.042719 C120.507409,203.700779 120.801962,201.214666 120.875773,198.836856 C120.917162,197.410307 120.870944,195.983759 120.837143,194.5579 C120.80955,193.437632 120.966829,192.40773 121.035811,191.33023 C125.459629,190.867361 130.150408,190.992218 134.601129,190.781823 C139.349852,190.556942 144.102024,190.33344 148.853507,190.33344 C152.707533,190.33344 158.7883,191.620645 161.852482,188.558532 C166.938527,183.478695 161.335806,181.013967 158.390274,180.303452 C151.657627,178.674786 139.66372,180.074432 132.86968,180.357258 C129.315725,180.507639 121.400036,181.483735 120.61847,176.54669 C119.883121,171.911787 122.031222,165.159826 117.385972,161.934915 C114.89779,160.213814 111.995026,160.713933 110.079394,163.051045 C108.467284,165.031519 108.861862,168.439921 109.029488,170.794968 C109.355773,175.309842 109.110887,179.837133 108.938432,184.352008 C108.770115,188.739955 109.221258,193.094791 109.152276,197.452386 C109.133651,198.889282 108.992238,200.3179 108.999826,201.755486 C109.010863,204.332654 108.976372,206.904305 108.938432,209.474575 C108.896353,212.135212 108.512812,214.782053 108.512812,217.44338 C108.512812,220.927663 108.512812,224.373315 108.608697,227.874154 C108.681129,230.473397 108.78943,233.07333 108.858412,235.670503 C108.957057,239.837018 108.646638,243.964903 109.237124,248.120381 C109.401991,249.27721 109.513052,250.363677 109.82692,251.455663 C110.550542,253.964539 111.814293,256.76728 113.197383,258.969876 C117.846082,266.384065 128.5652,265.36865 135.986978,265.21206 C138.461363,265.158254 140.880563,265.272765 143.343222,265.479711 C144.652501,265.587323 146.717133,265.364511 147.050317,267.100099 C147.42213,269.05298 145.349909,268.831548 144.109612,269.010901 C142.164319,269.298556 140.218336,269.569656 138.254417,269.577244 C134.233454,269.585521 130.18145,269.63036 126.14876,269.815921 C122.440975,269.97596 118.984286,269.941469 115.371696,270.656812 C111.301066,271.457694 109.566858,274.072803 108.501775,277.646072 C107.858863,279.810729 108.007864,282.192678 108.233435,284.401483 C108.608697,288.067189 107.536717,291.770144 111.886724,293.210489 C114.468032,294.068626 117.734331,293.153234 119.687902,291.329349 C121.204127,289.915907 120.500511,288.841167 120.588118,287.002796 C120.726082,284.180051 120.373584,280.813727 123.988932,280.713703 C124.877421,280.6868 126.179112,280.354307 126.959989,280.924099 C128.316865,281.91675 126.910321,284.531859 126.91515,285.885287 C126.91515,287.500156 126.681301,289.912458 127.519433,291.36384 C128.898384,293.749929 132.7124,293.153234 134.971562,292.956635 C137.916405,292.704161 140.425282,291.831538 141.103375,288.614906 C141.440697,287.009694 141.462772,285.110618 141.194432,283.49092 C140.999902,282.280286 140.528755,280.625406 141.975998,280.032161 C143.018317,279.603783 145.825196,279.994221 146.490872,281.054475 C147.195869,282.180951 146.897177,285.206503 146.820606,286.355744 C146.706096,288.530058 146.889589,291.264506 148.807979,292.651045 C150.343519,293.760966 152.546115,293.911347 154.365172,293.5892 C158.351644,292.884894 159.971342,290.341526 160.052051,286.435763 C160.098959,284.122106 159.983069,281.80155 159.7844,279.496171 C159.596769,277.332204 159.09527,275.137886 159.489157,272.97116 C159.8996,270.723035 159.527097,268.137589 159.010422,265.924645 C158.363371,262.875639 156.954068,260.134293 155.773785,258.433196 C154.089244,256.013996 151.205105,254.592276 148.348559,254.132856 C146.181833,253.783806 144.04408,254.497081 141.880113,254.255644 C139.453325,253.983165 136.929272,254.515706 134.485929,254.515706 C131.441062,254.515706 125.715553,255.170345 123.321876,252.704238 C122.640333,251.999241 122.594805,250.602355 123.655749,250.280209 C124.95744,249.881493 126.596453,250.027735 127.948501,249.904947 C131.464515,249.58349 134.907409,249.897359 138.422044,249.966341 C145.400266,250.107754 152.343308,250.20019 159.202192,251.62122 C159.86442,251.946125 160.577004,252.225502 161.250269,252.566274 C163.881933,253.914872 165.102915,256.165756 165.77687,258.958149 C166.363907,261.435984 166.057627,264.622264 165.827227,265.924645 C165.563026,267.417416 165.9307,269.295107 165.9307,270.822369 C165.9307,272.541402 165.899658,274.261814 165.865857,275.980846 C165.800324,279.354757 165.605105,282.721771 165.934149,286.083265 C166.130058,288.067189 166.241119,290.98168 168.063624,292.222666 C170.426949,293.829948 173.750503,293.773383 176.202125,292.398571 C177.875629,291.463864 179.376678,289.702753 179.376678,287.665023 C179.376678,287.071088 179.33046,286.4468 179.440832,285.87218 C179.721589,284.45115 179.357363,283.349507 179.444971,281.913301 C179.56362,279.970767 179.732626,277.973047 179.647778,276.0043 C179.426345,271.01 179.617426,266.085373 179.166283,261.083486 C178.889665,258.057933 178.464736,255.304171 177.18167,252.546959 C176.378029,250.827926 175.669584,249.038532 174.597603,247.460913 C172.999979,245.121732 169.868194,243.448228 167.324827,242.299677 C165.35263,241.407739 163.445277,240.86761 161.346844,240.423366 C157.746671,239.665253 153.971284,240.059141 150.316616,239.415538 C144.216535,238.340108 138.131629,238.837469 131.98533,238.87196 C130.713301,238.875409 121.26966,239.37001 121.445565,236.930805 C121.583529,235.007586 125.160247,234.858585 126.486082,234.824094" id="Fill-33" fill="#FFDD00"></path>
                <path d="M90.6450855,192.633577 C90.5947286,194.5023 90.3153514,196.138554 89.8862831,197.915531 C89.4158256,199.876691 90.1084053,202.044106 89.9966544,204.052863 C88.9246735,204.093563 87.9258137,203.974914 86.8759071,203.832811 C85.8535933,203.696226 84.7767837,203.972844 83.7661969,203.819014 C83.3688604,198.439795 84.2870113,193.148183 84.4208364,187.788969 C84.4629154,186.033376 84.4284244,184.278473 84.4139382,182.524949 C84.4063502,181.230846 83.9082999,178.472945 84.5022352,177.320945 C85.3562328,175.666066 89.0785035,176.987761 89.7517681,178.662645 C90.2760316,179.953299 90.3374256,181.123234 90.4643526,182.487009 C90.6181825,184.102569 90.9996532,185.552571 90.9168747,187.1702 C90.8244388,188.989256 90.6906137,190.814521 90.6450855,192.633577 M90.1773873,242.951143 C89.6262208,242.995982 84.1759502,242.931139 84.161464,242.663488 C84.0531622,240.767172 84.2711454,238.864648 84.161464,236.960054 C84.042125,234.865759 83.8048268,232.774914 83.8006879,230.673031 C83.7924101,226.544456 84.2104412,222.374492 84.1221442,218.262473 C84.1000699,217.190492 83.6054687,216.397888 83.6558256,215.304523 C85.2182687,215.227263 86.8221011,215.218985 88.3886831,215.222434 C90.3691574,215.225884 89.8442041,217.956193 89.8317873,219.484145 C89.8097131,221.983364 89.5151598,224.472236 89.47584,226.970075 C89.4420388,229.06437 89.8097131,231.13659 90.0359741,233.21157 C90.2574065,235.249299 90.0739143,237.113884 89.9621634,239.136437 C89.8897322,240.415364 90.2305035,241.674286 90.1773873,242.951143 M88.6687502,175.593634 C88.6494352,175.639163 88.6294304,175.670894 88.5997681,175.708145 C88.5804532,175.754363 88.5604484,175.788854 88.5190592,175.826794 C88.5804532,175.761951 88.6370184,175.677103 88.6687502,175.593634 M83.0887933,187.346104 L83.0887933,187.258497 C83.0998304,187.286779 83.1191454,187.302645 83.1301825,187.337136 C83.1191454,187.346104 83.0998304,187.337136 83.0887933,187.346104 M104.14418,251.716691 C104.14418,242.583469 103.217062,233.499225 103.41573,224.357726 C103.53024,219.262712 103.362614,214.255306 103.085996,209.17133 C102.956309,206.79352 103.386068,204.44951 103.389517,202.075838 C103.389517,199.008207 103.163256,195.946094 103.186709,192.876394 C103.201886,190.379244 103.37779,187.920034 103.167394,185.419436 C102.968036,183.041625 102.274767,180.705203 102.1099,178.366023 C101.857426,174.854837 100.394317,171.954832 98.8429107,168.879613 C98.1537801,167.514458 97.1583693,166.631488 95.7345801,166.061697 C93.2181154,165.048351 90.2843095,164.404748 87.5698663,164.35922 C83.2384843,164.28472 79.4424029,165.713337 76.4023646,168.809251 C76.4023646,168.746478 76.4175406,168.685084 76.4472029,168.629208 C75.5325011,170.547599 74.453622,172.005189 73.8824508,174.130526 C73.2843765,176.360025 72.9746472,178.64609 72.4848747,180.896973 C71.9826855,183.179589 71.5115382,185.076595 71.4804963,187.435091 C71.4128939,192.964691 71.1328268,198.481874 71.1362759,204.013543 C71.139725,207.394353 71.485325,210.760676 71.5191262,214.138037 C71.5543071,217.653361 71.293555,221.165237 71.070743,224.676423 C70.7913657,229.045055 71.3121801,233.437831 71.4273801,237.806463 C71.5274041,241.58323 70.8989777,245.324815 70.6196005,249.081577 C70.3278065,252.941122 70.8838017,256.737203 70.8299957,260.593299 C70.7803286,264.20106 70.3126304,267.543929 70.7189346,271.113749 C71.205258,275.131263 72.0020005,279.462645 71.1473131,283.349093 C70.6954807,285.39786 70.2132963,287.69979 70.7382496,289.801673 C71.328046,292.176724 74.1583789,293.995091 76.5713705,292.953462 C78.117258,292.291234 80.1743023,293.103153 81.6953562,292.111191 C82.705943,291.455862 83.2039933,290.08105 83.4868196,288.971129 C84.1676723,286.274621 83.5902927,283.383584 83.7924101,280.642238 C84.1835382,275.345108 83.5054448,270.040389 83.1115574,264.740499 C82.9970472,263.189783 81.7332963,257.839536 83.3874855,256.79032 C85.5928412,255.396882 87.4470783,256.642008 89.829028,256.285371 C90.1539334,259.164681 89.686925,262.2399 89.802125,265.150942 C90.0311454,271.236537 91.2341921,278.029199 89.921464,284.046502 C89.4420388,286.244269 88.8177514,289.066324 90.0628771,291.126818 C90.9354999,292.566473 92.328937,293.084528 93.9106951,293.332173 C95.439337,293.570851 97.3811813,294.15237 98.8932675,293.979915 L98.8429107,294.056485 C100.617129,293.879891 102.670034,293.018305 103.495749,291.107503 C104.216611,289.434688 103.925507,287.50802 103.814446,285.750358 C103.680621,283.517409 103.803409,281.292739 103.886877,279.063239 C103.982762,276.56609 103.469536,274.234497 103.255691,271.76356 C102.673483,265.066784 104.14418,258.414157 104.14418,251.716691" id="Fill-35" fill="#FFDD00"></path>
                <path d="M51.383201,242.663419 C50.8430716,242.847601 50.2994932,242.823458 49.7283219,242.823458 C48.1851938,242.823458 46.8565998,243.053858 46.7144968,241.219625 C46.6234405,239.963463 46.5772225,238.718337 46.5841207,237.462864 C46.5992968,235.164382 46.9407578,232.75208 46.7269135,230.466016 C46.6117135,229.22158 46.4930644,228.015084 46.3171602,226.774097 C46.0564081,224.955731 45.849462,223.255324 45.849462,221.403846 C45.849462,220.669877 45.888092,219.953843 45.9260321,219.227463 C45.9605231,218.517637 46.1522932,217.807812 46.1440153,217.095228 C46.141256,216.566825 45.880504,215.978409 46.3661375,215.582452 C47.1173519,214.971271 48.756365,215.007831 49.6524417,215.176148 C50.6243986,215.35688 51.8964273,215.193393 52.3172177,216.233642 C52.8159578,217.462212 52.569692,219.308171 52.4600105,220.606413 C52.4551818,220.663669 52.4517327,220.720924 52.4475938,220.778869 C52.2792776,222.933177 52.3517087,225.046787 52.2102956,227.190749 C52.0426692,229.681 52.6469519,232.143659 52.57728,234.631841 C52.5289926,236.301896 52.788365,237.964363 52.7773279,239.633728 C52.7690501,240.580162 52.4324177,242.306782 51.383201,242.663419 M45.6121638,187.185997 C45.6356177,183.569958 45.9260321,174.447774 49.6641686,175.727391 C51.4901231,176.353058 52.4400057,180.958298 52.57728,182.591793 C52.792504,185.164133 52.6545399,187.829599 52.3172177,190.383314 C51.7391483,194.772641 52.9877231,199.221982 52.1413135,203.584406 C49.912504,204.124536 46.1440153,204.824013 45.6390668,201.748794 C45.3017447,199.698648 45.914995,197.441556 45.9074069,195.369336 C45.8991291,193.033604 45.5887099,190.713738 45.6073351,188.380766 C45.6121638,188.137949 45.6073351,187.721987 45.6121638,187.185997 M66.5557998,277.10684 C66.4454285,274.242706 66.3074644,271.377882 66.1239722,268.546859 C65.4189758,257.63666 66.8662189,246.634025 66.6985926,235.696234 C66.6482357,232.537546 66.5827028,229.378169 66.5827028,226.214653 C66.5827028,221.598375 66.8317279,216.974509 66.4109375,212.360991 C66.0736153,208.451089 66.4412896,205.395874 66.6406477,201.517704 C66.8317279,197.567103 66.3150525,193.630988 66.4033495,189.694183 C66.5557998,182.849096 64.9292034,174.122869 60.5633303,168.605685 C58.6856393,166.234773 56.6216968,164.816502 53.6416728,164.545403 C51.1189998,164.313623 48.2852177,164.484009 45.7694429,164.766835 C44.6512441,164.891003 43.4675123,165.402849 42.4755507,165.912627 C38.795359,167.807563 36.8569638,171.300124 35.7201399,175.11621 C34.2653087,179.989791 33.5147842,185.077216 33.6099794,190.1674 C33.6906884,194.672617 33.5872153,199.181973 33.6368824,203.687879 C33.6596465,205.936004 33.2995602,208.118595 33.2154022,210.350854 C33.047086,214.954715 33.5023674,219.573063 33.4113111,224.181752 C33.3457782,227.329403 33.142971,230.473604 33.1884992,233.625393 C33.238856,237.068976 33.7327674,240.507041 33.4333854,243.949245 C32.6566477,252.898974 32.9670668,261.930792 32.9670668,270.902595 C32.9670668,273.506667 32.9967291,276.110739 33.1581471,278.710672 C33.296801,280.997427 32.8173758,283.272454 32.7442549,285.55507 C32.5842165,290.579031 37.3060369,296.557015 42.4486477,292.12216 C46.0674453,289.005551 44.2373519,281.567908 44.4436081,277.29792 C44.6312393,273.468727 42.7473399,256.13906 48.4769878,256.192866 C48.7943051,256.197005 52.2371986,256.506734 52.2337495,256.415678 C52.6966189,264.503132 52.1599387,272.714064 52.869074,280.886366 C53.3278046,286.186255 55.4427938,299.900574 64.4380513,293.034102 C66.9855578,291.08398 66.8241399,287.239611 66.7627459,284.371338 C66.712389,281.966624 66.6440968,279.534318 66.5557998,277.10684" id="Fill-37" fill="#FFDD00"></path>
            </g>
        </g>
    </g>
</svg>