<?xml version="1.0" encoding="UTF-8"?>
<svg width="320px" height="320px" viewBox="0 0 320 320" version="1.1" xmlns="http://www.w3.org/2000/svg" xmlns:xlink="http://www.w3.org/1999/xlink">
     
    <title>9C_LOGO</title>
     
    <g id="页面-1" stroke="none" stroke-width="1" fill="none" fill-rule="evenodd">
        <g id="航司LOGO备份-3" transform="translate(-109.000000, -3726.000000)">
            <g id="切图" transform="translate(109.000000, 80.000000)"></g>
            <g id="春秋航空" transform="translate(112.000000, 3739.000000)" fill="#108254">
                <path d="M156.957321,0.498232558 C199.340205,0.498232558 233.659088,34.8305116 233.659088,77.1866047 C233.659088,86.3892093 231.78374,95.8597209 228.809972,104.07107 L187.190623,88.5726512 C188.556949,85.0496744 189.253507,81.2186047 189.253507,77.1866047 C189.253507,59.3172093 174.826716,44.8368372 156.957321,44.8368372 C139.101321,44.8368372 124.620949,59.3172093 124.620949,77.1866047 C124.620949,83.2814884 126.335553,88.9745116 129.322716,93.8370233 C129.376298,93.9709767 129.416484,94.1451163 129.550437,94.3728372 C132.658158,99.0612093 136.475833,103.253953 140.77574,106.77693 C142.316205,108.223628 144.955088,109.63014 148.29053,112.001116 C173.755088,129.897302 206.854995,137.519256 240.196019,139.515163 C241.870437,139.796465 243.209972,139.930419 244.201228,140.050977 C244.777228,140.104558 245.339833,140.144744 245.83546,140.238512 C246.478437,140.305488 247.054437,140.399256 247.643833,140.466233 C248.286809,140.573395 248.809228,140.613581 249.425414,140.747535 C250.014809,140.841302 250.590809,140.894884 251.153414,141.015442 C251.7696,141.149395 252.399181,141.269953 253.001972,141.417302 C253.564577,141.51107 254.140577,141.631628 254.689786,141.752186 C255.292577,141.926326 255.922158,142.073674 256.538344,142.234419 C257.114344,142.421953 257.650158,142.515721 258.199367,142.716651 C258.842344,142.930977 259.485321,143.078326 260.101507,143.306047 C260.623926,143.466791 261.15974,143.64093 261.668763,143.801674 C262.325135,144.016 262.981507,144.283907 263.611088,144.538419 C263.852205,144.618791 264.079926,144.739349 264.334437,144.779535 C264.481786,144.846512 264.64253,144.873302 264.803274,144.953674 C265.298902,145.154605 265.848112,145.34214 266.34374,145.529674 C267.013507,145.837767 267.710065,146.132465 268.379833,146.400372 C268.821879,146.587907 269.263926,146.775442 269.719367,146.976372 C270.509693,147.284465 271.219647,147.699721 271.902809,148.088186 C272.33146,148.235535 272.760112,148.409674 273.148577,148.610605 C274.2336,149.2 275.358809,149.789395 276.457228,150.405581 C277.769972,151.169116 279.01574,151.972837 280.288298,152.789953 C280.623181,153.071256 280.998251,153.298977 281.373321,153.553488 C282.244019,154.129488 283.114716,154.772465 283.945228,155.375256 C284.387274,155.656558 284.695367,155.93786 285.083833,156.245953 C285.967926,156.875535 286.771647,157.585488 287.628949,158.24186 C287.937042,158.509767 288.23174,158.777674 288.526437,159.045581 C289.598065,159.983256 290.642902,160.987907 291.71453,161.992558 C316.214623,185.88986 322.430065,224.213953 304.520484,255.197395 C283.355833,291.927442 236.431926,304.465488 199.742065,283.274047 C191.758437,278.692837 184.725879,272.651535 179.140019,266.007442 L213.311553,237.609302 C215.695926,240.475907 218.575926,242.873674 221.924763,244.869581 C237.396391,253.804279 257.167926,248.499721 266.102623,233.041488 C275.050716,217.556465 269.719367,197.78493 254.261135,188.810047 C248.969972,185.782698 243.196577,184.443163 237.503553,184.603907 C237.302623,184.550326 237.141879,184.523535 236.887367,184.550326 C231.274716,184.898605 225.769228,186.104186 220.518251,188.086698 C218.575926,188.662698 215.977228,190.189767 212.280112,191.944558 C178.831926,208.072558 160.895553,229.920372 142.50374,257.796093 C141.391926,259.108837 140.588205,260.19386 140.038995,260.970791 C139.704112,261.426233 139.382623,261.881674 139.020949,262.323721 C138.726251,262.819349 138.310995,263.288186 137.949321,263.757023 C137.560856,264.212465 137.199181,264.694698 136.837507,265.203721 C136.475833,265.632372 136.100763,266.087814 135.712298,266.489674 C135.310437,266.998698 134.895181,267.45414 134.43974,267.896186 C134.078065,268.365023 133.676205,268.766884 133.301135,269.18214 C132.832298,269.650977 132.376856,270.106419 131.934809,270.575256 C131.55974,270.977116 131.131088,271.365581 130.715833,271.754047 C130.260391,272.236279 129.778158,272.678326 129.28253,273.133767 C128.840484,273.468651 128.438623,273.883907 127.996577,274.218791 C127.795647,274.446512 127.567926,274.620651 127.313414,274.821581 C127.273228,274.861767 127.233042,274.915349 127.206251,274.94214 C126.710623,275.397581 126.161414,275.799442 125.638995,276.281674 C125.183553,276.576372 124.795088,276.991628 124.393228,277.313116 C123.763647,277.795349 123.201042,278.197209 122.625042,278.652651 C122.223181,278.907163 121.821321,279.242047 121.432856,279.509953 C120.749693,280.005581 120.012949,280.461023 119.356577,280.943256 C119.021693,281.184372 118.646623,281.425488 118.298344,281.626419 C117.240112,282.322977 116.195274,283.00614 115.070065,283.635721 C113.757321,284.38586 112.431181,285.069023 111.131833,285.725395 C110.743367,285.953116 110.328112,286.11386 109.886065,286.341581 C108.934995,286.770233 107.983926,287.198884 107.006065,287.64093 C106.564019,287.81507 106.162158,288.016 105.679926,288.19014 C104.742251,288.618791 103.670623,289.007256 102.652577,289.34214 C102.317693,289.476093 101.956019,289.610047 101.554158,289.784186 C100.201228,290.226233 98.821507,290.654884 97.4685767,291.029953 L97.4283907,291.043349 C64.5160186,300.326326 28.2146233,286.542512 10.2782512,255.532279 C-10.8730047,218.869209 1.66504186,171.918512 38.3549023,150.740465 C46.3251349,146.132465 54.7508093,143.06493 63.3104372,141.551256 L70.6109023,185.434419 C67.1549023,186.104186 63.7658791,187.336558 60.5376,189.158326 C45.0525767,198.133209 39.7748093,217.877953 48.7229023,233.389767 C57.6040186,248.807814 77.4559256,254.152558 92.9141581,245.19107 C98.1919256,242.123535 102.237321,237.796837 104.943181,232.786977 C105.09053,232.666419 105.197693,232.505674 105.331647,232.31814 C107.796391,227.254698 109.189507,221.534884 110.046809,215.975814 C110.354902,213.926326 110.622809,211.260651 111.05146,207.20186 C113.596577,182.916093 109.524391,149.360744 89.1500651,113.86307 C83.7383442,102.557395 82.1710884,94.3192558 82.0237395,93.6494884 C81.889786,93.1404651 81.809414,92.6046512 81.7424372,92.0286512 C81.5549023,91.3454884 81.4477395,90.6623256 81.313786,89.9925581 C81.2468093,89.4567442 81.1530419,88.9477209 81.0726698,88.4386977 C80.965507,87.6885581 80.8717395,86.951814 80.7913674,86.2284651 C80.7109953,85.7060465 80.6708093,85.2372093 80.6306233,84.7013953 C80.5234605,83.9378605 80.4698791,83.0537674 80.4430884,82.2232558 C80.4029023,81.8213953 80.3493209,81.3793488 80.3359256,80.9908837 C80.2689488,79.7183256 80.2555535,78.4725581 80.2555535,77.1866047 C80.2555535,75.7131163 80.3091349,74.1726512 80.4029023,72.6857674 C80.4029023,72.2437209 80.4564837,71.8150698 80.4698791,71.3462326 C80.5368558,70.3013953 80.6708093,69.2431628 80.7913674,68.1715349 C80.8449488,67.7026977 80.8717395,67.2204651 80.965507,66.7784186 C81.0726698,65.6666047 81.2602047,64.6217674 81.4611349,63.6037209 C81.5147163,63.2286512 81.6218791,62.8133953 81.6754605,62.4115349 C81.9433674,61.0184186 82.2648558,59.6253023 82.6265302,58.2187907 L82.6265302,58.1786047 C91.0789953,25.0117209 121.124763,0.498232558 156.957321,0.498232558" id="Fill-20"></path>
            </g>
        </g>
    </g>
</svg>