<?xml version="1.0" encoding="UTF-8"?>
<svg width="320px" height="320px" viewBox="0 0 320 320" version="1.1" xmlns="http://www.w3.org/2000/svg" xmlns:xlink="http://www.w3.org/1999/xlink">
     
    <title>9D_LOGO</title>
     
    <g id="页面-1" stroke="none" stroke-width="1" fill="none" fill-rule="evenodd">
        <g id="航司LOGO备份-3" transform="translate(-1167.000000, -7877.000000)">
            <g id="切图" transform="translate(109.000000, 80.000000)"></g>
            <g id="天骄航空横版" transform="translate(1167.000000, 7884.000000)">
                <path d="M235.644181,23.1967111 C235.644181,23.1967111 195.667686,31.8429947 169.473301,82.8535547 C143.295672,133.872493 156.918595,144.8521 140.568574,174.280464 C124.189228,203.687882 98.5394244,194.974573 71.8088353,209.163024 C45.065679,223.343097 36.8801953,235.90618 39.0669008,257.186762 C41.2661735,278.471533 79.4497372,291.549875 107.286246,283.904784 C135.097621,276.276449 173.30213,248.230486 180.926275,185.038049 C188.571366,121.85818 182.300297,73.4867475 235.644181,23.1967111" id="Fill-247" fill="#FFF23F"></path>
                <path d="M232.324745,25.1010718 C228.311596,26.44577 221.190142,29.2985409 212.795203,34.7150355 C200.801836,42.43553 183.706156,57.1476173 170.292687,83.2707882 C155.819378,111.446614 153.586592,127.08449 151.638665,140.933625 C150.080323,151.946745 148.718869,161.493683 141.350258,174.710265 C130.684832,193.904679 115.834505,197.247574 100.096091,200.778977 C91.0979233,202.806497 81.7562506,204.91361 72.2260688,209.969843 C46.2578942,223.747763 37.8210652,236.076257 39.9616906,257.084548 C40.761807,264.779908 46.6516688,271.943254 56.5798142,277.271777 C65.9968906,282.302875 78.2164688,285.193348 90.0799742,285.193348 L90.0967306,285.193348 C96.0955088,285.193348 101.809429,284.472825 107.041603,283.052723 C137.605211,274.661974 172.835465,244.479574 180.028134,184.923268 C181.372832,173.85569 182.273487,163.261479 183.165763,152.994017 C185.201662,129.174846 187.137022,106.662672 194.040643,85.3192537 C201.38412,62.6730282 213.574374,43.4451009 232.324745,25.1010718 M90.0967306,287.02817 L90.0799742,287.02817 C77.9190433,287.02817 65.4020397,284.058105 55.7252397,278.867821 C45.2441342,273.246061 39.0233342,265.584214 38.1645706,257.264679 C35.9150288,235.355734 44.5990142,222.56225 71.3882506,208.352854 C81.1153197,203.20865 90.5659088,201.068025 99.7023161,199.019559 C115.687887,195.412752 129.49932,192.312825 139.762592,173.834745 C146.980396,160.898832 148.295771,151.515268 149.841545,140.673901 C151.818796,126.703283 154.064149,110.889465 168.658942,82.4371591 C182.298622,55.9118355 199.67916,40.9819155 211.881982,33.1315591 C225.132076,24.60257 235.02252,22.3949191 235.445618,22.2901918 C235.839392,22.2189773 236.254112,22.4032973 236.442622,22.7677482 C236.631131,23.1363882 236.559916,23.5762427 236.270869,23.8485337 C192.528382,65.0733773 189.03468,105.896068 184.975451,153.149014 C184.083174,163.429043 183.174142,174.060955 181.8462,185.157857 C178.373443,213.861508 168.453676,237.655545 152.363378,255.907414 C135.58188,274.917508 117.053531,282.185581 107.51916,284.803763 C102.119422,286.274134 96.2546942,287.02817 90.0967306,287.02817" id="Fill-249" fill="#231916"></path>
                <path d="M61.7889488,214.982509 C61.7889488,214.982509 43.3234361,211.5684 32.6538215,218.120138 C21.9758288,224.663498 15.4282797,237.268473 16.408527,244.79208 C17.3720179,252.315687 23.2618797,266.537651 45.5436542,270.219862 C45.5436542,270.219862 19.6131815,243.832778 61.7889488,214.982509" id="Fill-251" fill="#1E2087"></path>
                <path d="M50.857935,214.982509 C43.4055422,214.982509 37.2685241,216.331396 33.1213241,218.882553 C22.6653532,225.296051 16.3859059,237.616167 17.2865604,244.674785 C17.8939786,249.278596 21.5217313,264.250407 43.2002768,268.854218 C40.5779059,265.373083 35.8777459,257.623265 36.8663713,247.406073 C37.9681022,236.187687 45.5377895,225.455236 59.3953022,215.535469 C57.4264295,215.296691 54.3390695,214.982509 50.857935,214.982509 M45.5419786,271.133083 C45.4917095,271.133083 45.4414404,271.133083 45.3702259,271.116327 C35.3918113,269.465825 27.6252368,265.569971 22.3134695,259.554436 C17.2739932,253.882407 15.8790259,247.929709 15.4978186,244.896807 C14.4882477,237.159556 20.952015,224.206887 32.1662113,217.336778 C36.6694841,214.580356 42.9573095,213.160254 50.857935,213.160254 C56.986575,213.160254 61.7453822,214.048342 61.9422695,214.069287 C62.3067204,214.144691 62.5957677,214.429549 62.6711713,214.785622 C62.746575,215.145883 62.5957677,215.514523 62.285775,215.7156 C47.7035495,225.702393 39.7736004,236.413898 38.6760586,247.569447 C37.4402768,260.496982 46.0991277,269.482582 46.1829095,269.574742 C46.4677677,269.847033 46.5222259,270.286887 46.3462841,270.638771 C46.1829095,270.936196 45.881295,271.133083 45.5419786,271.133083" id="Fill-253" fill="#200506"></path>
                <path d="M16.9748921,238.572955 C16.9748921,238.572955 -2.26979157,252.317363 1.35796116,272.667966 C4.99828116,293.039515 40.0023248,298.619385 67.1308775,282.629625 C67.1308775,282.629625 50.4415393,277.565014 45.540303,270.217348 C45.540303,270.217348 12.7606666,264.428025 16.9748921,238.572955" id="Fill-255" fill="#00A1A7"></path>
                <path d="M15.8090681,240.688027 C11.2639044,244.596449 -0.591222844,256.547926 2.26154807,272.512551 C4.25974443,283.743504 16.6008062,290.99482 33.6881081,290.99482 C44.2990753,290.99482 55.295439,288.095969 64.8884572,282.842849 C60.3391044,281.276129 49.2338244,276.961366 45.0028426,271.04218 C43.2769372,270.690297 36.0968353,269.073307 29.1932135,264.86746 C19.5583044,258.973409 14.9544935,250.649686 15.8090681,240.688027 M33.6881081,292.817075 L33.6881081,292.817075 C15.6750172,292.817075 2.63018807,284.979286 0.464428065,272.843489 C-1.0729683,264.251664 1.22684261,255.500653 7.06224625,247.440842 C11.4691699,241.429497 16.2531117,237.95674 16.4416208,237.826878 L18.2303626,236.553395 L17.8742899,238.706587 C16.2070317,249.028507 20.3123408,257.281017 30.1022462,263.288173 C37.5462608,267.841715 45.6270172,269.312086 45.7066099,269.320464 L46.0836281,269.370733 L46.3056499,269.70586 C50.9597299,276.71002 67.2259699,281.707606 67.3893444,281.749497 L69.3791626,282.356915 L67.5862317,283.39162 C57.3187699,289.47418 45.2877008,292.817075 33.6881081,292.817075" id="Fill-257" fill="#231916"></path>
                <path d="M67.1317153,282.630043 C67.1317153,282.630043 100.648632,295.45704 134.069199,271.093287 C134.069199,271.093287 153.60293,267.754582 165.135497,262.191469 C165.135497,262.191469 148.274406,296.10216 108.746144,304.082378 C69.2262608,312.096109 39.6470899,291.728749 39.6470899,291.728749 C39.6470899,291.728749 50.2119772,292.076443 67.1317153,282.630043" id="Fill-259" fill="#FFF23F"></path>
                <path d="M42.5308601,292.448016 C48.7516601,296.033878 66.6600237,305.05299 90.1692019,305.05299 L90.1817692,305.05299 C96.3355437,305.05299 102.535398,304.40787 108.571878,303.201412 C128.729784,299.125427 142.817696,288.091361 151.057638,279.553994 C157.190467,273.236845 161.107267,267.317659 162.971413,264.150707 C151.975049,268.783841 136.517304,271.577965 134.431136,271.942416 C120.745376,281.870561 105.471951,286.905849 89.0507146,286.905849 C77.3380164,286.905849 69.1064528,284.287667 67.2213619,283.609034 C55.5128528,290.085369 46.7702201,291.924379 42.5308601,292.448016 L42.5308601,292.448016 Z M90.1692019,306.866867 C60.3721982,306.866867 39.3387728,292.615579 39.116751,292.481529 C38.7816237,292.24275 38.6475728,291.819652 38.7523001,291.442634 C38.9072964,291.057238 39.2717473,290.797514 39.6655219,290.81427 L39.7870055,290.81427 C40.8845473,290.81427 51.0305255,290.575492 66.6767801,281.841238 C66.9281255,281.694619 67.2004164,281.682052 67.4643292,281.786779 C67.5355437,281.807725 76.2949328,285.083594 89.0507146,285.083594 C105.161958,285.083594 120.12958,280.140467 133.534671,270.358939 C133.651966,270.266779 133.777638,270.21651 133.920067,270.191376 C134.116955,270.157863 153.44542,266.810779 164.739209,261.360772 C165.070147,261.197398 165.497435,261.272801 165.782293,261.540903 C166.054584,261.825761 166.104853,262.232103 165.945667,262.604932 C165.761347,262.956816 161.5555,271.297296 152.410715,280.764641 C143.973886,289.511463 129.588547,300.81363 108.93214,304.977587 C102.769987,306.246881 96.4654055,306.866867 90.1817692,306.866867 L90.1692019,306.866867 Z" id="Fill-261" fill="#231916"></path>
                <path d="M163.74053,238.611914 C163.74053,238.611914 197.810406,224.084147 206.527904,180.052612 C215.266348,136.025267 214.906086,91.8219795 243.634872,58.2715504 C272.384603,24.708554 300.028414,8.38785584 318.573519,0.901950381 C318.573519,0.901950381 233.706726,4.28254674 198.11621,76.6993613 C198.11621,76.6993613 187.957664,104.192365 184.070188,153.05811 C180.434057,198.962169 158.143904,200.61267 163.74053,238.611914" id="Fill-263" fill="#00A1A7"></path>
                <path d="M198.946907,77.0680013 C198.507052,78.2954049 188.729714,105.863812 184.976288,153.133514 C183.246194,174.837194 177.41079,186.69651 172.258208,197.165049 C166.716041,208.416947 161.915343,218.164961 164.458121,237.254649 C167.034412,235.968598 173.875198,232.185849 181.289888,225.123041 C189.948739,216.87891 201.179692,202.359521 205.649452,179.87667 C207.635081,169.797718 209.176667,159.634983 210.655416,149.778052 C215.787052,115.833849 220.621263,83.7496013 242.940739,57.6599431 C269.658761,26.4721613 294.994383,10.4530777 312.982339,2.30110674 C305.002121,3.23527402 289.452216,5.76129584 271.958572,12.5057322 C248.717496,21.4787649 217.194587,39.9652231 198.946907,77.0680013 M163.741787,239.512569 C163.578412,239.512569 163.427605,239.474867 163.289365,239.407841 C163.038019,239.257034 162.874645,239.030823 162.832754,238.745965 C159.820798,218.290634 164.822572,208.111143 170.624463,196.352365 C175.70583,186.043012 181.474208,174.342881 183.162412,152.995274 C187.003808,104.556816 197.145598,76.6700377 197.254514,76.3893686 C197.262892,76.3432886 197.283838,76.3390995 197.283838,76.2972086 C205.465132,59.6665177 216.934863,45.3021249 231.378848,33.6061831 C242.928172,24.2603213 256.370965,16.5649613 271.363721,10.8007722 C296.871096,0.960597654 318.335998,0.018052199 318.549641,0.000621962555 C318.989496,-0.0154605282 319.362325,0.281964926 319.467052,0.705063108 C319.563401,1.13653947 319.328812,1.5847722 318.914092,1.76490311 C301.001539,8.97432856 273.529481,24.7672013 244.331518,58.8705904 C222.334601,84.5245831 217.529714,116.353296 212.452536,150.050343 C210.969598,159.907274 209.428012,170.128656 207.425627,180.236932 C202.876274,203.222474 191.343707,218.081179 182.483779,226.50963 C172.874005,235.650227 164.437176,239.290547 164.081103,239.441354 C163.972187,239.491623 163.854892,239.512569 163.741787,239.512569" id="Fill-265" fill="#231916"></path>
                <path d="M220.845379,102.384353 C220.845379,102.384353 227.187663,75.8715969 267.180914,62.5838006 C267.180914,62.5838006 243.060128,94.5549424 239.788448,135.285473 C236.529336,176.007626 228.972216,194.954884 220.845379,211.317473 C212.701787,227.696819 189.288958,261.737371 134.068361,271.091611 C134.131198,269.516513 144.57879,268.439917 163.739692,238.61359 C163.739692,238.61359 190.570819,226.779408 201.835285,196.148775 C201.835285,196.148775 206.346936,183.945953 209.832259,161.182433 C213.325961,138.431481 214.938761,119.052746 220.845379,102.384353" id="Fill-267" fill="#1E2087"></path>
                <path d="M164.358002,239.307303 C151.413711,259.435885 142.394598,266.511259 137.87038,269.485514 C190.841435,259.075623 212.922133,225.236147 220.035209,210.917834 C227.755704,195.376307 235.551602,176.747419 238.886118,135.216772 C240.586889,114.019972 247.989013,95.2737904 253.924955,83.2636667 C258.315122,74.3199577 262.567049,67.6634922 264.82078,64.3666777 C246.078787,71.1278704 235.480387,80.8298049 229.79998,87.9386922 C223.373915,95.994314 221.73598,102.520918 221.727602,102.583754 C221.715035,102.621456 221.710846,102.638212 221.706656,102.680103 C217.190816,115.414939 215.200998,129.615958 212.922133,146.074896 C212.247689,150.98451 211.539733,156.049121 210.731238,161.327376 C207.26686,183.914954 202.738453,196.318852 202.688184,196.457092 C196.789944,212.484554 186.627209,223.288219 179.141304,229.55091 C171.802016,235.704685 165.669187,238.708263 164.358002,239.307303 M134.066686,272.003158 C133.840475,272.003158 133.639398,271.927754 133.467646,271.764379 C133.270758,271.580059 133.145086,271.320336 133.178598,271.039667 C133.191166,270.218605 133.911689,269.774561 135.201929,268.99539 C138.754278,266.833819 148.225813,261.082198 162.963035,238.117601 C163.071951,237.954227 163.193435,237.84531 163.365187,237.774096 C163.440591,237.744772 170.076111,234.770518 178.022816,228.118241 C185.320213,222.014736 195.244169,211.437281 200.966467,195.824539 C201.012547,195.703056 205.499064,183.420641 208.946686,161.046707 C209.725856,155.793587 210.450569,150.724787 211.116635,145.836118 C213.420635,129.289209 215.402075,115.012787 219.963995,102.114576 C220.131558,101.427565 221.895166,94.9637977 228.296096,86.9081758 C234.391224,79.2379504 246.036896,68.6479286 266.919515,61.7275504 C267.288155,61.5767431 267.711253,61.7275504 267.937464,62.0501104 C268.163675,62.3894267 268.159486,62.8209031 267.920707,63.1225177 C267.686118,63.4492667 243.908838,95.3659504 240.695806,135.350823 C237.331966,177.229165 229.456475,196.042372 221.668955,211.734707 C217.446351,220.200859 209.533158,232.751376 195.713347,244.52691 C179.116169,258.656714 158.438816,267.881092 134.225871,271.982212 C134.171413,271.982212 134.116955,272.003158 134.066686,272.003158" id="Fill-269" fill="#200506"></path>
                <path d="M173.791835,217.136539 C169.393289,250.44819 142.675267,275.494765 111.69694,283.521063 C96.808911,287.375027 80.9155001,287.270299 66.0484164,282.260147 C20.2784092,266.856859 34.3872673,217.882198 86.2691582,203.312539 L114.419849,196.124059 C114.419849,196.124059 106.954889,213.67635 94.7897692,216.386692 C82.6078928,219.080278 65.5331582,233.633179 70.5600673,243.456598 C75.566031,253.271638 90.5336528,258.265034 106.284635,250.611565 C122.027238,242.949718 128.553842,244.055638 146.48734,214.070125 C146.48734,214.070125 157.575864,130.242227 207.794686,104.056219 C207.794686,104.056219 182.052722,154.656249 173.791835,217.136539" id="Fill-271" fill="#E5002D"></path>
                <path d="M112.769766,197.463312 L86.4874099,204.211937 C72.437199,208.16225 60.4689662,214.839661 51.931599,223.578105 C44.0477299,231.612781 39.5654026,240.996345 39.3391917,249.969377 C38.983119,264.053101 48.8191044,275.510265 66.3336935,281.404315 C74.0458099,284.00993 82.2145372,285.321115 90.6010972,285.321115 C97.5466099,285.321115 104.571715,284.416272 111.479526,282.631719 C144.146057,274.182323 168.819803,247.824563 172.891599,217.026366 C180.025621,163.00385 200.451628,117.342759 205.717315,106.229101 C181.558828,120.136883 167.102275,147.927312 159.180704,169.17857 C150.257941,193.022875 147.417737,213.997654 147.396792,214.207108 C147.363279,214.33697 147.317199,214.445886 147.26693,214.558992 C131.939046,240.179472 124.926508,243.266832 113.310159,248.381712 C111.244937,249.307501 109.074988,250.262614 106.683017,251.418803 C101.46341,253.974148 96.1725881,255.243443 90.9236572,255.243443 C81.4479335,255.243443 73.3252862,250.882599 69.7310462,243.865872 C68.2983772,241.050803 68.428239,237.628315 70.1164426,234.034075 C73.8698681,226.095748 85.0589299,217.612839 94.5765444,215.505726 C103.943352,213.423748 110.557926,201.886992 112.769766,197.463312 M90.6010972,287.14337 C82.0302172,287.14337 73.6562244,285.798672 65.7472208,283.130221 C47.4450826,276.968068 37.1482972,264.865785 37.5295044,249.914919 C37.7808499,240.502032 42.4265517,230.674425 50.6204135,222.300432 C59.396559,213.360912 71.6287044,206.474046 86.0224208,202.435763 L114.194057,195.234715 C114.524995,195.150934 114.893635,195.268228 115.094712,195.523763 C115.325112,195.775108 115.396326,196.152126 115.266464,196.478875 C114.952283,197.199399 107.457999,214.508723 94.9828862,217.269334 C86.0978244,219.229828 75.2522681,227.427879 71.7669444,234.821625 C70.3007626,237.955065 70.1709008,240.724054 71.3647917,243.028054 C74.6448499,249.454119 82.1391335,253.442134 90.9236572,253.442134 C95.8961081,253.442134 100.923017,252.210541 105.895468,249.785057 C108.312574,248.616301 110.478334,247.636054 112.589635,246.718643 C123.833155,241.75457 130.63205,238.763559 145.616428,213.775632 C145.913854,211.61825 148.921621,191.426832 157.467366,168.554395 C162.728864,154.445537 169.075337,142.041639 176.276384,131.76161 C185.320632,118.880155 195.780792,109.295515 207.359439,103.233901 C207.707134,103.070526 208.134421,103.124985 208.406712,103.418221 C208.708326,103.673755 208.766974,104.101043 208.59941,104.469683 C208.327119,104.980752 182.844879,155.656185 174.697097,217.269334 C172.573228,233.330308 165.200428,248.276985 153.362057,260.446294 C142.307046,271.848999 127.582392,280.336097 111.92357,284.386948 C104.877519,286.22177 97.7057953,287.14337 90.6010972,287.14337" id="Fill-273" fill="#231916"></path>
                <path d="M75.6347321,251.358899 C75.6347321,251.358899 56.9304412,237.434361 82.4001139,218.290215 C107.857219,199.125124 127.85175,196.720586 131.311939,163.739873 C137.088696,108.347524 169.311183,84.5744333 185.514587,78.9233497 C181.16631,86.2291242 152.651168,106.856208 155.424347,170.785924 C156.932419,206.259146 141.734398,228.008906 129.14199,240.123757 C111.610645,256.980659 92.7136557,262.187699 75.6347321,251.358899" id="Fill-275" fill="#FEFEFE"></path>
                <path d="M76.1684222,250.612403 C81.9284222,254.248534 88.0654404,256.100112 94.3700222,256.100112 C105.383142,256.100112 117.171244,250.365246 128.494357,239.47361 C141.178924,227.274977 155.999928,205.470759 154.504422,170.826977 C153.494851,147.49793 156.561266,127.147326 163.628262,110.382585 C169.501368,96.4371009 176.844844,87.9206791 181.24339,82.8351227 C181.825673,82.1397337 182.378633,81.5155591 182.864568,80.9374646 C165.24944,88.5825555 137.505091,113.206032 132.218459,163.831195 C129.575142,189.15425 117.389077,196.719748 100.523797,207.251123 C95.2162186,210.552126 89.1881168,214.309741 82.9421822,219.005712 C74.2833313,225.528126 69.9182986,232.050541 69.9224847,238.430526 C69.9518113,245.665086 75.7578913,250.281465 76.1684222,250.612403 M94.3700222,257.926555 C87.6968004,257.926555 81.2372222,255.978628 75.1672295,252.120475 C75.1379059,252.103719 75.1211495,252.086963 75.1127713,252.086963 C74.8279132,251.864941 68.1337459,246.80033 68.1210763,238.430526 C68.0960441,231.434745 72.7040441,224.426395 81.8613968,217.556286 C88.1534113,212.797479 94.2150259,209.01473 99.5854404,205.688592 C115.998299,195.450454 127.849237,188.073465 130.408771,163.634308 C136.0808,109.201261 167.528306,84.2342791 185.20627,78.0595591 C185.57072,77.9296973 185.964495,78.0428027 186.211651,78.3486064 C186.458808,78.6460318 186.49651,79.0649409 186.287055,79.3833118 C185.579099,80.5939591 184.272102,82.0978427 182.617411,84.0290137 C174.059099,93.9194573 153.997542,117.152155 156.322488,170.751574 C156.992742,186.799981 154.336859,201.54977 148.400917,214.602977 C143.943724,224.355181 137.685222,233.173217 129.755273,240.780606 C118.084466,251.990614 105.864888,257.926555 94.3700222,257.926555" id="Fill-277" fill="#231916"></path>
                <path d="M179.512876,82.3801875 C179.512876,82.3801875 183.149007,80.4615838 179.965298,84.4747329 C176.785778,88.4711257 181.691203,84.1521729 181.691203,84.1521729 L184.01196,80.4615838 L184.01196,79.6907911 L181.452425,80.2437511 L179.512876,82.3801875 Z" id="Fill-279" fill="#231916"></path>
                <path d="M203.931506,107.270928 C203.931506,107.270928 205.699302,106.374462 204.957833,107.823888 C204.957833,107.823888 205.447957,108.23023 205.456335,108.192528 C205.464713,108.142259 206.201993,106.734724 206.453339,106.521081 C206.67536,106.299059 206.792655,105.239219 206.792655,105.239219 L206.662793,104.992062 L203.424626,106.70959 L203.931506,107.270928 Z" id="Fill-283" fill="#231916"></path>
                <path d="M189.903916,114.223562 C189.903916,114.223562 189.765676,115.781904 190.967945,114.73882 C192.178592,113.716682 190.444309,116.041627 190.444309,116.041627 C190.444309,116.041627 189.815945,116.594587 189.464062,116.653235 C189.087043,116.716071 188.856643,116.979984 188.534083,116.795664 C188.203145,116.594587 188.144498,114.87706 188.144498,114.87706 L189.903916,114.223562 Z" id="Fill-285" fill="#231916"></path>
                <path d="M227.047328,87.2462355 C227.047328,87.2462355 226.795983,88.5490427 227.818121,87.5185264 C228.831881,86.5047664 227.273539,88.7417409 227.273539,88.7417409 C227.273539,88.7417409 227.080841,89.6423955 226.942601,89.7890137 C226.787605,89.9356318 225.606281,91.1923591 225.413583,91.2007373 C225.204128,91.2258718 225.044943,90.7022355 225.158048,90.4131882 C225.266965,90.1073846 227.047328,87.2462355 227.047328,87.2462355" id="Fill-287" fill="#231916"></path>
                <path d="M156.135654,167.970017 C156.135654,167.970017 156.412134,170.621712 157.689807,167.970017 C158.954912,165.314134 157.191305,171.987355 157.191305,171.987355 L155.725123,174.77729 C155.725123,174.77729 156.039305,175.811995 155.272702,174.77729 C154.501909,173.730017 154.857982,170.868868 154.962709,170.550497 C155.046491,170.227937 156.135654,167.970017 156.135654,167.970017" id="Fill-291" fill="#231916"></path>
                <path d="M171.384364,231.223614 C171.384364,231.223614 170.66384,233.636531 172.720684,232.254131 C174.785906,230.863353 171.983404,233.837607 171.983404,233.837607 L169.934939,235.173927 L169.449004,235.173927 L169.449004,233.196676 L171.384364,231.223614 Z" id="Fill-293" fill="#231916"></path>
                <path d="M148.381228,265.147291 C148.381228,265.147291 145.737912,267.719393 149.864166,266.600906 C153.986232,265.461473 148.523657,267.857633 148.523657,267.857633 C148.523657,267.857633 145.461432,268.724775 145.373461,268.74991 C145.277112,268.758288 143.467424,269.126928 143.467424,269.126928 C143.467424,269.126928 143.676879,267.857633 143.76485,267.815742 C143.836064,267.757095 146.739104,266.228077 146.739104,266.228077 L148.381228,265.147291 Z" id="Fill-295" fill="#231916"></path>
                <path d="M56.3682652,215.283286 C56.3682652,215.283286 58.3078142,215.149235 56.9086579,216.615417 C55.5220688,218.064842 57.7590433,217.537017 57.7590433,217.537017 L60.9930215,214.839242 L57.2144615,213.69562 L56.3682652,215.283286 Z" id="Fill-297" fill="#231916"></path>
                <path d="M41.7516892,266.68762 C41.7516892,266.68762 42.9078782,268.572711 40.2938855,267.843809 C37.6924601,267.110718 40.6960382,268.962297 40.6960382,268.962297 L45.5428164,270.219024 L42.6858564,266.68762 L41.7516892,266.68762 Z" id="Fill-299" fill="#231916"></path>
                <path d="M62.8626128,282.139082 C62.8626128,282.139082 64.9110782,282.767446 63.2815219,283.634587 C61.6477764,284.501729 63.9224528,285.008609 63.9224528,285.008609 L66.2725328,283.098384 L66.004431,282.503533 C66.004431,282.503533 64.2115001,281.628013 63.9852892,281.540042 C63.7548892,281.464638 62.8626128,282.139082 62.8626128,282.139082" id="Fill-301" fill="#231916"></path>
                <path d="M161.14078,264.74849 C161.14078,264.74849 162.841551,264.388228 162.049813,265.774817 C161.266453,267.165595 162.644664,267.111137 162.644664,267.111137 L164.106656,264.698221 L164.106656,263.035152 L161.14078,264.74849 Z" id="Fill-303" fill="#231916"></path>
                <path d="M44.0117037,292.180333 C44.0117037,292.180333 42.6376819,292.490326 43.7352237,293.185715 C44.8160092,293.885293 43.3037473,293.952318 43.3037473,293.952318 L41.0877182,292.180333 L42.1936382,291.564537 C42.1936382,291.564537 43.6849546,291.367649 43.8273837,291.350893 C43.9572455,291.329947 44.0117037,292.180333 44.0117037,292.180333" id="Fill-305" fill="#231916"></path>
                <path d="M104.876262,169.178989 C103.405891,174.838451 92.7697895,220.407382 87.4286986,239.409098 C94.173135,243.761563 102.94928,241.260676 108.231724,238.944109 C113.40944,236.698756 117.171244,231.223614 119.642808,226.079411 L119.642808,226.050087 C114.301717,207.069316 106.355011,174.838451 104.876262,169.178989" id="Fill-307" fill="#D4BC69"></path>
                <path d="M88.4881197,238.983905 C90.6580688,240.249011 93.2259815,240.885753 96.1248324,240.885753 C100.586214,240.885753 104.976382,239.369302 107.862665,238.116763 C112.944032,235.909113 116.534083,230.362756 118.691465,226.001913 C114.535887,211.201854 108.90156,188.790218 105.851902,176.704691 C105.474883,175.242698 105.177458,173.99016 104.900978,172.921942 C104.352207,175.112836 103.627494,178.158305 102.764542,181.748356 C98.8519306,198.002029 92.3923524,225.00072 88.4881197,238.983905 M96.1248324,242.712196 L96.1248324,242.712196 C92.6227524,242.712196 89.5312033,241.861811 86.9255888,240.169418 C86.5946506,239.959963 86.4480324,239.545243 86.5527597,239.151469 C90.4109124,225.402873 97.0464324,197.81352 100.992556,181.346203 C102.509007,175.045811 103.585603,170.513214 104.004512,168.933927 C104.105051,168.527585 104.469502,168.267862 104.875843,168.267862 C105.290563,168.267862 105.663392,168.527585 105.755552,168.933927 C106.086491,170.199033 106.727422,172.741811 107.619698,176.235513 C110.673545,188.429956 116.379087,211.063614 120.526287,225.825971 C120.543043,225.897185 120.551422,225.989345 120.551422,226.052182 C120.551422,226.194611 120.526287,226.362174 120.463451,226.483658 C118.192963,231.162873 114.313865,237.287323 108.587378,239.771454 C105.558665,241.12872 100.900396,242.712196 96.1248324,242.712196" id="Fill-309" fill="#231916"></path>
                <path d="M117.801702,227.695143 C117.801702,227.695143 118.723302,226.392336 118.04048,223.640103 C117.345091,220.850169 118.559928,222.220001 118.559928,222.220001 C118.559928,222.220001 119.582066,225.030881 119.644902,225.169121 C119.716117,225.307361 118.354662,228.654445 118.354662,228.654445 L117.801702,227.695143 Z" id="Fill-311" fill="#231916"></path>
                <path d="M88.8768673,237.615748 C88.8768673,237.615748 88.4076892,239.370977 90.5273692,240.032854 C92.6512382,240.724054 89.6350928,241.080126 89.6350928,241.080126 L88.1731001,239.840155 L87.5279801,239.077741 L88.8768673,237.615748 Z" id="Fill-313" fill="#231916"></path>
                <path d="M229.818182,26.4165015 C229.818182,26.4165015 233.022502,25.117877 231.305131,27.7752938 C229.584158,30.4477526 231.611161,28.2215393 231.611161,28.2215393 L233.717372,25.8449062 C233.717372,25.8449062 234.109811,26.1507598 234.469847,25.5992205 C234.829883,25.0777651 235.636364,23.2727273 235.636364,23.2727273 L233.494149,23.2727273 L229.818182,26.4165015 Z" id="Fill-281" fill="#231916"></path>
                <path d="M212.363636,51.0532995 C212.363636,51.0532995 210.044834,53.035681 211.728348,50.4984117 C213.380098,47.974567 210.251303,50.8206046 210.251303,50.8206046 L208.070146,53.6621673 L206.545455,56.8617221 L206.545455,58.1818182 L212.363636,52.5881908 L212.363636,51.0532995 Z" id="Fill-289" fill="#231916"></path>
            </g>
        </g>
    </g>
</svg>