<?xml version="1.0" encoding="UTF-8"?><svg version="1.1" width="320px" height="320px" viewBox="0 0 320.0 320.0" xmlns="http://www.w3.org/2000/svg" xmlns:xlink="http://www.w3.org/1999/xlink"><defs><clipPath id="i0"><path d="M2246,0 L2246,9438 L0,9438 L0,0 L2246,0 Z"></path></clipPath><clipPath id="i1"><path d="M126.613615,0 C196.540384,0 253.22723,56.6868464 253.22723,126.613615 C253.22723,196.540384 196.540384,253.22723 126.613615,253.22723 C56.6868464,253.22723 0,196.540384 0,126.613615 C0,56.6868464 56.6868464,0 126.613615,0 Z"></path></clipPath><radialGradient id="i2" cx="126.270592px" cy="125.012841px" r="122.592623px" gradientUnits="userSpaceOnUse"><stop stop-color="#E60012" offset="0%"></stop><stop stop-color="#C7000A" offset="70%"></stop><stop stop-color="#7C0000" offset="100%"></stop></radialGradient><clipPath id="i3"><path d="M102.239923,0 C112.664012,14.6547065 116.094242,46.5177355 95.8939964,76.2273421 C75.4460118,106.241858 38.0183869,124.021886 0,127.833253 C1.33397849,127.337775 2.64890014,126.82324 3.98287862,126.289649 L4.95477724,125.889455 L5.2025161,125.775114 C53.2447985,105.975062 99.6863066,58.5425987 102.239923,0 Z"></path></clipPath><radialGradient id="i4" cx="5.29780028px" cy="141.630402px" r="122.592623px" gradientUnits="userSpaceOnUse"><stop stop-color="#E60012" offset="0%"></stop><stop stop-color="#C7000A" offset="70%"></stop><stop stop-color="#7C0000" offset="100%"></stop></radialGradient><clipPath id="i5"><path d="M80.0196524,16.3269524 C89.0335356,5.75040864 118.647858,-8.14202446 139.915286,6.01720434 C157.352291,17.641874 161.316113,47.2752532 132.254439,70.8866725 C122.363941,78.928657 95.93211,94.7267737 58.6188261,91.2965433 C32.3966204,88.895382 12.0629769,79.8433852 0,65.1124513 C14.1782856,77.7852469 34.1879629,84.4741962 52.4634682,85.6176063 C67.8613913,86.4942207 87.6042729,86.1511977 107.118472,73.1544359 C135.741839,54.0976004 131.835188,28.2374746 119.65787,18.7090568 C110.796442,11.7914255 96.2941899,9.63800308 81.0487215,17.3560215 Z"></path></clipPath><clipPath id="i6"><path d="M88.061637,0 C93.4547214,4.95477724 104.012208,25.2503071 103.307105,50.1194774 C101.553877,114.017047 44.9169613,163.012171 1.08623962,177.89556 L0,176.86649 C41.829754,149.920125 83.0115755,92.3875386 88.061637,0 Z"></path></clipPath><clipPath id="i7"><path d="M129.662709,0.0503236906 C137.457697,-0.567150242 144.550965,4.55710992 146.413667,12.1514142 C148.738601,21.45115 142.621357,29.5312482 138.257342,33.1139333 C132.902371,37.4970055 122.630737,42.1659302 103.573901,40.2602466 C110.942819,41.2497248 117.463107,45.5334834 121.296758,51.9039731 C130.177243,66.2537703 120.915621,87.8070513 109.862657,113.038302 C167.814494,99.0886979 203.641344,69.5887165 223.365169,32.3707167 C226.033126,98.5932202 171.968884,123.500504 103.802583,127.654894 C96.0273942,148.445902 96.7706108,160.851902 109.805486,167.502737 C116.989913,171.180707 130.329698,168.684261 135.112964,163.27212 L136.142033,164.301189 C116.113299,186.673914 87.5280456,179.203634 77.9996278,170.628058 C64.9266386,158.81282 64.9266386,144.139057 71.6918152,128.226599 C47.6535751,127.657972 23.6905953,125.307536 0,121.194627 L1.50807246,121.268672 C28.6309078,122.568357 54.5216064,122.076785 76.1320579,119.288944 C78.7707404,114.598 81.6456639,110.043917 84.7457476,105.644249 C107.118472,73.5144246 112.282875,59.2027412 107.823575,50.1698011 C104.050322,42.5851806 95.3413481,40.793838 88.2331485,41.3845999 L87.2040794,40.3555308 C91.4854067,39.7662701 95.8029638,39.4797065 100.124614,39.4979732 C112.85458,39.0406092 121.182417,37.6304033 126.708899,34.6384802 C134.998623,30.1791807 139.553207,24.347789 139.553207,16.5344864 C139.553207,8.91175221 134.865225,5.84360169 131.206313,5.1003851 C127.28574,4.02513939 123.114771,5.55577013 120.820337,8.91175221 C118.628801,12.5897215 119.505416,18.0971469 124.517363,19.2405571 C127.966651,20.0409442 131.301597,15.9627814 131.301597,15.9627814 L132.349723,16.93468 C132.412609,19.3285994 131.439541,21.6332439 129.680014,23.2577036 C127.920487,24.8821632 125.54562,25.6684542 123.164328,25.4149718 C118.87654,25.1862897 113.311944,22.0990824 114.283843,13.3901086 C115.255741,4.68113472 122.97376,0.374289895 129.662709,0.0503236906 Z"></path></clipPath><clipPath id="i8"><path d="M29.6333792,0.0503236906 C37.4283677,-0.567150242 44.5216349,4.55710992 46.3843377,12.1514142 C48.7092716,21.45115 42.6110842,29.5312482 38.2280121,33.1139333 C32.5490751,37.7447444 21.1721443,42.8519763 0,39.8981668 C12.7299661,39.4408027 21.1530874,37.5160623 26.6795697,34.543196 C34.9692932,30.0838965 39.5238769,24.2525048 39.5238769,16.4392022 C39.5238769,8.81646803 34.8358953,5.74831751 31.1960398,5.00510093 C27.2695624,3.92086081 23.0881144,5.45252674 20.7910076,8.81646803 C18.5994715,12.4944373 19.4760859,18.0018628 24.4880336,19.1452729 C27.3237893,19.8534531 30.3207234,18.971144 32.320393,16.8393958 C32.4114867,19.2496514 31.4507156,21.5805387 29.6876708,23.2265349 C27.924626,24.8725311 25.5333299,25.6711671 23.1349983,25.4149718 C18.8472103,25.1862897 13.0729892,22.0990824 14.0639446,13.3901086 C15.0549001,4.68113472 22.94443,0.374289895 29.6333792,0.0503236906 Z"></path></clipPath><linearGradient id="i9" x1="20.4670414px" y1="-3.98972544px" x2="23.2302825px" y2="25.2434603px" gradientUnits="userSpaceOnUse"><stop stop-color="#FFF100" offset="0%"></stop><stop stop-color="#F6AB00" offset="100%"></stop></linearGradient><clipPath id="i10"><path d="M29.0447553,0.000653702162 C32.6987333,0.0365473953 36.1828359,1.54886535 38.7044329,4.19355657 C43.9831764,9.91060723 44.0975174,20.9826287 34.98835,28.3195103 C24.5115506,36.7600666 10.270776,37.0076092 2.94738209,37.0121885 L1.43816894,37.0124379 C0.898910673,37.0134928 0.417223059,37.0171312 0,37.0284842 C12.7299661,36.5711201 21.1530874,34.6463797 26.6795697,31.6735134 C34.9692932,27.2142139 39.5238769,21.3828222 39.5238769,13.5695196 C39.5238769,5.94678544 34.8358953,2.87863492 31.1960398,2.13541833 C27.2695624,1.05117822 23.0881144,2.58284415 20.7910076,5.94678544 C18.5994715,9.62475469 19.4760859,15.1321802 24.4880336,16.2755903 C27.3237893,16.9837705 30.3207234,16.1014614 32.320393,13.9697132 C31.2774149,17.9195456 27.5719085,20.5686225 23.4970782,20.2775258 C15.6647188,19.7629912 13.5875237,9.87249356 19.3045744,4.00298822 C21.8776384,1.40834278 25.3907774,-0.035239991 29.0447553,0.000653702162 Z"></path></clipPath><linearGradient id="i11" x1="21.1530874px" y1="23.7077561px" x2="20.9244054px" y2="2.51655504px" gradientUnits="userSpaceOnUse"><stop stop-color="#FFF100" offset="0%"></stop><stop stop-color="#F6AB00" offset="100%"></stop></linearGradient><clipPath id="i12"><path d="M29.0616742,0.00139248402 C32.7958927,0.00336612963 36.3651862,1.53995387 38.933115,4.25106681 C41.6160791,7.29920146 42.9256566,11.3175367 42.5539137,15.3612019 C42.0905536,20.6454772 39.4196209,25.4891375 35.1979752,28.7009868 C25.4408754,36.323721 12.4250568,37.2003354 4.84043622,37.2003354 C3.69702609,37.2003354 1.7722857,37.2003354 0,36.9716534 C2.13436558,36.9716534 3.60174191,36.8573124 4.76420888,36.8573124 C12.3869431,36.8573124 25.2884207,36.0188116 34.8930658,28.2817364 C39.0092285,25.1392225 41.6271392,20.4214573 42.1156065,15.2659177 C42.4892668,11.3138044 41.2134526,7.3829175 38.5900919,4.40352149 C36.1031063,1.79434554 32.6660753,0.302674074 29.0616742,0.268188181 C25.4730512,0.189627434 22.0161905,1.62076779 19.5332564,4.21295313 C16.6239378,7.13700653 15.633182,11.462321 16.9796405,15.3612019 C18.0045283,18.1646137 20.6108047,20.0798888 23.5923624,20.220695 C25.5463882,20.39736 27.4977682,19.85531 29.080731,18.6961481 C30.5881062,17.507955 31.7360262,15.924617 32.3966204,14.1225076 C31.9575536,15.9594802 30.9344545,17.6044631 29.4809246,18.8104891 C27.8119982,20.1344762 25.6930668,20.7564851 23.5733055,20.5446612 C20.4502973,20.4383142 17.7084903,18.4367195 16.6556742,15.4945998 C15.2936159,11.4928836 16.3120207,7.06503693 19.2855175,4.06049845 C21.8449787,1.41711098 25.3826095,-0.0517298977 29.0616742,0.00139248402 Z"></path></clipPath><clipPath id="i13"><path d="M87.9854096,0 C91.2250716,2.34399077 102.906912,24.3736926 102.239923,49.2619198 C100.467637,113.159489 43.8497785,162.154613 0,177.038002 C40.3433208,148.967283 82.9162914,92.7686753 87.9854096,0 Z"></path></clipPath><linearGradient id="i14" x1="51.796479px" y1="20.9244054px" x2="50.8245803px" y2="153.045446px" gradientUnits="userSpaceOnUse"><stop stop-color="#FFF100" offset="0%"></stop><stop stop-color="#F6AB00" offset="100%"></stop></linearGradient><clipPath id="i15"><path d="M87.9854096,0 C91.2250716,2.34399077 102.906912,24.3736926 102.239923,49.2619198 C100.467637,113.159489 43.8497785,162.154613 0,177.038002 C37.6753638,159.581941 75.9605464,120.496371 90.5199687,73.0829642 C103.955038,29.309413 87.9854096,0 87.9854096,0 Z"></path></clipPath><linearGradient id="i16" x1="1.08325568e-13px" y1="88.519001px" x2="102.258979px" y2="88.519001px" gradientUnits="userSpaceOnUse"><stop stop-color="#FFF100" offset="0%"></stop><stop stop-color="#F6AB00" offset="100%"></stop></linearGradient><clipPath id="i17"><path d="M88.061637,0 C89.1365797,1.76251639 90.0061541,3.64233167 90.6533666,5.60270964 C92.3462304,10.3157997 93.6215929,15.1685539 94.4647337,20.1049615 C97.4393219,37.8281229 96.1325254,56.0056625 90.6533666,73.1210779 C83.1575648,96.6185172 70.6547619,118.210721 54.0070719,136.408829 C40.1605992,151.88705 23.6824445,164.790852 5.33591395,174.5225 C3.60174191,175.532512 1.7722857,176.256672 0,177.057059 L5.2596866,174.293818 C23.5619517,164.554067 39.9949055,151.650295 53.7974467,136.180147 C70.4090069,118.019462 82.8856188,96.4730884 90.3675141,73.0257937 C95.838815,55.9678565 97.1457128,37.8477184 94.1788812,20.1811888 C93.3300195,15.2957763 92.054686,10.4941454 90.3675141,5.83139167 C89.0144787,2.13436558 88.0806938,0.114341013 88.061637,0 Z"></path></clipPath><clipPath id="i18"><path d="M223.403283,0 C223.403283,97.7996799 106.699222,103.688242 0,88.862024 C123.202442,93.2260394 193.36971,56.8655972 223.403283,0 Z"></path></clipPath><linearGradient id="i19" x1="190.072878px" y1="9.09011054px" x2="95.0936093px" y2="78.9905832px" gradientUnits="userSpaceOnUse"><stop stop-color="#FFF100" offset="0%"></stop><stop stop-color="#F6AB00" offset="100%"></stop></linearGradient><clipPath id="i20"><path d="M223.403283,0 C223.403283,97.7996799 106.699222,103.688242 0,88.9001377 C23.1349983,91.2822422 109.100383,98.1808166 166.785424,72.415975 C218.345599,49.351487 223.039059,4.75410876 223.379505,0.352032158 L223.395615,0.128027518 C223.401173,0.0433238099 223.403283,0 223.403283,0 Z"></path></clipPath><linearGradient id="i21" x1="-5.41627842e-14px" y1="47.4896341px" x2="223.403283px" y2="47.4896341px" gradientUnits="userSpaceOnUse"><stop stop-color="#FFF100" offset="0%"></stop><stop stop-color="#F6AB00" offset="100%"></stop></linearGradient><clipPath id="i22"><path d="M223.365169,0 C223.353116,2.57102774 223.026727,5.13093538 222.393271,7.62273421 C220.908834,14.4016619 218.618432,20.9785718 215.570923,27.2131611 C208.824804,40.9912532 194.913314,60.0290319 166.823538,72.5684297 C148.166896,80.9153236 114.36007,90.9963896 58.9237354,91.7777199 L52.1966725,91.7396062 C37.2561134,91.7396062 24.2212379,91.1107306 14.9024454,90.3675141 C6.61272193,89.7195816 0,88.8429672 0,88.8429672 L12.3678863,89.8339227 C23.0206573,90.6914803 39.6953884,91.6252652 58.9237354,91.3584695 C89.4146723,90.9201623 132.921428,87.2612499 166.671083,72.187293 C194.665575,59.6860089 208.596122,40.7054007 215.266014,26.9844791 C218.325934,20.7484184 220.616836,14.1636755 222.088361,7.37499535 C222.658693,4.94392538 223.085037,2.48131141 223.365169,0 Z"></path></clipPath><clipPath id="i23"><path d="M139.89623,6.0238967 C157.333234,17.6676232 161.297056,47.2819456 132.273495,70.8171375 C122.363941,78.8781789 95.9511669,94.6572387 58.6188261,91.2270083 C32.4156772,88.825847 12.1773179,79.907248 0,65.0429163 C13.7780921,77.7919393 33.7496557,83.6042741 51.9870473,85.3193893 C65.7460826,86.5961973 88.747683,85.4527872 107.25187,73.1992419 C135.37976,54.5616568 131.873302,28.1488827 119.695984,18.6395218 C110.777385,11.7981179 96.1989057,9.64469545 81.0296646,17.3627138 C89.0144787,6.69088594 117.923698,-8.61175298 139.89623,6.0238967 Z"></path></clipPath><linearGradient id="i24" x1="136.408829px" y1="-17.2063858px" x2="88.175978px" y2="42.1175432px" gradientUnits="userSpaceOnUse"><stop stop-color="#FFF100" offset="0%"></stop><stop stop-color="#F6AB00" offset="100%"></stop></linearGradient><clipPath id="i25"><path d="M81.0868352,12.491928 C94.2741653,-0.238038085 123.774147,-5.89791824 136.351658,8.45187891 C148.319351,22.0584595 143.783824,47.3659371 119.314847,65.8891812 C85.9082145,91.2157156 26.5842856,85.8226311 0,60.2483579 C13.8733763,72.9973808 33.7496557,78.8097157 51.9870473,80.5248309 C65.7841962,81.7444683 88.7857967,80.6582287 107.25187,68.4046835 C135.37976,49.7670983 131.873302,23.3733811 119.695984,13.8449634 C110.834555,6.92733207 96.3323036,4.86919383 81.0868352,12.491928 Z"></path></clipPath><linearGradient id="i26" x1="75.769978px" y1="82.4114576px" x2="68.2044143px" y2="13.2923151px" gradientUnits="userSpaceOnUse"><stop stop-color="#FFF100" offset="0%"></stop><stop stop-color="#F6AB00" offset="100%"></stop></linearGradient><clipPath id="i27"><path d="M116.208583,0.0150733863 C124.955671,0.377153261 131.987643,3.31190593 136.542227,8.49536519 C141.505441,14.4287674 143.758357,22.1688489 142.754755,29.839021 C141.45889,42.7214418 132.959541,55.9849993 119.486359,66.1804063 C105.460528,76.9284616 85.6795325,82.7979669 64.3930472,82.7979669 C61.991886,82.7979669 59.5907247,82.7979669 57.1705066,82.5883417 C34.4244794,81.1749597 13.3556656,73.0154533 0.432517468,60.9109756 L0,60.5014693 C12.8061935,72.6025599 34.1689061,80.816056 57.1705066,82.2453187 C81.0868352,83.7317518 103.707299,77.805076 119.276734,66.0088948 C132.616518,55.8516015 141.115867,42.6833281 142.430789,29.8009073 C143.421096,22.2264353 141.195856,14.5832214 136.294488,8.72404722 C131.797074,3.59775846 124.860386,0.720176301 116.208583,0.358096426 C103.402668,-0.096074806 90.8959998,4.2928267 81.1821193,12.6497553 C83.0249381,10.8093701 85.0561251,9.16781324 87.242193,7.75214861 C95.9597652,2.45772962 106.012104,-0.227302877 116.208583,0.0150733863 Z"></path></clipPath><clipPath id="i28"><path d="M53.9992273,12.0287363 C63.5276451,27.2742047 52.4746805,50.5235441 40.6594425,77.6985915 C28.8442044,104.873639 27.5673965,119.947596 42.565126,127.608444 C50.3403149,131.591322 63.6991566,129.819037 68.9016727,124.406895 C48.8919954,146.77962 20.2686284,139.309341 10.7592675,130.733765 C-8.297568,113.582613 0.487633172,90.1045915 17.5053873,65.6737283 C39.8209417,33.5439036 44.9853441,19.2322201 40.5832151,10.2755075 C36.771848,2.65277324 28.0438173,0.747089689 20.9356177,1.41407893 C30.7308311,-1.23482121 45.7095039,-1.38727589 53.9992273,12.0287363 Z"></path></clipPath><linearGradient id="i29" x1="37.6484624px" y1="155.621992px" x2="29.47308px" y2="58.4702445px" gradientUnits="userSpaceOnUse"><stop stop-color="#FFF100" offset="0%"></stop><stop stop-color="#F6AB00" offset="100%"></stop></linearGradient><clipPath id="i30"><path d="M3.05349076,1.4325229 C12.8487042,-1.29260458 27.7892633,-1.29260458 36.1171004,12.0471803 C45.6455182,27.2354782 34.5925536,50.6753859 22.7773155,77.7170355 C10.9620775,104.758685 9.68526952,120.004154 24.6829991,127.626888 C32.458188,131.609766 45.8170297,129.837481 51.0195458,124.425339 C35.8693615,140.947616 -1.06278571,137.707954 0.0234539144,108.817791 C0.690443158,90.6756837 11.5337826,76.0590908 20.5286089,58.4124611 C20.6928789,58.0911629 20.857408,57.7686831 21.0220645,57.4451024 L21.5162848,56.4711385 L22.0104794,55.4910533 C22.6690373,54.180407 23.3254194,52.8547276 23.9711955,51.5191764 L24.4534072,50.5157427 C31.1728425,36.4440155 36.4906144,21.4261925 30.6477886,11.4373615 C22.0150421,-3.27451548 3.11066127,1.4325229 3.05349076,1.4325229 Z"></path></clipPath><linearGradient id="i31" x1="21.5767349px" y1="11.4564184px" x2="24.3018624px" y2="85.0158035px" gradientUnits="userSpaceOnUse"><stop stop-color="#FFF100" offset="0%"></stop><stop stop-color="#F6AB00" offset="100%"></stop></linearGradient><clipPath id="i32"><path d="M30.9529858,10.7774977 C37.5066315,21.9295579 30.1636516,39.4107743 22.1258405,55.4111745 L21.6173886,56.4196842 C21.5325337,56.5874167 21.4476326,56.7549669 21.3627007,56.9223257 L20.8528629,57.9241088 C18.8328384,61.8879306 16.6984728,65.7183546 14.6403346,69.3582101 C7.57024857,82.1072331 0.881299304,94.1320963 0.347707909,108.176984 C-0.0524856369,119.134665 5.01663261,127.348161 14.6403346,131.292926 C25.2766843,135.262064 37.1759009,133.842109 46.5795909,127.481558 C48.2542132,126.387124 49.8010918,125.108712 51.1913451,123.670191 C49.8481706,125.14624 48.3748487,126.49838 46.7892161,127.710241 C40.8428769,131.735343 33.8266978,133.886079 26.6461409,133.884655 C22.4890877,133.924014 18.3647286,133.147055 14.5069367,131.597835 C4.74983691,127.5959 -0.395508676,119.268062 0.0237417052,108.157927 C0.538276264,94.0368121 7.24628237,81.9738353 14.3354252,69.1866986 C16.3935634,65.4896725 18.527929,61.5639644 20.5479536,57.7525973 C20.8017906,57.2557856 21.0556277,56.7571044 21.3090526,56.2567997 L21.8152307,55.2540985 C21.9836922,54.9191918 22.1518484,54.5836363 22.3195772,54.2475051 L22.8213592,53.2374567 C30.4085682,37.8944009 36.8581274,21.5101169 30.6671332,10.9490093 C25.1787646,1.59210303 15.4216648,0.162840361 9.15196592,0.334351881 C7.18653127,0.381198475 5.22606883,0.553057196 3.28246058,0.84888644 C5.20656437,0.37672046 7.17261981,0.0958553974 9.15196592,0.0103856772 C15.4978921,-0.142069007 25.4074466,1.28719366 30.9529858,10.7774977 Z"></path></clipPath></defs><g transform="translate(-1167.0 -6401.0)"><g clip-path="url(#i0)"><g transform="translate(1200.0 6401.0)"><g transform="translate(0.0 66.43451073808052)"><g clip-path="url(#i1)"><polygon points="0,0 253.22723,0 253.22723,253.22723 0,253.22723 0,0" stroke="none" fill="url(#i2)"></polygon></g></g><g transform="translate(120.9727919008452 49.81695016190971)"><g clip-path="url(#i3)"><polygon points="0,0 110.577339,0 110.577339,127.833253 0,127.833253 0,0" stroke="none" fill="url(#i4)"></polygon></g></g><g transform="translate(0.7980049875311721 0.0)"><g style="mix-blend-mode:multiply"><g transform="translate(34.20940186846374 215.2731518635805)"><g clip-path="url(#i5)"><polygon points="0,2.57571742e-14 153.54958,2.57571742e-14 153.54958,91.776706 0,91.776706 0,2.57571742e-14" stroke="none" fill="#898989"></polygon></g></g><g transform="translate(120.11761640674499 0.7265418543190947)"><g clip-path="url(#i6)"><polygon points="0,0 103.340735,0 103.340735,177.89556 0,177.89556 0,0" stroke="none" fill="#898989"></polygon></g></g><g transform="translate(0.2310641307181669 80.35284748592166)"><g clip-path="url(#i7)"><polygon points="0,1.95399252e-14 223.459831,1.95399252e-14 223.459831,179.074175 0,179.074175 0,1.95399252e-14" stroke="none" fill="#898989"></polygon></g></g></g></g><g transform="translate(100.0102728253992 79.47623305185728)"><g clip-path="url(#i8)"><polygon points="0,1.95399252e-14 46.8962879,1.95399252e-14 46.8962879,40.7720219 0,40.7720219 0,1.95399252e-14" stroke="none" fill="url(#i9)"></polygon></g></g><g transform="translate(100.0102728253978 82.34591564458596)"><g clip-path="url(#i10)"><polygon points="0,-2.92117676e-14 42.3274079,-2.92117676e-14 42.3274079,37.0284842 0,37.0284842 0,-2.92117676e-14" stroke="none" fill="url(#i11)"></polygon></g></g><g transform="translate(100.0102728253992 82.25029173825547)"><g clip-path="url(#i12)"><polygon points="0,-8.8817842e-15 42.615981,-8.8817842e-15 42.615981,37.2003354 0,37.2003354 0,-8.8817842e-15" stroke="none" fill="#FFF361"></polygon></g></g><g transform="translate(120.97279190084382 0.5550303346111036)"><g clip-path="url(#i13)"><polygon points="0,0 102.267366,0 102.267366,177.038002 0,177.038002 0,0" stroke="none" fill="url(#i14)"></polygon></g></g><g transform="translate(120.97279190084382 0.5550303346111036)"><g clip-path="url(#i15)"><polygon points="0,0 102.267366,0 102.267366,177.038002 0,177.038002 0,0" stroke="none" fill="url(#i16)"></polygon></g></g><g transform="translate(120.97279190084379 0.5359734990873477)"><g clip-path="url(#i17)"><polygon points="0,0 96.0193312,0 96.0193312,177.057059 0,177.057059 0,0" stroke="none" fill="#FFF361"></polygon></g></g><g transform="translate(0.9718986116802597 112.6473368816757)"><g clip-path="url(#i18)"><polygon points="0,0 223.403283,0 223.403283,94.9852306 0,94.9852306 0,0" stroke="none" fill="url(#i19)"></polygon></g></g><g transform="translate(0.9718986116802597 112.6473368816764)"><g clip-path="url(#i20)"><polygon points="0,0 223.403283,0 223.403283,95.0013028 0,95.0013028 0,0" stroke="none" fill="url(#i21)"></polygon></g></g><g transform="translate(1.010012282726322 112.68545055272321)"><g clip-path="url(#i22)"><polygon points="0,0 223.365169,0 223.365169,91.7777199 0,91.7777199 0,0" stroke="none" fill="#FFF361"></polygon></g></g><g transform="translate(33.99739457326861 214.2373903824145)"><g clip-path="url(#i23)"><polygon points="0,-4.97379915e-14 153.534739,-4.97379915e-14 153.534739,91.7076441 0,91.7076441 0,-4.97379915e-14" stroke="none" fill="url(#i24)"></polygon></g></g><g transform="translate(33.902110395652 219.108176173001)"><g clip-path="url(#i25)"><polygon points="0,-1.95399252e-14 142.705732,-1.95399252e-14 142.705732,82.3791587 0,82.3791587 0,-1.95399252e-14" stroke="none" fill="url(#i26)"></polygon></g></g><g transform="translate(33.82588305355989 218.85506470127382)"><g clip-path="url(#i27)"><polygon points="0,5.32907052e-15 142.988763,5.32907052e-15 142.988763,82.7979669 0,82.7979669 0,5.32907052e-15" stroke="none" fill="#FFF361"></polygon></g></g><g transform="translate(67.27847394844235 119.1990151985087)"><g clip-path="url(#i28)"><polygon points="1.24344979e-14,-9.54791801e-15 68.9016727,-9.54791801e-15 68.9016727,139.179881 1.24344979e-14,139.179881 1.24344979e-14,-9.54791801e-15" stroke="none" fill="url(#i29)"></polygon></g></g><g transform="translate(85.10343036738468 119.1805712320644)"><g clip-path="url(#i30)"><polygon points="-2.80331314e-15,-2.13162821e-14 51.0195458,-2.13162821e-14 51.0195458,134.391259 -2.80331314e-15,134.391259 -2.80331314e-15,-2.13162821e-14" stroke="none" fill="url(#i31)"></polygon></g></g><g transform="translate(85.02691523458064 119.8404350322253)"><g clip-path="url(#i32)"><polygon points="-1.59872116e-14,4.00686428e-14 51.1913451,4.00686428e-14 51.1913451,133.886079 -1.59872116e-14,133.886079 -1.59872116e-14,4.00686428e-14" stroke="none" fill="#FFF361"></polygon></g></g></g></g></g></svg>