<?xml version="1.0" encoding="UTF-8"?>
<svg width="20px" height="20px" viewBox="0 0 20 20" version="1.1" xmlns="http://www.w3.org/2000/svg" xmlns:xlink="http://www.w3.org/1999/xlink">
    <title>九元</title>
    <defs>
        <rect id="path-1" x="0" y="0" width="20" height="20"></rect>
    </defs>
    <g id="单OD" stroke="none" stroke-width="1" fill="none" fill-rule="evenodd">
        <g id="BOOK1" transform="translate(-28.000000, -1367.000000)">
            <g id="低价推荐" transform="translate(0.000000, 1241.000000)">
                <g id="基础信息" transform="translate(28.000000, 122.000000)">
                    <g id="九元" transform="translate(0.000000, 4.000000)">
                        <mask id="mask-2" fill="white">
                            <use xlink:href="#path-1"></use>
                        </mask>
                        <g id="蒙版"></g>
                        <path d="M17.9914169,7.8009915 C17.8237398,3.91727784 14.7697252,0.494966128 10.9815323,0.0584146069 C6.1165324,-0.502018145 2.42381724,3.04324754 2.02171956,7.55341449 C1.94842903,8.37681668 2.06136556,9.24046173 2.34925367,10.0126795 C2.99086407,11.732737 4.75674756,12.9083105 6.5580942,12.8549006 C7.25699124,12.8343156 7.92933638,12.6195634 8.57312912,12.3402742 C8.74880816,12.2842681 8.87865788,12.1231112 8.87865788,11.9254205 C8.87865788,11.7279152 8.75426403,11.583078 8.57312912,11.5068577 C7.09386071,10.8904188 6.09598195,9.31612571 6.321855,7.54024748 C6.53517955,5.86377095 7.88732617,4.51201902 9.53481727,4.32360086 C11.7511738,4.07008942 13.6283571,5.83187338 13.6283571,8.04077957 C13.6283571,9.0870938 13.1486042,10.1397134 12.5282717,10.7110877 C12.5286354,10.7109023 8.3379811,15.3482886 7.0054756,16.7716245 C6.78742264,17.0047364 6.80197163,17.3734129 7.03584662,17.5900196 L9.13653871,19.7117638 C9.59956027,20.1405264 10.1706081,20.1010253 10.7351088,19.5253856 L15.6161126,13.9438686 C17.2603302,12.2672066 18.0948966,10.1973886 17.9914169,7.8009915" id="Fill-1" fill="#E51773" mask="url(#mask-2)"></path>
                    </g>
                </g>
            </g>
        </g>
    </g>
</svg>