<?xml version="1.0" encoding="UTF-8"?>
<svg width="320px" height="320px" viewBox="0 0 320 320" version="1.1" xmlns="http://www.w3.org/2000/svg" xmlns:xlink="http://www.w3.org/1999/xlink">
     
    <title>BK_LOGO</title>
     
    <g id="页面-1" stroke="none" stroke-width="1" fill="none" fill-rule="evenodd">
        <g id="航司LOGO备份-3" transform="translate(-647.000000, -3199.000000)">
            <g id="切图" transform="translate(109.000000, 80.000000)"></g>
            <g id="奥凯航空横版1" transform="translate(659.000000, 3199.000000)" fill="#E95506">
                <path d="M262.138012,169.673419 C233.370006,159.430522 218.466855,177.747971 214.202603,184.050178 C206.33571,195.630786 204.563365,225.021769 227.632824,234.250518 C238.049576,238.413355 249.557744,231.473683 251.59087,222.549179 C253.72541,213.890284 249.214865,199.914355 233.350689,201.6867 C235.238936,198.934012 243.859196,197.27274 249.214865,199.648745 C254.705754,202.082701 266.701679,210.833351 259.515714,231.797245 C252.310432,252.770797 227.145067,249.110205 220.181249,244.474098 C213.22226,239.847651 207.958347,234.472665 207.958347,222.302885 C202.940728,221.815128 196.469496,221.327371 193.813394,218.420146 C191.191096,215.474287 189.529825,212.552574 188.549481,200.122014 C187.602943,187.691454 178.475608,170.880739 167.947783,159.923108 C178.475608,148.941331 187.602943,132.135445 188.549481,119.700056 C189.529825,107.288813 191.191096,104.3671 193.813394,101.42124 C196.469496,98.5188447 202.940728,98.0069412 207.958347,97.5191842 C207.958347,85.3494049 213.22226,79.9937362 220.181249,75.3528005 C227.145067,70.731182 252.310432,67.0705896 259.515714,88.0296539 C266.701679,108.988718 254.705754,117.758686 249.214865,120.192642 C243.859196,122.549329 235.238936,120.907375 233.350689,118.154687 C249.214865,119.927032 253.72541,105.931786 251.59087,97.2922082 C249.557744,88.3677034 238.049576,81.4087145 227.632824,85.5956981 C204.563365,94.8196181 206.33571,124.210601 214.202603,135.791208 C218.466855,142.093415 233.370006,160.396377 262.138012,150.167967 C289.983626,140.263119 294.716318,112.3837 294.716318,112.3837 C301.18755,71.9578184 271.965591,41.7168828 232.877419,41.4882502 C193.813394,41.2436136 183.758838,68.5435192 183.758838,68.5435192 C169.382079,69.7508386 162.196114,75.3528005 156.193322,85.1079411 C150.214676,94.8582523 144.931447,115.571023 138.218751,127.248216 C131.501226,138.964044 122.861649,147.487718 110.885041,159.923108 C122.861649,172.353668 131.501226,180.858026 138.218751,192.573853 C144.931447,204.270363 150.214676,224.987964 156.193322,234.738275 C162.196114,244.474098 169.382079,250.071231 183.758838,251.297867 C183.758838,251.297867 193.813394,278.597773 232.877419,278.353137 C271.965591,278.110016 301.18755,247.888398 294.716318,207.443199 C294.716318,207.443199 289.983626,179.578267 262.138012,169.673419 M194.697151,275.313864 C185.492549,272.145858 175.776042,272.730201 170.212715,274.579814 C161.81943,277.371137 160.138842,281.031729 157.535861,284.557102 C150.422335,294.273608 142.048368,288.17906 136.576797,279.935483 C130.839615,271.276588 125.633654,260.565251 122.335257,239.71726 C118.805056,217.420486 101.487267,182.953932 75.1725335,159.923108 C101.487267,136.887454 118.805056,102.406413 122.335257,80.1096388 C125.633654,59.280965 130.839615,48.5454811 136.576797,39.9059037 C142.048368,31.662327 150.422335,25.5677788 157.535861,35.264968 C160.138842,38.7903406 161.81943,42.4509329 170.212715,45.2664017 C175.776042,47.116015 185.492549,47.6810405 194.697151,44.5275223 C198.961404,43.0739097 206.562686,39.302244 207.958347,34.0383315 C209.696887,27.7216366 201.414676,19.7967922 199.507112,18.0051303 C184.772986,3.89398142 162.007772,-1.03188162 141.50266,0.175437753 C121.427353,1.36344002 96.7545746,10.4183353 80.5137144,31.3242776 C67.7789096,47.6955283 62.2880211,71.8419158 52.1610262,95.949669 C39.1412941,126.982606 17.7524241,144.488737 0.565025467,159.430522 L0.526391247,159.449839 C0.0724391624,159.884474 1.10134124e-13,159.923108 1.10134124e-13,159.923108 L0.338049425,160.203206 L0.338049425,160.222523 C17.5978872,175.202942 39.0688549,192.723561 52.1610262,223.891718 C62.2880211,247.999471 67.7789096,272.126541 80.5137144,288.502621 C96.7545746,309.403734 121.427353,318.45863 141.50266,319.646632 C162.007772,320.873268 184.772986,315.947405 199.507112,301.836256 C201.414676,300.049424 209.696887,292.124579 207.958347,285.783738 C206.562686,280.524655 198.961404,276.767477 194.697151,275.313864" id="Fill-26"></path>
            </g>
        </g>
    </g>
</svg>