<?xml version="1.0" encoding="UTF-8"?>
<svg width="320px" height="320px" viewBox="0 0 320 320" version="1.1" xmlns="http://www.w3.org/2000/svg" xmlns:xlink="http://www.w3.org/1999/xlink">
     
    <title>CA_LOGO</title>
     
    <g id="页面-1" stroke="none" stroke-width="1" fill="none" fill-rule="evenodd">
        <g id="航司LOGO备份-3" transform="translate(-647.000000, -6886.000000)">
            <g id="切图" transform="translate(109.000000, 80.000000)"></g>
            <g id="中国国际航空公司1" transform="translate(661.000000, 6886.000000)" fill="#E50113">
                <path d="M0.216991414,116.74627 L37.6938451,116.74627 C37.6938451,110.04192 43.4404307,97.2303809 57.9309423,97.2303809 C63.6804126,97.2303809 64.6381769,98.3064233 72.057965,96.8697769 C81.6413773,93.6387649 85.9513164,88.1316205 87.8668449,83.6976335 C87.8668449,83.6976335 91.576739,99.5036286 76.6073453,107.768673 C68.1086299,112.436331 54.9364866,108.844715 54.9364866,108.844715 C54.9364866,108.844715 44.5222427,107.28979 43.2038744,116.74627 C49.0716229,116.74627 58.2886615,122.735181 58.2886615,133.034032 L58.2886615,220.08384 C58.2886615,226.312193 63.3198086,232.89538 71.1030856,232.89538 C77.8045506,232.89538 83.793462,227.39112 83.793462,220.08384 L83.793462,159.01483 C83.793462,68.8494027 153.721792,31.4908271 194.550821,28.4992563 C228.320665,26.1048456 251.076221,29.0964165 292.384131,0 C292.384131,0 279.448544,50.530719 221.019155,62.745098 C210.241422,64.9000676 177.913994,61.1872887 147.496324,92.6810007 C123.549333,117.706919 120.915481,140.814424 120.915481,171.229209 L120.915481,224.993825 C120.915481,248.583097 102.115031,272.408925 73.2580552,272.408925 C45.3617288,272.408925 25.7189071,250.138021 25.7189071,224.993825 C25.7189071,210.145594 25.600629,133.752355 25.600629,133.752355 C25.600629,126.208519 20.2088778,119.383007 11.7101625,119.383007 L0.216991414,119.383007 L0.216991414,116.74627 Z" id="Fill-307"></path>
                <path d="M33.1473498,266.420879 C33.1473498,266.420879 63.7986908,297.556872 104.27,274.088763 C130.972006,258.519324 131.693214,226.191895 131.693214,226.191895 L131.693214,153.745107 C131.693214,153.745107 130.614287,117.465459 163.423482,91.481776 C186.294431,73.5208114 207.36813,74.7180167 222.095197,72.8024882 C259.453773,68.3713861 276.096369,44.782114 276.096369,44.782114 C276.459858,48.855497 272.386475,92.1972143 225.56565,104.532756 C216.106286,106.930052 164.617803,102.020068 164.617803,161.531269 L164.617803,233.256849 C164.617803,248.341636 161.029072,274.804201 132.769256,293.604652 C104.030559,312.762822 57.0914561,309.771251 33.1473498,266.420879" id="Fill-309"></path>
                <path d="M76.371943,311.686491 C121.986908,324.379752 174.560088,292.285995 174.560088,239.006031 L174.560088,176.260933 C174.560088,157.939364 189.766038,133.631769 217.30753,133.631769 C246.161621,133.631769 260.054972,159.615452 260.054972,176.260933 C260.054972,186.917503 255.863311,207.991201 235.865655,207.991201 C220.05966,207.991201 210.00025,191.824602 214.910235,178.652459 C213.834192,183.083561 216.228603,187.396385 220.899146,187.396385 C225.451411,187.396385 227.9641,183.083561 227.242892,177.694695 C227.121729,176.500374 225.687967,166.559243 214.670794,166.559243 C205.332592,166.559243 202.338136,175.060843 202.338136,179.134226 L202.338136,235.050926 C202.338136,294.801569 137.077465,338.988542 76.371943,311.686491" id="Fill-311"></path>
            </g>
        </g>
    </g>
</svg>