<?xml version="1.0" encoding="UTF-8"?>
<svg width="320px" height="320px" viewBox="0 0 320 320" version="1.1" xmlns="http://www.w3.org/2000/svg" xmlns:xlink="http://www.w3.org/1999/xlink">
     
    <title>HU_LOGO</title>
     
    <g id="页面-1" stroke="none" stroke-width="1" fill="none" fill-rule="evenodd">
        <g id="航司LOGO备份-3" transform="translate(-109.000000, -2149.000000)">
            <g id="切图" transform="translate(109.000000, 80.000000)"></g>
            <g id="海南航空中文" transform="translate(111.000000, 2166.000000)" fill="#E50113">
                <path d="M128.798249,48.263569 C128.798249,31.4878114 142.244714,17.9012795 158.848081,17.9012795 C175.451448,17.9012795 188.897912,31.4878114 188.897912,48.263569 C188.897912,65.0393266 175.451448,78.6258586 158.848081,78.6258586 C142.244714,78.6258586 128.798249,65.0393266 128.798249,48.263569 M158.86963,191.574007 C167.413737,174.464242 189.759865,165.478384 208.485791,159.33697 C213.937643,157.569966 216.318788,156.804983 222.923502,154.326869 C260.849428,140.018451 286.352458,113.373333 286.438653,82.860202 C286.438653,40.0103704 236.391515,4.83191919 172.20835,0.511380471 C253.231919,4.81037037 316.887138,47.7571717 316.887138,100.110034 C316.887138,135.137643 292.116768,164.379394 245.312727,183.784108 C226.479057,191.595556 171.055488,207.864916 158.86963,265.346397 C146.112727,207.692525 91.260202,191.595556 72.4480808,183.784108 C25.6440404,164.379394 0.873670034,135.137643 0.873670034,100.110034 C0.873670034,47.7571717 64.5073401,4.81037037 145.530909,0.511380471 C81.3692929,4.83191919 31.3437037,40.0103704 31.3437037,82.860202 C31.3868013,113.373333 56.9113805,140.018451 94.8588552,154.326869 C101.44202,156.804983 103.823165,157.569966 109.275017,159.33697 C128.000943,165.478384 150.325522,174.464242 158.86963,191.574007 M158.86963,141.903973 C167.101279,134.329562 177.97266,133.381414 187.486465,131.366599 C232.060202,121.874343 261.26963,98.4723232 261.26963,68.8857912 C261.26963,56.9369697 256.216431,45.7639057 247.402963,36.1423569 C232.771313,20.1100337 207.688485,8.40902357 178.080404,4.83191919 C232.814411,10.596229 274.500606,40.7322559 274.500606,77.0312458 C274.500606,109.419125 243.448754,133.241347 195.254815,146.53697 C174.374007,152.322828 164.278384,156.201616 158.86963,165.37064 C153.439327,156.201616 143.386801,152.322828 122.484444,146.53697 C74.2689562,133.241347 43.2171044,109.419125 43.2171044,77.0312458 C43.2171044,40.7322559 84.9248485,10.596229 139.658855,4.83191919 C110.050774,8.40902357 84.9679461,20.1100337 70.3147475,36.1423569 C61.5012795,45.7639057 56.426532,56.9369697 56.426532,68.8857912 C56.426532,98.4723232 85.6790572,121.874343 130.252795,131.366599 C139.788148,133.381414 150.63798,134.329562 158.86963,141.903973 M158.86963,109.095892 C203.120135,109.095892 239.009697,86.1032997 239.009697,57.6911785 C239.009697,35.5497643 217.159192,16.6729966 186.538316,9.43259259 C222.761886,16.8238384 248.976027,38.3295623 248.976027,63.7463973 C248.976027,92.9342761 214.821145,113.858182 182.27165,118.674343 C166.357845,121.033939 162.888485,121.540337 158.86963,125.87165 C154.850774,121.540337 151.424512,121.033939 135.489158,118.674343 C102.939663,113.858182 68.7847811,92.9342761 68.7847811,63.7463973 C68.7847811,38.3295623 94.9989226,16.8238384 131.222492,9.43259259 C100.601616,16.6729966 78.7726599,35.5497643 78.7726599,57.6911785 C78.7726599,86.1032997 114.640673,109.095892 158.86963,109.095892 M243.868956,235.382761 C240.809024,237.085118 238.352458,240.985455 237.889158,245.068956 C237.048754,251.964579 242.123502,258.429226 249.148418,259.26963 C256.173333,260.131582 262.821145,254.744377 263.478384,247.417778 C264.092525,240.479057 259.771987,233.443367 252.262222,229.64 C241.024512,223.961886 226.015758,225.491852 214.702626,229.661549 C189.425859,238.938316 168.297239,262.889832 160.431919,274.946397 C173.619798,227.517441 227.222492,185.745051 275.222492,206.852121 C291.588822,214.049428 302.266263,230.501953 300.994882,248.096566 C299.594209,267.986128 283.895892,284.923502 260.07367,285.171313 C248.932929,285.279057 238.460202,280.20431 232.986801,272.953131 C223.753131,260.724175 227.427205,241.61037 243.868956,235.382761 M73.5793939,235.382761 C76.6070034,237.085118 79.0743434,240.985455 79.5807407,245.068956 C80.399596,251.964579 75.3248485,258.429226 68.2999327,259.26963 C61.2642424,260.131582 54.616431,254.744377 53.9484175,247.417778 C53.3342761,240.479057 57.6655892,233.443367 65.1861279,229.64 C76.4453872,223.961886 91.4218182,225.491852 102.745724,229.661549 C128.022492,238.938316 149.151111,262.889832 157.03798,274.946397 C143.828552,227.517441 90.2258586,185.745051 42.2258586,206.852121 C25.8487542,214.049428 15.1820875,230.501953 16.4426936,248.096566 C17.8541414,267.986128 33.5524579,284.923502 57.3746801,285.171313 C68.5046465,285.279057 78.9881481,280.20431 84.4615488,272.953131 C93.6952189,260.724175 90.0103704,241.61037 73.5793939,235.382761" id="Fill-3"></path>
            </g>
        </g>
    </g>
</svg>