<?xml version="1.0" encoding="UTF-8"?>
<svg width="320px" height="320px" viewBox="0 0 320 320" version="1.1" xmlns="http://www.w3.org/2000/svg" xmlns:xlink="http://www.w3.org/1999/xlink">
     
    <title>CZ_LOGO</title>
     
    <g id="页面-1" stroke="none" stroke-width="1" fill="none" fill-rule="evenodd">
        <g id="航司LOGO备份-3" transform="translate(-109.000000, -7395.000000)">
            <g id="切图" transform="translate(109.000000, 80.000000)"></g>
            <g id="中国南方航空竖版" transform="translate(109.000000, 7441.000000)">
                <polygon id="Fill-1" fill="#008ED2" points="228.169649 -0.000267572512 0.39587353 227.709291 228.169649 227.709291 319.406524 -0.000267572512"></polygon>
                <g id="编组" transform="translate(136.461981, 62.009261)">
                    <path d="M76.2015741,25.6745189 C72.6963742,23.9647306 70.2587886,20.397989 70.2587886,16.3068053 C70.2587886,10.5406177 74.9199018,5.84204442 80.6834136,5.84204442 C86.4629799,5.84204442 91.124093,10.5406177 91.124093,16.3068053 C91.124093,20.4381249 88.6945346,24.0342995 85.1759561,25.6878976 L85.1759561,28.6258437 C88.4109078,28.9629851 92.2987363,30.2954962 94.6667531,31.523654 C95.7343674,31.4433823 97.1257444,31.3657863 98.541203,31.3657863 C111.708446,31.3657863 120.961104,40.0485142 120.961104,52.0518171 C120.961104,59.4608999 114.319954,66.2064029 106.892141,66.2064029 C99.4027865,66.2064029 92.6465806,58.8802676 93.9790917,51.497942 C93.9790917,51.497942 93.2111586,54.0505837 93.2111586,57.1517492 L93.2111586,94.7831471 C92.9061259,99.0830374 87.1372626,122.779259 60.5512579,122.779259 C33.9304688,122.779259 28.1428754,99.0830374 27.8217883,94.7831471 L27.8217883,57.1517492 C27.8217883,54.0505837 27.0645581,51.497942 27.0645581,51.497942 C28.4960711,58.5993164 21.6408633,66.2064029 14.2103747,66.2064029 C6.7183444,66.2064029 0.103951921,59.4608999 0.103951921,52.0518171 C0.103951921,40.0485142 9.3191492,31.3657863 22.5425827,31.3657863 C23.912554,31.3657863 25.3119582,31.4433823 26.3474638,31.523654 C28.7609679,30.2954962 32.8628545,28.8532804 35.8703695,28.6258437 L35.8703695,25.6531131 C32.4053055,23.9647306 29.9623684,20.397989 29.9623684,16.3068053 C29.9623684,10.5406177 34.6368602,5.84204442 40.4191022,5.84204442 C46.1772626,5.84204442 50.8571058,10.5406177 50.8571058,16.3068053 C50.8571058,20.4381249 48.4275474,24.0744353 44.8822117,25.7307092 L44.8822117,29.6586736 C45.7571738,29.9262461 46.6883261,30.2633875 47.5392067,30.6754492 C49.1633718,27.1836279 52.4277565,24.457064 56.0854727,23.2422848 L56.0854727,20.0635234 C52.5615427,18.383168 50.1400115,14.8217779 50.1400115,10.6529982 C50.1400115,4.86272903 54.7797188,0.225697413 60.5512579,0.225697413 C66.3147698,0.225697413 70.9919373,4.86272903 70.9919373,10.6529982 C70.9919373,14.8217779 68.5757575,18.383168 65.0304217,20.0635234 L65.0304217,23.2422848 C68.688138,24.4410097 71.8990081,27.1836279 73.5204975,30.6754492 C74.3419451,30.2633875 75.3159091,29.9262461 76.2015741,29.6586736 L76.2015741,25.6745189 Z" id="Fill-2" fill="#FEFEFE"></path>
                    <path d="M116.807843,52.0515495 C116.880088,42.3440188 110.196126,34.4345754 96.6007672,34.4345754 C87.5782221,34.4345754 76.81378,41.9908231 76.81378,61.3684244 L76.81378,90.1137392 C80.7256901,87.5423674 86.1654392,85.1957565 89.1033854,85.1529449 L89.1033854,58.3502064 C89.1033854,48.0888006 96.4937382,45.0839613 99.9373964,45.0839613 C97.9894685,46.8793729 96.836231,49.0841704 96.836231,52.0515495 C96.836231,57.4912987 101.336801,62.0186256 106.822037,62.0186256 C112.317976,62.0186256 116.569704,57.9996864 116.807843,52.0515495" id="Fill-4" fill="#E50121"></path>
                    <path d="M4.26283146,52.0515495 C4.17453253,42.3440188 10.8451152,34.4345754 24.464556,34.4345754 C33.4790739,34.4345754 44.2435161,41.9908231 44.2435161,61.3684244 L44.2435161,90.1137392 C40.350336,87.5423674 34.9052354,85.1957565 31.940532,85.1529449 L31.940532,58.3502064 C31.940532,48.0888006 24.5635579,45.0839613 21.1011696,45.0839613 C23.0490975,46.8793729 24.2424709,49.0841704 24.2424709,52.0515495 C24.2424709,57.4912987 19.7017654,62.0186256 14.2352589,62.0186256 C8.76607682,62.0186256 4.52772825,57.9996864 4.26283146,52.0515495" id="Fill-6" fill="#E50121"></path>
                    <path d="M60.5523282,118.597101 C83.3521819,118.597101 88.4681683,99.4790447 89.1745597,94.6145764 L89.1745597,88.155376 C82.1186726,89.907976 75.8253671,93.6459639 71.5522341,99.2596352 C70.0163679,92.7148116 65.8903998,87.103816 60.5523282,83.4942629 C55.1848236,87.103816 51.0428011,92.7148116 49.4908806,99.2596352 C45.2498563,93.6459639 38.9083878,89.907976 31.8846094,88.155376 L31.8846094,94.6145764 C32.5749464,99.4790447 37.7176901,118.597101 60.5523282,118.597101" id="Fill-8" fill="#E50121"></path>
                    <path d="M62.1486658,17.7974518 L62.1165571,25.6881651 C66.0043857,26.2206344 69.4935312,28.9445226 70.6922561,32.1580685 C66.0632516,35.1682592 62.3199122,39.7250191 60.5245007,45.381502 C58.7317648,39.7250191 54.9670196,35.1682592 50.3620967,32.1580685 C51.8203669,28.9445226 55.0713729,26.2206344 58.9110384,25.6881651 L58.9110384,17.776046 C55.6493295,17.026843 53.2465284,14.1103026 53.2465284,10.6532657 C53.2465284,6.58616357 56.4975344,3.31910321 60.5512579,3.31910321 C64.6076572,3.31910321 67.8987991,6.58616357 67.8987991,10.6532657 C67.8987991,14.1424113 65.437132,17.0696546 62.1486658,17.7974518" id="Fill-10" fill="#E50121"></path>
                    <path d="M41.9999206,23.3972093 L41.9999206,31.8471492 C51.9482665,33.8325372 59.0389381,44.3802456 59.0389381,54.0503162 L59.0389381,81.0216253 C54.3323376,83.6037 49.8290922,89.0969637 48.3440648,93.688508 C47.9507332,93.2550405 47.6269705,92.8242488 47.0998526,92.3666998 L47.0998526,57.4912987 C47.0998526,46.9864019 41.4915328,36.4681265 31.4361578,33.0191168 C31.4361578,33.0191168 34.6978667,31.6330912 38.7622932,31.6759028 L38.7622932,23.3972093 C35.5273415,22.6640606 33.1165132,19.7528717 33.1165132,16.3065378 C33.1165132,12.2394356 36.3434377,8.96434805 40.418567,8.96434805 C44.4535605,8.96434805 47.7366752,12.2394356 47.7366752,16.3065378 C47.7366752,19.7528717 45.2643052,22.6640606 41.9999206,23.3972093" id="Fill-12" fill="#E50121"></path>
                    <path d="M82.2794837,23.4480481 L82.2794837,31.6759028 C86.3679916,31.6330912 89.6511063,33.0191168 89.6511063,33.0191168 C79.5689741,36.4681265 73.9740329,47.189757 73.9740329,57.4912987 L73.9740329,92.3666998 C73.4228336,92.8242488 73.0803407,93.2550405 72.7137664,93.6858322 C71.2340904,89.0969637 66.712115,83.6037 62.0215689,81.0216253 L62.0215689,54.0503162 C62.0215689,44.3802456 69.0694288,33.8325372 79.0472077,31.8471492 L79.0472077,23.3972093 C75.8256347,22.6640606 73.3746705,19.7528717 73.3746705,16.3065378 C73.3746705,12.2394356 76.6283522,8.96434805 80.6820758,8.96434805 C84.7572051,8.96434805 88.0162383,12.2394356 88.0162383,16.3065378 C88.0162383,19.7528717 85.5304897,22.7336295 82.2794837,23.4480481" id="Fill-14" fill="#E50121"></path>
                </g>
            </g>
        </g>
    </g>
</svg>