<?xml version="1.0" encoding="UTF-8"?>
<svg width="22px" height="22px" viewBox="0 0 22 22" version="1.1" xmlns="http://www.w3.org/2000/svg" xmlns:xlink="http://www.w3.org/1999/xlink">
    <title>DR@2x</title>
    <g id="DR" stroke="none" stroke-width="1" fill="none" fill-rule="evenodd">
        <g id="编组">
            <rect id="矩形" fill="#D8D8D8" opacity="0" x="0" y="0" width="22" height="22"></rect>
            <g id="编组-8" transform="translate(4.000000, 2.000000)" fill-rule="nonzero">
                <path d="M1.63232643,10.6957351 C2.45813283,11.5705265 2.80704041,11.6141752 3.03496999,11.6596425 C3.82746359,11.8196875 4.62697042,11.2304309 4.62697042,11.2304309 L10.3304698,7.60759391 C10.1463728,7.87312312 9.94123618,8.18775706 9.73609956,8.47874798 C9.4345312,8.9043222 9.23465449,9.20622528 8.93483943,9.56996393 C8.53859263,10.0664672 7.45505048,10.530234 7.45505048,10.530234 L5.04776349,11.4995975 C3.02269686,12.4089441 2.41780682,11.8178688 1.68667887,11.0158251 C1.16945406,10.4465741 0.799506825,10.2610674 0.529497941,10.1974131 C0.358788852,10.165292 0.185759727,10.1482564 0.0122731311,10.1464897 C0.603970976,10.0657357 1.1992107,10.2662029 1.63232643,10.6920977" id="路径" fill="#EF845D"></path>
                <path d="M0.238449404,10.1846823 C1.15016771,10.3429086 1.50784182,11.0176438 2.29332221,11.7232968 C3.2383533,12.5744452 4.66554312,12.0306559 4.66554312,12.0306559 L7.86532372,11.1213093 L7.86532372,11.1213093 C7.49712979,11.6851042 7.1715996,12.2058567 6.88873315,12.6835668 L6.88873315,12.6835668 C6.63801061,13.1073223 6.42060086,13.4983414 6.23475059,13.8602613 C6.23475059,13.8602613 4.41657389,13.7766014 2.52475839,12.2689047 C2.02068517,11.8293599 1.56179924,11.3369042 1.15542763,10.7994006 C0.874105242,10.4363398 0.461521961,10.2088778 0.0140264355,10.1701111 C0.0901771542,10.1697678 0.166283375,10.1740187 0.241956013,10.1828636" id="路径" fill="#F5B090"></path>
                <path d="M6.02260075,17.6813359 C6.44313867,17.8550038 6.88886299,17.9539905 7.34108569,17.9741455 C6.01532669,16.6918733 4.76473826,15.3284471 3.59602741,13.8911791 C3.59602741,13.8911791 5.34933185,17.4758235 6.02260075,17.6813359" id="路径" fill="#E60012"></path>
                <path d="M12.6448316,17.1975635 C12.6448316,17.1975635 6.05065363,15.6844107 3.53816836,13.7656893 C3.53816836,13.7656893 6.88171993,16.9411277 8.56313889,17.9923324 C8.56313889,17.9923324 9.7536326,18.1341905 12.6448316,17.1975635" id="路径" fill="#E60012"></path>
                <path d="M6.02260075,17.6813359 C5.87953978,17.6139897 5.75527485,17.5101194 5.66142004,17.3794328 C5.26341993,16.8338248 5.27744637,15.9717642 5.91214257,14.4986227 C2.80002719,13.2509991 1.79889036,11.7196594 1.79889036,11.7196594 C0.724114734,10.2647048 0.420793066,10.3247216 0.420793066,10.3247216 C0.420793066,10.3247216 0.980097182,10.5884322 2.36520769,13.0018381 C3.37160444,14.7550584 4.91100574,17.3321468 6.02260075,17.6813359" id="路径" fill="#F9D0BA"></path>
                <path d="M1.17646728,10.0519176 C1.70245861,10.2119627 2.18461733,10.57752 2.59839718,10.8157688 C3.29971896,11.2231561 4.00104073,10.488404 4.00104073,10.488404 L13.994876,0 C13.994876,0 14.0755281,0.512871499 13.5968759,1.80050633 C13.2939113,2.43152877 12.8661643,2.98925178 12.34151,3.43733026 C10.902047,4.69950338 4.25526988,10.6284434 4.25526988,10.6284434 C4.25526988,10.6284434 3.3943974,11.4995975 2.61242362,10.9776325 C2.61242362,10.9776325 2.0531195,10.5866135 1.96019436,10.512047 C1.71907482,10.3209328 1.45354468,10.1654662 1.17120737,10.050099" id="路径" fill="#E60012"></path>
                <path d="M1.17997389,10.1101158 C1.94441462,10.4247498 2.24422968,10.9285278 2.90873207,11.2140626 C3.55044149,11.3832011 4.13604518,10.850324 4.13604518,10.850324 L12.7552898,3.8047063 C12.4887875,4.32485257 12.1591663,4.9122905 11.7576596,5.57247615 C11.3245934,6.28904129 10.0674741,7.11836542 10.0674741,7.11836542 L4.90925243,10.7557519 C2.99113738,12.3016412 2.37923413,11.2740795 1.64985948,10.6175313 C1.188234,10.2270841 0.588694439,10.0578958 0,10.1519458 C0.370951291,9.97610458 0.794752046,9.96363813 1.17471398,10.1173906" id="路径" fill="#EA5532"></path>
            </g>
        </g>
    </g>
</svg>