<?xml version="1.0" encoding="UTF-8"?>
<svg width="287px" height="320px" viewBox="0 0 287 320" version="1.1" xmlns="http://www.w3.org/2000/svg" xmlns:xlink="http://www.w3.org/1999/xlink">
    <!-- Generator: Sketch 61 (89581) - https://sketch.com -->
    <title>东海航空DZ</title>
     
    <g id="页面-1" stroke="none" stroke-width="1" fill="none" fill-rule="evenodd">
        <g id="东海航空DZ" transform="translate(-17.000000, 0.000000)">
            <g id="东海航空有限公司" transform="translate(16.000000, 0.000000)">
                <path d="M132.196111,125.763127 C149.645256,116.741534 165.706224,105.825266 178.926742,93.3988862 C190.093131,67.2017196 197.130943,21.7998632 179.147162,0.000156326332 C185.154783,23.4647386 169.254831,73.7361602 108.350093,119.106751 C88.5122814,133.80768 82.2748608,154.55531 96.8397851,172.401524 C98.4655789,174.447836 99.9084709,176.537919 101.465481,178.507631 C103.228842,180.508608 104.815554,182.415789 106.083361,184.369868 C106.266263,184.584035 106.427279,184.766937 106.602364,184.949839 C106.48043,184.827904 106.342863,184.645002 106.213112,184.491803 C95.7705129,154.325511 119.13661,132.586771 132.196111,125.763127" id="Fill-2" fill="#FED800"></path>
                <path d="M108.556444,187.43871 C108.41106,187.194841 108.235975,186.93534 108.045256,186.660205 C108.235975,186.93534 108.41106,187.194841 108.556444,187.43871" id="Fill-3" fill="#FCD000"></path>
                <path d="M112.579033,195.636776 C112.250747,194.736336 111.983429,193.788999 111.594177,192.858857 C111.983429,193.788999 112.250747,194.736336 112.579033,195.636776" id="Fill-4" fill="#EC6C00"></path>
                <path d="M143.416903,153.333933 C160.95828,144.800078 180.76639,135.289184 198.626673,122.160899 C214.847093,96.0700342 231.877284,52.0266536 215.770982,18.3492721 C215.969516,46.6537176 201.474939,72.208383 178.926429,93.3984172 C165.705911,105.824797 149.644944,116.741065 132.195799,125.762658 C119.136297,132.587865 95.7702003,154.326605 106.212799,184.492897 C106.34255,184.644533 106.480117,184.827435 106.602052,184.950933 C107.060088,185.515271 107.586908,186.079609 108.044944,186.65958 C108.235662,186.934714 108.410747,187.194216 108.556131,187.438085 C109.731705,188.965393 110.66341,190.752203 111.510699,192.521817 C111.166781,191.880879 110.869761,191.210239 110.472692,190.506771 C112.578407,168.447562 128.81446,160.356111 143.416903,153.333933" id="Fill-5" fill="#EF8200"></path>
                <path d="M113.502609,205.498779 C113.563576,204.735906 113.63236,203.941768 113.63236,203.102296 C113.63236,203.941768 113.563576,204.735906 113.502609,205.498779" id="Fill-6" fill="#E4006E"></path>
                <path d="M158.774714,169.65362 C177.621417,165.088891 194.567191,159.68469 209.313454,153.348784 C244.502511,128.72426 258.485901,72.0262628 247.471148,46.0729653 C247.563381,47.8597753 247.341397,52.6840059 246.67701,55.1570884 C238.349507,85.5969516 219.870171,106.482149 198.626986,122.160117 C180.765139,135.289966 160.95703,144.80086 143.417215,153.334714 C128.814773,160.356893 112.57872,168.448344 110.473004,190.507553 C110.86851,191.209458 111.167093,191.881661 111.511011,192.522599 C111.579795,192.675799 111.579795,192.782101 111.593864,192.858701 C111.983117,193.788842 112.250435,194.73618 112.57872,195.636619 C113.089907,197.514099 113.404123,199.346243 113.563576,201.28469 C122.708666,183.225872 146.889223,172.645706 158.774714,169.65362" id="Fill-7" fill="#E30077"></path>
                <path d="M110.914939,214.948549 C110.96809,214.795349 111.04469,214.720313 111.075955,214.582745 C111.04469,214.720313 110.96809,214.795349 110.914939,214.948549" id="Fill-8" fill="#B50081"></path>
                <path d="M164.270523,194.736023 C181.949468,194.262355 198.382491,192.170708 213.191285,188.828451 C249.151031,172.157811 282.568911,129.380674 274.355525,90.5445237 C267.409946,118.023566 244.501886,138.311597 209.312829,153.348627 C194.566566,159.684533 177.620791,165.088735 158.774089,169.653464 C146.890161,172.64555 122.708041,183.225716 113.562951,201.284533 C113.562951,201.895769 113.631734,202.536707 113.631734,203.102609 C113.631734,203.942081 113.562951,204.734656 113.501983,205.499091 C113.297196,207.940909 112.792262,210.201387 111.984055,212.414968 C111.991871,212.322736 112.074724,212.277401 112.074724,212.216434 C126.333249,197.743742 154.51576,194.96426 164.270523,194.736023" id="Fill-9" fill="#B50081"></path>
                <path d="M285.637128,158.632926 C286.911187,154.111969 288.324377,149.456571 287.972643,144.540107 C287.591207,146.326917 285.354177,149.456571 283.622081,151.731119 C271.026869,167.717049 246.005276,181.333073 213.190816,188.827357 C198.383586,192.171177 181.948999,194.262824 164.270054,194.736492 C154.515291,194.964729 126.334343,197.744211 112.075818,212.21534 C112.075818,212.276307 111.991402,212.323205 111.983586,212.413874 C111.686566,213.10171 111.411431,213.895848 111.07533,214.58212 C111.044064,214.719687 110.969028,214.796287 110.914314,214.947924 C109.349487,218.169809 107.174988,221.039961 104.556522,223.375476 C105.113043,222.856473 105.708647,222.306204 106.296434,221.712164 C122.540303,214.367953 167.254323,219.72682 176.224328,221.574597 C185.902491,223.542745 196.26849,224.779287 206.93151,225.009086 C243.661944,214.796287 276.615535,190.570396 285.637128,158.632926" id="Fill-10" fill="#6B1785"></path>
                <path d="M100.419502,226.382882 C100.824387,226.107748 101.229272,225.848246 101.64041,225.54341 C101.229272,225.848246 100.824387,226.107748 100.419502,226.382882" id="Fill-11" fill="#6B1785"></path>
                <path d="M97.3662921,227.985852 C98.1072789,227.620049 98.8170005,227.29958 99.4954568,226.902511 C98.8170005,227.29958 98.1072789,227.620049 97.3662921,227.985852" id="Fill-12" fill="#6B1785"></path>
                <path d="M102.587279,225.00893 C102.968715,224.643127 103.336082,224.336727 103.725335,224.031891 C103.336082,224.336727 102.968715,224.643127 102.587279,225.00893" id="Fill-13" fill="#6B1785"></path>
                <path d="M91.2673766,229.787357 C91.48936,229.787357 91.8238984,229.665423 92.077147,229.604455 C91.8238984,229.665423 91.48936,229.787357 91.2673766,229.787357" id="Fill-14" fill="#2D2087"></path>
                <path d="M93.5344211,229.314001 C93.7861065,229.314001 94.0768735,229.099834 94.3129262,229.099834 C94.0768735,229.099834 93.7861065,229.314001 93.5344211,229.314001" id="Fill-15" fill="#2D2087"></path>
                <path d="M106.296903,221.711539 C105.709116,222.307142 105.113512,222.855848 104.556991,223.374851 C104.236522,223.649985 104.006722,223.803185 103.723771,224.031422 C103.334519,224.337821 102.968715,224.642658 102.587279,225.008461 C102.258994,225.161661 101.930708,225.344563 101.639941,225.543097 C101.228803,225.847934 100.823918,226.108999 100.419033,226.38257 C100.143898,226.565471 99.8015437,226.749936 99.4951441,226.901573 C98.8166878,227.298642 98.1069663,227.619111 97.3659795,227.986478 C96.9157596,228.199082 96.365491,228.322579 95.8089692,228.582081 C95.9230874,228.519551 96.0387689,228.444514 96.0841036,228.444514 C100.770767,229.101085 105.45743,230.123459 110.159726,231.145833 C126.333249,234.764787 154.598613,248.382374 186.597049,255.449888 C227.190308,252.595369 274.615027,236.170161 283.660068,199.378759 C268.050884,218.217645 236.915369,225.543097 206.931979,225.008461 C196.268959,224.780225 185.90296,223.543683 176.223234,221.573972 C167.254792,219.726194 122.540772,214.368891 106.296903,221.711539" id="Fill-16" fill="#423691"></path>
                <path d="M72.0318906,225.925002 C72.3148412,226.153239 72.5665266,226.337704 72.8260283,226.48934 C72.5665266,226.337704 72.3148412,226.153239 72.0318906,225.925002" id="Fill-17" fill="#004DA1"></path>
                <path d="M69.9938642,224.52041 C70.2221006,224.703312 70.4597167,225.008149 70.7270347,225.161348 C70.4597167,225.008149 70.2221006,224.703312 69.9938642,224.52041" id="Fill-18" fill="#004DA1"></path>
                <path d="M74.5507767,227.436365 C74.6727113,227.512965 74.8024621,227.573933 74.9556619,227.619267 C74.8024621,227.573933 74.6727113,227.512965 74.5507767,227.436365" id="Fill-19" fill="#004DA1"></path>
                <path d="M77.2605374,228.581299 C77.4668881,228.657899 77.8170591,228.764201 78.0546751,228.840801 C77.8170591,228.764201 77.4668881,228.657899 77.2605374,228.581299" id="Fill-20" fill="#004DA1"></path>
                <path d="M79.5810454,229.314001 C79.9781143,229.406234 80.3142159,229.512535 80.7331705,229.542237 C80.3142159,229.512535 79.9781143,229.406234 79.5810454,229.314001" id="Fill-21" fill="#004DA1"></path>
                <path d="M96.0837909,228.443889 C96.0384563,228.443889 95.9227748,228.520489 95.8086566,228.581456 C95.3287347,228.764358 94.855066,228.886292 94.3126136,229.100459 C94.0765608,229.100459 93.7857938,229.314626 93.5341085,229.314626 C93.0541866,229.405296 92.5414362,229.52723 92.077147,229.60383 C91.8238984,229.664797 91.48936,229.786732 91.2673766,229.786732 C89.6791011,230.077499 88.1455398,230.199433 86.5572643,230.199433 C85.000254,230.199433 83.52766,230.077499 81.978466,229.83363 C82.1613679,229.863332 82.3130044,229.939932 82.4974695,229.939932 C91.9473962,234.138857 99.3666439,239.633727 106.60299,245.466263 C127.799277,262.396404 140.722775,273.189174 156.141241,280.226986 C184.200254,283.708373 219.236111,281.097723 245.197225,265.907494 C251.387748,261.3881 256.723166,257.403341 260.493757,252.474372 C258.378661,254.001681 249.052233,257.05317 241.426634,258.242814 C222.945735,261.159863 204.244416,259.357421 186.596737,255.449262 C154.599863,248.381749 126.334499,234.764162 110.159414,231.146771 C105.457118,230.122833 100.770454,229.100459 96.0837909,228.443889" id="Fill-22" fill="#0060B0"></path>
                <path d="M82.4968442,229.939932 C82.3139424,229.939932 82.1607426,229.863332 81.9778407,229.83363 C81.6042208,229.786732 81.1227357,229.664797 80.7334831,229.542863 C80.3145286,229.513161 79.978427,229.405296 79.5813581,229.314626 C79.0623547,229.130161 78.5652369,229.039492 78.0540498,228.840957 C77.8179971,228.764358 77.4662628,228.658056 77.2599121,228.581456 C76.4673376,228.290689 75.6950855,228.017118 74.9556619,227.620049 C74.8024621,227.573151 74.6727113,227.512184 74.5507767,227.435584 C73.9551734,227.14638 73.3673864,226.810278 72.824934,226.489809 C72.5654323,226.33661 72.3137469,226.153708 72.0323596,225.925471 C71.619658,225.726937 71.1694382,225.451803 70.7270347,225.161036 C70.4597167,225.009399 70.2221006,224.703 69.9938642,224.520098 C68.1320176,223.13192 66.4984074,221.451412 65.071148,219.619267 L64.9867318,219.695867 C66.2686077,221.573346 67.9553688,224.368461 69.9938642,228.153122 C79.4516072,245.739834 89.9692428,262.150972 104.158984,277.3115 C110.952926,284.486878 118.678574,290.821221 126.951363,296.087855 C164.461866,307.354294 208.320782,303.186634 223.969047,291.401192 C222.311988,291.691959 216.878085,292.332897 213.137196,292.089028 C186.521075,289.997382 170.285022,286.669194 156.140616,280.226986 C140.722149,273.189174 127.798652,262.396404 106.602364,245.466263 C99.3660186,239.633727 91.9467709,234.138857 82.4968442,229.939932" id="Fill-23" fill="#0080CB"></path>
                <path d="M104.159766,277.311187 C89.9700244,262.152223 79.4508256,245.741085 69.9946458,228.154372 C67.9561505,224.368149 66.2693894,221.574597 64.9859502,219.697118 C64.4825794,218.842013 64.0401759,218.169809 63.7275232,217.711773 C39.8283537,186.30894 1.16572545,197.239277 0.898407426,197.286175 C23.1186321,202.444944 29.4623547,219.833122 35.8592281,233.818075 C42.3921055,249.800879 54.9029018,275.433708 73.0008012,290.958476 C94.8552223,310.622765 133.714822,325.781729 171.895965,317.613679 C175.063136,316.957108 180.414187,315.720567 182.391715,314.790425 C180.467338,314.896727 174.827084,314.285491 171.842814,313.752418 C156.294597,310.988569 140.844866,304.912164 126.952145,296.089106 C118.677792,290.822472 110.953708,284.486566 104.159766,277.311187" id="Fill-24" fill="#00AAEA"></path>
            </g>
        </g>
    </g>
</svg>