<?xml version="1.0" encoding="UTF-8"?>
<svg width="320px" height="320px" viewBox="0 0 320 320" version="1.1" xmlns="http://www.w3.org/2000/svg" xmlns:xlink="http://www.w3.org/1999/xlink">
     
    <title>EU_LOGO</title>
     
    <g id="页面-1" stroke="none" stroke-width="1" fill="none" fill-rule="evenodd">
        <g id="航司LOGO备份-3" transform="translate(-1167.000000, -3199.000000)">
            <g id="切图" transform="translate(109.000000, 80.000000)"></g>
            <g id="成都航空横版" transform="translate(1167.000000, 3200.000000)" fill="#DEAE13">
                <path d="M159.223742,0.226408602 L157.000946,0.226408602 L150.053849,0.50511828 L142.824602,1.06253763 L135.884387,1.89178495 L128.933849,3.0031828 L122.262022,4.39673118 L115.597075,6.3408172 L108.928688,8.28834409 L102.53557,10.5076989 L96.4246022,13.0092043 L90.3067527,15.7894194 L84.1957849,18.8449032 L78.360086,22.1790968 L72.527828,25.792 L66.9673978,29.6836129 L61.6891183,33.5717849 L56.4108387,37.7421075 L50.8538495,42.7416774 L45.8508387,47.7446882 L40.847828,53.0229677 L36.1235269,58.3046882 L31.9566452,63.5829677 L28.0650323,69.1433978 L24.452129,74.6969462 L20.8426667,80.536086 L17.7837419,86.3683441 L14.7248172,92.4827527 L11.9514839,98.5971613 L9.44653763,104.708129 L7.49901075,111.379957 L5.55836559,117.766194 L3.88954839,124.438022 L2.49944086,131.385118 L1.39148387,138.053505 L0.555354839,145.000602 L0.00137634409,152.226409 L0.00137634409,159.173505 L0.00137634409,166.395871 L0.555354839,173.621677 L1.39148387,180.568774 L2.49944086,187.237161 L3.88954839,194.187699 L5.55836559,200.852645 L7.49901075,207.245763 L9.44653763,213.635441 L11.9514839,220.025118 L14.7248172,226.142968 L17.7837419,232.253935 L20.8426667,238.089634 L24.452129,243.925333 L28.0650323,249.482323 L31.9566452,255.042753 L36.1235269,260.317591 L40.847828,265.599312 L45.8508387,270.877591 L50.8538495,275.880602 L56.4108387,280.880172 L61.6891183,285.050495 L66.9673978,288.938667 L72.527828,292.83028 L78.360086,296.443183 L84.1957849,299.777376 L90.3067527,302.83286 L96.4246022,305.613075 L102.53557,308.114581 L108.928688,310.337376 L115.597075,312.281462 L122.262022,314.225548 L128.933849,315.619097 L135.884387,316.730495 L142.824602,317.563183 L150.053849,318.117161 L157.000946,318.395871 L159.223742,318.395871 L166.446108,318.395871 L173.671914,317.841892 L180.89772,317.005763 L187.844817,315.894366 L194.791914,314.504258 L201.73557,312.835441 L208.407398,310.616086 L215.075785,308.39329 L221.465462,305.891785 L227.858581,302.83286 L233.969548,299.777376 L239.808688,296.443183 L245.916215,292.83028 L251.476645,288.938667 L257.033634,284.775226 L262.315355,280.601462 L267.875785,275.326624 L273.150624,270.323613 L278.153634,264.766624 L283.156645,258.930925 L287.323527,253.649204 L290.93643,248.370925 L294.549333,242.813935 L297.883527,237.253505 L300.939011,231.417806 L303.997935,225.306839 L306.496,219.19243 L309.000946,213.081462 L311.223742,206.688344 L312.889118,200.295226 L314.557935,193.63028 L315.944602,186.958452 L316.77729,180.011355 L317.609978,173.342968 L318.167398,166.395871 L318.167398,159.173505 L318.167398,152.226409 L317.609978,145.279312 L316.77729,138.607484 L315.944602,131.663828 L314.557935,124.995441 L312.889118,118.323613 L311.223742,111.933935 L309.000946,105.540817 L306.496,99.4298495 L303.997935,93.3154409 L300.939011,87.2010323 L297.883527,81.3687742 L294.549333,75.8083441 L290.93643,70.2513548 L287.323527,64.6943656 L283.156645,59.6947957 L278.153634,53.8556559 L273.150624,48.3021075 L267.875785,43.2990968 L262.315355,38.0208172 L257.033634,33.8504946 L251.476645,29.6836129 L245.916215,25.792 L239.808688,22.1790968 L233.969548,18.8449032 L227.858581,15.7894194 L221.465462,12.7304946 L215.075785,10.2289892 L208.407398,8.00963441 L201.73557,5.78683871 L194.791914,4.11802151 L187.844817,2.72791398 L180.89772,1.61651613 L173.671914,0.783827957 L166.446108,0.226408602 L159.223742,0.226408602 Z M140.883957,13.5631828 L141.159226,13.0092043 L141.995355,11.6225376 L143.382022,10.2289892 L144.218151,9.67501075 L145.329548,9.39630108 L146.440946,9.12103226 L147.831054,9.39630108 L149.49643,10.2289892 L150.886538,11.343828 L151.719226,12.4517849 L151.997935,14.1206022 L151.997935,15.5107097 L151.719226,17.1795269 L151.165247,18.8449032 L150.329118,20.2350108 L149.49643,21.6216774 L148.385032,22.7330753 L147.277075,23.5692043 L146.162237,24.1231828 L145.05428,24.1231828 L143.942882,23.5692043 L143.106753,22.7330753 L142.549333,21.0676989 L142.270624,20.2350108 L141.716645,19.6810323 L140.605247,19.6810323 L139.493849,19.9563011 L138.939871,20.2350108 L138.382452,20.7924301 L137.825032,21.6216774 L137.549763,22.4578065 L137.271054,23.5692043 L137.549763,24.4018925 L137.825032,25.2345806 L138.382452,26.0672688 L140.605247,26.9033978 L142.549333,28.0182366 L143.664172,28.2935054 L144.77557,28.2935054 L146.162237,28.2935054 L147.277075,28.0182366 L149.77514,26.9033978 L152.276645,25.2345806 L153.388043,24.1231828 L154.220731,23.0152258 L155.05686,21.6216774 L155.61428,20.2350108 L156.168258,18.2909247 L157.000946,16.3468387 L158.112344,14.395871 L159.502452,13.0092043 L161.167828,11.6225376 L162.833204,10.5076989 L165.059441,9.95372043 L167.282237,9.67501075 L170.059011,9.95372043 L173.114495,10.5076989 L174.504602,11.343828 L175.340731,12.1765161 L175.619441,12.7304946 L175.619441,13.0092043 L174.229333,12.7304946 L172.835785,13.0092043 L171.170409,13.287914 L170.059011,13.5631828 L168.947613,13.8418925 L167.282237,14.9532903 L166.170839,16.3468387 L165.338151,18.0122151 L165.338151,19.4023226 L165.613419,20.7924301 L165.892129,21.0676989 L166.446108,21.3464086 L166.724817,21.3464086 L167.560946,21.3464086 L170.891699,20.2350108 L173.947183,19.9563011 L176.452129,19.6810323 L178.953634,19.9563011 L181.172989,20.5137204 L183.674495,21.3464086 L188.677505,23.0152258 L190.342882,23.5692043 L191.732989,23.8444731 L192.844387,23.8444731 L193.955785,23.2904946 L196.460731,21.6216774 L197.568688,20.7924301 L198.680086,20.5137204 L199.516215,20.2350108 L200.348903,20.7924301 L201.460301,21.6216774 L202.568258,23.2904946 L204.237075,24.955871 L207.296,27.4608172 L216.744602,34.1257634 L230.917505,43.8530753 L232.025462,44.1317849 L232.582882,43.5778065 L233.13686,43.0203871 L233.41557,42.4629677 L234.248258,40.5188817 L235.638366,38.8535054 L236.753204,37.7421075 L237.861161,37.1846882 L238.976,36.6272688 L240.083957,36.6272688 L241.195355,36.9094194 L242.028043,37.4633978 L243.142882,38.296086 L243.97557,39.1322151 L244.529548,39.9649032 L245.086968,41.0763011 L245.362237,42.1842581 L245.362237,43.2990968 L245.362237,44.4104946 L244.808258,45.2431828 L244.250839,46.3545806 L243.69686,46.912 L243.142882,47.1872688 L242.306753,47.4694194 L241.752774,47.1872688 L241.195355,47.1872688 L240.083957,46.3545806 L238.976,45.2431828 L238.418581,44.1317849 L238.418581,43.5778065 L238.69729,43.5778065 L239.808688,44.1317849 L240.641376,44.4104946 L241.474065,44.4104946 L242.028043,44.1317849 L242.585462,43.5778065 L242.585462,43.0203871 L242.585462,42.4629677 L242.028043,41.9089892 L240.641376,40.7975914 L239.251269,40.5188817 L238.139871,40.7975914 L237.028473,41.6302796 L236.195785,42.7416774 L235.638366,43.8530753 L235.359656,45.2431828 L235.359656,46.6298495 L235.917075,47.7446882 L236.753204,49.1347957 L237.861161,50.5214624 L239.251269,51.3575914 L240.641376,52.1902796 L242.028043,52.4689892 L243.142882,52.4689892 L244.250839,51.6363011 L245.640946,51.3575914 L246.198366,51.0788817 L245.362237,52.7442581 L244.808258,53.8556559 L243.97557,54.6883441 L243.418151,55.2457634 L242.585462,55.5244731 L241.752774,55.8031828 L240.362667,55.5244731 L237.585892,54.1343656 L236.195785,53.5803871 L235.638366,53.5803871 L235.080946,53.8556559 L234.523527,54.1343656 L233.969548,54.6883441 L233.969548,55.2457634 L233.969548,55.8031828 L234.523527,56.9145806 L235.638366,58.0259785 L236.474495,58.5833978 L237.585892,59.1408172 L239.529978,59.416086 L241.195355,59.416086 L241.752774,59.6947957 L241.752774,59.9735054 L241.474065,60.8061935 L240.920086,61.6388817 L240.083957,62.1928602 L239.529978,62.4715699 L238.69729,62.4715699 L237.585892,62.7502796 L235.638366,62.1928602 L233.69428,61.360172 L232.025462,59.9735054 L230.638796,58.0259785 L230.081376,57.1898495 L229.802667,56.0784516 L229.802667,53.8556559 L230.081376,51.0788817 L230.081376,49.9674839 L229.802667,48.856086 L229.523957,48.0233978 L228.969978,47.4694194 L213.964387,37.1846882 L199.791484,27.7395269 L198.680086,27.4608172 L196.460731,27.1821075 L193.401806,27.1821075 L191.732989,27.1821075 L190.342882,27.7395269 L188.398796,28.5722151 L185.622022,29.4049032 L182.563097,30.2375914 L179.228903,30.7950108 L175.619441,31.3524301 L172.003097,31.3524301 L168.114925,31.3524301 L164.502022,30.5163011 L163.944602,31.3524301 L162.275785,33.0178065 L160.05643,35.2406022 L157.000946,37.7421075 L154.778151,39.4074839 L151.719226,40.5188817 L148.663742,41.3515699 L144.77557,41.6302796 L142.549333,41.3515699 L140.605247,40.7975914 L138.939871,40.2436129 L137.271054,39.4074839 L134.49428,37.4633978 L131.714065,35.2406022 L128.658581,33.2930753 L126.711054,32.4603871 L124.488258,31.9064086 L122.262022,31.3524301 L119.485247,31.0737204 L116.154495,31.0737204 L112.538151,31.0737204 L109.761376,31.6276989 L106.702452,32.1816774 L103.925677,33.0178065 L101.145462,34.1257634 L98.0899785,35.7945806 L95.3132043,37.4633978 L92.2577204,39.4074839 L89.4740645,41.9089892 L88.0873978,43.5778065 L86.9725591,45.5184516 L84.4744946,49.6887742 L83.0843871,51.6363011 L81.4155699,53.3016774 L80.304172,53.8556559 L79.1927742,54.4130753 L77.8061075,54.6883441 L76.1372903,54.9704946 L74.7471828,55.2457634 L73.6392258,55.5244731 L72.527828,56.0784516 L71.4129892,56.9145806 L70.0228817,58.8621075 L68.6362151,61.0814624 L68.3575054,61.0814624 L68.3575054,60.8061935 L68.0787957,59.6947957 L68.0787957,58.5833978 L68.6362151,56.635871 L69.4689032,54.4130753 L70.0228817,53.3016774 L70.8555699,52.7442581 L71.6951398,52.1902796 L72.2491183,51.6363011 L72.527828,50.8036129 L72.527828,49.9674839 L72.527828,49.4135054 L72.527828,48.5808172 L72.8030968,47.1872688 L73.0818065,46.075871 L73.9144946,44.6857634 L75.3046022,43.2990968 L76.9699785,41.3515699 L79.7501935,39.1322151 L82.5304086,36.9094194 L85.5858925,34.9584516 L88.6413763,33.0178065 L91.9755699,31.3524301 L95.3132043,29.9588817 L98.9226667,28.5722151 L102.53557,27.4608172 L106.148473,26.6246882 L110.036645,26.0672688 L113.652989,25.5132903 L117.262452,25.5132903 L120.875355,25.5132903 L124.488258,25.792 L128.101161,26.3494194 L131.435355,27.1821075 L133.658151,27.7395269 L134.21557,27.7395269 L134.21557,27.4608172 L133.93686,24.955871 L133.93686,23.0152258 L134.21557,21.3464086 L134.49428,19.9563011 L135.326968,19.1236129 L136.159656,18.2909247 L136.992344,17.7335054 L138.103742,17.4582366 L140.326538,16.9008172 L142.270624,16.9008172 L143.942882,16.9008172 L144.49686,16.6221075 L144.77557,16.3468387 L145.05428,15.232 L145.05428,14.1206022 L144.49686,13.0092043 L144.218151,12.7304946 L143.664172,13.0092043 L142.549333,13.5631828 L141.437935,13.8418925 L141.159226,13.8418925 L140.883957,13.8418925 L140.883957,13.5631828 Z M191.732989,86.6470538 L190.067613,83.0341505 L188.123527,79.4246882 L185.900731,76.3657634 L183.674495,73.3102796 L181.451699,70.2513548 L178.953634,67.7498495 L173.947183,63.0289892 L169.226323,58.8621075 L164.780731,55.5244731 L158.112344,50.5214624 L162.000516,51.3575914 L166.170839,52.4689892 L171.727828,54.4130753 L177.838796,57.1898495 L181.172989,58.8621075 L184.507183,61.0814624 L188.123527,63.3042581 L191.732989,66.0844731 L195.067183,68.8646882 L198.404817,72.1988817 L203.958366,78.3098495 L208.407398,84.1455484 L212.020301,89.4272688 L214.797075,94.7055484 L217.023312,99.4298495 L218.967398,103.875441 L220.078796,108.042323 L220.911484,111.655226 L221.465462,115.546839 L222.022882,117.212215 L222.85557,118.881032 L223.409548,116.100817 L223.688258,114.714151 L223.688258,113.045333 L223.966968,108.878452 L223.966968,104.708129 L223.966968,101.098667 L223.409548,97.2036129 L222.85557,93.5941505 L222.022882,89.9812473 L220.357505,83.5915699 L218.131269,77.755871 L216.187183,72.4741505 L214.239656,68.3072688 L213.128258,64.6943656 L215.911914,67.4745806 L218.967398,70.5300645 L222.580301,74.9756559 L226.471914,80.536086 L228.69471,83.5915699 L230.638796,87.2010323 L232.304172,90.8173763 L233.969548,94.9842581 L235.638366,99.4298495 L236.753204,103.875441 L238.418581,111.379957 L239.251269,118.323613 L239.808688,124.438022 L239.808688,130.27372 L239.529978,135.276731 L238.976,139.718882 L238.139871,143.889204 L237.028473,147.502108 L235.080946,152.226409 L234.248258,154.727914 L233.69428,157.225978 L235.917075,154.727914 L238.139871,151.67243 L240.641376,148.334796 L242.585462,145.000602 L244.250839,141.666409 L245.916215,138.053505 L247.034495,134.719312 L248.142452,131.385118 L250.089978,124.716731 L251.201376,118.602323 L252.034065,113.045333 L253.142022,104.708129 L254.253419,108.599742 L255.368258,112.766624 L256.200946,118.323613 L257.033634,125.27071 L257.033634,128.883613 L257.033634,133.053935 L256.476215,137.220817 L255.922237,141.39114 L255.089548,146.112 L253.978151,150.561032 L252.312774,155.006624 L250.922667,159.448774 L247.867183,166.674581 L244.529548,173.064258 L240.920086,178.621247 L237.585892,183.07028 L234.248258,186.683183 L230.917505,189.735226 L227.858581,191.961462 L225.635785,193.63028 L223.409548,195.295656 L227.025892,194.462968 L231.192774,192.518882 L236.474495,190.013935 L241.474065,186.958452 L245.916215,183.627699 L249.811269,180.290065 L253.699441,176.677161 L256.758366,173.064258 L262.315355,166.674581 L265.370839,162.507699 L267.593634,159.173505 L267.318366,160.563613 L266.482237,164.173075 L265.092129,169.451355 L263.705462,172.788989 L262.315355,176.123183 L259.259871,181.680172 L255.646968,187.515871 L253.420731,190.571355 L250.922667,193.63028 L248.421161,196.407054 L245.362237,199.187269 L242.028043,202.521462 L238.69729,205.301677 L235.359656,208.078452 L232.025462,210.301247 L225.914495,214.19286 L220.357505,216.969634 L215.075785,219.19243 L210.351484,220.582538 L205.905892,221.693935 L202.01428,222.247914 L198.680086,222.247914 L195.903312,222.530065 L197.568688,223.084043 L199.516215,223.641462 L204.515785,224.474151 L208.686108,224.75286 L212.57428,224.75286 L216.465892,224.75286 L220.357505,224.195441 L223.966968,223.641462 L227.583312,222.808774 L234.248258,221.136516 L240.083957,219.19243 L245.362237,216.969634 L253.142022,213.914151 L250.365247,216.690925 L247.313204,219.749849 L242.864172,223.362753 L237.307183,227.250925 L233.969548,229.195011 L230.638796,231.142538 L226.747183,233.090065 L222.580301,234.755441 L218.131269,236.145548 L213.685677,237.253505 L208.961376,238.368344 L204.515785,239.201032 L200.348903,239.755011 L196.460731,240.03372 L189.510194,240.31243 L183.120516,240.03372 L177.284817,239.201032 L172.560516,238.089634 L168.114925,236.699527 L164.502022,235.31286 L161.443097,233.644043 L158.666323,231.975226 L161.443097,235.034151 L163.390624,236.978237 L165.892129,238.643613 L169.226323,241.145118 L172.560516,243.092645 L175.89471,244.758022 L179.507613,246.426839 L182.841806,247.538237 L186.176,248.646194 L192.844387,250.59372 L198.958796,251.705118 L204.515785,252.537806 L212.852989,253.649204 L208.961376,254.764043 L204.791054,255.875441 L199.237505,256.708129 L192.290409,257.540817 L188.677505,257.540817 L184.507183,257.540817 L180.340301,256.983398 L176.173419,256.429419 L171.449118,255.596731 L167.003527,254.485333 L161.721806,252.537806 L157.000946,250.87243 L150.886538,248.092215 L145.329548,245.315441 L140.605247,242.256516 L136.438366,239.201032 L133.104172,236.145548 L130.323957,233.365333 L127.822452,230.309849 L125.878366,227.808344 L123.65557,224.75286 L122.262022,222.530065 L123.098151,226.142968 L124.766968,231.417806 L126.435785,235.034151 L128.379871,238.368344 L130.323957,241.420387 L132.546753,244.204043 L136.992344,249.757591 L141.437935,254.206624 L146.162237,258.376946 L150.329118,261.707699 L157.000946,267.268129 L158.112344,268.100817 L157.833634,268.100817 L157.000946,267.822108 L154.778151,267.268129 L151.165247,266.156731 L146.719656,264.766624 L141.716645,262.540387 L136.159656,259.763613 L133.104172,258.098237 L130.045247,255.875441 L126.989763,253.927914 L124.212989,251.426409 L121.154065,248.646194 L118.098581,245.594151 L115.039656,242.256516 L112.262882,238.643613 L107.259871,232.253935 L103.650409,226.142968 L100.866753,220.303828 L98.643957,215.025548 L97.2572903,210.301247 L96.4246022,205.855656 L95.8671828,201.967484 L95.591914,198.35114 L95.3132043,196.128344 L94.2018065,199.741247 L93.3691183,204.465548 L92.8116989,208.63243 L92.8116989,212.527484 L93.0904086,216.415656 L93.3691183,220.303828 L93.9230968,223.920172 L94.7557849,227.529634 L96.4246022,234.201462 L98.643957,240.03372 L100.591484,245.315441 L102.53557,249.482323 L103.650409,252.816516 L100.866753,250.315011 L97.8112688,247.259527 L94.2018065,242.813935 L90.3067527,236.978237 L88.3661075,233.922753 L86.4185806,230.309849 L84.7532043,226.418237 L83.0843871,222.530065 L81.6977204,218.081032 L80.5828817,213.635441 L79.4714839,208.91114 L78.9140645,204.465548 L77.8061075,196.407054 L77.5273978,189.181247 L78.0813763,182.795011 L78.9140645,177.234581 L80.0289032,172.51028 L81.4155699,168.061247 L82.8091183,164.451785 L83.9205161,162.228989 L84.4744946,160.006194 L82.2516989,162.228989 L79.4714839,165.563183 L76.9699785,169.172645 L75.0258925,172.51028 L73.3605161,175.844473 L71.6951398,179.457376 L70.3015914,182.795011 L69.1901935,186.125763 L67.5248172,192.794151 L66.1347097,198.908559 L65.3020215,204.465548 L64.748043,208.91114 L63.911914,212.527484 L62.8005161,208.91114 L61.967828,204.744258 L60.8529892,198.908559 L60.2990108,192.240172 L60.2990108,188.348559 L60.5777204,184.460387 L60.8529892,180.290065 L61.4138495,175.844473 L62.5218065,171.398882 L63.6366452,166.95329 L65.3020215,162.228989 L66.6886882,158.058667 L68.3575054,154.173935 L70.0228817,150.561032 L73.6392258,144.446624 L76.9699785,138.886194 L80.5828817,134.444043 L84.1957849,130.83114 L87.5299785,128.050925 L90.5854624,125.824688 L91.9755699,124.438022 L93.3691183,122.772645 L90.3067527,123.605333 L86.9725591,124.716731 L81.6977204,127.218237 L76.9699785,130.27372 L72.527828,133.329204 L68.6362151,136.663398 L65.0233118,140.001032 L61.967828,143.613935 L56.4108387,150.003613 L53.0766452,154.449204 L50.0177204,157.783398 L50.2929892,156.39329 L51.4112688,152.783828 L53.351914,147.223398 L54.7420215,143.889204 L56.4108387,140.276301 L59.1876129,134.719312 L60.8529892,131.942538 L62.8005161,129.158882 L65.0233118,126.382108 L67.5248172,123.326624 L70.0228817,120.549849 L73.0818065,117.766194 L79.4714839,112.212645 L85.8646022,107.763613 L91.7003011,103.875441 L96.9785806,101.098667 L102.260301,99.1545806 L106.702452,97.7610323 L111.151484,96.6496344 L115.039656,96.0956559 L117.819871,95.5382366 L118.652559,94.9842581 L119.485247,94.4268387 L113.931699,93.5941505 L109.761376,93.0367312 L105.869763,93.0367312 L101.978151,93.0367312 L98.3686882,93.3154409 L94.7557849,93.8728602 L91.1428817,94.7055484 L84.4744946,96.3709247 L78.6387957,98.3184516 L73.6392258,100.265978 L65.856,103.321462 L68.3575054,100.541247 L71.6951398,97.4823226 L75.8620215,93.8728602 L81.6977204,89.9812473 L84.7532043,88.315871 L88.3661075,86.3683441 L92.2577204,84.7029677 L96.1458925,83.0341505 L100.591484,81.6474839 L105.037075,80.536086 L110.315355,79.4246882 L115.321806,78.5885591 L119.763957,78.0345806 L124.212989,77.755871 L128.101161,77.755871 L131.989333,77.755871 L138.382452,78.3098495 L142.270624,79.1459785 L145.608258,79.9786667 L148.663742,80.8113548 L151.165247,81.9227527 L152.830624,82.4767312 L153.942022,83.0341505 L157.000946,83.0341505 L155.33557,81.3687742 L153.109333,79.9786667 L149.77514,77.4771613 L146.440946,75.2543656 L142.824602,73.5855484 L139.493849,71.920172 L136.159656,70.5300645 L132.822022,69.4186667 L126.157075,67.4745806 L120.042667,66.0844731 L114.485677,65.2483441 L106.427183,64.1403871 L110.036645,63.0289892 L114.206968,62.1928602 L119.763957,61.0814624 L126.711054,60.5274839 L130.323957,60.5274839 L134.49428,60.8061935 L138.661161,61.0814624 L143.106753,61.9141505 L147.552344,62.7502796 L151.997935,64.1403871 L154.499441,64.6943656 L157.000946,65.5270538 L163.390624,68.3072688 L169.226323,71.0874839 L174.229333,73.8642581 L178.671484,76.9197419 L182.284387,79.699957 L185.622022,82.4767312 L188.398796,85.2569462 L190.625032,88.0371613 L192.290409,89.9812473 L193.955785,91.3713548 L191.732989,86.6470538 Z M258.702452,241.145118 L257.869763,240.587699 L257.315785,239.755011 L257.033634,239.201032 L256.758366,237.532215 L257.033634,235.588129 L257.869763,233.922753 L258.981161,231.975226 L260.371269,230.585118 L262.315355,229.75243 L263.148043,229.47372 L265.649548,229.47372 L268.151054,229.47372 L270.373849,229.47372 L271.485247,229.195011 L271.763957,228.641032 L282.045247,213.356731 L283.156645,211.412645 L291.493849,198.908559 L291.769118,198.07243 L292.047828,195.574366 L292.047828,192.794151 L291.769118,191.125333 L291.21514,189.735226 L290.382452,187.515871 L289.546323,185.014366 L288.713634,181.958882 L288.156215,178.621247 L287.602237,175.011785 L287.602237,171.398882 L287.880946,167.507269 L288.434925,163.897806 L287.880946,163.340387 L286.766108,162.228989 L285.100731,160.838882 L283.156645,158.894796 L280.933849,156.39329 L280.101161,154.727914 L278.989763,153.059097 L278.432344,151.115011 L277.878366,149.167484 L277.320946,146.944688 L277.320946,144.446624 L277.596215,142.223828 L278.153634,140.276301 L278.711054,138.607484 L279.543742,136.942108 L281.209118,134.161892 L283.156645,131.385118 L284.268043,129.998452 L285.100731,128.326194 L286.208688,126.382108 L286.766108,124.438022 L287.323527,121.936516 L287.602237,118.881032 L287.880946,115.546839 L287.602237,111.655226 L287.044817,108.321032 L286.208688,104.708129 L284.822022,101.373935 L283.156645,97.7610323 L280.37643,93.5941505 L276.763527,89.1485591 L275.098151,87.7584516 L273.150624,86.6470538 L268.983742,84.1455484 L267.036215,82.7588817 L265.370839,81.0900645 L264.538151,79.9786667 L263.980731,78.5885591 L263.705462,77.4771613 L263.426753,75.8083441 L263.426753,74.6969462 L263.148043,73.5855484 L262.315355,71.6449032 L261.203957,70.8087742 L260.092559,69.6973763 L257.591054,68.3072688 L257.591054,68.032 L257.869763,67.7498495 L258.702452,67.4745806 L259.813849,67.7498495 L262.315355,68.3072688 L263.426753,68.5859785 L264.259441,69.1433978 L265.092129,69.6973763 L265.649548,70.5300645 L266.760946,71.920172 L267.875785,72.1988817 L268.429763,72.1988817 L269.262452,71.920172 L270.09514,71.920172 L270.652559,71.920172 L271.206538,71.920172 L272.317935,72.4741505 L273.708043,73.3102796 L275.098151,74.4182366 L277.042237,76.3657634 L280.37643,79.9786667 L283.156645,83.8702796 L286.208688,89.1485591 L288.713634,94.9842581 L290.93643,100.819957 L292.326538,106.930925 L293.159226,113.045333 L293.434495,116.100817 L293.434495,119.156301 L293.159226,122.215226 L292.880516,125.27071 L292.326538,128.050925 L291.493849,130.83114 L291.21514,133.053935 L290.93643,133.607914 L291.21514,133.607914 L293.713204,133.053935 L295.660731,133.053935 L297.326108,133.329204 L298.716215,133.886624 L299.552344,134.444043 L300.385032,135.276731 L300.939011,136.384688 L301.49643,137.220817 L301.771699,139.443613 L302.050409,141.666409 L302.050409,143.335226 L302.329118,143.889204 L302.607828,144.167914 L303.719226,144.446624 L304.830624,144.446624 L305.384602,144.167914 L305.938581,143.889204 L305.938581,143.613935 L305.663312,143.056516 L305.384602,141.945118 L305.105892,140.83372 L305.105892,140.558452 L305.105892,140.276301 L305.663312,140.001032 L305.938581,140.276301 L307.328688,141.11243 L308.722237,142.781247 L309.000946,143.613935 L309.276215,144.721892 L309.554925,145.83329 L309.276215,147.223398 L308.443527,148.888774 L307.607398,150.278882 L306.220731,151.115011 L304.830624,151.39372 L303.165247,151.39372 L301.771699,151.115011 L300.106323,150.561032 L298.716215,149.724903 L297.326108,148.888774 L296.21471,147.780817 L295.382022,146.669419 L294.828043,145.558022 L294.828043,144.446624 L295.382022,143.335226 L296.21471,142.502538 L297.883527,141.945118 L298.440946,141.666409 L298.994925,140.83372 L298.994925,139.718882 L298.716215,138.607484 L298.440946,138.053505 L297.883527,137.774796 L297.047398,137.220817 L296.21471,136.942108 L295.382022,136.663398 L294.270624,136.942108 L293.434495,137.220817 L292.880516,137.774796 L291.769118,140.001032 L290.93643,141.945118 L290.661161,144.167914 L290.661161,145.279312 L290.93643,146.669419 L292.047828,149.167484 L293.713204,151.39372 L294.828043,152.505118 L295.936,153.616516 L297.047398,154.449204 L298.440946,155.006624 L301.21772,155.839312 L303.719226,157.225978 L305.663312,158.616086 L307.328688,160.563613 L308.443527,162.786409 L309.000946,164.173075 L309.000946,165.563183 L309.000946,168.897376 L308.443527,172.235011 L307.607398,173.900387 L306.77471,174.457806 L306.220731,174.733075 L305.938581,174.733075 L306.220731,173.621677 L306.220731,172.235011 L305.663312,170.566194 L305.663312,169.451355 L305.105892,168.339957 L303.997935,166.674581 L302.607828,165.563183 L300.939011,164.730495 L299.552344,164.730495 L298.440946,165.009204 L297.883527,165.284473 L297.604817,165.563183 L297.604817,166.117161 L297.604817,166.95329 L298.716215,170.287484 L298.994925,173.064258 L299.273634,175.844473 L298.994925,178.342538 L298.440946,180.568774 L297.883527,183.07028 L295.936,188.069849 L295.103312,190.850065 L295.103312,192.240172 L295.660731,193.35157 L297.604817,195.853075 L298.162237,196.961032 L298.716215,197.79372 L298.716215,198.908559 L298.440946,199.741247 L297.604817,200.852645 L295.936,201.967484 L293.991914,203.91157 L290.93643,207.799742 L283.156645,218.91372 L277.878366,226.696946 L275.373419,230.585118 L275.373419,231.417806 L275.652129,232.253935 L276.206108,232.532645 L276.763527,233.090065 L278.711054,233.922753 L280.37643,235.034151 L281.487828,236.145548 L282.045247,237.253505 L282.599226,238.368344 L282.599226,239.479742 L282.320516,240.587699 L281.766538,241.420387 L280.933849,242.535226 L280.101161,243.092645 L279.268473,243.925333 L278.153634,244.204043 L277.042237,244.758022 L275.930839,244.758022 L274.819441,244.482753 L273.983312,244.204043 L272.871914,243.646624 L272.317935,243.092645 L272.039226,242.535226 L271.763957,241.977806 L272.039226,241.145118 L272.317935,240.587699 L273.150624,239.479742 L273.983312,238.643613 L275.098151,238.089634 L275.652129,237.810925 L275.652129,238.089634 L275.098151,239.201032 L274.819441,240.03372 L275.098151,240.866409 L275.373419,241.420387 L275.652129,241.699097 L276.206108,241.977806 L277.042237,241.699097 L277.596215,241.420387 L278.711054,240.03372 L278.711054,238.922323 L278.432344,237.810925 L277.596215,236.699527 L276.484817,235.866839 L275.373419,235.034151 L273.983312,234.755441 L272.596645,235.034151 L271.485247,235.588129 L270.09514,236.420817 L268.983742,237.532215 L267.875785,238.922323 L267.036215,240.31243 L266.760946,241.699097 L266.760946,242.813935 L267.593634,243.925333 L267.875785,244.482753 L268.151054,245.036731 L268.151054,245.594151 L266.482237,245.036731 L265.370839,244.204043 L264.538151,243.646624 L263.980731,242.813935 L263.705462,241.977806 L263.705462,241.145118 L263.980731,239.755011 L264.538151,238.368344 L265.092129,236.978237 L265.649548,235.588129 L265.649548,235.034151 L265.370839,234.480172 L264.813419,233.644043 L263.980731,233.365333 L263.148043,233.644043 L262.315355,234.480172 L261.482667,234.755441 L261.203957,235.31286 L260.649978,236.145548 L260.371269,237.253505 L259.813849,239.201032 L259.813849,240.866409 L259.538581,241.145118 L259.538581,241.420387 L258.702452,241.145118 Z M46.6835269,82.4767312 L47.7949247,81.9227527 L49.1815914,81.0900645 L50.2929892,79.9786667 L51.1291183,78.5885591 L51.9652473,77.1984516 L52.2405161,75.8083441 L52.2405161,74.6969462 L51.4112688,73.5855484 L51.1291183,73.0315699 L51.1291183,72.4741505 L50.8538495,71.6449032 L52.5192258,72.4741505 L53.6306237,73.0315699 L54.4633118,73.8642581 L55.0172903,74.4182366 L55.296,75.2543656 L55.5747097,76.0870538 L55.296,77.4771613 L53.9093333,80.2573763 L53.351914,81.6474839 L53.351914,82.2014624 L53.6306237,82.7588817 L54.1846022,83.5915699 L55.0172903,83.8702796 L55.5747097,83.8702796 L56.4108387,83.5915699 L57.7975054,82.2014624 L58.3514839,81.3687742 L58.9089032,80.2573763 L59.1876129,78.0345806 L59.1876129,76.6444731 L59.4628817,76.0870538 L59.7415914,76.0870538 L60.5777204,76.3657634 L61.1351398,76.9197419 L61.6891183,77.755871 L62.2465376,78.3098495 L62.5218065,80.2573763 L61.967828,81.9227527 L61.4138495,83.8702796 L60.0203011,85.8109247 L58.3514839,87.2010323 L57.5187957,87.7584516 L56.4108387,88.0371613 L55.8534194,88.0371613 L53.6306237,88.0371613 L51.1291183,87.7584516 L48.6276129,88.0371613 L47.7949247,88.315871 L47.2375054,88.8698495 L46.1261075,90.5386667 L43.9067527,94.148129 L36.9562151,104.154151 L36.1235269,105.819527 L30.287828,114.714151 L27.7863226,118.323613 L27.5076129,119.438452 L27.2289032,121.661247 L27.2289032,124.716731 L27.2289032,126.103398 L27.7863226,127.493505 L28.6190108,129.716301 L29.4551398,132.221247 L30.287828,135.276731 L31.123957,138.607484 L31.3992258,142.223828 L31.6813763,145.83329 L31.3992258,149.446194 L30.8452473,153.337806 L30.8452473,153.616516 L31.123957,153.891785 L32.2353548,155.006624 L34.1794409,156.39329 L36.1235269,158.340817 L38.3463226,161.117591 L39.1790108,162.507699 L40.0151398,164.173075 L40.847828,166.117161 L41.4052473,168.339957 L41.683957,170.566194 L41.683957,173.064258 L41.4052473,175.290495 L41.1265376,177.234581 L40.5691183,178.899957 L39.7364301,180.568774 L38.0676129,183.348989 L36.1235269,185.847054 L34.1794409,189.181247 L33.068043,190.850065 L32.2353548,193.07286 L31.6813763,195.574366 L31.3992258,198.629849 L31.3992258,201.967484 L31.3992258,205.576946 L32.2353548,209.189849 L33.068043,212.527484 L34.4581505,216.136946 L36.1235269,219.749849 L37.2349247,221.693935 L38.9003011,223.920172 L40.5691183,226.142968 L42.5166452,228.362323 L44.1820215,229.75243 L46.1261075,230.863828 L50.2929892,233.365333 L52.2405161,234.755441 L53.9093333,236.420817 L54.4633118,237.532215 L55.0172903,238.643613 L55.296,240.03372 L55.5747097,241.699097 L55.8534194,243.092645 L56.4108387,244.482753 L57.240086,245.869419 L58.6301935,247.259527 L60.0203011,248.370925 L61.6891183,249.203613 L61.6891183,249.482323 L61.4138495,249.482323 L60.2990108,250.039742 L58.9089032,249.757591 L57.7975054,249.482323 L56.4108387,248.924903 L55.296,248.646194 L54.4633118,248.092215 L53.9093333,247.538237 L53.351914,246.980817 L52.7979355,246.148129 L52.2405161,245.594151 L51.4112688,245.315441 L50.5751398,245.315441 L50.0177204,245.315441 L49.1815914,245.594151 L48.6276129,245.594151 L47.7949247,245.315441 L46.6835269,245.036731 L45.572129,244.204043 L43.9067527,242.813935 L41.9592258,241.145118 L38.9003011,237.253505 L36.1235269,233.365333 L33.068043,228.087054 L30.287828,222.530065 L28.3437419,216.415656 L26.9536344,210.301247 L25.8422366,204.19028 L25.8422366,201.127914 L25.8422366,198.07243 L25.8422366,195.020387 L26.1209462,191.961462 L26.6749247,189.181247 L27.5076129,186.401032 L28.0650323,184.460387 L28.0650323,183.902968 L27.7863226,183.902968 L25.2848172,184.181677 L23.3407312,184.181677 L21.6753548,183.902968 L20.2852473,183.627699 L19.4491183,182.795011 L18.6164301,181.958882 L18.0590108,181.126194 L17.7837419,180.011355 L17.2263226,177.788559 L17.2263226,175.844473 L17.2263226,174.175656 L16.9510538,173.621677 L16.6723441,173.342968 L15.5609462,173.064258 L14.4495484,173.064258 L13.3381505,173.621677 L13.3381505,173.900387 L13.3381505,174.457806 L13.892129,175.569204 L14.1708387,176.677161 L14.1708387,176.955871 L14.1708387,177.234581 L13.892129,177.234581 L13.3381505,176.955871 L12.5054624,176.677161 L11.6693333,176.123183 L11.1153548,175.569204 L10.5613763,174.733075 L10.003957,173.900387 L9.72524731,172.788989 L9.72524731,171.677591 L9.72524731,170.287484 L10.5613763,168.618667 L11.6693333,167.232 L12.784172,166.395871 L14.1708387,166.117161 L15.8396559,166.117161 L17.5050323,166.395871 L19.1738495,166.95329 L20.563957,167.785978 L21.9540645,168.618667 L23.0620215,169.730065 L23.8981505,170.844903 L24.452129,171.956301 L24.452129,173.064258 L23.8981505,173.900387 L23.0620215,174.733075 L21.3966452,175.290495 L20.563957,175.569204 L20.2852473,176.398452 L20.0065376,177.509849 L20.2852473,178.342538 L20.563957,179.178667 L21.1213763,179.732645 L21.9540645,180.290065 L22.7867527,180.568774 L23.8981505,180.568774 L24.7308387,180.568774 L25.5635269,180.290065 L26.3962151,179.732645 L27.5076129,177.509849 L28.3437419,175.569204 L28.6190108,174.457806 L28.6190108,173.342968 L28.6190108,171.956301 L28.3437419,170.844903 L27.2289032,168.339957 L25.2848172,165.838452 L24.452129,164.730495 L23.0620215,163.619097 L21.9540645,163.065118 L20.563957,162.507699 L17.7837419,161.675011 L15.5609462,160.284903 L13.6168602,158.894796 L11.9514839,156.947269 L10.8366452,154.449204 L10.2826667,153.337806 L10.2826667,151.947699 L10.2826667,148.613505 L10.8366452,145.000602 L11.3940645,143.613935 L12.2267527,142.781247 L12.784172,142.502538 L13.0594409,142.502538 L13.0594409,143.889204 L13.3381505,146.944688 L13.6168602,148.056086 L13.892129,149.167484 L15.2822366,150.836301 L16.6723441,151.947699 L18.3377204,152.505118 L19.7312688,152.783828 L20.8426667,152.505118 L21.3966452,151.947699 L21.3966452,151.67243 L21.6753548,151.115011 L21.3966452,150.278882 L20.563957,146.944688 L20.0065376,144.167914 L19.7312688,141.666409 L20.0065376,139.164903 L20.563957,136.663398 L21.3966452,134.444043 L23.0620215,129.441032 L23.6194409,127.772215 L23.8981505,126.382108 L23.8981505,125.27071 L23.3407312,124.159312 L21.6753548,121.661247 L20.8426667,120.549849 L20.563957,119.438452 L20.2852473,118.602323 L20.8426667,117.766194 L21.6753548,116.654796 L23.3407312,115.546839 L25.2848172,113.602753 L28.3437419,109.43243 L36.1235269,98.3184516 L43.628043,86.9257634 L43.9067527,85.8109247 L43.628043,85.2569462 L42.791914,84.7029677 L42.2379355,84.4242581 L40.2938495,83.5915699 L38.6215914,82.4767312 L37.5101935,81.3687742 L36.9562151,80.2573763 L36.6809462,78.8672688 L36.4022366,77.755871 L36.6809462,76.6444731 L37.2349247,75.8083441 L38.0676129,74.9756559 L38.9003011,74.1395269 L39.7364301,73.3102796 L40.847828,72.7528602 L41.9592258,72.4741505 L43.0706237,72.4741505 L44.1820215,72.4741505 L45.2934194,73.0315699 L46.1261075,73.5855484 L46.6835269,74.1395269 L46.9587957,74.6969462 L47.2375054,75.5330753 L47.2375054,76.0870538 L46.9587957,76.9197419 L46.1261075,78.0345806 L45.0147097,78.8672688 L44.1820215,79.4246882 L43.3493333,79.699957 L43.3493333,79.4246882 L43.9067527,78.3098495 L44.1820215,77.1984516 L44.1820215,76.6444731 L43.9067527,75.8083441 L43.3493333,75.5330753 L42.791914,75.2543656 L42.2379355,75.5330753 L41.683957,75.8083441 L41.1265376,76.3657634 L40.5691183,77.1984516 L40.5691183,77.755871 L40.2938495,78.3098495 L40.847828,79.699957 L41.4052473,80.8113548 L42.5166452,81.6474839 L43.9067527,82.2014624 L45.2934194,82.4767312 L46.6835269,82.4767312 Z M77.2486882,258.930925 L76.9699785,258.652215 L77.5273978,257.819527 L77.8061075,257.262108 L78.6387957,256.708129 L79.4714839,256.429419 L81.1403011,256.15071 L83.0843871,256.429419 L85.031914,257.262108 L86.6972903,258.652215 L88.0873978,260.596301 L88.3661075,261.428989 L88.6413763,262.540387 L88.6413763,264.766624 L88.6413763,267.543398 L88.6413763,270.044903 L88.920086,270.877591 L89.4740645,271.435011 L95.0344946,274.772645 L104.761806,281.71286 L119.209978,290.886194 L120.042667,291.161462 L122.262022,291.440172 L125.324387,291.718882 L126.711054,291.440172 L128.101161,290.886194 L130.323957,290.053505 L132.822022,289.217376 L135.884387,288.384688 L139.218581,287.83071 L142.824602,287.552 L146.440946,287.27329 L150.329118,287.552 L153.942022,288.105978 L154.499441,287.83071 L155.05686,287.27329 L157.000946,284.775226 L159.77772,282.27028 L161.443097,280.880172 L163.390624,279.772215 L165.338151,278.660817 L167.836215,277.824688 L170.612989,277.27071 L173.671914,277.27071 L175.89471,277.545978 L177.838796,278.103398 L179.786323,278.660817 L181.451699,279.493505 L184.231914,281.437591 L187.012129,283.381677 L190.067613,285.329204 L192.011699,286.161892 L194.231054,286.998022 L196.736,287.552 L199.516215,287.83071 L202.568258,287.83071 L206.463312,287.552 L209.240086,286.998022 L212.020301,286.440602 L214.797075,285.607914 L217.57729,284.496516 L220.632774,283.102968 L223.409548,281.158882 L226.193204,279.214796 L228.969978,276.71329 L230.360086,275.326624 L231.471484,273.379097 L233.969548,269.212215 L235.359656,267.268129 L237.307183,265.599312 L238.418581,264.766624 L239.529978,264.209204 L240.920086,263.933935 L242.306753,263.655226 L243.69686,263.655226 L244.808258,263.097806 L245.916215,262.819097 L247.034495,261.986409 L248.142452,261.15028 L248.699871,260.042323 L250.089978,257.819527 L250.365247,257.819527 L250.365247,258.098237 L250.647398,258.930925 L250.647398,260.042323 L250.089978,261.986409 L249.253849,264.209204 L248.699871,265.320602 L247.867183,265.878022 L246.473634,266.989419 L246.198366,267.822108 L246.198366,268.654796 L246.198366,269.487484 L246.198366,270.044903 L246.198366,270.877591 L246.198366,271.435011 L245.640946,272.542968 L244.808258,273.936516 L243.69686,275.326624 L241.752774,277.27071 L239.251269,279.772215 L236.195785,281.71286 L233.13686,283.939097 L230.081376,285.607914 L226.747183,287.27329 L223.13428,288.938667 L219.800086,290.053505 L216.187183,291.161462 L212.29557,292.27286 L208.686108,292.83028 L204.791054,293.105548 L201.181591,293.384258 L197.568688,293.384258 L193.955785,293.105548 L190.342882,292.27286 L187.012129,291.440172 L185.064602,291.161462 L184.507183,290.886194 L184.507183,291.161462 L185.064602,293.662968 L185.064602,295.610495 L184.789333,297.275871 L184.231914,298.665978 L183.395785,299.498667 L182.563097,300.331355 L181.730409,300.888774 L180.619011,301.164043 L178.396215,301.721462 L176.452129,301.721462 L174.783312,301.721462 L174.229333,302.000172 L173.947183,302.278882 L173.671914,303.39028 L173.671914,304.776946 L173.947183,305.613075 L174.229333,305.891785 L174.783312,305.613075 L175.89471,305.059097 L177.006108,304.776946 L177.563527,304.776946 L177.563527,305.059097 L177.838796,305.334366 L177.563527,305.891785 L176.730839,307.281892 L175.340731,308.668559 L174.504602,308.947269 L173.393204,309.225978 L172.281806,309.504688 L170.891699,309.225978 L169.226323,308.39329 L167.836215,307.557161 L167.003527,306.170495 L166.446108,304.776946 L166.446108,303.11157 L166.724817,301.442753 L167.282237,300.056086 L168.114925,298.39071 L169.226323,297.000602 L170.33772,295.889204 L171.449118,295.056516 L172.560516,294.777806 L173.671914,294.777806 L174.504602,295.056516 L175.340731,296.164473 L175.89471,297.83329 L176.452129,298.39071 L177.006108,298.944688 L178.117505,298.944688 L179.228903,298.665978 L179.786323,298.39071 L180.340301,297.83329 L180.619011,297.000602 L181.172989,296.164473 L181.172989,295.331785 L181.172989,294.220387 L180.89772,293.384258 L180.340301,292.55157 L178.117505,291.718882 L176.173419,290.607484 L175.065462,290.332215 L173.947183,290.332215 L172.835785,290.332215 L171.449118,290.607484 L168.947613,291.718882 L166.446108,293.662968 L165.338151,294.777806 L164.226753,295.889204 L163.669333,297.000602 L163.111914,298.39071 L162.275785,301.164043 L160.889118,303.665548 L159.223742,305.613075 L157.000946,307.557161 L154.778151,308.39329 L151.997935,308.947269 L148.942452,308.668559 L145.886968,308.114581 L144.218151,307.281892 L143.382022,306.724473 L143.106753,306.170495 L143.106753,305.891785 L144.49686,305.891785 L147.277075,305.613075 L148.385032,305.334366 L149.49643,305.059097 L151.165247,303.665548 L152.551914,302.278882 L153.109333,300.610065 L153.388043,299.223398 L153.109333,298.112 L152.830624,297.83329 L152.276645,297.554581 L151.719226,297.554581 L150.886538,297.554581 L147.831054,298.39071 L144.77557,298.944688 L142.270624,298.944688 L139.772559,298.665978 L137.549763,298.112 L135.048258,297.275871 L130.045247,295.610495 L127.268473,294.777806 L125.878366,294.777806 L124.766968,295.331785 L122.262022,297.000602 L121.154065,297.83329 L120.321376,298.112 L119.209978,298.39071 L118.373849,297.83329 L117.262452,297.000602 L116.154495,295.331785 L114.485677,293.662968 L111.426753,291.161462 L101.978151,284.496516 L92.5329892,278.103398 L87.5299785,275.047914 L86.4185806,274.772645 L85.8646022,275.047914 L85.3071828,275.601892 L85.031914,276.159312 L84.1957849,278.103398 L83.0843871,279.772215 L81.9729892,280.880172 L80.8615914,281.437591 L79.7501935,281.995011 L78.6387957,281.995011 L77.5273978,281.71286 L76.6947097,281.158882 L75.5833118,280.326194 L75.0258925,279.493505 L74.1932043,278.660817 L73.9144946,277.545978 L73.3605161,276.438022 L73.3605161,275.326624 L73.6392258,274.215226 L73.9144946,273.379097 L74.471914,272.267699 L75.0258925,271.71028 L75.5833118,271.435011 L76.1372903,271.156301 L76.9699785,271.435011 L77.5273978,271.435011 L78.6387957,272.267699 L79.4714839,273.379097 L80.0289032,274.490495 L80.304172,275.047914 L80.0289032,275.047914 L78.9140645,274.490495 L78.0813763,274.215226 L77.2486882,274.215226 L76.6947097,274.490495 L76.416,275.047914 L76.1372903,275.601892 L76.1372903,276.159312 L76.6947097,276.992 L77.2486882,277.545978 L78.0813763,278.103398 L78.6387957,278.103398 L79.1927742,278.382108 L80.304172,277.824688 L81.4155699,277.27071 L82.5304086,276.159312 L83.0843871,274.772645 L83.3665376,273.379097 L83.3665376,271.988989 L82.8091183,270.877591 L81.9729892,269.487484 L80.8615914,268.376086 L79.4714839,267.268129 L78.0813763,266.432 L76.6947097,266.156731 L75.3046022,266.156731 L74.7471828,266.432 L74.1932043,266.989419 L73.6392258,267.268129 L73.0818065,267.268129 L72.527828,267.543398 L73.0818065,265.878022 L73.9144946,264.766624 L74.471914,263.933935 L75.3046022,263.376516 L76.1372903,263.097806 L76.9699785,262.819097 L78.360086,263.097806 L79.7501935,263.933935 L81.1403011,264.487914 L82.5304086,265.045333 L83.0843871,265.045333 L83.6418065,264.766624 L84.4744946,264.487914 L84.7532043,263.933935 L84.7532043,263.376516 L84.7532043,262.819097 L84.1957849,261.707699 L83.0843871,260.875011 L82.2516989,260.042323 L81.1403011,259.763613 L79.1927742,259.206194 L77.5273978,259.206194 L77.2486882,258.930925 Z" id="Fill-1"></path>
            </g>
        </g>
    </g>
</svg>