<?xml version="1.0" encoding="UTF-8"?>
<svg width="320px" height="320px" viewBox="0 0 320 320" version="1.1" xmlns="http://www.w3.org/2000/svg" xmlns:xlink="http://www.w3.org/1999/xlink">
     
    <title>FU_LOGO</title>
     
    <defs>
        <polygon id="path-1" points="0.00016080402 0.461708543 318.535236 0.461708543 318.535236 307.864161 0.00016080402 307.864161"></polygon>
    </defs>
    <g id="页面-1" stroke="none" stroke-width="1" fill="none" fill-rule="evenodd">
        <g id="航司LOGO备份-3" transform="translate(-647.000000, -5318.000000)">
            <g id="切图" transform="translate(109.000000, 80.000000)"></g>
            <g id="福州航空横版" transform="translate(648.000000, 5318.000000)">
                <path d="M262.30207,42.2783116 C261.221467,46.3997186 256.122372,47.7504724 250.105085,47.6459497 C242.069709,47.4980101 239.093226,46.9657487 224.169005,46.5991156 C208.231719,46.2051457 199.130211,47.0493668 196.85001,47.6813266 C194.351116,48.3663518 193.207799,49.9695678 193.207799,51.6580101 C193.207799,53.3400201 194.695236,55.1892663 197.863075,54.9126834 C208.389307,53.9977085 219.89001,53.1888643 236.43996,54.8612261 C259.283779,57.1735879 272.572623,68.4427337 272.572623,84.6115779 C272.572623,103.057407 256.402171,113.766955 231.823276,120.44997 C221.292221,123.315497 203.356141,127.605749 189.731216,131.908864 C152.418251,143.679719 127.432523,166.501025 127.432523,200.268261 C127.432523,234.037106 157.417648,260.992683 192.809005,261.415598 C215.080362,261.674492 233.857447,253.34002 245.756945,241.069065 C257.801166,228.651779 262.120362,209.229869 256.595136,196.130774 C250.529608,181.761327 235.627899,175.80193 220.804985,177.419618 C208.644985,178.751075 201.104884,186.863638 201.104884,195.384643 C201.104884,203.902432 208.014633,210.812181 216.535638,210.812181 C219.196945,210.812181 221.700663,210.138412 223.890814,208.95007 C223.890814,219.629065 215.657648,230.845146 196.504281,230.845146 C177.352523,230.845146 161.826894,215.324342 161.826894,196.166151 C161.826894,176.765146 178.748302,156.560121 213.42408,151.205347 L213.417648,151.198915 C213.457849,151.190874 213.499658,151.189266 213.544683,151.184442 C216.611216,150.714894 219.822472,150.369166 223.173628,150.140824 C253.276141,146.635296 287.834533,140.002131 313.389508,119.589668 C304.981065,87.3323819 286.707296,59.0582111 261.991719,38.174593 C262.520764,39.4851457 262.662271,40.8986131 262.30207,42.2783116" id="Fill-1" fill="#C6000D"></path>
                <g id="编组" transform="translate(0.000000, 0.146332)">
                    <mask id="mask-2" fill="white">
                        <use xlink:href="#path-1"></use>
                    </mask>
                    <g id="Clip-4"></g>
                    <path d="M273.360563,163.963859 C284.35795,173.173106 291.18408,186.513407 291.857849,203.04406 C293.652422,247.094714 247.509709,288.662553 192.809005,288.662553 C136.267095,288.662553 93.7601608,250.331698 93.7601608,203.04406 C93.7601608,149.835618 145.527799,120.990593 179.336844,110.295518 C207.63192,101.34999 216.535638,99.233809 226.85604,94.6878794 C233.527799,91.7451658 236.43996,88.1704925 236.43996,83.7805427 C236.43996,79.390593 232.82991,76.192201 227.216241,75.5570251 C218.646995,74.5825528 203.991317,75.2563216 190.075337,78.0912965 C168.588704,82.4748141 165.129809,88.4229548 153.63393,88.4229548 C144.53403,88.4229548 136.886191,82.5568241 133.967598,74.4571256 C131.539457,67.7097889 135.340864,66.6661709 141.874332,65.9023518 C145.777045,65.4456683 153.529407,64.2525025 156.825889,61.1731055 C159.295839,58.8607437 158.707296,56.5644623 160.141668,52.7067739 C163.193729,44.4896884 170.024683,40.0096884 178.844784,38.4048643 C191.42609,36.113407 210.46207,36.3594372 233.334834,36.1246633 C240.52599,36.0506935 244.010613,35.4396382 245.745688,32.791196 C247.435739,30.2167236 246.551317,26.5857688 243.576442,24.5950151 C219.122975,9.30898492 190.228101,0.461547739 159.268503,0.461547739 C71.3087035,0.461547739 0.00016080402,71.7684824 0.00016080402,159.729889 C0.00016080402,167.794211 0.60478392,175.713809 1.76096482,183.458131 C13.6443819,157.983558 32.6819698,138.058332 55.9406633,123.614915 C69.3115176,115.319035 78.4789548,108.902955 84.2775477,103.377729 C92.9255879,95.1365226 96.4375477,85.1216482 88.3008643,79.8151156 C80.2622714,74.5745126 57.1756382,75.0183317 36.6120201,84.9769246 C43.648804,58.2754171 61.6379497,46.4740101 76.4335276,42.0486834 C92.8950352,37.1232563 106.571417,39.8842613 121.056643,38.4048643 C134.615638,37.0187337 148.272724,33.752804 154.335035,23.1091859 C151.712322,33.9087839 143.086794,46.152402 122.672724,50.2078794 C103.591719,54.0060704 89.8349347,48.1881809 78.2184523,63.5401407 C97.5985528,59.8625528 117.256844,62.6106935 123.656844,77.4866734 C130.121166,92.4993367 118.593126,109.541347 103.265286,124.320844 C85.4449849,141.49793 68.7213668,166.675015 68.7213668,200.890894 C68.7213668,259.968683 120.022673,307.864161 183.307095,307.864161 C216.873327,307.864161 248.762372,294.380744 271.316744,272.902151 C300.468905,244.039437 318.535236,203.99602 318.535236,159.729889 C318.535236,150.872804 317.800362,142.186171 316.407799,133.723055 C306.537648,145.863759 291.943075,158.729688 273.360563,163.963859" id="Fill-3" fill="#C6000D" mask="url(#mask-2)"></path>
                </g>
                <path d="M171.940181,318.229266 C100.404905,318.229266 42.4125427,262.69399 42.4125427,194.191477 C42.4125427,182.287156 44.3068141,170.575799 47.5775678,159.674894 C29.144603,169.067457 14.4149548,184.660623 6.11103518,203.709467 C25.1486231,270.356302 86.5098291,319.145849 159.268824,319.145849 C164.935558,319.145849 170.533146,318.848362 176.045508,318.263035 C174.728523,318.246955 173.371337,318.229266 171.940181,318.229266" id="Fill-5" fill="#C6000D"></path>
            </g>
        </g>
    </g>
</svg>