<?xml version="1.0" encoding="UTF-8"?>
<svg width="320px" height="320px" viewBox="0 0 320 320" version="1.1" xmlns="http://www.w3.org/2000/svg" xmlns:xlink="http://www.w3.org/1999/xlink">
     
    <title>G5_LOGO</title>
     
    <defs>
        <polygon id="path-1" points="0 0.449152271 221.911407 0.449152271 221.911407 125.490196 0 125.490196"></polygon>
    </defs>
    <g id="页面-1" stroke="none" stroke-width="1" fill="none" fill-rule="evenodd">
        <g id="航司LOGO备份-3" transform="translate(-109.000000, -1639.000000)">
            <g id="切图" transform="translate(109.000000, 80.000000)"></g>
            <g id="华夏航空蓝" transform="translate(121.000000, 1639.000000)">
                <path d="M295.846336,0 L295.380211,0 L294.956038,1.4252979 C281.361047,23.7113935 262.111032,39.5017777 238.499023,50.228726 C222.854482,57.3361433 206.123871,60.705875 189.432414,64.1858533 C176.999472,66.7782767 164.396394,68.7575986 152.399278,73.0581466 C119.675465,84.7880134 106.048778,109.842834 106.763813,140.720722 C106.987086,150.36009 108.575173,159.806875 110.095672,169.288083 C112.101872,181.797119 104.89139,190.481947 92.2263179,191.209016 C84.6172995,191.645816 77.434319,190.070266 70.5636419,186.882883 C63.0557726,183.400579 55.7469384,179.461473 47.8302777,176.911845 C36.7421051,173.341158 25.843179,173.12206 15.4705077,179.185158 C9.61411783,182.60885 4.52963039,186.962893 0.760546643,192.695252 C2.00090428,192.699904 2.93641641,191.923526 3.9413811,191.386713 C17.2194073,184.296042 30.6167613,184.384425 44.1907766,190.53172 C50.5696921,193.420926 56.4046402,197.22141 62.3640436,200.83722 C73.3734412,207.517606 85.0274891,212.136799 98.259369,210.244 C112.630923,208.187924 124.732917,200.038513 128.747649,183.920645 C130.454597,177.066749 130.53477,170.100745 129.637014,163.152883 C128.26754,152.548741 126.802977,141.968323 128.033546,131.238584 C129.067876,122.225342 131.577491,113.814038 137.886022,106.939208 C143.178401,101.171496 150.102682,98.343229 157.422237,96.2997128 C170.339483,92.6932068 183.692089,91.8391445 196.922104,90.2677814 C214.107187,88.2265911 230.783262,84.4214551 246.597472,77.1851841 C263.15888,69.606544 276.295205,58.5069901 284.042196,41.7053143 C289.886933,29.0302108 293.015561,15.5768686 295.461783,1.9295482 C296.029057,1.37319824 295.795994,0.658688584 295.846336,0" id="Fill-25" fill="#00479C"></path>
                <path d="M192.578161,118.171219 C204.584067,120.847441 216.711954,122.165822 229.030729,121.529378 C253.583544,120.261597 272.485151,109.364058 285.550716,88.565195 C289.423874,82.3994397 292.369598,75.8019608 294.331551,68.4491979 C265.281236,96.9034947 230.150448,111.804921 190.136661,117.470248 C191.266157,117.797058 191.913313,118.023133 192.578161,118.171219" id="Fill-37" fill="#00479C"></path>
                <path d="M180.158685,197.815096 C173.576889,197.521583 167.030081,196.764971 160.475342,196.238045 C170.205054,201.825045 180.45631,205.918389 191.254299,208.562336 C201.495757,211.070709 211.875766,212.255012 222.405519,210.798627 C239.116348,208.487793 251.428118,199.438736 260.59197,185.66831 C262.752315,182.421961 264.714398,179.062866 266.191325,174.925728 C259.936543,180.690699 253.132695,184.669433 245.822699,187.815149 C224.810774,196.85815 202.706315,198.819563 180.158685,197.815096" id="Fill-39" fill="#00479C"></path>
                <path d="M235.379485,148.419639 C218.789524,154.318229 201.686035,157.600482 184.052288,158.125343 C191.81701,161.451646 199.854066,163.53703 208.119304,164.711406 C219.633475,166.347377 231.117439,166.463128 242.300257,162.768484 C260.593922,156.726027 272.749886,143.767594 281.297216,126.896138 C281.694096,126.112596 282.420935,125.378728 282.069598,123.969103 C267.550013,134.50193 251.991289,142.513552 235.379485,148.419639" id="Fill-41" fill="#00479C"></path>
                <g id="编组" transform="translate(0.000000, 192.418301)">
                    <mask id="mask-2" fill="white">
                        <use xlink:href="#path-1"></use>
                    </mask>
                    <g id="Clip-44"></g>
                    <path d="M218.90146,112.380343 L218.90146,112.380343 C211.191992,113.146812 203.490904,114.01638 195.771658,114.660159 C172.505908,116.600359 149.212224,117.627606 125.876172,116.135252 C111.780867,115.233495 97.8010245,113.468702 84.1731575,109.584104 C73.988223,106.680569 64.2134607,102.844021 55.905262,96.0120359 C51.2816295,92.2100095 47.5137251,87.7413456 45.6542157,81.9016197 C42.3644576,71.5708375 48.3117219,63.4055777 59.1447378,63.3621926 C60.6238719,63.3556615 61.9572808,63.4466302 63.2888273,64.4048342 C80.3107413,76.6562228 99.4542839,83.3109352 120.189164,85.254867 C142.204843,87.3191574 163.57989,83.7447861 184.48005,76.861952 C185.006616,76.7112705 185.533183,76.560589 186.059749,76.4099074 C184.686766,76.0273723 183.392931,75.9233414 182.142395,76.4602901 C180.903032,76.5041417 179.659945,76.5041417 178.424772,76.598376 C160.789695,77.9447132 143.264959,77.2617479 125.903641,73.6990393 C100.378452,68.46064 78.1160174,56.9794533 59.3016369,38.8328245 C52.8226851,32.5835061 47.0965693,25.5901101 40.2046519,19.7513172 C30.3321187,11.3877921 19.6792805,4.52595087 6.85872187,1.59862381 C4.79389354,1.12745244 2.6084811,1.38869597 0.632577734,0.476209636 C0.459383566,0.467346016 0.286189397,0.458482397 0.113460804,0.449152271 C-0.359098555,1.76330053 0.748506089,2.0422713 1.50320434,2.46445951 C2.85709854,3.22066623 4.23892728,3.91902617 5.54160815,4.7722662 C13.6272617,10.0703783 20.0331181,17.1211546 26.1316945,24.5003513 C32.4630587,32.1627174 38.1430826,40.3387069 44.5694243,47.9240994 C45.5699465,49.1052934 45.1770006,49.5433428 43.9395003,50.038306 C38.8326002,52.0811371 34.4552573,55.1782725 31.7702821,60.0551294 C26.1461273,70.2725505 26.5418667,80.6070647 31.9318368,90.7913638 C36.1383135,98.7396982 42.7597314,104.335908 50.3518747,108.79944 C66.37606,118.221002 84.0241733,122.427955 102.249601,124.695643 C106.076167,125.171945 109.948361,124.955487 113.769806,125.490569 L115.166533,125.490569 L117.959988,125.490569 L120.287866,125.490569 L143.566652,125.490569 C145.515087,125.432723 146.846633,125.383273 148.544123,125.258716 C149.4925,125.201802 149.997184,125.180343 151.705382,125.045522 C166.185252,124.161026 179.911821,122.579103 194.161232,119.836979 C203.052331,118.125834 211.913169,116.232752 220.362437,112.831454 C220.87876,112.663978 221.395084,112.496969 221.911407,112.32996 C220.77354,111.965618 219.799556,111.890044 218.90146,112.380343" id="Fill-43" fill="#00479C" mask="url(#mask-2)"></path>
                </g>
            </g>
        </g>
    </g>
</svg>