<?xml version="1.0" encoding="UTF-8"?>
<svg width="320px" height="320px" viewBox="0 0 320 320" version="1.1" xmlns="http://www.w3.org/2000/svg" xmlns:xlink="http://www.w3.org/1999/xlink">
     
    <title>GJ_LOGO</title>
     
    <defs>
        <polygon id="path-1" points="0.0528483978 0.244820296 129.703584 0.244820296 129.703584 145.498571 0.0528483978 145.498571"></polygon>
    </defs>
    <g id="页面-1" stroke="none" stroke-width="1" fill="none" fill-rule="evenodd">
        <g id="航司LOGO备份-3" transform="translate(-647.000000, -4248.000000)">
            <g id="切图" transform="translate(109.000000, 80.000000)"></g>
            <g id="长龙航空icon" transform="translate(647.000000, 4258.000000)">
                <path d="M55.3403805,53.9793827 C61.9839323,56.918241 90.9151797,63.5726173 122.798816,54.7614545 C131.785877,52.231222 138.82723,51.0459366 147.037632,52.6154926 C157.007019,54.3744778 164.443467,61.6079662 161.309767,72.9493615 C159.355941,80.7646681 149.776237,87.0320677 141.96093,89.7625539 C129.44778,94.2574376 113.016152,96.6144778 99.5206765,101.298791 C49.0810994,118.520609 17.8036364,169.152321 35.5856237,225.853886 C20.3284567,203.365937 15.8281607,168.952068 24.6420296,143.338537 C33.0418605,119.286444 46.7348837,108.727121 54.1659197,101.69118 C61.7836786,94.2574376 57.4782241,90.5473319 48.4911628,93.873167 C41.2549683,96.6144778 34.0133615,104.427078 27.7649049,112.450757 C19.7439323,123.007374 14.0772939,131.8023 -7.38964445e-13,134.941412 C16.8131924,123.397057 17.6060888,101.298791 35.1986469,85.8549006 C48.6751797,74.1265285 62.5765751,73.144203 74.4943763,74.900482 C83.2865962,76.0803552 91.3048626,78.6187061 100.70055,79.4034841 C108.71611,79.9880085 125.532008,79.2167611 125.724144,71.5800592 C125.724144,66.6954926 118.877632,67.6669937 115.752051,68.0593827 C104.800338,70.0186216 94.4412685,69.821074 83.2865962,67.4721522 C63.7429175,63.1694038 55.3403805,53.7926596 55.3403805,53.9793827" id="Fill-57" fill="#E40D17"></path>
                <path d="M131.590495,160.940296 C147.231932,157.425032 171.679121,160.152812 165.812228,181.274165 C198.464406,134.544693 169.533159,104.425455 130.805717,106.390106 C74.8943425,109.315433 41.2544271,151.752981 41.2544271,193.397632 C41.4492685,238.565666 72.9296913,272.982241 112.236245,289.010655 C141.960389,301.136829 181.645801,303.875433 211.169691,297.616152 C188.687154,296.441691 160.535273,292.339197 136.862038,281.387484 C112.431087,270.243636 91.5072812,248.351036 87.3966681,223.906554 C82.5175137,196.520507 97.9586977,168.763721 131.590495,160.940296" id="Fill-59" fill="#E40D17"></path>
                <g id="编组" transform="translate(167.561827, 0.000000)">
                    <mask id="mask-2" fill="white">
                        <use xlink:href="#path-1"></use>
                    </mask>
                    <g id="Clip-62"></g>
                    <path d="M121.237835,1.9707907 C132.771366,7.05561099 131.204516,21.1329049 124.363416,29.3433066 C108.919526,47.3363721 85.849759,57.6954419 63.9409218,62.9805159 C49.8690402,66.2982326 37.7428668,71.9756956 31.2914503,82.535019 C26.20663,90.9402622 28.9479408,104.048761 39.8969471,107.948296 C54.5641776,113.227958 74.3108161,105.209691 87.4111966,113.425505 C94.6419789,118.117937 95.0343679,126.918275 91.3188499,133.364279 C87.4111966,140.40022 80.3644313,143.931721 72.3542833,145.498571 C77.8341987,142.362165 81.5524228,135.518359 78.8111121,131.415865 C76.2673488,127.694934 70.0188922,122.420685 57.2919577,124.766901 C45.3633319,126.918275 32.2737759,127.694934 20.9377928,122.804956 C3.92164059,115.771721 -5.27649894,98.1818689 3.33170402,78.4271121 C9.39343763,64.1549767 27.197074,55.1570909 47.9098013,52.6160338 C77.4391036,48.8978097 99.3344101,32.6691416 109.311915,14.0942579 C111.257624,10.1866047 111.842148,1.9707907 104.616778,2.75286258 C104.616778,2.75286258 111.460584,-2.32654545 121.237835,1.9707907" id="Fill-61" fill="#E40D17" mask="url(#mask-2)"></path>
                </g>
                <path d="M170.892719,41.2732854 C164.636144,42.6371755 162.100499,35.9936237 162.100499,35.9936237 C160.536355,40.8781903 162.284516,47.335019 167.767137,50.8556956 C175.980245,55.9405159 187.906165,54.1761184 196.508956,46.7423763 C204.335087,39.6983171 207.068279,24.6549345 198.852465,14.8776829 C192.203501,6.85941649 178.716144,2.75421564 159.353776,10.7697759 C144.889505,16.6366681 133.347856,24.852482 115.552338,30.5218266 C89.5572431,38.7322283 54.7428668,41.2732854 30.3010909,31.8803044 C63.1562283,57.4992474 117.31403,50.0763298 153.094495,32.6677886 C162.676905,27.9753573 170.118765,24.2652516 175.003332,29.3446596 C177.741937,32.0859704 177.547095,39.6983171 170.892719,41.2732854" id="Fill-63" fill="#E40D17"></path>
                <path d="M274.719391,91.9128457 C281.758038,87.0309852 283.511611,79.2183848 279.804211,72.5585962 C276.094106,65.5226554 264.357615,63.7582579 259.08066,70.0175391 C254.780617,75.2890825 258.880406,80.1790613 258.880406,80.1790613 C257.708651,74.5124228 265.526664,71.1865877 268.462816,75.692296 C270.811738,79.4024017 268.660364,82.7282368 265.924465,84.094833 C262.988313,85.6589767 259.08066,85.0771586 255.762943,84.3004989 C237.580448,78.6203298 221.92548,79.7920846 207.650638,91.3364397 C230.530977,79.5972431 248.521336,91.1280677 266.703831,102.672423 C280.775712,111.667603 296.030173,119.285362 310.302309,108.926292 C320.084973,101.887645 323.605649,86.0513658 314.415628,75.8817252 C311.482182,72.5585962 306.987298,70.407222 302.289455,69.8199915 C302.882097,67.8634588 302.882097,65.9096321 302.289455,64.3427822 C300.722605,59.8506047 296.427975,56.1323805 291.140195,57.1092939 C283.511611,58.6734376 280.588989,65.9096321 284.691484,70.9971586 C284.886326,71.3895476 282.929793,68.4561015 285.094698,66.1098858 C286.842858,64.3427822 289.386622,64.3427822 290.953471,65.7120846 C292.512203,67.2762283 292.712457,69.4303087 290.953471,71.5789767 L289.194486,73.7330571 C287.825184,75.1050655 286.842858,76.6665032 286.068905,78.8151712 C284.299095,84.094833 287.825184,88.2054461 291.924973,88.9793996 C290.55567,86.6385962 290.55567,84.094833 292.512203,81.7486173 C295.437531,78.2279408 300.530469,79.5972431 303.076939,82.3358478 C306.792457,86.6385962 303.664169,93.6772431 299.356008,96.4104355 C295.25622,98.7566512 288.986114,98.9514926 279.990934,94.459315 C278.045226,93.4824017 276.280829,92.7003298 274.719391,91.9128457" id="Fill-65" fill="#E40D17"></path>
            </g>
        </g>
    </g>
</svg>