<?xml version="1.0" encoding="UTF-8"?>
<svg width="320px" height="320px" viewBox="0 0 320 320" version="1.1" xmlns="http://www.w3.org/2000/svg" xmlns:xlink="http://www.w3.org/1999/xlink">
     
    <title>GS_LOGO</title>
     
    <g id="页面-1" stroke="none" stroke-width="1" fill="none" fill-rule="evenodd">
        <g id="航司LOGO备份-3" transform="translate(-1179.000000, -617.000000)">
            <g id="切图" transform="translate(109.000000, 80.000000)"></g>
            <g id="编组-2" transform="translate(1179.000000, 617.000000)">
                <path d="M319.686233,159.841143 C319.686233,248.109111 248.12753,319.683601 159.842459,319.683601 C71.5600185,319.683601 -1.42108547e-13,248.109111 -1.42108547e-13,159.841143 C-1.42108547e-13,71.5639653 71.5600185,4.8316906e-13 159.842459,4.8316906e-13 C248.12753,4.8316906e-13 319.686233,71.5639653 319.686233,159.841143" id="Fill-1" fill="#E50113"></path>
                <path d="M265.295672,63.6254525 C239.682516,47.1201028 210.210745,41.572274 184.346312,45.2585477 C159.126516,48.8395745 131.013746,70.6493694 131.013746,100.506608 C131.013746,118.21835 116.206818,130.999274 98.6174254,130.999274 C74.6408592,130.999274 61.8546729,112.164021 39.6725669,112.164021 C22.3462912,112.164021 11.5716368,120.470635 5.7291166,125.736928 C4.46615345,126.870964 3.82020042,127.970794 3.82020042,129.099567 C3.82020042,130.205976 4.78189424,131.625494 6.221146,132.125417 C16.8313521,135.802481 30.074047,141.443717 45.8992384,152.557792 C66.3408233,166.939785 80.5965199,181.812492 92.6933388,198.879597 C142.031784,268.489916 220.271036,264.973353 247.097162,254.121079 C274.886298,242.868867 296.605318,220.743331 306.664293,196.316834 C307.403653,194.53553 304.905354,193.283092 303.788421,195.0394 C300.707317,199.899177 285.100513,220.743331 256.039204,220.743331 C223.944153,220.743331 198.23496,194.62499 198.23496,163.257458 C198.23496,136.59578 218.420005,105.888673 257.556076,105.888673 C290.433901,105.888673 318.88083,134.136948 319.396997,166.104388 C319.658342,115.070152 290.573353,79.8887343 265.295672,63.6254525" id="Fill-3" fill="#FFE900"></path>
            </g>
        </g>
    </g>
</svg>