<?xml version="1.0" encoding="UTF-8"?>
<svg width="320px" height="320px" viewBox="0 0 320 320" version="1.1" xmlns="http://www.w3.org/2000/svg" xmlns:xlink="http://www.w3.org/1999/xlink">
     
    <title>GT_LOGO</title>
     
    <defs>
        <linearGradient x1="77.8293262%" y1="272.752331%" x2="56.8358651%" y2="101.044218%" id="linearGradient-1">
            <stop stop-color="#FEEBBE" offset="0%"></stop>
            <stop stop-color="#FABE00" offset="50%"></stop>
            <stop stop-color="#D7000F" offset="100%"></stop>
        </linearGradient>
        <linearGradient x1="63.9825299%" y1="323.736934%" x2="49.4819259%" y2="37.5930059%" id="linearGradient-2">
            <stop stop-color="#FEEBBE" offset="0%"></stop>
            <stop stop-color="#FABE00" offset="50%"></stop>
            <stop stop-color="#D7000F" offset="100%"></stop>
        </linearGradient>
        <linearGradient x1="60.6190651%" y1="236.462688%" x2="49.5651685%" y2="43.5066769%" id="linearGradient-3">
            <stop stop-color="#FEEBBE" offset="0%"></stop>
            <stop stop-color="#FABE00" offset="50%"></stop>
            <stop stop-color="#D7000F" offset="100%"></stop>
        </linearGradient>
        <linearGradient x1="53.2508616%" y1="82.2699049%" x2="44.602333%" y2="29.7992337%" id="linearGradient-4">
            <stop stop-color="#FEEBBE" offset="0%"></stop>
            <stop stop-color="#FABE00" offset="50%"></stop>
            <stop stop-color="#D7000F" offset="100%"></stop>
        </linearGradient>
        <linearGradient x1="67.0002439%" y1="414.236641%" x2="45.9515705%" y2="-34.9236641%" id="linearGradient-5">
            <stop stop-color="#FEEBBE" offset="0%"></stop>
            <stop stop-color="#FABE00" offset="50%"></stop>
            <stop stop-color="#D7000F" offset="100%"></stop>
        </linearGradient>
        <linearGradient x1="54.6834735%" y1="98.0638915%" x2="43.6837414%" y2="27.800547%" id="linearGradient-6">
            <stop stop-color="#FEEBBE" offset="0%"></stop>
            <stop stop-color="#FABE00" offset="50%"></stop>
            <stop stop-color="#D7000F" offset="100%"></stop>
        </linearGradient>
        <linearGradient x1="37.7322585%" y1="28.1028727%" x2="66.5731971%" y2="59.688699%" id="linearGradient-7">
            <stop stop-color="#FFF100" offset="0%"></stop>
            <stop stop-color="#FABE00" offset="50%"></stop>
            <stop stop-color="#D7000F" offset="100%"></stop>
        </linearGradient>
        <linearGradient x1="94.7182572%" y1="12.3736903%" x2="71.9198065%" y2="73.4429491%" id="linearGradient-8">
            <stop stop-color="#FFF100" offset="0%"></stop>
            <stop stop-color="#FABE00" offset="50%"></stop>
            <stop stop-color="#D7000F" offset="100%"></stop>
        </linearGradient>
        <linearGradient x1="22.3314871%" y1="52.0049393%" x2="66.86259%" y2="49.6969767%" id="linearGradient-9">
            <stop stop-color="#FFF100" offset="0%"></stop>
            <stop stop-color="#FABE00" offset="50%"></stop>
            <stop stop-color="#D7000F" offset="100%"></stop>
        </linearGradient>
    </defs>
    <g id="页面-1" stroke="none" stroke-width="1" fill="none" fill-rule="evenodd">
        <g id="航司LOGO备份-3" transform="translate(-109.000000, -6900.000000)">
            <g id="切图" transform="translate(109.000000, 80.000000)"></g>
            <g id="桂林航空" transform="translate(109.000000, 6945.000000)" fill-rule="nonzero">
                <path d="M105.372623,33.6178008 L127.95789,33.6178008 C129.076907,33.5828171 130.163675,33.9955287 130.977388,34.7644869 C131.7911,35.5334451 132.264566,36.5951541 132.292874,37.7143606 L132.292874,38.6463822 C132.264566,39.7655887 131.7911,40.8272977 130.977388,41.5962559 C130.163675,42.3652142 129.076907,42.7779257 127.95789,42.7429421 L120.371668,42.7429421 C119.877464,42.690417 119.38537,42.8594276 119.027728,43.20452 C118.670087,43.5496125 118.483615,44.0353591 118.518462,44.531123 L118.518462,47.7823609 L118.518462,47.7823609 L118.518462,47.9340854 C118.542284,48.7496641 119.09672,49.4537093 119.883982,49.668079 L120.079056,49.7222663 C129.83277,52.3340941 134.969726,61.8927338 137.559879,69.9991539 L137.559879,43.3715147 C137.559879,34.7015468 142.707673,33.3577017 146.804233,33.3577017 L172.716599,33.3577017 C173.897869,33.4096641 175.014223,32.8162123 175.631876,31.807945 C176.1517,30.677025 176.027718,29.3545537 175.306752,28.3399578 C173.594434,25.1970944 159.050562,2.84217094e-14 140.345106,2.84217094e-14 C119.374621,2.84217094e-14 107.69184,21.6749199 103.866216,32.0897189 C103.768679,32.6207545 103.779517,33.6178008 105.372623,33.6178008 Z" id="路径" fill="url(#linearGradient-1)"></path>
                <path d="M123.482019,59.4326304 C122.874937,59.0545756 122.241067,58.7213413 121.585463,58.4355841 C120.883762,58.1478601 120.090994,58.1835347 119.417971,58.5331212 C118.803078,58.9338905 118.447997,59.6316653 118.48595,60.364652 L118.48595,67.3006263 C118.780521,71.5609575 120.0804,75.6908594 122.279061,79.3518818 L135.630811,102.251435 C135.870847,102.679782 136.368882,102.893226 136.844607,102.771633 C137.538204,102.609071 137.516604,101.774586 137.516604,101.774586 L137.516604,95.001174 C137.439718,90.4466339 136.902334,85.9115481 135.912585,81.4651865 L135.912585,81.4651865 C131.610114,64.9922474 125.790398,60.8956875 123.482019,59.4326304 Z" id="路径" fill="url(#linearGradient-2)"></path>
                <path d="M148.646601,42.2877687 C147.750594,42.2199782 146.867814,42.534983 146.217127,43.154685 C145.56644,43.7743871 145.208773,44.6407601 145.232801,45.5390067 L145.232801,105.838634 C145.232801,107.854401 145.948073,108.385437 148.82,108.385437 L154.672228,108.385437 C155.625649,108.373537 156.390581,107.594082 156.384547,106.640606 L156.384547,106.640606 L156.384547,81.7144481 C156.390748,80.7632753 155.633966,79.9823915 154.683066,79.9587796 L152.298825,79.9587796 C149.047587,79.9587796 147.086007,78.1272488 147.086007,75.8622197 L147.086007,74.973548 C147.086007,72.7085188 149.015074,70.8661506 152.298825,70.8661506 L154.650554,70.8661506 C155.615945,70.8542502 156.39058,70.0650904 156.384547,69.0996447 L156.384547,69.0996447 L156.384547,49.5922168 C156.300767,47.8363334 157.189834,46.1767603 158.698043,45.2737376 C160.206252,44.3707148 162.088969,44.3707148 163.597178,45.2737376 C165.105388,46.1767603 165.994454,47.8363334 165.910674,49.5922168 L165.910674,70.0750161 C165.910674,70.5410269 166.127424,70.8444757 166.734321,70.8444757 L175.404289,70.8444757 C176.369681,70.8325753 177.144316,70.0434155 177.13843,69.0779698 L177.13843,45.9399928 C177.146945,44.979974 176.773866,44.0558384 176.101127,43.3709051 C175.428388,42.6859717 174.511103,42.2963529 173.551084,42.2877687 L148.646601,42.2877687 Z" id="路径" fill="url(#linearGradient-3)"></path>
                <path d="M163.721508,162.464362 C154.672228,165.7156 143.552995,169.822998 129.995332,172.098864 C108.472137,175.664388 96.2258069,167.76388 94.03664,153.805232 C92.2592966,142.436736 98.5883732,133.84263 107.041592,127.643603 C110.011056,125.476111 109.685932,123.969704 109.685932,123.969704 L109.685932,119.222897 C109.714138,118.731204 109.519399,118.252955 109.15574,117.920827 C108.79208,117.588699 108.298178,117.438015 107.811052,117.510578 L100.766703,117.510578 C99.6458512,117.54555 98.5574635,117.131363 97.7434359,116.360072 C96.9294083,115.588781 96.457185,114.524289 96.4317187,113.403181 L96.4317187,112.514509 C96.4600267,111.395303 96.9334921,110.333594 97.7472045,109.564636 C98.5609169,108.795677 99.6476849,108.382966 100.766703,108.417949 L127.95789,108.417949 C129.076907,108.382966 130.163675,108.795677 130.977388,109.564636 C131.7911,110.333594 132.264566,111.395303 132.292874,112.514509 L132.292874,113.424856 C132.267407,114.545964 131.795184,115.610456 130.981156,116.381747 C130.167129,117.153038 129.078741,117.567225 127.95789,117.532253 L120.729304,117.532253 C119.049498,117.532253 118.095801,118.139151 118.095801,119.537183 L118.095801,123.13522 C118.095801,125.1835 117.770677,127.665278 119.352946,129.052473 C129.572671,138.199289 149.090937,134.731302 155.116564,133.615044 C155.892591,133.447087 156.447181,132.76174 156.449572,131.96775 L156.449572,131.783513 L156.449572,131.783513 L156.449572,118.99531 C156.456296,118.062322 155.723561,117.291274 154.791441,117.250479 L147.465318,117.250479 C145.376709,117.339733 143.293943,116.969792 141.363828,116.166733 C139.933283,115.863284 136.887957,112.189385 135.435737,110.281993 L116.275108,84.7380994 C115.883098,84.0896108 115.168072,83.7071554 114.411065,83.7410531 C113.715402,83.7417722 113.062359,84.0763558 112.655396,84.6405623 C112.525347,84.8139616 112.416972,84.987361 112.286923,85.1390854 L112.135198,85.3558346 L112.135198,85.3558346 C99.6396068,102.002173 99.3578329,102.392322 93.4405797,110.281993 C91.7932858,112.449484 90.4927906,112.720421 89.441557,111.875099 C88.0651996,110.791353 89.723331,108.136175 89.723331,108.136175 L106.510556,79.3410443 C108.628413,75.8215847 109.887065,71.8525633 110.184455,67.7557996 L110.184455,67.0080149 L110.184455,67.0080149 L110.184455,59.8336164 C110.227626,59.1024641 109.870809,58.405427 109.252434,58.0129231 C108.780028,57.742335 108.225029,57.6536894 107.69184,57.7636616 C102.977544,59.5951923 99.4662075,63.6700772 96.6593053,68.8395456 C86.2119939,88.0435247 81.6927731,112.872145 79.7528678,128.749024 C76.9026158,152.114588 79.9587796,166.734321 90.2977163,175.18754 C104.516464,186.79446 124.565765,184.301844 138.470226,180.031885 C149.524435,176.628922 161.391454,172.261426 174.385568,167.243682 C204.091046,155.69095 226.795524,153.653507 253.672425,153.653507 C240.569936,151.908676 210.647709,145.666299 163.721508,162.464362 Z" id="路径" fill="url(#linearGradient-4)"></path>
                <path d="M166.734321,108.3746 L175.339265,108.3746 C176.423011,108.3746 177.127485,107.843564 177.127485,105.827796 L177.127485,81.736123 L177.127485,81.736123 C177.133784,80.7890482 176.383442,80.0098462 175.436802,79.9804545 L166.701809,79.9804545 C166.127424,79.9804545 165.954024,80.2839034 165.910674,80.7499141 L165.910674,107.626815 C165.954024,108.081988 166.127424,108.3746 166.734321,108.3746 Z" id="路径" fill="url(#linearGradient-5)"></path>
                <path d="M241.848756,136.963819 C238.922642,108.88396 231.303908,88.4336732 217.85462,76.5124673 C211.789421,71.1243171 203.298472,69.407093 195.616152,72.0149214 C192.224027,73.2612293 191.40038,74.0632013 190.912695,74.0632013 C190.425009,74.0632013 190.522546,73.4779785 190.240772,72.1883208 C189.499872,67.7819075 188.438598,63.435395 187.065396,59.1833688 C186.935347,58.7823828 186.675248,58.7281955 186.545198,58.739033 C186.165887,58.739033 186.165887,59.3459307 186.165887,59.3459307 L186.165887,111.777562 C186.169792,114.663571 183.911038,117.046222 181.028931,117.196292 L166.669297,117.196292 C166.466418,117.183745 166.267783,117.258108 166.123022,117.400801 C165.978261,117.543494 165.901047,117.741039 165.910674,117.944077 L165.910674,146.782558 C165.994454,148.538441 165.105388,150.198014 163.597178,151.101037 C162.088969,152.00406 160.206252,152.00406 158.698043,151.101037 C157.189834,150.198014 156.300767,148.538441 156.384547,146.782558 L156.384547,139.543134 C156.384547,138.686975 155.51755,139.022936 155.51755,139.022936 L155.51755,139.022936 C139.39141,143.108659 123.73128,143.35792 112.481997,137.798303 C108.081988,135.630811 101.200201,145.53625 106.19627,155.138239 C109.447508,161.423966 116.253433,163.147122 123.644581,162.973723 C136.649533,162.670274 146.078123,158.638739 156.15696,155.539225 C167.442478,151.891087 178.913839,148.84508 190.522546,146.414084 C192.971812,145.904723 192.690038,144.246592 192.690038,143.336245 C192.570826,140.475156 192.614176,137.408155 192.614176,134.948051 C192.614176,123.026845 196.873298,113.088895 206.46445,112.655396 C216.055602,112.221898 220.867434,120.881028 221.149208,132.834747 C221.246745,136.638695 221.365957,137.581554 221.376795,141.277128 C221.402933,141.949969 221.714928,142.579688 222.234407,143.008103 C222.753886,143.436518 223.431486,143.622919 224.096997,143.520482 C230.035925,143.412108 235.866478,143.813094 237.893083,143.932306 L237.893083,143.932306 C242.834965,144.17073 242.21723,140.583531 241.848756,136.963819 Z" id="路径" fill="url(#linearGradient-6)"></path>
                <path d="M-3.26849658e-13,137.408155 C-3.26849658e-13,137.408155 70.9745252,117.03373 75.2878343,148.787488 C75.2878343,155.289964 70.5843767,159.722485 66.1085057,168.500827 C46.7961521,176.997396 62.8572677,178.016117 40.9222488,176.260449 C47.2079756,171.578666 54.3715366,159.624948 47.5872867,148.841675 C40.1744641,136.963819 15.150769,135.186475 -3.26849658e-13,137.408155 Z" id="路径" fill="url(#linearGradient-7)"></path>
                <path d="M75.2878343,148.787488 C75.2878343,148.787488 76.6967041,161.846627 53.1252287,170.223984 C20.7320609,181.722529 27.1153248,206.280213 37.8227352,211.959042 C47.5764492,217.12851 69.7173799,230.805385 96.1716196,219.404377 C122.625859,208.003369 134.102729,191.790529 116.762794,200.167885 C90.7528897,212.685152 60.7764754,213.259537 56.7232654,197.360983 C51.8247335,178.308729 78.3223231,172.955023 75.2878343,148.787488 Z" id="路径" fill="url(#linearGradient-8)"></path>
                <path d="M31.7754326,205.857552 C31.7754326,205.857552 43.5991014,226.708825 86.4612555,212.240816 C129.32341,197.772807 179.056513,166.376685 223.771873,161.74909 C245.966991,159.451548 277.005476,159.115587 319.412457,184.908742 C277.894148,174.927441 236.527564,174.667342 170.874231,204.947205 C107.431741,234.208347 54.3715366,241.837919 31.7754326,205.857552 Z" id="路径" fill="url(#linearGradient-9)"></path>
            </g>
        </g>
    </g>
</svg>