<?xml version="1.0" encoding="UTF-8"?>
<svg width="320px" height="320px" viewBox="0 0 320 320" version="1.1" xmlns="http://www.w3.org/2000/svg" xmlns:xlink="http://www.w3.org/1999/xlink">
     
    <title>GX_LOGO</title>
     
    <g id="页面-1" stroke="none" stroke-width="1" fill="none" fill-rule="evenodd">
        <g id="航司LOGO备份-3" transform="translate(-109.000000, -5837.000000)">
            <g id="切图" transform="translate(109.000000, 80.000000)"></g>
            <g id="4-北部湾航空-GX-2" transform="translate(109.000000, 5923.000000)" fill="#E60012" fill-rule="nonzero">
                <path d="M57.2876595,1.39040907 C60.457534,0.111964085 63.9100311,-0.294975342 67.288987,0.211571183 C67.9956775,0.295901813 68.6913765,0.45565718 69.3642625,0.68812267 C70.0393082,0.911780077 70.6855636,1.2148721 71.289518,1.59106233 C73.5231927,3.12217489 75.0114934,5.52548241 75.3900623,8.21261983 C75.4150656,8.86474292 75.4400689,9.76768258 74.9149992,10.0184992 C74.3899295,10.2693157 74.5899561,11.1220921 74.3899295,11.6738885 C73.4898101,14.1820543 71.4145346,10.8211122 69.6643023,12.30093 C67.8068897,13.9035114 66.0841749,15.6567903 64.5136186,17.5429963 L64.5136186,17.5429963 L63.8135257,18.445936 C56.7680018,27.3908254 50.4707752,36.9040109 44.9860267,46.8885353 C33.8845531,67.5809025 25.6584612,86.7683702 23.1581294,98.2056059 C21.482907,105.253552 20.4327676,109.868577 23.1581294,113.2546 C24.5631579,114.980911 26.6882285,115.954092 28.9088927,115.888174 C31.4092246,115.888174 34.4096228,114.935071 40.4104193,112.201171 C50.1092707,107.367698 59.3199383,101.605593 67.91407,94.9951538 C70.664435,93.0137029 72.1396309,92.1107632 74.7899826,90.2547206 C76.0901552,89.2514543 76.4402017,87.5709833 78.0654174,82.7302234 C78.4404672,81.6266305 74.2649129,83.4325098 73.6898366,83.6331631 L73.6898366,83.6331631 L68.6891729,85.4390424 C65.0147,86.9102846 61.1653502,87.8967147 57.2376529,88.3735963 C55.5811573,88.5505357 53.90851,88.2549492 52.4120123,87.5208199 C51.1779234,86.8339977 50.3701388,85.5714131 50.2617269,84.1598779 C50.0316272,82.6707468 50.4102583,81.1514772 51.3118663,79.9461595 C52.4246578,78.6788878 53.7647034,77.6324192 55.2623907,76.8611156 C58.4663888,74.9404063 61.8095511,73.2635879 65.2637182,71.8447842 C73.56482,68.3082705 87.7667051,63.1665308 93.1924253,60.4075485 L93.1924253,60.4075485 L84.7663068,63.7684906 C93.0424053,60.1316503 101.66855,57.0215248 109.919646,53.5602561 C109.869639,53.3596028 109.794629,53.1840312 112.569997,52.2058466 C109.769626,53.0084596 106.319168,54.6387673 102.818703,56.0182585 C99.3182384,57.3977496 95.8177737,58.8524857 92.9923987,59.9059153 L92.9923987,59.9059153 L92.8673821,59.6300171 C95.6677538,58.4511792 99.1682184,57.0466064 102.693686,55.6671153 C106.219154,54.2876241 109.669612,52.7827247 112.469984,51.9048667 L112.469984,51.9048667 L112.344967,51.4784785 C112.458442,51.4263027 112.573052,51.376818 112.688702,51.3300558 L112.986,51.217 L112.632325,51.3095222 C110.825855,51.7979821 109.055646,52.420172 107.336482,53.1719474 L106.694217,53.4599294 C106.544197,53.3846845 106.544197,53.1087862 106.544197,53.1087862 L106.544197,53.1087862 L107.3193,52.7827247 C120.596063,47.3149234 122.246282,51.1774986 126.446839,50.9517637 L126.446839,50.9517637 L126.721876,51.0270087 C130.947437,50.8263554 136.873223,52.5820714 135.523044,56.7456265 C134.172865,60.9091816 124.471577,64.8470018 106.519194,72.4969073 C105.430369,72.8414291 104.375719,73.2864416 103.368776,73.8262351 L103.368776,73.8262351 L100.868444,74.9047464 C101.828032,74.2072906 102.830116,73.5706488 103.868842,72.9985404 C102.41865,73.7008268 103.818836,72.8229688 105.594071,72.1206824 C106.885891,71.6199441 108.146649,71.0420311 109.369573,70.3900481 C109.294563,70.1643131 109.194549,69.9636599 107.744357,70.3900481 C106.994257,70.5907013 105.919115,70.9418445 104.318902,71.5187226 C102.07106,72.5155782 99.9409655,73.7606241 97.9680591,75.2308079 C95.5427372,76.7357073 97.7430293,74.8796647 97.6180127,74.7040931 L97.6180127,74.7040931 L96.2178268,75.6321144 L95.8927837,75.8327677 L95.7177605,75.8327677 L95.367714,76.0083393 L93.7424983,76.7858707 C88.0167383,95.6723585 82.2409716,111.724619 76.2401751,129.156371 C74.7149727,133.495498 73.3397902,137.909869 71.8145877,142.048343 C71.2564081,143.873989 70.3569547,145.576388 69.1642359,147.064674 C68.9486603,147.260316 68.7040314,147.421092 68.4391397,147.541226 C68.0916119,147.683117 67.7316807,147.792274 67.363997,147.867287 C66.6242681,148.044238 65.8534272,148.044238 65.1136983,147.867287 C63.8533856,147.612433 62.9325463,146.522646 62.8884029,145.233713 C62.8624586,144.525763 62.7788354,143.821128 62.6383697,143.126854 C62.4984254,142.506956 62.3231137,141.895629 62.1133,141.295893 C61.7798286,140.370296 61.545152,139.411834 61.4132071,138.436584 C61.2387006,134.355741 61.9378145,130.284755 63.4634792,126.497715 C65.8137912,119.173871 68.464143,111.649374 70.9644749,103.924224 C71.2145081,103.247019 71.4395379,102.569814 71.6645678,101.917691 C63.0134195,112.000517 55.0123575,122.208752 41.1105123,129.733249 C34.3560572,133.542894 26.6379529,135.286653 18.9075652,134.74958 C13.3318251,134.072376 3.98058387,130.66127 0.830165704,117.317829 C-1.39512967,107.887126 0.0550628217,86.3670637 15.207074,55.7925236 C30.584115,24.7163503 49.5366307,4.22463634 57.2876595,1.39040907 Z M212.433253,24.6160237 C212.583272,24.6160237 214.008462,24.8166769 213.833438,24.8166769 C212.658282,25.1427385 210.783033,25.9704331 210.507997,25.9704331 C208.896601,26.5481626 207.333201,27.2526387 205.832376,28.0772923 C193.269997,34.7988677 182.86599,44.9571623 175.828394,57.372668 C174.432174,59.7969493 173.196022,62.3105137 172.127903,64.8971651 C170.670275,68.0332967 169.976132,71.471905 170.102634,74.929828 L170.099,74.794 L170.202647,74.7793381 C171.737351,90.0751359 197.777807,90.277259 238.304349,76.7485628 L239.53685,76.3344008 C280.767323,62.3889994 285.517953,54.8645022 287.843262,57.372668 C294.969208,63.592919 228.76042,102.619978 188.130027,103.247019 C147.499634,103.87406 152.150251,77.4379937 152.150251,77.4379937 L152.150251,77.4379937 L164.317,75.646 L152.275268,77.1370139 L147.949693,81.150079 L145.749401,83.2067749 L143.674126,85.0377359 C141.998904,86.6178803 141.67386,86.8436152 140.848751,87.5459016 L140.848751,87.5459016 L138.648459,89.3016176 C135.659401,91.6387481 132.555069,93.8236115 129.347224,95.8479301 C126.181189,97.8464582 122.89067,99.6392942 119.495917,101.215405 C116.317605,102.739365 112.955843,103.843792 109.494589,104.501102 C108.826211,104.619048 108.147727,104.669464 107.46932,104.651592 C107.269904,104.673749 107.068657,104.673749 106.869241,104.651592 L106.869241,104.651592 L106.519194,104.526184 C105.407413,104.063846 104.427839,103.331174 103.668816,102.394243 C102.811241,101.32856 102.15842,100.11238 101.74356,98.8075657 L101.74356,98.8075657 L101.543534,98.2306876 L101.543534,97.8544627 C101.529816,97.7126664 101.529816,97.5698709 101.543534,97.4280745 C101.494347,97.1543823 101.494347,96.8740721 101.543534,96.6003798 L101.543534,96.6003798 L101.541715,96.5376757 L101.541715,96.5376757 L101.543534,96.4749716 L101.693554,96.224155 L101.943587,95.6974402 C102.109339,95.2905185 102.243098,94.8712114 102.34364,94.4433573 C102.643162,94.4683665 102.944237,94.4683665 103.243759,94.4433573 C104.178818,94.2726132 105.086963,93.9773851 105.944118,93.5654993 L105.944118,93.5654993 L107.419314,92.8882946 C111.200622,91.1203229 114.881715,89.1442238 118.445777,86.9690235 C122.011992,84.8115464 125.451468,82.4499659 128.747145,79.8959961 C131.997576,77.4129121 135.172997,74.854583 138.248406,72.1959274 C141.323814,69.5372717 144.349215,66.8033711 147.274604,63.8938988 C150.340003,60.9024286 153.126923,57.6366368 155.600709,54.1371342 C157.231083,51.843475 158.239169,49.1641106 158.526097,46.3618205 C158.680889,44.5038032 158.298952,42.6403792 157.425951,40.9943458 C156.547082,39.3836849 155.251413,38.0406321 153.675453,37.1066889 C153.023355,36.7043635 152.337295,36.3602592 151.625181,36.078341 C150.900414,35.8127943 150.156485,35.6031707 149.399886,35.4512996 C148.169063,35.2403632 146.923033,35.1313086 145.674391,35.125238 C143.543921,35.1101518 141.414564,35.227424 139.298545,35.4763812 C135.373024,35.9027694 131.447503,36.5298108 127.872028,36.8057091 L127.872028,36.8057091 L123.821491,36.8057091 C123.546454,36.7053824 123.671471,36.3793209 123.821491,36.2288309 C123.986844,36.0427716 124.171212,35.8746391 124.371564,35.7271978 C124.584158,35.5734163 124.810096,35.4391075 125.046653,35.3258913 C125.603832,35.0356503 126.180271,34.7842391 126.771882,34.5734416 C127.922035,34.0968901 129.222208,33.6705019 130.572387,33.1939504 L130.572387,33.1939504 L134.497908,31.8646226 C137.04596,31.0347665 139.64298,30.3646296 142.27394,29.85809 C144.846841,29.3879294 147.46027,29.1778639 150.074975,29.2310486 C152.608673,29.2959615 155.126108,29.6579243 157.575971,30.3095598 C159.868945,30.9270611 162.00705,32.0208256 163.851804,33.520012 C166.813396,36.4372507 168.796961,40.2064374 169.527557,44.3051246 C170.082362,44.1023672 170.598279,43.8054214 171.05276,43.4272666 L171.05276,43.4272666 L172.602966,42.3487553 L175.703377,40.2418961 L178.778785,38.1852002 L180.504014,37.1066889 C182.80432,35.6770345 185.054618,34.2975433 187.55495,33.0183788 C192.2835,30.4518978 197.218075,28.2873058 202.306908,26.5473113 C205.549747,25.3357224 208.97343,24.6827606 212.433253,24.6160237 Z M215.533664,36.2288309 C215.88371,36.2288309 216.133744,36.4545659 216.33377,37.2070156 C216.33377,37.4578321 216.658813,37.5079955 217.108873,37.4829138 C217.381611,37.4324702 217.661245,37.4324702 217.933983,37.4829138 C218.596469,37.8851203 219.086521,38.5197143 219.309165,39.2637115 C220.079307,41.6057966 220.574386,44.0300277 220.784361,46.4872287 C220.984388,47.7663933 221.334434,51.0270087 221.884507,56.2189117 L224.659875,55.4162987 C224.457196,55.7223767 224.273491,56.0406796 224.109802,56.3694017 L224.209816,56.34432 C224.288274,56.5073151 224.409229,56.6459822 224.559862,56.7456265 L224.559862,57.222178 C224.081196,57.6173565 223.754194,58.1670222 223.634739,58.7772408 C223.409709,58.9277307 222.934646,59.2788739 222.28456,59.8055887 C222.437369,60.6346178 222.437369,61.4847254 222.28456,62.3137544 C222.070265,62.6336164 221.917611,62.9909242 221.8345,63.367184 C221.653198,63.8065828 221.543451,64.272349 221.509457,64.7466752 C221.509457,64.7466752 221.509457,65.1479817 221.709484,65.5994515 C221.829288,65.8890545 221.913258,66.1922949 221.959517,66.5023912 C221.84818,66.8127084 221.714476,67.1144855 221.559464,67.4053309 C221.378243,67.7760154 221.259937,68.1744297 221.209417,68.5841687 C220.407213,67.7958008 219.843769,66.7958149 219.584202,65.6997782 C219.584202,65.4238799 219.084135,64.1447154 218.259026,61.837203 L209.532868,65.4238799 L208.782768,65.6746965 L208.007665,65.9004314 C207.283094,66.1189859 206.586577,66.4220361 205.93239,66.8033711 C205.93239,67.029106 205.382317,68.0323723 204.58221,69.7880883 C204.407187,69.6375983 204.307174,69.6125167 204.232164,69.6375983 C204.157154,69.66268 203.807108,69.9636599 203.532071,70.5154563 C203.352559,70.8116103 203.217746,71.1327936 203.132018,71.4685593 C203.132018,71.4685593 202.956995,71.4685593 202.606948,71.1675794 C202.356915,71.5187226 201.981865,71.9952741 201.406789,72.6975605 C200.781706,72.6975605 200.481666,72.371499 200.481666,72.0203558 C200.762452,70.7022276 201.198924,69.4223885 201.781839,68.2079439 C201.781839,67.831719 200.856716,67.5056575 199.281507,67.2799226 C199.159481,67.1438573 199.112651,66.9559509 199.15649,66.7782894 C199.176174,66.3057601 199.37257,65.8580064 199.706563,65.5242066 C199.706563,65.5242066 200.581679,65.0978184 200.756703,65.0476551 C201.696181,64.6912183 202.607265,64.2635961 203.482064,63.7684906 C205.507333,58.7521591 207.507599,53.6104194 209.557871,48.5690063 C212.808302,40.5679576 214.783564,36.4545659 215.533664,36.2288309 Z M232.885967,45.2582275 C232.962662,45.4598953 233.013085,45.6706505 233.035987,45.885269 C233.035987,46.0859222 232.685941,46.9136169 232.660937,47.1895151 C232.262543,49.2702063 231.702425,51.3164287 230.985715,53.3094395 C230.203241,55.4439487 229.690839,57.6685085 229.460513,59.930997 C229.460513,61.0596716 229.685542,61.5111414 230.135602,61.3606515 C230.880019,60.9314735 231.547647,60.380438 232.110864,59.7303437 C232.635368,59.2251566 233.120206,58.680101 233.561057,58.100036 C233.5141,58.3854413 233.39341,58.6535216 233.21101,58.8775674 C233.21101,59.128384 233.21101,59.2036289 233.58606,59.1033023 C233.304773,59.9262942 232.364218,61.0799525 232.247748,61.6342779 L232.238,61.712 L232.24025,61.7676913 C232.253817,61.8978715 232.294743,62.0242178 232.360898,62.1381828 C232.235881,62.1381828 231.935841,62.564571 231.410771,63.0912858 C231.133126,63.4073644 230.823038,63.6932026 230.485649,63.9440622 C230.210612,63.9440622 230.485649,63.8186539 230.210612,63.9440622 C229.935576,64.0694704 230.035589,63.9440622 230.035589,64.1697971 C230.035589,64.395532 230.035589,64.2952054 229.885569,64.3453687 C229.060459,64.6212669 228.08533,64.0193071 227.060194,62.5394894 C226.367472,61.6996435 225.894779,60.6995678 225.685011,59.6300171 C226.018834,55.2895058 227.119444,51.0431265 228.935443,47.0891885 L229.485516,46.3367388 C229.785556,46.3367388 230.685675,45.734779 230.835695,45.6846157 C231.373507,45.7105102 231.912265,45.6598434 232.435908,45.5341258 C232.595205,45.4583342 232.746064,45.3658537 232.885967,45.2582275 Z M215.633677,42.9757967 L215.183618,42.9757967 C214.758561,44.2549612 213.383379,47.6660666 211.083073,53.1338679 C208.957791,58.1501993 207.907652,60.8590183 207.857645,61.1349166 L207.557605,62.0127746 L210.507997,60.8590183 C211.783166,60.4075485 213.383379,59.7805071 215.333637,59.0029757 L217.658946,58.0247911 L215.633677,42.9757967 Z M249.438164,41.1197541 C249.961612,41.5190512 250.424792,41.9921307 250.813347,42.5243269 C250.911742,42.9124157 250.986887,43.306066 251.038377,43.7031648 C251.029118,44.7269484 250.953952,45.7490633 250.813347,46.763127 L250.938363,46.8383719 C250.847597,47.3509625 250.687779,47.8487943 250.4633,48.3181897 C250.255605,48.812769 249.995759,49.2836393 249.688197,49.7227625 C249.038111,50.6006205 248.613055,51.077172 248.338018,51.1774986 C248.0634,51.1990045 247.787527,51.1990045 247.512909,51.1774986 L247.512909,50.3999673 C247.512909,50.3999673 247.637925,49.5973542 247.862955,47.8918015 C248.059099,46.847331 248.192689,45.792011 248.263008,44.7315127 L248.263008,42.373837 L248.263008,42.373837 C248.263008,42.0979387 248.263008,42.373837 248.012975,42.373837 C247.362889,42.5995719 246.287746,44.0793896 244.687534,46.8383719 C243.6768,48.5688997 242.75871,50.3522256 241.937169,52.1807649 C240.886398,54.9475859 239.984972,57.7691802 239.23681,60.6332834 L237.336558,61.2854065 C236.986512,61.4108148 236.536452,61.0596716 236.036385,60.2068952 C235.721425,59.7315999 235.469286,59.2173113 235.286286,58.6769141 L239.586857,42.7751435 L240.28695,42.5494086 C240.888325,42.9243172 241.442403,43.3706528 241.937169,43.8787364 C242.061807,44.207571 242.129458,44.5553683 242.137195,44.9070843 C242.113732,45.2829411 242.113732,45.6599022 242.137195,46.0357589 C243.337355,44.2549612 244.187467,43.0761234 244.637527,42.4490819 C245.269726,41.5241297 246.131551,40.7806377 247.137859,40.2920594 C247.737939,40.0663245 248.513041,40.2920594 249.438164,41.1197541 Z M264.015099,21.2550816 C259.481164,32.7592017 257.08918,41.4541762 256.839147,47.3400051 L256.86415,47.3400051 C256.695147,48.3866138 256.695147,49.4536852 256.86415,50.5002939 C257.114183,51.7794584 257.814276,52.2309282 258.914422,51.95503 C259.089445,51.95503 259.589512,51.5537235 260.464628,51.001927 C261.339744,50.4501306 262.339877,49.7729258 262.464893,49.6976809 C263.465026,48.9953945 263.465026,49.3465377 262.464893,50.7511105 C261.970422,51.4790998 261.362602,52.1226979 260.664654,52.6573164 C259.614989,53.3677807 258.470079,53.9251397 257.264203,54.3127058 C255.113918,54.3127058 254.513838,53.9615626 253.763738,52.8579697 C253.45924,52.3928338 253.223433,51.8859496 253.063646,51.3530702 C253.063646,51.001927 253.063646,50.3999673 252.913626,49.5221093 L253.238669,46.4370654 C253.547645,43.4989151 254.082643,40.5891301 254.838881,37.7337304 C255.739001,34.172135 257.139186,29.4567835 258.989432,23.5876757 C259.514761,22.9297608 259.991111,22.2339558 260.414621,21.5058982 C260.689658,21.5058982 261.439757,21.004265 261.739797,21.0293467 C262.039837,21.0544283 262.539903,21.4557348 262.864946,21.3804899 C263.290003,20.7785301 263.690056,20.7283668 264.015099,21.2550816 Z M270.665982,32.416419 C270.744805,32.6260947 270.79526,32.8454211 270.816002,33.0685421 C270.816002,33.2441137 270.465955,34.0718084 270.415949,34.3477066 C270.035424,36.4299245 269.483461,38.4769105 268.76573,40.467631 C267.969304,42.5993751 267.44833,44.8246644 267.215524,47.0891885 C267.215524,48.2178631 267.440554,48.6693329 267.915617,48.518843 C268.666057,48.09846 269.335105,47.5462529 269.890879,46.8885353 C270.401055,46.385901 270.877178,45.8496311 271.316068,45.2833092 C271.264889,45.567415 271.144658,45.8344762 270.966022,46.0608406 C270.966022,46.2865755 271.091038,46.3618205 271.366075,46.2614938 C271.041032,47.1393518 269.990892,48.3934347 269.990892,48.8950678 L270.115909,48.7947412 C270.08396,48.9688502 270.08396,49.147347 270.115909,49.321456 C269.786805,49.6092788 269.47771,49.9193427 269.190786,50.2494773 C268.914242,50.5666359 268.604033,50.8525861 268.265663,51.1022537 C267.990627,51.1022537 268.265663,50.9768454 267.990627,51.1022537 C267.71559,51.227662 267.7906,51.1022537 267.7906,51.3279886 C267.798026,51.3720316 267.785564,51.4171077 267.756585,51.4510226 C267.727606,51.4849374 267.685105,51.5041857 267.64058,51.5035602 C266.840474,51.7794584 265.865345,51.1774986 264.815205,49.6976809 C264.126896,48.8581363 263.662325,47.8570431 263.465026,46.7882086 C263.786547,42.4456429 264.887717,38.1971016 266.715458,34.24738 L267.265531,33.4949303 C267.56557,33.4949303 268.46569,32.8929705 268.61571,32.8428072 C269.145494,32.8832754 269.678274,32.8323755 270.190919,32.6923173 C270.356426,32.6133441 270.515298,32.5210774 270.665982,32.416419 Z M118.145737,50.2494773 C116.786106,50.3364563 115.438014,50.5548427 114.120203,50.9016004 C113.752948,50.9750392 113.391568,51.0741111 113.038673,51.1979683 L112.986,51.217 L113.311423,51.1326265 C114.899814,50.7345342 116.514554,50.4392257 118.145737,50.2494773 Z M305.595618,21.806878 C305.300056,24.5793079 304.357841,27.2429628 302.845253,29.5821918 L302.845253,29.6072734 C301.614263,32.2976838 299.612203,34.5592419 297.09449,36.1034227 C297.09449,35.6017895 296.819453,35.4512996 296.4194,35.5767079 C296.204177,35.8273697 296.057691,36.1299043 295.994344,36.4545659 C295.994344,37.9845469 296.919467,38.3858535 298.819719,37.758812 L300.019878,37.1066889 L301.270044,36.4545659 C301.445067,36.4545659 301.77011,36.4545659 302.195167,36.8057091 C301.945134,37.2070156 301.695101,37.758812 301.370057,38.4360168 C300.150072,39.3913688 298.844295,40.2310279 297.46954,40.9441825 C296.566246,41.1673385 295.622468,41.1673385 294.719175,40.9441825 C294.192678,40.9067292 293.684651,40.7339773 293.243979,40.4425494 C292.891603,40.0452515 292.602924,39.6021622 292.383232,39.1290143 C292.201219,39.4985255 292.003775,39.8612234 291.793786,40.2168144 L291.918803,40.1415695 L290.018551,43.1262867 C289.411362,43.7456935 288.721344,44.2774901 287.968279,44.7064311 C287.257299,44.9033765 286.528666,45.0293965 285.79299,45.0826559 C284.174415,44.5044981 283.021799,43.0567845 282.817595,41.345489 C282.545569,39.6882515 282.453352,38.0063251 282.542558,36.3291576 C281.739748,37.3675882 281.044405,38.4853034 280.467283,39.665018 C279.792193,40.9441825 279.142107,42.1731837 278.492021,43.5275932 C277.216851,45.7849423 276.291729,46.9888619 275.691649,47.1393518 C275.091569,47.2898418 274.34147,46.9136169 273.766393,45.9103506 C273.409718,45.3372859 273.211254,44.6794365 273.191317,44.0041447 C273.523456,42.0695955 273.982854,40.1592155 274.5665,38.2855268 C275.341603,35.5014629 275.941682,33.5952569 276.291729,32.5418273 C276.291729,32.416419 276.291729,32.2910108 276.116705,32.0903575 C276.469116,31.5584049 276.975083,31.1471123 277.566898,30.9115196 C278.592034,30.5854581 279.217117,31.5887244 279.192114,32.491664 C279.018193,33.51617 278.784426,34.5295424 278.492021,35.5265445 C278.129586,36.7327818 277.919583,37.9798993 277.866938,39.2386298 C279.067097,37.4578321 280.36727,35.6519528 281.542426,33.8711552 C283.667708,30.811193 285.092897,29.1808853 285.842996,28.8548237 C286.8154,28.561937 287.868227,28.737958 288.693375,29.3313752 L287.418206,34.7740948 C286.974454,36.5264523 286.681671,38.313828 286.543089,40.1164878 C286.510011,40.4909817 286.561282,40.8681445 286.693109,41.2200807 C286.843129,41.7718772 287.043156,41.9976121 287.318192,41.9223671 C288.456243,41.4287959 289.484761,40.7125458 290.343594,39.8155079 L292.005959,38.0130371 C291.89229,37.4983343 291.853085,36.9650788 291.8938,36.4294842 C292.160285,32.0414656 293.875729,27.8673771 296.769447,24.5658603 C298.404122,22.6686539 300.561488,21.2986231 302.97027,20.6280402 C304.470469,20.3270603 305.595618,20.9791834 305.595618,21.806878 Z M236.811488,33.6705019 C236.721282,33.9505054 236.646164,34.2351758 236.586458,34.5232782 L237.061521,34.7991765 C237.061521,35.2506463 236.836492,35.8776877 236.611462,36.7806274 C236.34993,37.5470318 236.014987,38.2862139 235.611329,38.9878132 C235.284816,39.4470655 234.984302,39.9243703 234.71121,40.4174677 C234.205989,40.4818779 233.710555,40.6082303 233.236014,40.7936926 C233.045597,40.9083869 232.861935,41.0340038 232.685941,41.1699174 L232.860964,40.8187742 C232.660937,40.4425494 231.810825,40.8187742 231.085728,41.0695908 L231.085728,40.618121 C231.085728,40.618121 231.335761,40.392386 231.585795,39.9409162 C231.475304,39.8869905 231.346239,39.8869905 231.235748,39.9409162 C232.035854,38.3607718 232.560924,37.2320972 232.910971,36.6301375 C233.320738,35.6241359 234.005446,34.7547019 234.886233,34.1219717 L236.811488,33.6705019 Z M317.872248,12.3260116 C319.222427,12.5266649 319.972527,12.8527264 319.99753,13.4296045 C320.02511,14.073201 319.820992,14.7052767 319.422454,15.2104022 L319.32244,15.1602389 C319.025752,15.689507 318.673721,16.1855766 318.272301,16.6400567 C317.847244,17.1918531 317.297171,17.8439762 316.572075,18.6716709 C316.572075,18.2703644 316.572075,17.6182413 316.722095,16.7403833 C316.872115,15.8625253 316.872115,15.1853205 316.922122,14.7087691 C316.785182,14.6567455 316.634005,14.6567455 316.497065,14.7087691 C315.996999,14.859259 315.421923,15.4612188 314.821843,16.5648117 C314.479286,17.1446251 314.218439,17.7692411 314.04674,18.4208543 C313.902587,19.1835992 313.802407,19.9540493 313.7467,20.7283668 L313.746944,21.0552611 C313.748654,21.7880668 313.762327,22.2928352 313.871717,22.1831029 C314.381556,25.3648876 314.723743,28.5714332 314.896853,31.7893776 C314.92567,33.2666478 314.72318,34.7393021 314.296773,36.153586 C313.721697,37.909302 312.946594,38.9125683 311.971465,39.1884665 L310.546275,39.7653446 C309.412792,40.0830456 308.237636,39.5563308 307.020807,38.1852002 C306.085619,37.3661141 305.503121,36.2154468 305.395592,34.9747481 C305.813333,32.5568181 306.808479,30.2763013 308.295977,28.3281089 C308.571013,28.3281089 308.796043,28.5538438 309.021073,28.980232 C309.246103,29.4066202 309.021073,30.9616829 309.021073,32.8177256 C308.833211,33.8279558 309.06834,34.8712086 309.671159,35.7021161 L310.321246,35.8776877 C311.168518,34.0852851 311.579832,32.1168265 311.521405,30.1339882 C311.508473,28.8175257 311.357624,27.5060735 311.071345,26.2212497 C310.871319,25.0925751 310.671292,23.9889822 310.496269,22.8853893 C310.496269,21.3804899 310.321246,20.3772236 310.321246,20.1514887 C310.294024,19.2026591 310.412079,18.2552561 310.671292,17.3423431 C310.938616,16.0749844 311.485392,14.8837364 312.271504,13.8559927 C313.093474,13.1077486 314.091494,12.5812833 315.171889,12.3260116 C316.062753,12.1428885 316.981384,12.1428885 317.872248,12.3260116 Z M302.045147,23.8384923 C300.330161,25.3700962 298.936232,27.2288077 297.944603,29.3062935 C297.275666,30.813786 296.732077,32.37416 296.319387,33.9714818 C297.466697,32.8121848 298.443325,31.494674 299.219772,30.0587433 C300.422056,28.3477238 301.373532,26.4725964 302.045147,24.4906154 L302.045147,23.8384923 Z M274.5665,20.8537751 C274.476294,21.1337785 274.401175,21.418449 274.34147,21.7065514 L274.841536,21.9824496 C274.718704,22.6509983 274.560121,23.312437 274.366473,23.9639006 C274.12661,24.738762 273.790599,25.4803037 273.36634,26.1710864 C273.04406,26.6281117 272.751738,27.1056701 272.491224,27.6007409 C271.985363,27.6617358 271.489506,27.788196 271.016028,27.9769657 C270.740992,28.1274557 270.515962,28.3531906 270.465955,28.3531906 L270.615975,28.0020474 C270.415949,27.6258225 269.590839,28.0020474 268.84074,28.2528639 L268.84074,27.8013941 C268.84074,27.8013941 269.06577,27.5756592 269.340806,27.1241894 C269.226006,27.0944553 269.105559,27.0944553 268.99076,27.1241894 C269.765862,25.544045 270.315935,24.4404521 270.665982,23.8134106 C271.067166,22.8024104 271.753623,21.9307554 272.641244,21.3052449 L274.5665,20.8537751 Z" id="4-北部湾航空-GX"></path>
            </g>
        </g>
    </g>
</svg>