<?xml version="1.0" encoding="UTF-8"?>
<svg width="320px" height="320px" viewBox="0 0 320 320" version="1.1" xmlns="http://www.w3.org/2000/svg" xmlns:xlink="http://www.w3.org/1999/xlink">
     
    <title>GY_LOGO</title>
     
    <g id="页面-1" stroke="none" stroke-width="1" fill="none" fill-rule="evenodd">
        <g id="航司LOGO备份-3" transform="translate(-1167.000000, -5837.000000)">
            <g id="切图" transform="translate(109.000000, 80.000000)"></g>
            <g id="多彩贵州航空上下组合1" transform="translate(1168.000000, 5932.000000)">
                <path d="M0.133478413,39.6917433 C92.0607511,30.5354078 117.492271,150.821262 207.123721,115.009118 C123.995605,170.904099 78.5688592,53.188128 0.133478413,39.6917433" id="Fill-40" fill="#E4004F"></path>
                <path d="M40.5511969,39.5940248 C69.6600772,36.6939195 89.6957389,46.5893214 112.314763,66.3958501 L125.573029,78.0075033 C151.377452,100.60631 167.297704,114.900167 204.129716,104.351062 C172.221818,123.488163 143.090474,109.344815 117.699389,87.1189108 L104.445616,75.5184896 C85.2141664,58.6861975 64.9426325,43.9924804 40.5511969,39.5940248" id="Fill-41" fill="#ED7700"></path>
                <path d="M77.5377606,39.505292 C101.421509,37.1241056 117.862927,45.2448497 136.41821,61.4953235 L147.299782,71.0223155 C166.742394,88.0500445 176.157066,99.6774225 203.316069,96.0000621 C180.580232,105.230529 160.715297,95.898974 140.83913,78.4983422 L129.96205,68.9803358 C114.18332,55.1694548 97.5509582,43.113014 77.5377606,39.505292" id="Fill-42" fill="#F9BE00"></path>
                <path d="M317.902801,90.2270329 C226.029442,99.3788757 200.615893,-20.8350941 111.036111,14.9545864 C194.114805,-40.9066982 239.514595,76.7396338 317.902801,90.2270329" id="Fill-43" fill="#0068B6"></path>
                <path d="M277.485082,90.32565 C248.376202,93.2257553 228.340541,83.3303534 205.723763,63.5238248 L192.46325,51.9121716 C166.658828,29.313365 150.740821,15.0195075 113.906564,25.5686124 C145.816708,6.42926528 174.945806,20.5748602 200.33689,42.7985177 L213.59291,54.4011853 C232.822113,71.2334773 253.093647,85.9271944 277.485082,90.32565" id="Fill-44" fill="#00ACA8"></path>
                <path d="M240.499642,90.4146075 C216.615893,92.7935475 200.174475,84.6750498 181.619193,68.4223295 L170.73762,58.8953376 C151.295009,41.869855 141.880337,30.2424769 114.721334,33.9198374 C137.454925,24.6893706 157.322106,34.0209255 177.198273,51.4193109 L188.075353,60.9373172 C203.854082,74.7481982 220.486444,86.8068855 240.499642,90.4146075" id="Fill-45" fill="#6EB92C"></path>
                <path d="M109.430607,39.7827226 C152.774939,32.3808272 165.927624,87.2177525 208.622745,90.9355482 C164.103545,99.3910062 146.410881,42.588479 109.430607,39.7827226" id="Fill-46" fill="#AACC05"></path>
            </g>
        </g>
    </g>
</svg>