<?xml version="1.0" encoding="UTF-8"?>
<svg width="320px" height="320px" viewBox="0 0 320 320" version="1.1" xmlns="http://www.w3.org/2000/svg" xmlns:xlink="http://www.w3.org/1999/xlink">
     
    <title>HO_LOGO</title>
     
    <g id="页面-1" stroke="none" stroke-width="1" fill="none" fill-rule="evenodd">
        <g id="航司LOGO备份-3" transform="translate(-109.000000, -601.000000)">
            <g id="切图" transform="translate(109.000000, 80.000000)"></g>
            <g id="吉祥航空" transform="translate(110.000000, 602.000000)" fill="#C5996B">
                <path d="M226.327843,146.289412 C225.505882,146.289412 224.702745,145.636863 224.702745,144.852549 C224.702745,144.043137 225.198431,143.421961 225.976471,143.421961 C236.787451,142.625098 246.27451,140.410196 255.16549,136.607843 C266.24,131.713725 273.857255,126.15451 276.850196,120.607843 C280.181961,114.766275 279.548235,107.607059 277.352157,103.672941 C275.112157,99.6823529 269.872941,96.507451 265.298824,98.4337255 C261.960784,99.8643137 260.360784,103.672941 261.665882,106.95451 C262.763922,109.527059 265.618824,110.788235 268.128627,109.828235 C269.076078,109.345098 269.728627,108.730196 270.199216,107.763922 C270.519216,106.822745 270.519216,105.881569 270.199216,104.902745 C269.872941,104.300392 270.199216,103.334118 271.002353,103.020392 C271.629804,102.712941 272.596078,103.177255 272.916078,103.81098 C273.53098,105.561569 273.53098,107.293333 272.916078,108.887059 C272.112941,110.455686 270.839216,111.729412 269.232941,112.532549 C265.298824,114.107451 260.699608,112.218824 258.936471,108.096471 C257.047843,103.334118 259.39451,97.7937255 264.156863,95.7168627 C270.381176,93.1945098 277.013333,97.0094118 279.868235,102.236078 C282.409412,106.678431 283.363137,114.898039 279.403922,122.044706 C275.90902,128.206275 268.128627,133.903529 256.244706,139.305882 C247.065098,143.271373 237.258039,145.636863 226.327843,146.289412 M219.488627,154.998431 C223.278431,150.712941 228.837647,149.759216 232.985098,152.77098 C236.624314,155.305882 237.559216,160.39451 234.854902,164.002353 C232.790588,167.04549 228.523922,167.829804 225.505882,165.602353 C224.859608,165.282353 224.702745,164.347451 225.198431,163.701176 C225.687843,163.073725 226.459608,162.898039 227.256471,163.230588 C228.969412,164.498039 231.353725,164.002353 232.470588,162.289412 C234.208627,160.061961 233.593725,156.755294 231.196863,155.161569 C227.90902,152.77098 223.924706,154.37098 221.540392,156.905882 C217.913725,161.021961 211.896471,163.701176 206.494118,160.39451 C202.058039,157.677647 200.778039,152.162353 203.476078,147.713725 C204.442353,145.969412 206.174118,144.852549 208.238431,144.369412 C210.133333,143.917647 212.191373,144.225098 213.948235,145.166275 C214.59451,145.636863 214.889412,146.603137 214.381176,147.20549 C213.948235,147.851765 213.145098,148.184314 212.373333,147.713725 C211.419608,147.08 210.133333,146.916863 208.872157,147.08 C207.598431,147.387451 206.494118,148.184314 205.847843,149.294902 C204.097255,152.300392 205.057255,156.096471 207.918431,157.991373 C212.191373,160.538824 216.803137,157.991373 219.488627,154.998431 M189.232941,61.1756863 C184.307451,61.972549 175.755294,61.4956863 166.098824,57.5364706 C172.436078,51.8392157 179.708235,46.2862745 184.144314,45.4831373 C188.423529,44.7113725 193.79451,45.4831373 195.400784,50.5592157 C195.400784,50.5592157 195.400784,50.7223529 195.563922,50.7223529 C194.917647,49.9380392 193.976471,49.2792157 193.022745,48.9780392 C189.709804,47.3905882 186.04549,48.6454902 184.809412,51.5192157 C183.535686,54.5184314 185.110588,58.0133333 188.423529,59.4313725 C189.709804,60.0713725 190.983529,60.2156863 192.219608,59.9019608 C191.284706,60.5607843 190.161569,60.8682353 189.232941,61.1756863 M26.4847059,172.435294 C21.2266667,180.843137 22.5129412,192.413333 26.9552941,200.959216 C33.1231373,212.529412 45.5027451,215.24 51.8337255,217.128627 C48.012549,222.518431 43.7584314,233.461176 50.4156863,244.529412 C50.867451,245.32 51.5137255,246.28 52.1286275,247.36549 C57.5309804,255.478431 67.9843137,263.409412 79.0964706,269.897255 C111.573333,287.503529 144.853333,278.769412 156.586667,269.401569 C163.545098,263.553725 167.818039,258.31451 172.900392,252.146667 C177.016471,247.36549 181.126275,242.339608 187.00549,236.454118 C200.156863,223.603922 221.540392,219.029804 235.683137,226.157647 C243.890196,230.418039 246.883137,236.316078 248.012549,240.419608 C249.292549,245.32 248.489412,250.734902 245.791373,254.66902 C242.465882,259.437647 235.181176,262.6 228.197647,262.455686 C231.353725,263.553725 235.024314,263.723137 239.002353,262.6 C247.065098,260.548235 253.383529,253.740392 253.860392,243.418824 C254.531765,231.723137 245.791373,221.395294 235.796078,220.134118 L238.676078,220.134118 C271.152941,222.518431 294.142745,209.981961 294.622133,184.149804 C294.757647,171.318431 289.223529,162.12 281.286275,156.573333 C287.002353,163.230588 289.355294,172.247059 288.76549,180.673725 C287.466667,199.503529 272.25098,209.047059 243.432157,209.367059 C237.709804,209.367059 198.581961,209.047059 160.70902,208.708235 C126.757647,208.563922 91.9278431,208.250196 82.572549,208.250196 C70.8643137,208.250196 56.4329412,211.412549 55.1529412,226.647059 C54.8517647,230.292549 56.1129412,234.057255 58.6478431,237.094118 C61.6407843,240.58902 65.9262745,242.816471 70.2180392,243.098824 C75.1121569,243.588235 79.5733333,241.831373 82.252549,238.66902 C83.9905882,236.316078 84.6305882,233.60549 83.8337255,231.233725 L83.8337255,231.064314 C81.9262745,227.111373 78.2933333,226.157647 75.4384314,228.843137 C76.3984314,232.193725 73.7003922,235.192941 69.5843137,234.408627 C67.0431373,234.057255 61.6407843,230.110588 65.2862745,223.798431 C67.5011765,219.820392 71.0023529,218.220392 85.4086275,218.383529 C96.8156863,218.559216 161.98902,219.644706 204.097255,219.97098 C199.836863,221.087843 196.341961,222.656471 193.79451,224.093333 C186.522353,228.372549 175.10902,237.094118 170.672941,245.658824 C169.894902,236.454118 164.498824,227.111373 155.469804,224.425882 C146.886275,221.903529 139.639216,223.484706 134.236863,228.686275 C133.126275,229.671373 132.341961,230.763137 131.545098,231.854902 C134.858039,229.32 139.294118,227.738824 144.539608,227.59451 C151.510588,227.249412 157.998431,230.418039 161.98902,236.316078 C165.916863,242.145098 166.4,249.436078 163.545098,255.785882 C163.243922,256.582745 162.283922,256.902745 161.637647,256.582745 C160.859608,256.243922 160.552157,255.334118 160.859608,254.66902 C163.381961,249.16 162.930196,242.95451 159.585882,238.047843 C156.109804,232.959216 150.544314,230.110588 144.671373,230.418039 C138.359216,230.763137 133.276863,233.147451 130.447059,236.924706 C129.003922,239.183529 128.200784,241.517647 128.200784,244.071373 C128.200784,244.855686 128.200784,245.483137 128.363922,246.110588 C128.520784,246.443137 128.520784,246.769412 128.520784,247.070588 C128.683922,247.258824 128.683922,247.258824 128.683922,247.36549 C129.643922,251.519216 132.473725,256.105882 135.661176,257.373333 C139.457255,258.810196 143.755294,255.164706 142.952157,252.786667 C140.737255,252.303529 139.457255,249.938039 139.796078,248.363137 C140.09098,246.769412 142.130196,244.071373 145.148235,243.908235 C148.003137,243.745098 152.32,245.483137 152.32,251.20549 C152.451765,254.53098 149.929412,258.653333 145.79451,261.357647 C141.998431,263.873725 135.981176,267.192941 118.84549,266.56549 C101.283137,265.919216 87.6486275,260.548235 80.8345098,255.955294 C78.1301961,254.041569 74.6666667,250.891765 72.5835294,248.978039 C77.6721569,247.547451 81.4807843,244.855686 83.532549,241.373333 C80.1945098,244.705098 75.2752941,246.443137 70.067451,246.110588 C64.8282353,245.658824 59.9090196,243.098824 56.4329412,238.98902 C53.4086275,235.33098 51.8337255,230.907451 52.2917647,226.31451 C53.4086275,212.830588 64.2133333,205.395294 82.572549,205.395294 C91.9278431,205.395294 126.945882,205.533333 160.70902,205.853333 C198.581961,206.192157 237.709804,206.518431 243.432157,206.518431 C270.381176,206.192157 284.630588,197.470588 285.88549,180.516863 C286.84549,167.528627 280.326275,153.084706 264.156863,150.079216 C256.721569,154.038431 248.326275,156.573333 243.087059,157.38902 C242.30902,157.545882 241.505882,156.905882 241.505882,156.096471 C241.34902,155.305882 241.838431,154.521569 242.610196,154.521569 C247.228235,153.724706 254.362353,151.666667 260.837647,148.498039 C264.018824,146.728627 267.018039,145.003137 274.94902,139.632157 C287.140392,131.224314 295.717647,115.701176 287.309804,100.799216 C280.006275,87.9678431 264.658824,86.5184314 256.721569,93.0439216 C251.821176,97.172549 251.193725,104.112157 252.92549,108.253333 C254.531765,112.218824 258.327843,115.544314 262.280784,115.832941 C261.477647,117.282353 260.530196,118.223529 259.26902,119.032941 C250.384314,127.101961 237.841569,127.421961 219.300392,127.585098 L215.052549,127.75451 L212.668235,127.75451 C202.189804,127.75451 184.809412,127.898824 176.225882,139.632157 C172.586667,144.369412 171.934118,150.712941 174.312157,155.46902 C177.681569,161.806275 186.04549,165.282353 198.255686,165.282353 C199.04,165.282353 199.68,166.072941 199.68,166.876078 C199.68,167.660392 199.04,168.312941 198.255686,168.312941 C181.126275,168.312941 174.494118,161.969412 171.802353,156.755294 C168.934902,151.032941 169.738039,143.572549 173.860392,137.862745 C183.347451,125.025098 202.371765,124.893333 212.668235,124.730196 L214.889412,124.730196 L219.300392,124.730196 C232.181961,124.579608 241.838431,124.410196 249.424314,121.712157 C243.250196,122.182745 234.691765,122.044706 222.506667,122.044706 C196.498824,122.044706 170.672941,120.438431 162.930196,142.963922 C153.248627,143.271373 148.511373,143.271373 143.579608,143.271373 C145.468235,133.119216 141.678431,121.235294 132.988235,119.183529 C133.126275,119.340392 133.446275,119.340392 133.596863,119.497255 C138.202353,123.613333 142.475294,132.667451 138.817255,145.166275 C135.341176,157.19451 121.863529,163.556863 106.980392,160.231373 C106.183529,160.061961 105.700392,159.271373 105.882353,158.461961 C106.039216,157.677647 106.798431,157.19451 107.620392,157.38902 C121.072941,160.39451 132.988235,154.82902 135.981176,144.369412 C138.974118,133.903529 135.981176,125.51451 131.701961,121.712157 C129.003922,119.497255 125.985882,119.032941 123.312941,120.287843 L123.124706,120.287843 C119.968627,122.352157 119.48549,125.83451 119.80549,128.206275 C122.666667,127.101961 127.265882,127.421961 128.200784,132.014902 C129.160784,136.457255 125.038431,141.050196 117.270588,139.136471 C110.770196,137.417255 107.300392,127.101961 112.031373,117.922353 C116.172549,109.828235 123.77098,105.561569 129.330196,102.876078 C128.043922,99.5317647 128.200784,95.8737255 129.643922,92.705098 C131.061961,89.5490196 133.766275,87.0203922 136.941176,85.7466667 C139.796078,84.8054902 142.632157,84.8054902 145.330196,86.0541176 C148.003137,87.1898039 150.086275,89.3984314 151.027451,92.0713725 C151.987451,94.2988235 151.818039,96.8211765 150.870588,98.8666667 C149.929412,101.119216 148.003137,102.876078 145.79451,103.672941 C144.075294,104.45098 141.998431,104.300392 140.09098,103.49098 C138.359216,102.712941 136.941176,101.257255 136.138039,99.3623529 C135.661176,97.7937255 135.661176,96.0494118 136.301176,94.6 C137.072941,93.0439216 138.202353,91.9270588 139.796078,91.2807843 C140.574118,90.9545098 141.358431,91.2807843 141.678431,92.0713725 C141.998431,92.8870588 141.515294,93.665098 140.875294,93.985098 C139.927843,94.2988235 139.294118,94.9262745 138.974118,95.7168627 C138.647843,96.507451 138.522353,97.48 138.817255,98.2580392 C139.294118,99.5317647 140.260392,100.328627 141.358431,100.799216 C142.475294,101.439216 143.755294,101.439216 144.853333,100.937255 C146.271373,100.328627 147.557647,99.2305882 148.172549,97.7937255 C148.793725,96.3568627 148.969412,94.6 148.35451,93.0439216 C147.557647,91.1427451 146.11451,89.5490196 144.219608,88.5952941 C142.130196,87.8298039 140.09098,87.8298039 138.039216,88.4509804 C135.498039,89.5490196 133.446275,91.4376471 132.341961,93.985098 C131.218824,96.507451 131.061961,99.2305882 132.015686,101.916078 C133.916863,107.123922 141.998431,110.612549 148.35451,108.096471 C156.881569,104.45098 161.167059,96.225098 172.900392,90.4901961 C186.848627,83.5317647 195.237647,84.3098039 199.366275,86.5184314 C205.377255,89.8690196 203.149804,97.6431373 199.366275,98.2580392 C195.563922,98.8666667 193.79451,96.8211765 194.302745,94.9262745 C190.983529,94.6 189.044706,97.9443137 189.998431,100.146667 C190.983529,102.374118 196.047059,106.678431 204.442353,105.718431 C212.988235,104.58902 218.848627,97.172549 219.488627,90.1701961 C220.128627,82.8980392 217.913725,78.1356863 214.726275,74.8039216 C219.626667,74.4901961 229.63451,75.1176471 232.985098,75.6070588 C239.774118,76.5670588 243.727059,79.547451 243.890196,82.734902 C243.890196,85.2447059 240.89098,88.1184314 238.337255,85.5835294 C235.181176,86.3615686 233.92,89.0596078 234.854902,91.7764706 C236.298039,96.225098 243.250196,97.3168627 248.169412,95.585098 C252.762353,93.985098 256.884706,88.9215686 258.327843,83.6886275 C260.210196,76.2345098 258.641569,66.2580392 249.606275,58.9482353 C240.552157,51.5192157 228.373333,52.1592157 220.266667,51.5192157 C211.570196,50.8541176 214.381176,49.2792157 212.505098,41.2101961 C211.231373,35.1866667 205.552941,28.3788235 195.563922,26.4588235 C185.593725,24.3945098 178.591373,25.5176471 164.981961,32.4886275 C151.667451,39.1647059 141.038431,46.2862745 132.341961,49.6243137 C123.601569,52.7992157 116.323137,54.3803922 112.376471,52.4729412 C108.875294,50.7223529 109.352157,47.0705882 110.613333,45.4831373 C111.87451,43.9082353 114.277647,42.1576471 116.950588,40.8964706 C115.689412,38.1921569 113.311373,35.0423529 112.031373,33.1286275 C111.090196,33.2917647 109.847843,33.7498039 108.235294,34.2329412 L103.824314,36.4666667 C97.0101961,40.0870588 89.7129412,49.4423529 94.6007843,59.2807843 C98.5788235,67.387451 110.613333,69.8784314 126.757647,66.1137255 C140.442353,62.9388235 154.36549,54.2047059 165.596863,47.0705882 C169.254902,44.8682353 172.900392,42.6407843 175.912157,40.8964706 C182.544314,37.2572549 189.383529,36.3098039 194.603922,38.5184314 C198.581961,40.0870588 201.28,43.2745098 202.541176,47.5662745 C202.691765,48.3568627 202.189804,49.1411765 201.443137,49.2792157 C200.646275,49.6243137 199.836863,49.1411765 199.68,48.3568627 C198.738824,44.8682353 196.498824,42.4776471 193.487059,41.2101961 C189.044706,39.3152941 183.209412,40.0870588 177.330196,43.412549 C174.312157,45.1819608 170.836078,47.24 167.178039,49.6243137 C155.626667,56.7458824 141.515294,65.6117647 127.422745,68.9435294 C109.847843,73.0847059 96.5019608,69.8784314 91.9278431,60.5607843 C88.2698039,53.2509804 90.4847059,46.1356863 94.4690196,40.7333333 C92.5490196,42.1576471 90.8109804,43.6007843 89.5435294,45.0313725 C84.3105882,51.3560784 86.2117647,60.5607843 89.2298039,64.6517647 C81.9262745,65.9380392 73.7003922,67.5129412 64.0313725,72.1184314 C54.3498039,76.5670588 44.8501961,83.0486275 39.3223529,89.8690196 C33.4243137,96.6768627 31.065098,103.020392 29.9670588,110.455686 C28.9882353,116.171765 30.2933333,122.847843 32.8031373,126.788235 C35.5011765,131.061176 41.0603922,135.020392 48.012549,135.503529 C53.734902,135.980392 60.2227451,134.236078 63.5419608,129.950588 C65.7568627,127.290196 66.88,124.083922 67.3631373,120.777255 C65.2862745,125.51451 61.6407843,129.16 57.5309804,130.590588 C48.8094118,133.76549 40.2384314,130.904314 35.9780392,123.613333 C30.745098,114.264314 34.2462745,101.734118 44.3796078,93.0439216 C49.4682353,88.4509804 68.4611765,73.8564706 94.7827451,73.7184314 C95.5670588,73.7184314 96.2070588,74.3333333 96.2070588,75.1176471 C96.2070588,75.9019608 95.5670588,76.5670588 94.7827451,76.5670588 C69.5843137,76.7239216 51.1937255,90.8101961 46.2745098,95.265098 C37.0760784,103.020392 33.9011765,114.107451 38.5192157,122.182745 C41.9952941,128.206275 49.292549,130.414902 56.5709804,127.898824 C60.2227451,126.631373 63.4101961,123.14902 64.985098,118.706667 C66.1082353,115.701176 66.2462745,112.846275 65.6,110.788235 C64.5019608,108.887059 63.4101961,107.293333 62.4439216,106.521569 C60.8690196,108.096471 58.9427451,109.683922 57.6878431,110.455686 C57.9827451,113.630588 58.6478431,116.171765 56.9160784,117.922353 C55.3035294,119.497255 52.2917647,120.13098 50.252549,117.596078 C47.3913725,113.938039 49.292549,106.678431 53.0886275,102.712941 C56.9160784,98.8666667 62.6007843,94.9262745 68.16,92.5607843 C73.5435294,90.3458824 79.0964706,88.9215686 84.1537255,90.0133333 C79.2282353,96.0494118 73.3803922,105.561569 71.1654902,112.061961 C68.9443137,118.549804 64.5019608,136.607843 72.4329412,151.666667 C82.0705882,170.057255 97.625098,183.051765 132.8,183.371765 L138.817255,183.371765 C126.757647,181.483137 116.649412,178.766275 108.580392,174.957647 C90.0266667,166.411765 80.3576471,152.45098 78.7764706,132.48549 C76.5552941,103.961569 98.4219608,87.1898039 119.667451,81.0031373 C120.426667,80.8337255 121.223529,81.3043137 121.543529,81.9254902 C121.731765,82.734902 121.223529,83.5317647 120.608627,83.8517647 C100.316863,89.6996078 79.5733333,105.373333 81.612549,132.171765 C84.4737255,168.940392 115.689412,184.149804 186.04549,183.051765 C186.202353,183.051765 186.36549,183.051765 186.522353,183.208627 C210.610196,182.901176 232.470588,182.581176 238.337255,182.581176 C244.367059,182.581176 251.193725,182.744314 251.193725,187.475294 C253.728627,186.552941 254.663529,185.109804 254.663529,183.842353 C254.663529,181.326275 251.193725,178.471373 245.653333,177.99451 C238.676078,177.335686 225.342745,177.530196 211.118431,177.668235 C194.302745,177.812549 176.683922,177.99451 166.098824,177.021961 C165.276863,177.021961 164.661961,176.237647 164.825098,175.440784 C164.825098,174.656471 165.596863,174.160784 166.4,174.160784 C176.853333,175.152157 194.302745,174.957647 211.118431,174.79451 C225.342745,174.656471 238.832941,174.480784 245.791373,174.957647 C252.60549,175.591373 257.687843,179.412549 257.524706,183.842353 C257.524706,185.429804 256.721569,190.02902 247.523137,191.610196 C245.496471,192.099608 242.610196,192.250196 238.676078,192.563922 C228.373333,193.348235 103.027451,192.250196 87.4792157,192.413333 C77.3333333,192.563922 60.2227451,194.295686 54.9898039,191.127059 C49.9137255,187.826667 47.3913725,184.149804 49.4682353,179.745098 C50.7168627,176.689412 58.1458824,176.871373 58.4658824,182.248627 C61.9670588,184.494902 66.56,182.418039 67.5011765,177.021961 L67.5011765,175.591373 C67.0431373,172.560784 65.4682353,170.364706 62.7513725,168.632941 C58.1458824,165.458039 51.3505882,164.80549 46.9207843,165.928627 C42.9364706,166.876078 39.1529412,169.73098 36.6243137,173.872157 C33.7631373,178.308235 32.8031373,183.528627 33.7631373,187.826667 C35.84,197.006275 43.4196078,203.977255 52.6054902,205.244706 C53.4086275,205.395294 54.054902,206.022745 53.8729412,206.813333 C53.734902,207.597647 53.0886275,208.250196 52.2917647,208.093333 C41.8384314,206.650196 33.28,198.738039 30.9019608,188.454118 C29.8101961,183.371765 30.9019608,177.335686 34.0643137,172.247059 C37.0760784,167.528627 41.5184314,164.190588 46.2745098,163.073725 C50.4156863,162.12 56.5709804,162.427451 61.8227451,164.661176 C58.8047059,161.969412 54.9898039,159.898824 51.1937255,159.597647 C40.8972549,158.656471 31.8870588,163.883137 26.4847059,172.435294 M158.33098,271.647843 C149.295686,279.089412 127.422745,286.047843 102.864314,281.467451 C107.137255,283.042353 110.770196,284.178039 113.631373,284.799216 C128.200784,287.647843 141.515294,286.386667 152.32,282.734902 C164.498824,278.449412 176.853333,268.48549 187.494902,258.653333 C199.836863,247.258824 211.231373,237.727843 220.92549,236.774118 C228.373333,236.140392 233.28,238.857255 233.781961,243.418824 C234.396863,249.938039 226.327843,249.436078 226.779608,245.658824 C224.564706,244.221961 222.180392,244.529412 220.743529,246.28 C218.848627,248.501176 218.848627,253.57098 220.743529,256.745882 C222.826667,258.979608 225.976471,259.437647 227.90902,259.613333 C233.92,259.889412 240.552157,257.047059 243.432157,253.087843 C245.007059,250.552941 246.425098,246.110588 245.151373,241.059608 C244.210196,237.577255 241.66902,232.482353 234.208627,228.843137 C223.096471,223.17098 202.691765,225.178824 189.044706,238.505882 C183.209412,244.385098 179.068235,249.310588 175.10902,254.041569 C170.214902,260.090196 165.596863,265.618039 158.33098,271.647843 M158.644706,0.174901961 C71.0023529,0.174901961 4.54747351e-13,71.1521569 4.54747351e-13,158.656471 C4.54747351e-13,246.28 71.0023529,317.451765 158.644706,317.451765 C246.27451,317.451765 317.289412,246.28 317.289412,158.656471 C317.289412,71.1521569 246.27451,0.174901961 158.644706,0.174901961 M158.644706,308.548235 C75.9152941,308.548235 8.74039216,241.373333 8.74039216,158.656471 C8.74039216,76.0901961 75.9152941,8.89647059 158.644706,8.89647059 C241.217255,8.89647059 308.367059,76.0901961 308.367059,158.656471 C308.367059,241.373333 241.217255,308.548235 158.644706,308.548235 M158.644706,11.745098 C77.5215686,11.745098 11.5764706,77.6588235 11.5764706,158.656471 C11.5764706,239.798431 77.5215686,305.705882 158.644706,305.705882 C239.61098,305.705882 305.537255,239.798431 305.537255,158.656471 C305.537255,77.6588235 239.61098,11.745098 158.644706,11.745098 M14.412549,158.656471 C14.412549,79.0894118 78.9145098,14.574902 158.644706,14.574902 C238.192941,14.574902 302.826667,79.0894118 302.826667,158.656471 C302.826667,238.355294 238.192941,302.863529 158.644706,302.863529 C78.9145098,302.863529 14.412549,238.355294 14.412549,158.656471" id="Fill-39"></path>
            </g>
        </g>
    </g>
</svg>