<?xml version="1.0" encoding="UTF-8"?>
<svg width="319px" height="320px" viewBox="0 0 319 320" version="1.1" xmlns="http://www.w3.org/2000/svg" xmlns:xlink="http://www.w3.org/1999/xlink">
     
    <title>JD_LOGO</title>
     
    <defs>
        <polygon id="path-1" points="0.000439108062 0.197598628 319.003664 0.197598628 319.003664 238.105907 0.000439108062 238.105907"></polygon>
    </defs>
    <g id="页面-1" stroke="none" stroke-width="1" fill="none" fill-rule="evenodd">
        <g id="航司LOGO备份-3" transform="translate(-648.000000, -1639.000000)">
            <g id="切图" transform="translate(109.000000, 80.000000)"></g>
            <g id="首都航空横版" transform="translate(647.000000, 1679.000000)">
                <g id="编组" transform="translate(0.000000, 0.790395)">
                    <mask id="mask-2" fill="white">
                        <use xlink:href="#path-1"></use>
                    </mask>
                    <g id="Clip-2"></g>
                    <path d="M145.433029,190.049921 C138.319479,191.472631 130.573612,192.737262 122.195431,194.159973 C85.837283,200.641208 70.9778662,212.022889 70.9778662,212.022889 C93.1089125,207.754758 109.549118,208.86131 133.260954,204.909338 C137.529084,204.277022 141.639136,203.328549 145.433029,202.380075 L145.433029,190.049921 Z M145.433029,169.973901 C126.463561,175.664741 107.336014,182.304055 91.3700446,192.104947 C91.3700446,192.104947 106.229461,187.678738 143.694161,182.462134 C144.326477,182.304055 144.800714,182.304055 145.433029,182.145976 L145.433029,169.973901 Z M145.433029,117.333626 L145.433029,161.279561 C88.0503877,176.297057 38.8878491,200.32505 0.000439108062,238.105907 C31.9323774,182.462134 83.6241784,139.78083 145.433029,117.333626 L145.433029,117.333626 Z M145.433029,87.4567136 L145.433029,97.8899211 C144.958792,98.2060789 144.484556,98.5222367 144.010319,98.6803156 C140.374504,100.735341 135.632137,101.841894 132.628638,101.999973 C123.460062,102.474209 116.662669,96.467211 116.188432,88.7213448 C116.188432,86.3501612 116.662669,83.9789777 117.9273,81.923952 C120.298484,87.4567136 126.305482,92.9894751 137.687163,90.1440549 C140.058346,89.5117393 142.587609,88.5632659 145.433029,87.4567136 L145.433029,87.4567136 Z M145.433029,73.5457702 L145.433029,79.0785317 C142.903767,78.9204528 140.216425,78.7623739 137.687163,78.2881372 C127.095877,76.7073482 121.405036,71.0165077 120.298484,66.9064563 C120.298484,66.9064563 125.989324,72.7553756 136.106374,73.7038491 C139.109873,74.0200069 142.271451,74.0200069 145.433029,73.5457702 L145.433029,73.5457702 Z M145.433029,41.455753 C137.687163,39.874964 130.573612,36.8714648 123.460062,33.7098868 C118.875774,31.6548611 114.765722,30.7063877 111.762223,30.8644666 C106.38754,31.0225455 101.961331,33.8679657 99.9063053,37.8199383 C98.6416741,40.5072796 98.4835952,42.2461475 98.6416741,43.6688576 C98.799753,49.0435403 103.54212,52.837434 108.600645,52.837434 C113.817249,52.837434 118.085379,48.8854614 118.085379,43.9850154 C118.085379,43.1946209 117.9273,42.4042264 117.769221,41.6138319 C118.875774,43.3526998 119.508089,45.2496467 119.508089,47.3046724 C119.35001,52.5212762 115.398038,56.6313276 109.549118,56.9474854 C108.126408,56.9474854 106.703698,56.7894065 105.439067,56.3151698 C105.122909,57.4217221 105.122909,58.6863533 105.122909,59.7929057 C105.122909,66.2741407 109.391039,71.6488233 115.239959,73.5457702 C114.291485,72.12306 113.65917,70.542271 113.65917,68.6453242 C113.65917,64.6933516 116.50459,61.5317736 120.456563,60.7413791 C123.934298,60.1090635 127.095877,60.2671424 136.896768,63.2706415 C139.58411,64.061036 142.587609,64.8514305 145.433029,65.3256672 L145.433029,54.1020652 C142.42953,52.9955129 139.426031,51.7308816 136.422532,50.3081715 C139.426031,51.2566449 142.42953,52.0470395 145.433029,52.6793551 L145.433029,41.455753 Z M145.433029,21.5378113 L145.433029,38.7684117 C141.639136,37.0295437 138.1614,34.8164391 134.999822,32.2871767 C136.422532,28.1771252 140.374504,25.331705 144.958792,25.1736261 C144.958792,23.9089949 145.116871,22.8024425 145.433029,21.5378113 L145.433029,21.5378113 Z M182.423492,181.355581 L182.423492,183.726765 C181.000782,184.359081 179.261914,184.833317 177.523046,185.465633 C174.993784,186.256027 175.151863,187.36258 176.258415,187.046422 C176.890731,186.888343 179.736151,186.097949 182.423492,185.149475 L182.423492,186.256027 C181.158861,186.730264 179.89423,187.204501 180.368467,187.204501 C180.842703,187.204501 179.89423,187.994895 182.423492,187.204501 L182.423492,189.259527 C179.261914,190.682237 175.309942,192.263026 170.251417,194.318051 C163.295945,197.005393 155.075842,200.008892 145.433029,202.380075 L145.433029,190.049921 C159.027815,187.520659 170.725654,184.991396 182.423492,181.355581 L182.423492,181.355581 Z M182.423492,159.698772 C170.883732,163.018429 158.079341,166.338086 145.433029,169.973901 L145.433029,182.145976 C160.608604,179.932871 173.096837,177.561688 182.423492,175.348583 L182.423492,159.698772 Z M182.423492,106.268103 L182.423492,120.337125 C177.997283,121.759835 174.203389,123.024467 170.883732,124.131019 C170.883732,124.131019 168.35447,126.186045 172.938758,124.605256 C175.784178,123.814861 178.945756,122.866388 182.423492,121.917914 L182.423492,151.794827 C173.096837,154.324089 162.821708,157.011431 151.440027,159.856851 C149.385002,160.331087 147.329976,160.805324 145.433029,161.279561 L145.433029,117.333626 C149.70116,115.910916 154.127369,114.330127 158.553578,113.065496 C166.773681,110.536233 174.993784,108.16505 182.423492,106.268103 L182.423492,106.268103 Z M182.423492,80.8173997 L182.423492,80.9754786 C165.350971,84.6112933 153.495053,93.3056329 145.433029,97.8899211 L145.433029,87.4567136 C153.178895,84.4532144 163.928261,80.343163 182.423492,80.8173997 L182.423492,80.8173997 Z M182.423492,59.4767479 C180.842703,59.4767479 179.261914,59.6348268 177.681125,59.6348268 C166.299444,59.6348268 155.550079,57.579801 145.433029,54.1020652 L145.433029,65.3256672 C151.756185,66.5902985 157.763184,67.380693 161.557077,67.6968508 C156.972789,70.7003499 151.281949,72.5972967 145.433029,73.5457702 L145.433029,79.0785317 C158.079341,79.2366106 171.041811,75.2846381 182.423492,69.5937976 L182.423492,59.4767479 Z M182.423492,9.99805146 L182.423492,30.5483087 C180.684624,29.5998353 178.945756,28.493283 177.206889,27.2286518 C176.100336,26.4382573 174.993784,25.6478628 173.729153,24.8574683 C165.50905,19.0085489 160.450525,19.7989434 159.343973,19.7989434 C155.392,20.1151012 152.388501,22.9605214 152.388501,26.912494 L152.388501,27.3867307 C152.388501,29.7579142 154.443527,31.6548611 156.972789,31.6548611 C159.502051,31.6548611 161.557077,29.5998353 161.557077,27.2286518 C161.557077,25.6478628 160.766683,24.3832316 159.818209,23.592837 C160.608604,23.2766792 161.557077,23.2766792 162.505551,23.2766792 C167.405997,23.2766792 171.357969,27.2286518 171.357969,31.9710189 C171.357969,33.8679657 170.883732,35.4487547 169.935259,36.8714648 C169.935259,36.8714648 175.151863,38.4522539 182.423492,38.9264906 L182.423492,53.4697496 C177.206889,54.418223 171.674127,54.8924597 166.141365,54.8924597 C159.027815,54.8924597 152.072343,54.1020652 145.433029,52.6793551 L145.433029,41.455753 C149.068844,42.2461475 153.020816,42.5623053 156.972789,42.5623053 L158.553578,42.5623053 C153.96929,41.9299897 149.543081,40.6653585 145.433029,38.7684117 L145.433029,21.5378113 C146.539581,16.9535232 149.859238,13.0015506 154.127369,10.788446 C157.447026,9.20765695 164.244419,6.2041578 181.475019,9.83997256 C181.791177,9.83997256 182.107334,9.83997256 182.423492,9.99805146 L182.423492,9.99805146 Z M182.423492,69.5937976 L182.423492,59.4767479 C189.062806,59.1605901 195.70212,58.0540377 201.867197,56.4732487 L202.341434,56.3151698 C196.808672,61.0575369 190.01128,65.7999039 182.423492,69.5937976 L182.423492,69.5937976 Z M182.423492,183.726765 L182.423492,181.355581 C187.954058,179.616714 193.489015,177.719767 199.019581,175.506662 C199.019581,175.506662 200.602566,176.297057 198.231383,177.403609 C196.334436,178.352082 191.589873,180.565187 182.423492,183.726765 L182.423492,183.726765 Z M182.423492,186.256027 C183.53224,185.781791 184.636597,185.307554 185.271108,185.149475 C186.847506,184.51716 188.904727,182.778292 186.691623,183.726765 C185.901228,184.042923 184.16236,184.675238 182.423492,185.149475 L182.423492,186.256027 Z M182.423492,189.259527 L182.423492,187.204501 L182.581571,187.204501 C185.110834,186.414106 194.753647,182.145976 195.541846,181.51366 C196.492515,181.039424 195.541846,182.462134 193.802978,183.568686 C191.908226,184.675238 188.904727,186.414106 182.423492,189.259527 L182.423492,189.259527 Z M204.39646,173.293557 C202.497317,173.925873 200.444487,174.716268 200.444487,174.716268 C200.444487,174.716268 199.496014,176.771293 200.916528,176.138978 C201.553235,175.980899 202.97375,175.348583 204.39646,174.716268 L204.39646,173.293557 Z M204.39646,152.7433 L204.39646,168.55119 C199.337935,170.290058 194.911726,171.712768 191.589873,172.819321 C189.062806,173.609715 185.901228,174.40011 182.423492,175.348583 L182.423492,159.698772 C183.213887,159.382614 184.004281,159.224535 184.794676,158.908377 C191.908226,156.853352 198.389461,154.798326 204.39646,152.7433 L204.39646,152.7433 Z M204.39646,116.227074 C197.12483,117.965942 189.220885,120.020967 182.423492,121.917914 L182.423492,151.794827 C190.327437,149.581722 197.599067,147.368617 204.39646,145.155513 L204.39646,116.227074 Z M204.39646,100.735341 L204.39646,114.330127 C195.860199,116.385153 188.588569,118.440178 182.423492,120.337125 L182.423492,106.268103 C190.801674,104.054998 198.231383,102.158051 204.39646,100.735341 L204.39646,100.735341 Z M204.39646,75.9169537 L204.39646,93.3056329 C197.599067,94.7283431 190.169358,95.8348954 182.423492,96.467211 L182.423492,96.3091321 C190.643595,90.3021338 198.075499,83.1885832 204.39646,75.9169537 L204.39646,75.9169537 Z M204.39646,13.3177084 L204.39646,47.3046724 C197.438792,50.1500926 190.169358,52.3631973 182.423492,53.4697496 L182.423492,38.9264906 C187.00778,39.0845695 192.224384,39.0845695 197.599067,37.9780172 C192.224384,35.9229914 187.323938,33.393729 182.423492,30.5483087 L182.423492,9.99805146 C188.746648,11.2626827 196.334436,12.8434717 204.39646,13.3177084 L204.39646,13.3177084 Z M204.39646,174.716268 L204.39646,173.293557 C205.344933,172.9774 206.135328,172.661242 206.767643,172.345084 C208.506511,171.712768 209.138827,171.712768 208.66459,172.661242 C208.348432,173.135479 206.293407,173.925873 204.39646,174.716268 L204.39646,174.716268 Z M233.482978,108.955444 L233.482978,109.903918 C232.060268,110.220075 228.108295,111.800864 228.108295,111.800864 C228.108295,111.800864 227.792137,112.117022 230.005242,111.642786 C231.109599,111.326628 232.376425,111.01047 233.482978,110.694312 L233.482978,117.649784 C231.109599,118.282099 222.417455,120.653283 212.93272,122.866388 C211.193852,123.340624 213.723115,124.763334 216.568535,124.131019 C223.840165,122.234072 230.3214,120.337125 233.482978,119.230573 L233.482978,125.237571 C232.850662,125.39565 232.376425,125.553729 232.216151,125.711808 C229.370731,126.502202 230.477283,126.81836 231.74411,126.502202 C232.060268,126.344123 232.692583,126.186045 233.482978,125.869887 L233.482978,131.718806 C228.89869,133.615753 224.156322,135.5127 224.47248,135.5127 C225.104796,135.5127 225.737111,135.5127 228.740611,134.564226 C229.370731,134.248069 231.109599,133.615753 233.482978,132.825358 L233.482978,134.564226 C224.630559,138.35812 215.145825,141.835856 204.39646,145.155513 L204.39646,116.227074 C218.305208,112.749338 230.953715,109.903918 233.16682,109.113523 C233.16682,108.955444 233.322703,108.955444 233.482978,108.955444 L233.482978,108.955444 Z M233.482978,93.7798696 L233.482978,106.74234 C225.104796,109.113523 215.778141,111.484707 208.822669,113.223575 C207.24188,113.539732 205.81917,113.85589 204.39646,114.330127 L204.39646,100.735341 C208.980748,99.628789 212.774642,98.6803156 215.620062,98.048 C221.62706,96.6252899 227.634058,95.2025798 233.482978,93.7798696 L233.482978,93.7798696 Z M233.482978,52.2051184 L233.482978,64.2191149 C233.482978,64.2191149 233.482978,64.061036 233.16682,64.2191149 C232.850662,64.2191149 230.953715,64.3771938 230.953715,64.3771938 C230.953715,64.3771938 230.477283,64.6933516 230.637557,64.8514305 C230.953715,65.0095094 231.427952,65.0095094 232.216151,64.8514305 C232.692583,64.8514305 233.16682,64.6933516 233.482978,64.5352727 L233.482978,72.2811389 C231.427952,72.5972967 229.214847,73.0715334 226.843664,73.3876913 C223.365928,73.861928 218.623561,74.3361647 218.623561,74.3361647 C218.623561,74.3361647 216.726614,75.2846381 219.097798,75.1265592 C221.152823,74.8104014 226.367232,74.4942436 233.482978,73.2296123 L233.482978,79.5527684 C231.427952,80.0270051 229.370731,80.5012419 227.317901,80.8173997 C224.790834,81.2916364 226.367232,82.0820309 227.473784,81.7658731 C228.108295,81.6077942 230.163321,81.4497153 233.482978,80.8173997 L233.482978,84.7693722 C225.737111,87.6147925 215.778141,90.7763705 204.39646,93.3056329 L204.39646,75.9169537 C211.668089,67.5387719 217.517009,59.1605901 221.152823,52.0470395 C223.840165,52.2051184 226.843664,52.3631973 229.689084,52.3631973 C230.953715,52.3631973 232.216151,52.3631973 233.482978,52.2051184 L233.482978,52.2051184 Z M233.482978,10.1561304 L233.482978,45.0915678 C226.843664,44.9334889 220.362429,44.1430943 214.039273,42.7203842 C210.877695,44.4592521 207.713921,46.0400412 204.39646,47.3046724 L204.39646,13.3177084 C206.451485,13.4757873 208.506511,13.4757873 210.403458,13.4757873 C219.255877,13.4757873 227.001743,12.0530772 233.482978,10.1561304 L233.482978,10.1561304 Z M232.376425,152.110985 C232.376425,151.952906 233.008741,151.636748 233.482978,151.478669 L233.482978,148.949407 C229.689084,150.688274 226.843664,151.952906 226.685585,151.952906 C226.053269,151.952906 227.792137,150.688274 227.792137,150.688274 L233.482978,147.842854 L233.482978,141.519698 C224.790834,145.471671 215.301708,149.107485 204.39646,152.7433 L204.39646,168.55119 C213.090799,165.547691 223.524007,161.279561 233.482978,155.904878 L233.482978,152.269063 C233.322703,152.269063 233.322703,152.427142 233.16682,152.427142 C232.376425,152.7433 232.216151,152.427142 232.376425,152.110985 L232.376425,152.110985 Z M233.482978,109.903918 C234.905688,109.745839 237.432755,107.532734 233.482978,108.955444 L233.482978,109.903918 Z M237.595225,139.622751 L237.595225,145.62975 C236.328398,146.420144 234.905688,147.05246 233.482978,147.842854 L233.482978,141.519698 C234.905688,140.887383 236.328398,140.255067 237.595225,139.622751 L237.595225,139.622751 Z M237.595225,131.086491 L237.595225,132.825358 C236.328398,133.457674 234.905688,134.08999 233.482978,134.564226 L233.482978,132.825358 C234.747609,132.351122 236.170319,131.718806 237.595225,131.086491 L237.595225,131.086491 Z M237.595225,124.447177 C236.644556,124.763334 234.905688,125.39565 233.482978,125.869887 L233.482978,131.718806 C234.905688,131.244569 236.328398,130.612254 237.595225,130.138017 L237.595225,125.711808 C237.432755,125.869887 237.118792,126.027966 236.960714,126.027966 C234.905688,126.81836 232.692583,127.292597 237.595225,124.921413 L237.595225,124.447177 Z M237.595225,109.429681 L237.595225,123.656782 C235.854161,124.289098 234.431451,124.921413 233.482978,125.237571 L233.482978,119.230573 C233.955019,119.072494 234.431451,118.914415 234.747609,118.756336 C237.276871,117.649784 236.328398,117.175547 236.328398,117.175547 C235.854161,116.859389 235.538003,117.175547 233.955019,117.649784 L233.482978,117.649784 L233.482978,110.694312 C235.061571,110.220075 236.486477,109.745839 237.595225,109.429681 L237.595225,109.429681 Z M237.595225,107.690813 L237.595225,108.323129 C237.276871,108.323129 236.800439,108.481208 236.486477,108.481208 C235.693887,108.639286 236.644556,107.848892 236.644556,107.848892 L237.595225,107.690813 Z M237.595225,92.6733173 L237.595225,105.477708 C236.328398,105.951945 234.905688,106.268103 233.482978,106.74234 L233.482978,93.7798696 C234.905688,93.4637118 236.328398,92.9894751 237.595225,92.6733173 L237.595225,92.6733173 Z M237.595225,80.0270051 L237.595225,83.1885832 C236.328398,83.6628199 234.905688,84.2951355 233.482978,84.7693722 L233.482978,80.8173997 C234.747609,80.6593208 236.170319,80.343163 237.595225,80.0270051 L237.595225,80.0270051 Z M237.595225,72.5972967 L237.595225,78.604295 C236.328398,78.9204528 234.905688,79.2366106 233.482978,79.5527684 L233.482978,73.2296123 C234.905688,73.0715334 236.170319,72.7553756 237.595225,72.5972967 L237.595225,72.5972967 Z M237.595225,52.0470395 L237.595225,63.4287204 C233.008741,64.2191149 235.538003,64.5352727 235.538003,64.5352727 C235.538003,64.5352727 236.328398,64.5352727 237.595225,64.3771938 L237.595225,71.3326655 C236.328398,71.6488233 234.905688,71.9649811 233.482978,72.2811389 L233.482978,64.5352727 C233.799136,64.5352727 233.955019,64.3771938 233.799136,64.3771938 C233.641057,64.3771938 233.641057,64.3771938 233.482978,64.2191149 L233.482978,52.2051184 C234.905688,52.2051184 236.328398,52.2051184 237.595225,52.0470395 L237.595225,52.0470395 Z M237.595225,8.89149914 L237.595225,25.0155472 C237.595225,25.0155472 237.432755,25.1736261 237.276871,25.331705 L237.595225,25.331705 L237.595225,45.0915678 L236.486477,45.0915678 L233.482978,45.0915678 L233.482978,10.1561304 C234.905688,9.83997256 236.328398,9.36573585 237.595225,8.89149914 L237.595225,8.89149914 Z M233.482978,151.478669 C233.641057,151.32059 233.799136,151.32059 233.955019,151.32059 C234.431451,151.004432 234.747609,151.32059 234.747609,151.32059 L234.747609,151.636748 C234.747609,151.636748 234.117489,151.952906 233.482978,152.269063 L233.482978,155.904878 C234.905688,155.272563 236.328398,154.482168 237.595225,153.691774 L237.595225,150.214038 C237.118792,150.530196 236.486477,150.688274 236.01224,151.004432 C234.747609,151.32059 234.747609,151.004432 234.747609,151.004432 C234.747609,151.004432 236.01224,150.372117 237.595225,149.423643 L237.595225,146.894381 C236.170319,147.684775 234.747609,148.317091 233.482978,148.949407 L233.482978,151.478669 Z M237.595225,108.323129 L237.595225,107.690813 L238.699581,107.374655 C239.334093,107.374655 239.171623,107.532734 238.383424,108.006971 C238.383424,108.006971 238.06507,108.16505 237.595225,108.323129 L237.595225,108.323129 Z M237.595225,124.921413 C237.909187,124.763334 238.06507,124.763334 238.225345,124.605256 C239.334093,124.131019 238.85766,123.814861 238.539307,124.131019 C238.383424,124.131019 238.06507,124.289098 237.595225,124.447177 L237.595225,124.921413 Z M237.595225,153.691774 C242.017043,151.162511 246.127094,148.47517 250.081262,145.471671 C250.713578,144.997434 248.97471,144.048961 248.184316,144.681276 C247.552,145.313592 241.703081,148.317091 237.595225,150.214038 L237.595225,153.691774 Z M250.555499,143.416645 C250.081262,143.732803 250.081262,143.890882 250.081262,143.890882 C250.081262,143.890882 250.237146,144.365118 250.555499,144.523197 L250.555499,143.416645 Z M250.555499,139.464672 C250.237146,139.78083 249.923184,139.938909 249.607026,140.255067 C246.603527,142.310093 242.017043,144.681276 237.595225,146.894381 L237.595225,149.423643 C239.964213,148.317091 242.967712,146.578223 245.180816,145.313592 C246.127094,144.681276 247.710079,143.574724 247.710079,143.574724 C247.710079,143.574724 248.342395,142.62625 250.555499,141.20354 L250.555499,141.045461 L250.555499,139.464672 Z M250.555499,133.141516 L250.555499,138.200041 C246.761605,140.571225 242.493475,143.100487 237.595225,145.62975 L237.595225,139.622751 C242.017043,137.567726 246.287369,135.5127 250.555499,133.141516 L250.555499,133.141516 Z M250.555499,125.553729 C245.971211,127.766834 241.386923,129.66378 237.595225,131.086491 L237.595225,132.825358 C242.017043,130.928412 246.445448,128.873386 250.555499,126.660281 L250.555499,125.553729 Z M250.555499,120.811362 L250.555499,121.601756 C248.97471,122.392151 247.552,123.024467 247.552,123.024467 C247.552,123.024467 247.077763,123.656782 248.026237,123.340624 C248.342395,123.182545 249.290868,122.866388 250.555499,122.392151 L250.555499,124.447177 C247.393921,126.027966 243.916185,127.608755 240.596528,128.873386 C239.806134,129.189544 238.699581,129.66378 237.595225,130.138017 L237.595225,125.711808 C239.806134,124.921413 245.813132,122.55023 250.555499,120.811362 L250.555499,120.811362 Z M250.555499,104.845393 C244.864659,106.426182 241.386923,107.216576 240.912686,107.374655 C239.964213,108.006971 241.072961,107.848892 239.489976,108.639286 C239.015739,108.797365 238.383424,109.113523 237.595225,109.429681 L237.595225,123.656782 C241.228844,122.392151 245.813132,120.653283 250.555499,118.914415 L250.555499,113.85589 C246.287369,115.120521 242.967712,116.227074 242.335396,116.385153 C241.703081,116.70131 241.072961,116.227074 241.072961,116.227074 C241.072961,116.227074 239.648055,116.385153 238.383424,116.70131 C237.276871,116.859389 237.909187,116.068995 240.122292,115.436679 C243.755911,114.330127 247.233647,113.065496 250.555499,111.958943 L250.555499,104.845393 Z M250.555499,89.1955815 L250.555499,101.367657 C249.130593,101.841894 247.710079,102.31613 246.127094,102.790367 C243.600027,103.73884 240.754607,104.529235 237.595225,105.477708 L237.595225,92.6733173 C242.017043,91.566765 246.287369,90.4602127 250.555499,89.1955815 L250.555499,89.1955815 Z M250.555499,76.3911904 C245.655053,78.1300583 241.228844,79.2366106 237.595225,80.0270051 L237.595225,83.1885832 C244.232343,80.6593208 248.658552,78.4462161 250.555499,77.4977427 L250.555499,76.3911904 Z M250.555499,71.3326655 L250.555499,74.3361647 C246.603527,75.7588748 242.177317,77.3396638 237.595225,78.604295 L237.595225,72.5972967 C240.436254,71.9649811 243.600027,71.3326655 246.761605,70.542271 C249.290868,69.9099554 249.130593,70.7003499 246.445448,71.4907444 C244.70658,72.12306 240.436254,73.2296123 240.436254,73.2296123 C240.436254,73.2296123 238.06507,74.3361647 241.386923,73.861928 C243.125791,73.5457702 246.445448,72.7553756 250.555499,71.3326655 L250.555499,71.3326655 Z M250.555499,69.4357187 L250.555499,70.0680343 C249.923184,70.3841921 249.448947,70.3841921 249.130593,70.3841921 C248.816631,70.2261132 249.290868,69.9099554 249.290868,69.9099554 C249.290868,69.9099554 249.923184,69.5937976 250.555499,69.4357187 L250.555499,69.4357187 Z M250.555499,62.3221681 C245.813132,63.4287204 240.436254,64.061036 237.595225,64.3771938 L237.595225,71.3326655 C242.811828,70.2261132 247.233647,68.961482 250.555499,67.8549297 L250.555499,66.5902985 C247.077763,67.5387719 243.125791,68.4872453 242.017043,68.4872453 C240.754607,68.6453242 241.386923,68.1710875 245.971211,67.0645352 C247.552,66.5902985 249.130593,66.2741407 250.555499,65.7999039 L250.555499,63.5867993 C250.081262,63.7448782 249.607026,63.9029571 249.448947,63.9029571 C248.500473,64.061036 249.765105,63.2706415 250.237146,63.1125626 L250.555499,63.1125626 L250.555499,62.3221681 Z M250.555499,50.6243293 L250.555499,60.7413791 C246.603527,61.6898525 242.335396,62.6383259 237.909187,63.4287204 L237.595225,63.4287204 L237.595225,52.0470395 C242.017043,51.7308816 246.287369,51.2566449 250.555499,50.6243293 L250.555499,50.6243293 Z M250.555499,25.9640206 L250.555499,44.1430943 C246.287369,44.7754099 242.017043,45.0915678 237.595225,45.0915678 L237.595225,25.331705 C241.86116,25.8059417 246.287369,25.9640206 250.555499,25.9640206 L250.555499,25.9640206 Z M250.555499,3.04257976 L250.555499,8.57534134 C246.919684,14.4242607 242.493475,19.9570223 237.595225,25.0155472 L237.595225,8.89149914 C243.125791,6.99455232 247.552,4.78144768 250.555499,3.04257976 L250.555499,3.04257976 Z M250.555499,70.0680343 L250.555499,69.4357187 C251.029736,69.2776398 251.345894,69.2776398 251.503973,69.1195609 C251.82013,68.961482 251.82013,69.2776398 252.136288,69.2776398 C252.452446,69.2776398 251.345894,69.9099554 250.713578,70.0680343 L250.555499,70.0680343 Z M250.555499,77.4977427 L250.555499,76.3911904 C250.713578,76.3911904 250.869461,76.2331115 251.029736,76.2331115 C253.24284,75.442717 252.768604,76.5492693 251.503973,77.023506 C251.345894,77.023506 251.029736,77.1815849 250.555499,77.4977427 L250.555499,77.4977427 Z M253.558998,141.361619 L253.558998,142.784329 C252.452446,143.574724 251.503973,144.207039 251.187815,144.365118 C250.869461,144.523197 250.713578,144.523197 250.555499,144.523197 L250.555499,143.416645 C251.029736,143.100487 251.662051,142.62625 252.926683,141.677777 C253.082566,141.519698 253.400919,141.519698 253.558998,141.361619 L253.558998,141.361619 Z M253.558998,137.725804 C252.610525,138.200041 251.82013,138.832357 250.555499,139.464672 L250.555499,141.045461 C251.345894,140.571225 252.452446,139.938909 253.558998,139.306593 L253.558998,137.725804 Z M253.558998,131.560727 L253.558998,136.303094 C252.610525,136.93541 251.662051,137.567726 250.555499,138.200041 L250.555499,133.141516 C251.503973,132.66728 252.610525,132.193043 253.558998,131.560727 L253.558998,131.560727 Z M253.558998,124.131019 L253.558998,125.237571 C252.610525,125.711808 251.662051,126.186045 250.555499,126.660281 L250.555499,125.553729 C251.503973,125.079492 252.610525,124.605256 253.558998,124.131019 L253.558998,124.131019 Z M253.558998,121.285599 C252.452446,121.759835 251.345894,122.075993 250.555499,122.392151 L250.555499,124.447177 C251.662051,124.131019 252.610525,123.656782 253.558998,123.182545 L253.558998,121.285599 Z M253.558998,119.70481 L253.558998,120.495204 C252.610525,120.811362 251.662051,121.285599 250.555499,121.601756 L250.555499,120.811362 C251.662051,120.337125 252.610525,120.020967 253.558998,119.70481 L253.558998,119.70481 Z M253.558998,112.907417 L253.558998,117.649784 C252.610525,118.124021 251.662051,118.440178 250.555499,118.914415 L250.555499,113.85589 C251.503973,113.539732 252.452446,113.223575 253.558998,112.907417 L253.558998,112.907417 Z M253.558998,104.054998 L253.558998,110.852391 C252.610525,111.326628 251.662051,111.642786 250.555499,111.958943 L250.555499,104.845393 C251.503973,104.529235 252.452446,104.371156 253.558998,104.054998 L253.558998,104.054998 Z M253.558998,88.405187 L253.558998,100.261105 C252.610525,100.577262 251.662051,100.89342 250.555499,101.367657 L250.555499,89.1955815 C251.662051,89.0375026 252.610525,88.7213448 253.558998,88.405187 L253.558998,88.405187 Z M253.558998,70.3841921 L253.558998,73.2296123 C252.610525,73.5457702 251.662051,74.0200069 250.555499,74.3361647 L250.555499,71.3326655 C251.503973,71.1745866 252.610525,70.7003499 253.558998,70.3841921 L253.558998,70.3841921 Z M253.558998,65.7999039 L253.558998,66.9064563 C252.610525,67.2226141 251.662051,67.5387719 250.555499,67.8549297 L250.555499,66.5902985 C251.187815,66.4322196 251.82013,66.2741407 252.452446,66.1160617 C252.768604,65.9579828 253.24284,65.9579828 253.558998,65.7999039 L253.558998,65.7999039 Z M253.558998,62.7964048 C252.452446,63.1125626 251.345894,63.4287204 250.555499,63.5867993 L250.555499,65.7999039 C251.662051,65.4837461 252.610525,65.1675883 253.558998,64.8514305 L253.558998,62.7964048 Z M253.558998,61.5317736 L253.558998,62.1640892 C252.452446,62.480247 251.187815,62.9544837 250.555499,63.1125626 L250.555499,62.3221681 C250.713578,62.3221681 250.869461,62.3221681 250.869461,62.1640892 C252.136288,61.8479314 252.926683,61.6898525 253.558998,61.5317736 L253.558998,61.5317736 Z M253.558998,50.1500926 L253.558998,59.9509846 C252.610525,60.2671424 251.662051,60.4252213 250.555499,60.7413791 L250.555499,50.6243293 C251.662051,50.4662504 252.610525,50.3081715 253.558998,50.1500926 L253.558998,50.1500926 Z M253.558998,25.9640206 L253.558998,43.8269365 C252.610525,43.9850154 251.662051,44.1430943 250.555499,44.1430943 L250.555499,25.9640206 L251.187815,25.9640206 L253.558998,25.9640206 Z M253.558998,1.30371184 L253.558998,3.51681647 C252.610525,5.25568439 251.662051,6.99455232 250.555499,8.57534134 L250.555499,3.04257976 C251.82013,2.41026415 252.768604,1.77794854 253.558998,1.30371184 L253.558998,1.30371184 Z M253.558998,3.51681647 L253.558998,1.30371184 C254.665551,0.671396226 255.297866,0.19715952 255.297866,0.19715952 C254.821434,1.30371184 254.191314,2.41026415 253.558998,3.51681647 L253.558998,3.51681647 Z M253.558998,62.1640892 L253.558998,61.5317736 C254.665551,61.2156158 254.821434,61.0575369 254.821434,61.0575369 C254.821434,61.0575369 255.772103,61.6898525 254.347197,62.0060103 C254.191314,62.0060103 253.877352,62.1640892 253.558998,62.1640892 L253.558998,62.1640892 Z M253.558998,66.9064563 L253.558998,65.7999039 C256.720576,64.8514305 259.093955,63.9029571 259.565997,63.5867993 C260.196117,63.2706415 259.724075,64.5352727 259.407918,64.6933516 C259.093955,64.6933516 257.192617,65.641825 253.558998,66.9064563 L253.558998,66.9064563 Z M253.558998,73.2296123 L253.558998,70.3841921 C256.24634,69.5937976 259.093955,68.4872453 261.93718,67.380693 C265.098758,66.2741407 263.043732,67.8549297 262.253338,68.1710875 C261.621022,68.3291664 261.93718,68.8034031 263.043732,68.3291664 C264.150285,68.0130086 269.683046,65.1675883 269.683046,65.1675883 C269.683046,65.1675883 270.947678,65.1675883 269.366889,66.1160617 C268.576494,66.5902985 262.253338,69.7518765 253.558998,73.2296123 L253.558998,73.2296123 Z M253.558998,120.495204 C254.507472,120.020967 255.297866,119.70481 255.45375,119.546731 C256.560302,119.230573 258.617523,117.491705 256.878655,118.282099 C256.404419,118.440178 255.139787,119.072494 253.558998,119.70481 L253.558998,120.495204 Z M253.558998,123.182545 C260.988707,119.70481 266.993509,116.543232 267.786099,116.227074 C268.890456,115.436679 273.951177,112.275101 268.102257,115.120521 C262.409221,117.649784 257.192617,119.862889 253.558998,121.285599 L253.558998,123.182545 Z M253.558998,125.237571 C257.036734,123.340624 260.51447,121.443678 263.834127,119.546731 L265.256837,118.440178 C265.256837,118.440178 266.837626,117.175547 263.992206,118.756336 C260.672549,120.653283 257.192617,122.392151 253.558998,124.131019 L253.558998,125.237571 Z M253.558998,139.306593 C255.772103,137.883883 258.617523,135.828858 262.409221,133.141516 C263.201811,132.509201 264.7826,131.086491 264.310559,130.770333 C263.992206,130.612254 260.51447,133.299595 258.29917,134.722305 C256.088261,136.303094 254.821434,136.93541 253.558998,137.725804 L253.558998,139.306593 Z M253.558998,142.784329 L253.558998,141.361619 C255.139787,140.255067 254.821434,140.255067 255.772103,139.78083 C257.355087,138.832357 256.878655,139.148515 257.036734,139.622751 C257.036734,139.938909 255.139787,141.519698 253.558998,142.784329 L253.558998,142.784329 Z M273.002703,120.020967 L273.002703,121.443678 C269.366889,124.921413 263.043732,130.138017 253.558998,136.303094 L253.558998,131.560727 C259.882154,128.082991 266.20531,124.289098 273.002703,120.020967 L273.002703,120.020967 Z M273.002703,112.43318 C272.370388,112.749338 271.896151,113.065496 271.896151,113.065496 C271.896151,113.065496 270.947678,114.013969 271.421914,114.013969 C271.579993,113.85589 272.370388,113.539732 273.002703,113.223575 L273.002703,112.43318 Z M273.002703,105.635787 L273.002703,106.584261 C272.686545,106.900419 272.212309,107.058497 271.735877,107.374655 C271.105756,107.690813 263.515774,111.01047 260.196117,111.958943 C256.878655,113.065496 259.724075,113.065496 261.462943,112.43318 C262.727575,111.958943 263.676048,112.117022 273.002703,108.006971 L273.002703,110.061997 C271.421914,110.852391 269.841125,111.484707 269.050731,111.800864 C267.944178,112.275101 261.146786,114.804364 253.558998,117.649784 L253.558998,112.907417 C259.724075,110.852391 267.153784,108.323129 272.212309,106.110024 C272.528467,105.951945 272.842429,105.793866 273.002703,105.635787 L273.002703,105.635787 Z M273.002703,97.5737633 C265.414916,100.419184 258.775602,102.474209 253.558998,104.054998 L253.558998,110.852391 C260.988707,108.323129 267.786099,105.635787 273.002703,103.422683 L273.002703,97.5737633 Z M273.002703,82.8724254 L273.002703,92.6733173 C267.311863,95.2025798 260.832823,97.7318422 253.558998,100.261105 L253.558998,88.405187 C260.038038,86.666319 266.521468,84.7693722 273.002703,82.8724254 L273.002703,82.8724254 Z M273.002703,55.0505386 C272.842429,55.2086175 272.686545,55.2086175 272.370388,55.5247753 C268.418415,58.0540377 262.885654,60.2671424 261.776906,60.5833002 C260.672549,61.0575369 260.988707,60.5833002 260.988707,60.5833002 C260.988707,60.5833002 263.201811,58.8444322 259.724075,60.5833002 C257.985208,61.3736947 255.614024,62.1640892 253.558998,62.7964048 L253.558998,64.8514305 C265.572995,60.899458 272.212309,56.3151698 272.842429,55.999012 C272.842429,55.999012 273.002703,55.999012 273.002703,55.8409331 L273.002703,55.0505386 Z M273.002703,44.7754099 L273.002703,52.2051184 C267.469942,55.2086175 260.988707,57.7378799 253.558998,59.9509846 L253.558998,50.1500926 C260.196117,48.8854614 266.837626,46.9885146 273.002703,44.7754099 L273.002703,44.7754099 Z M273.002703,24.0670738 L273.002703,38.7684117 C266.837626,40.9815163 260.356391,42.7203842 253.558998,43.8269365 L253.558998,25.9640206 C260.196117,25.8059417 266.679547,25.1736261 273.002703,24.0670738 L273.002703,24.0670738 Z M273.002703,55.8409331 L273.002703,55.0505386 C273.637214,54.8924597 273.474744,55.5247753 273.002703,55.8409331 L273.002703,55.8409331 Z M273.002703,106.584261 C274.581297,105.635787 275.531966,104.687314 273.002703,105.635787 L273.002703,106.584261 Z M273.002703,113.223575 L273.002703,112.43318 C273.637214,112.275101 274.267334,111.958943 274.581297,111.958943 C275.213612,111.958943 274.425413,112.43318 274.425413,112.43318 C274.425413,112.43318 273.793098,112.907417 273.002703,113.223575 L273.002703,113.223575 Z M273.002703,121.443678 L273.002703,120.020967 C274.267334,119.388652 275.531966,118.598257 276.638518,117.807863 C276.006202,118.440178 274.89965,119.70481 273.002703,121.443678 L273.002703,121.443678 Z M277.11495,106.268103 L277.11495,108.323129 C275.848123,108.955444 274.425413,109.58776 273.002703,110.061997 L273.002703,108.006971 C274.267334,107.532734 275.531966,106.900419 277.11495,106.268103 L277.11495,106.268103 Z M277.11495,95.9929743 L277.11495,99.4707101 C276.796597,99.628789 276.638518,99.628789 276.480439,99.7868679 C276.320165,99.7868679 276.320165,99.9449468 277.11495,99.9449468 L277.11495,101.683815 C275.848123,102.158051 274.581297,102.790367 273.002703,103.422683 L273.002703,97.5737633 C274.425413,97.0995266 275.690045,96.6252899 277.11495,95.9929743 L277.11495,95.9929743 Z M277.11495,81.6077942 L277.11495,90.9344494 C275.690045,91.566765 274.425413,92.1990806 273.002703,92.6733173 L273.002703,82.8724254 C274.425413,82.3981887 275.690045,81.923952 277.11495,81.6077942 L277.11495,81.6077942 Z M277.11495,52.837434 L277.11495,53.6278285 C276.638518,53.7859074 276.320165,53.9439863 276.006202,54.1020652 C274.89965,54.8924597 274.741571,54.8924597 274.267334,55.0505386 C273.793098,55.0505386 274.10706,54.2601441 274.741571,54.1020652 C275.373887,53.7859074 276.164281,53.3116707 277.11495,52.837434 L277.11495,52.837434 Z M277.11495,43.1946209 L277.11495,50.1500926 C275.848123,50.7824082 274.425413,51.5728027 273.002703,52.2051184 L273.002703,44.7754099 C274.425413,44.3011732 275.690045,43.6688576 277.11495,43.1946209 L277.11495,43.1946209 Z M277.11495,23.2766792 L277.11495,37.1876226 C275.690045,37.6618593 274.425413,38.294175 273.002703,38.7684117 L273.002703,24.0670738 C274.425413,23.9089949 275.690045,23.592837 277.11495,23.2766792 L277.11495,23.2766792 Z M277.11495,53.6278285 L277.11495,52.837434 C277.74507,52.3631973 278.535465,51.8889605 279.325859,51.4147238 C280.116254,50.9404871 280.116254,51.5728027 280.116254,51.5728027 L279.325859,52.2051184 C279.325859,52.2051184 278.059033,52.9955129 277.11495,53.6278285 L277.11495,53.6278285 Z M277.11495,101.683815 C281.380885,99.7868679 284.070422,98.6803156 284.226305,98.5222367 C285.0167,98.2060789 284.542463,97.5737633 283.59399,97.8899211 C279.797901,99.3126312 277.903149,99.7868679 277.11495,99.9449468 L277.11495,101.683815 Z M277.11495,108.323129 C279.325859,107.374655 281.064727,106.426182 281.064727,106.268103 C281.064727,106.110024 280.906648,106.110024 281.536768,105.31963 C282.169084,104.529235 282.961674,103.580762 280.906648,104.529235 C279.483938,105.161551 278.219307,105.793866 277.11495,106.268103 L277.11495,108.323129 Z M287.387883,101.367657 L287.387883,102.790367 C286.123252,103.422683 284.858621,103.896919 284.070422,104.213077 C282.331554,104.845393 283.275636,103.106525 283.275636,103.106525 C283.275636,103.106525 285.332858,102.31613 287.387883,101.367657 L287.387883,101.367657 Z M287.387883,91.7248439 L287.387883,95.2025798 C284.542463,96.467211 280.592686,98.048 277.11495,99.4707101 L277.11495,95.9929743 C280.432412,94.7283431 283.752069,93.3056329 287.387883,91.7248439 L287.387883,91.7248439 Z M287.387883,78.2881372 L287.387883,86.3501612 C284.226305,87.7728714 280.748569,89.3536604 277.11495,90.9344494 L277.11495,81.6077942 C280.592686,80.5012419 283.910148,79.3946895 287.387883,78.2881372 L287.387883,78.2881372 Z M287.387883,38.4522539 L287.387883,43.1946209 C284.384384,45.5658045 280.906648,47.936988 277.11495,50.1500926 L277.11495,43.1946209 C280.592686,41.7719108 284.070422,40.1911218 287.387883,38.4522539 L287.387883,38.4522539 Z M287.387883,20.7474168 L287.387883,32.2871767 C284.070422,34.0260446 280.592686,35.7649125 277.11495,37.1876226 L277.11495,23.2766792 C280.592686,22.6443636 284.070422,21.6958902 287.387883,20.7474168 L287.387883,20.7474168 Z M287.387883,32.2871767 C299.557763,25.6478628 310.14905,16.7954443 318.687506,6.2041578 C309.044693,12.369235 298.613681,17.269681 287.387883,20.7474168 L287.387883,32.2871767 Z M287.387883,43.1946209 L287.387883,38.4522539 C293.234607,35.6068336 298.769564,32.1290978 303.986168,28.3352041 C299.557763,32.6033345 294.34116,37.9780172 287.387883,43.1946209 L287.387883,43.1946209 Z M287.387883,86.3501612 C309.677009,75.6007959 317.739033,67.8549297 319.003664,66.9064563 C308.570456,71.0165077 297.97917,74.8104014 287.387883,78.2881372 L287.387883,86.3501612 Z M287.387883,95.2025798 L287.387883,91.7248439 C291.339856,89.985976 295.449907,87.9309503 299.557763,85.8759245 C301.773063,84.6112933 301.773063,85.5597667 300.82459,86.0340034 C299.876117,86.666319 297.818895,88.0890292 292.602292,90.9344494 C290.389187,92.1990806 291.495739,92.3571595 292.762566,91.8829228 C294.185276,91.2506072 296.712343,89.8278971 296.55646,90.1440549 C296.398381,90.6182916 296.240302,90.9344494 290.389187,93.7798696 C289.756871,94.0960274 288.650319,94.5702642 287.387883,95.2025798 L287.387883,95.2025798 Z M287.387883,102.790367 L287.387883,101.367657 C288.178278,101.051499 288.968672,100.577262 289.756871,100.261105 C291.181777,99.4707101 291.339856,99.4707101 291.814093,99.4707101 C291.814093,99.4707101 291.339856,101.051499 290.075225,101.525736 C289.600988,101.683815 288.494436,102.31613 287.387883,102.790367 L287.387883,102.790367 Z" id="Fill-1" fill="#E50113" mask="url(#mask-2)"></path>
                </g>
            </g>
        </g>
    </g>
</svg>