<?xml version="1.0" encoding="UTF-8"?>
<svg width="20px" height="20px" viewBox="0 0 20 20" version="1.1" xmlns="http://www.w3.org/2000/svg" xmlns:xlink="http://www.w3.org/1999/xlink">
    <title>资源 1@2x</title>
    <g id="📄BOOK1.5-（20240109）" stroke="none" stroke-width="1" fill="none" fill-rule="evenodd">
        <g id="资源-1" fill="#D6006D" fill-rule="nonzero">
            <path d="M20,10.9671405 C19.5846122,16.0296805 15.3293559,19.9455045 10.1844069,19.9997657 L10.0796234,19.9997657 C9.67699296,20.0025237 9.27456941,19.980934 8.87461327,19.9351176 C3.73709996,19.3384468 -0.102137843,14.9890713 0.00207151661,9.88363925 C0.0149068226,9.31558103 0.0718312738,8.74932956 0.172344683,8.18986041 L0.172344683,8.18986041 C0.198540555,8.05539247 0.229975601,7.8692061 0.264030234,7.73473816 L0.264030234,7.70112118 C0.264030234,7.88472163 0.264030234,8.07090801 0.264030234,8.25450846 L0.264030234,8.25450846 C0.279747757,8.54930355 0.308563216,8.84151273 0.353096198,9.1337219 C0.433686165,9.66656762 0.55007792,10.1935341 0.701501292,10.7111342 C0.579286314,10.1889431 0.491780192,9.65942417 0.439542575,9.12596413 C0.402921981,8.77635772 0.387177236,8.42492669 0.392390005,8.07349393 L0.392390005,8.03729102 C0.392390005,7.95971337 0.392390005,7.88213571 0.392390005,7.80455805 L0.392390005,7.80455805 C0.428707256,7.19620502 0.576949272,6.59946592 0.829861063,6.04354525 L0.829861063,6.04354525 C0.79580643,6.33575442 0.764371384,6.63054952 0.748653861,6.92793053 C0.732936338,7.22531155 0.717218815,7.55372363 0.717218815,7.86403426 L0.717218815,7.86403426 C0.716842268,9.16258367 0.954696743,10.4504667 1.41926818,11.6653394 C1.03142507,10.4986524 0.848043183,9.27520206 0.877013633,8.04763471 C0.877013633,7.76576922 0.877013633,7.48131782 0.903209504,7.19686641 C0.929405376,6.912415 0.939883725,6.70295533 0.968699184,6.45987867 C1.04399156,5.78773483 1.28111733,5.14313263 1.6602702,4.57991346 L1.6602702,4.57991346 C1.43586833,5.44289661 1.29724748,6.32542402 1.24637542,7.21496786 C1.24637542,7.47356005 1.22279914,7.70887894 1.22017955,7.9519556 L1.22017955,8.12521237 C1.22017955,8.14589974 1.22017955,8.16917304 1.22017955,8.18986041 C1.22017955,8.42776523 1.22017955,8.66567004 1.25423419,8.90098893 C1.2868303,9.31562765 1.34192068,9.72824327 1.41926818,10.1370596 C1.49585392,10.5450327 1.59644169,10.9482571 1.7205207,11.3446851 C1.84239632,11.7418368 2.00111691,12.1270466 2.19466598,12.4954203 C2.01385748,12.123024 1.86744072,11.7352891 1.75719492,11.3369273 C1.6463468,10.9379648 1.55888223,10.5330276 1.49523621,10.12413 C1.42931304,9.71730478 1.38559018,9.30727564 1.36425685,8.89581709 C1.36425685,8.68377149 1.34853932,8.4717259 1.35115891,8.26226623 L1.35115891,8.26226623 C1.35115891,8.20279002 1.35115891,8.14331382 1.35115891,8.08383762 L1.35115891,8.06315024 C1.35115891,8.02436141 1.35115891,7.98557258 1.35115891,7.94678376 L1.35115891,7.94678376 C1.35115891,7.79680029 1.35901767,7.64681682 1.3747352,7.49683335 C1.42581917,6.62397004 1.56624576,5.75844948 1.79386914,4.91349739 C1.95862315,4.2887653 2.28026497,3.7151159 2.72906176,3.24557777 L2.72906176,3.24557777 C2.1454704,4.60046882 1.80423778,6.04497511 1.7205207,7.5149348 C1.7205207,7.67267604 1.70218359,7.83300319 1.69694442,7.99333035 L1.69694442,7.99333035 C1.69694442,8.0941813 1.69694442,8.19761818 1.69694442,8.29846913 L1.69694442,8.32174243 C1.69755141,9.07306564 1.78544526,9.82184147 1.95890314,10.553393 C2.1746665,11.5018832 2.53784914,12.411692 3.03555346,13.2505095 C2.55541378,12.4039438 2.21162892,11.4887877 2.01653405,10.5378775 C1.84573497,9.70875248 1.78497419,8.86121008 1.83578254,8.01660365 L1.83578254,8.01660365 C1.83578254,7.94419783 1.83578254,7.87179202 1.83578254,7.79680029 C1.89433858,6.36860789 2.22771859,4.96446656 2.81812773,3.65932527 C3.11561538,2.99909404 3.56391999,2.41582199 4.12792132,1.95520275 C2.98054213,3.50675588 2.29421029,5.73323462 2.16847011,7.83041727 C2.15537217,8.02694733 2.150133,8.22089148 2.150133,8.41742154 C2.150133,8.67601373 2.150133,8.93460592 2.18418763,9.1931981 C2.23711608,9.77183485 2.33786905,10.3452327 2.48544016,10.9076643 C2.63439852,11.4686783 2.8288764,12.0169414 3.06698851,12.5471388 C3.30118245,13.0781992 3.59558097,13.5813537 3.94455021,14.0469735 C3.60537423,13.5750622 3.32151761,13.066696 3.09842356,12.5316233 C2.87191235,12.0000401 2.69053688,11.4507972 2.55616901,10.8895629 C2.42068475,10.3297612 2.33305735,9.75971778 2.29421029,9.18544034 C2.27063677,8.82292236 2.27063677,8.4592852 2.29421029,8.09676722 L2.29421029,8.09676722 C2.4775814,5.73582055 3.04079264,4.0756587 4.31129242,2.3275755 C4.83243259,1.60284694 5.54572457,1.03382073 6.37290752,0.682929185 C4.36630375,2.23448231 2.88361741,4.84884934 2.64523497,8.14589974 L2.64523497,8.14589974 C2.57293751,9.22647281 2.70348802,10.3109327 3.03031429,11.3446851 C3.2136491,11.9394658 3.45673188,12.514674 3.75593994,13.0617372 C4.05246105,13.6094068 4.41579397,14.119178 4.83782944,14.5796734 C4.42578542,14.1131661 4.07383056,13.5980985 3.78999457,13.0462217 C3.50343868,12.4959498 3.27266699,11.9190724 3.10104314,11.3239977 C2.80002229,10.2996424 2.69257553,9.22934079 2.78407309,8.16658712 L2.78407309,8.16658712 C3.04603181,5.18243326 4.48156558,2.72063563 6.31003743,1.39664362 C7.49256797,0.479822754 8.95586862,-0.0126188005 10.4594635,0.00024580758 C5.89352307,0.641554435 3.5804276,4.39631301 3.16391324,8.20279002 L3.16391324,8.20279002 C3.12241492,8.72985861 3.12942922,9.25955651 3.18486993,9.78537421 C3.25356039,10.4436183 3.39588555,11.0923287 3.60924305,11.7196438 C3.8191887,12.3460148 4.10319,12.945776 4.45536971,13.5065158 C4.80590845,14.0647153 5.23949653,14.5676993 5.74158701,14.9985927 C5.24987356,14.5557877 4.82862216,14.042311 4.49204393,13.4754847 C4.15328542,12.91121 3.88250382,12.3097812 3.68521108,11.6834409 C3.48838474,11.0593711 3.36101993,10.4159906 3.30537094,9.76468684 C3.2700073,9.31972995 3.2700073,8.87272211 3.30537094,8.42776523 L3.30537094,8.42776523 C3.30537094,8.38121863 3.30537094,8.33208612 3.31846888,8.28553952 L3.31846888,8.21313371 L3.31846888,8.21313371 C3.57334504,5.95471954 4.67734717,3.87290683 6.41220133,2.37929394 C6.5824745,2.23448231 6.75536725,2.09484253 6.93611877,1.96296052 C7.9686882,1.22178638 9.16125417,0.726991578 10.4201697,0.517430184 C11.8766602,0.289869059 13.8492093,0.517430184 15.0935132,1.25700384 C12.4739261,0.344173418 9.57142346,0.320900121 6.60081161,2.69477641 C5.35912729,3.68777041 3.97860485,5.74616423 3.66949356,8.27519583 L3.66949356,8.27519583 C3.61841643,8.77214112 3.61841643,9.2729134 3.66949356,9.76985868 C3.72971692,10.3801353 3.85797978,10.9819879 4.05195329,11.5644885 C4.09386668,11.6963705 4.14101925,11.8230807 4.19079141,11.9549627 C4.45897517,12.7873517 4.90571211,13.5529204 5.50058499,14.1995429 L5.55821591,14.261605 L5.5817922,14.2848783 C5.69964293,14.4133149 5.82563662,14.5342345 5.95901275,14.6469074 L5.95901275,14.6469074 C6.898398,15.4745327 8.07426454,15.99484 9.32518227,16.1363984 C9.6103241,16.1689942 9.89748843,16.1810937 10.1844069,16.1726013 L10.1844069,16.1726013 C13.1906458,16.1209668 15.7076329,13.9088567 16.1072935,10.9671405 L20,10.9671405 Z M17.6685674,8.40190601 L18.1924849,8.40190601 C17.4730677,4.92476811 14.1979217,2.55423447 10.6222169,2.92258548 C7.04651221,3.2909365 4.33773249,6.2779039 4.36106457,9.82674896 C4.36106457,9.87329556 4.36106457,9.91984215 4.36106457,9.96897467 C4.41676521,7.24543711 6.14296992,4.82840661 8.72287176,3.86157562 C11.3027736,2.89474464 14.2189712,3.57201187 16.0915759,5.57290747 C16.8323585,6.37869527 17.3526032,7.35775011 17.6030777,8.41742154 L17.6685674,8.40190601 Z M15.6121915,6.7236427 C14.5754581,4.96917186 12.6410237,3.92432925 10.5852037,4.00842473 L10.5852037,4.00842473 C10.0306302,4.00756456 9.47866105,4.08329008 8.94534213,4.23339993 C8.82222153,4.26701692 8.75411226,4.29029021 8.75411226,4.29029021 C9.01607098,4.23339993 9.29636681,4.19202518 9.53998842,4.16099412 C9.73645745,4.13772082 9.9303069,4.13772082 10.1267759,4.13772082 C12.7892055,4.13823858 15.1303844,5.87682885 15.868911,8.40190601 L16.4164047,8.40190601 C16.288355,8.04890324 16.1396618,7.70353313 15.9710749,7.36753725 C15.8643177,7.14615634 15.7444837,6.93115478 15.6121915,6.7236427 L15.6121915,6.7236427 Z M4.25890067,7.17100719 L4.25890067,7.17100719 C4.23532439,7.24082708 4.21698728,7.31323289 4.19603058,7.38305279 C4.06915818,7.86322041 3.98155699,8.35267117 3.93407186,8.84668457 C3.93407186,8.92167631 3.92097393,8.99666804 3.91573475,9.0742457 C3.91573475,9.10269084 3.91573475,9.1337219 3.91573475,9.16475296 C3.91573475,9.2397447 3.91573475,9.31990828 3.91573475,9.39748593 C3.89961361,9.80430259 3.94913091,10.2110618 4.06243164,10.6025255 C4.03623576,10.3439333 4.02051824,10.0853412 4.02051824,9.82674896 C4.01845768,7.12767879 5.44800703,4.6245424 7.78844706,3.22911752 C10.1288871,1.83369264 13.0385715,1.74967674 15.4576358,3.00767296 C15.6593441,3.11369576 15.8846286,3.24816369 16.1256306,3.40590493 C17.8255243,4.57690416 18.9690363,6.38076938 19.2927115,8.40190601 L19.9266516,8.40190601 C19.3887089,4.72424046 16.343093,1.90422931 12.5907763,1.60943766 C8.83845971,1.31464602 5.37933689,3.62362816 4.25890067,7.17100719 L4.25890067,7.17100719 Z" id="形状"></path>
        </g>
    </g>
</svg>