<?xml version="1.0" encoding="UTF-8"?>
<svg width="320px" height="320px" viewBox="0 0 320 320" version="1.1" xmlns="http://www.w3.org/2000/svg" xmlns:xlink="http://www.w3.org/1999/xlink">
     
    <title>MF_LOGO</title>
     
    <g id="页面-1" stroke="none" stroke-width="1" fill="none" fill-rule="evenodd">
        <g id="航司LOGO备份-3" transform="translate(-1167.000000, -2149.000000)">
            <g id="切图" transform="translate(109.000000, 80.000000)"></g>
            <g id="厦门航空" transform="translate(1167.000000, 2252.000000)" fill="#008CD5">
                <path d="M259.147273,98.6592727 C232.732727,99.8465455 209.536364,89.8138182 222.425455,64.4629091 C235.281818,39.1047273 298.414545,9.94472727 319.163636,0.693818182 C319.163636,0.693818182 209.469091,0.650181818 202.825455,0.650181818 C198.827273,0.650181818 193.905455,-0.0298181818 190.865455,8.992 C188.629091,15.732 178.161818,41.7847273 154.98,49.9410909 C126.212727,60.0556364 102.249091,43.5483636 65.7163636,14.6156364 C52.0818182,3.77927273 49.8781818,2.81927273 36.6836364,4.99018182 C29.9527273,6.07563636 15.2927273,2.50109091 10.9745455,1.50472727 C6.67818182,0.332 -4.54747351e-13,0.812 -4.54747351e-13,0.886545455 C-4.54747351e-13,1.372 26.4927273,5.212 77.5872727,41.7538182 C97.0381818,55.6701818 131.670909,82.772 167.74,98.4301818 C206.701818,115.359273 263.26,124.386545 315.041818,88.3683636 C315.098182,87.6665455 315.149091,86.9356364 315.209091,86.2338182 C315.209091,87.1829091 285.578182,98.0101818 259.147273,98.6592727" id="Fill-11"></path>
            </g>
        </g>
    </g>
</svg>