<?xml version="1.0" encoding="UTF-8"?>
<svg width="320px" height="320px" viewBox="0 0 320 320" version="1.1" xmlns="http://www.w3.org/2000/svg" xmlns:xlink="http://www.w3.org/1999/xlink">
    <title>FM_LOGO</title>
     
    <defs>
        <polygon id="path-1" points="0.00242424242 0.00484848485 294.316859 0.00484848485 294.316859 252.968242 0.00242424242 252.968242"></polygon>
    </defs>
    <g id="页面-1" stroke="none" stroke-width="1" fill="none" fill-rule="evenodd">
        <g id="航司LOGO备份-4" transform="translate(-654.000000, -1120.000000)">
            <g id="编组" transform="translate(656.000000, 1153.000000)">
                <path d="M308.759273,91.0283636 C204.89503,93.9083636 104.352,117.481697 95.0235152,150.892606 C94.1653333,153.927758 93.9471515,156.933818 93.9471515,159.988364 C93.9471515,192.899879 162.679273,204.148364 237.069576,213.418667 C238.354424,213.56897 238.291394,212.570182 237.879273,211.838061 C237.583515,211.314424 236.473212,209.345939 235.712,207.988364 C235.411394,207.464727 235.096242,207.105939 234.04897,206.819879 C193.316848,196.458667 151.988364,181.316848 151.988364,167.217455 C151.988364,140.521697 221.253818,114.078061 300.133818,102.005333 C302.732606,101.501091 303.978667,101.016242 305.724121,99.6247273 C307.915636,97.8792727 312.725333,93.952 314.761697,92.3180606 C316.090182,91.2174545 315.61503,90.8780606 315.120485,90.8921612 C313.001697,90.921697 310.887758,90.9604848 308.759273,91.0283636" id="Fill-1" fill="#1C1D80"></path>
                <g transform="translate(0.000000, 0.842667)">
                    <mask id="mask-2" fill="white">
                        <use xlink:href="#path-1"></use>
                    </mask>
                    <g id="Clip-4"></g>
                    <path d="M193.844848,251.314909 C139.890909,237.792485 86.4169697,192.522182 94.8484848,150.577939 C107.149091,89.3755152 189.471515,30.0785455 292.210909,2.224 C294.528485,1.54036364 295.386667,0.00339393939 292.419394,0.00339393939 L152.191515,0.00339393939 C127.92,0.00339393939 122.654545,3.15006061 113.253333,15.8676364 C108.249697,22.6361212 66.2812121,80.473697 47.3575758,106.563394 C44.9236364,109.666424 41.4763636,112.997333 33.8157576,112.997333 L0.00242424242,112.997333 C0.00242424242,113.00703 0.00242424242,113.021576 0.0121212121,113.04097 C40.1042424,226.267636 83.1684848,252.968242 126.300606,252.968242 L194.407273,252.968242 C195.357576,252.968242 196.322424,251.930667 193.844848,251.314909" id="Fill-3" fill="#DF0112" mask="url(#mask-2)"></path>
                </g>
            </g>
        </g>
    </g>
</svg>