<?xml version="1.0" encoding="UTF-8"?>
<svg width="320px" height="320px" viewBox="0 0 320 320" version="1.1" xmlns="http://www.w3.org/2000/svg" xmlns:xlink="http://www.w3.org/1999/xlink">
     
    <title>NS_LOGO</title>
     
    <defs>
        <polygon id="path-1" points="0.414637037 0.546844444 316.293926 0.546844444 316.293926 279.703632 0.414637037 279.703632"></polygon>
    </defs>
    <g id="页面-1" stroke="none" stroke-width="1" fill="none" fill-rule="evenodd">
        <g id="航司LOGO备份-3" transform="translate(-647.000000, -2679.000000)">
            <g id="切图" transform="translate(109.000000, 80.000000)"></g>
            <g id="西北航空" transform="translate(648.000000, 2681.000000)">
                <path d="M0.868740741,174.880356 L0.858074074,174.824652 L0.846222222,174.726281 L0.868740741,174.880356 Z M167.723852,0.280651852 C202.822519,2.34939259 234.573037,15.657837 259.674667,36.4773926 C243.028148,53.5541333 214.764444,86.2391704 173.013926,108.856652 C130.898963,131.671467 75.5484444,127.046281 66.8533333,164.968652 C58.1582222,202.891615 101.629037,205.735467 101.629037,205.735467 C101.629037,205.735467 77.5567407,196.822874 85.6343704,178.169837 C93.7125926,159.5168 130.628148,168.393244 124.512,204.977541 C118.395852,241.56243 82.0491852,258.706133 52.2542222,245.691022 C22.4628148,232.677096 7.08266667,207.576059 0.843851852,174.711467 C-0.0794074074,167.323022 -0.199703704,156.400948 0.263111111,148.552652 C5.39318519,61.5156148 80.3697778,-4.86838519 167.723852,0.280651852 L167.723852,0.280651852 Z" id="Fill-1" fill="#E50113"></path>
                <g id="编组" transform="translate(0.592593, 36.044444)">
                    <mask id="mask-2" fill="white">
                        <use xlink:href="#path-1"></use>
                    </mask>
                    <g id="Clip-4"></g>
                    <path d="M259.222341,0.546844444 C296.514785,31.5477333 319.081896,79.1518815 316.017007,131.154252 C310.886933,218.190696 235.910341,284.571733 148.553304,279.423289 C70.4839704,274.821215 8.95271111,214.642844 0.414637037,139.773511 C8.98826667,198.609067 52.6528593,248.9664 115.200415,242.034252 C102.449007,240.169956 97.3213037,239.069511 89.9364148,235.32077 C103.985007,238.1024 116.345896,239.86003 141.159526,234.185363 C124.695526,235.580326 115.905007,233.841659 106.478637,230.379141 C124.625007,232.545067 146.8976,230.519585 159.030341,224.986548 C139.868859,225.982104 130.610193,225.515733 120.52723,221.769363 C142.885156,222.264178 160.706785,220.702696 179.301156,211.321363 C156.731674,215.180919 141.566044,214.398696 132.181748,211.243141 C158.2896,209.470696 175.821452,207.872474 199.528119,194.095881 C176.15923,201.096178 148.727526,202.788622 141.385304,199.668622 C173.317156,196.981215 197.371081,189.925807 214.966933,175.909215 C186.006933,185.653215 157.855822,188.428919 149.662044,187.065956 C177.74797,181.460622 206.997748,169.605807 233.161304,146.45203 C201.724267,161.983289 179.95597,167.1424 156.994785,168.610844 C193.3776,156.165807 232.6896,131.756919 256.360119,94.1901037 C217.162489,124.471585 192.874489,135.527585 163.278637,141.771141 C203.922785,119.037511 236.542637,92.3821037 263.579081,46.4804741 C232.833007,71.9975111 207.403081,97.8031407 163.238933,110.389215 C203.431526,81.4505481 223.410785,68.6884741 259.222341,0.546844444" id="Fill-3" fill="#005BAB" mask="url(#mask-2)"></path>
                </g>
                <path d="M260.110637,36.0308148 C243.522785,52.9801481 215.129304,86.0420741 173.013748,108.856889 C130.898785,131.671704 75.5488593,127.046519 66.8531556,164.968889 C58.1580444,202.891259 101.629452,205.735704 101.629452,205.735704 C101.629452,205.735704 77.5559704,196.823111 85.6341926,178.169481 C93.7124148,159.516444 130.628563,168.392889 124.511822,204.977778 C118.395674,241.562667 82.0490074,258.70637 52.254637,245.691259 C22.4602667,232.676741 7.08011852,207.572148 0.842488889,174.704 C9.02382222,234.017185 52.8501926,285.054815 115.793007,278.078815 C103.0416,276.214519 97.9133037,275.114074 90.5290074,271.365333 C104.5776,274.146963 116.938489,275.904593 141.752119,270.229926 C125.288119,271.624296 116.4976,269.886222 107.07123,266.423704 C125.2176,268.589037 147.490193,266.563556 159.622933,261.030519 C140.461452,262.026667 131.202785,261.560296 121.119822,257.813926 C143.477748,258.308741 161.299378,256.747259 179.893748,247.365926 C157.324267,251.225481 142.158637,250.443259 132.774341,247.287704 C158.882193,245.515259 176.414044,243.917037 200.120711,230.140444 C176.751822,237.140741 149.320119,238.833185 141.977896,235.713185 C173.909748,233.025778 197.963674,225.969778 215.559526,211.953778 C186.599526,221.697185 158.448415,224.473481 150.254637,223.110519 C178.340563,217.505185 207.590341,205.649778 233.753896,182.496593 C202.316859,198.027852 180.548563,203.186963 157.587378,204.655407 C193.970193,192.21037 233.282193,167.800889 256.952711,130.234667 C217.755081,160.515556 193.467081,171.572148 163.87123,177.815704 C204.515378,155.081481 237.13523,128.426667 264.171674,82.525037 C233.4256,108.042074 207.995674,133.847704 163.831526,146.433778 C204.134933,117.415111 224.112415,104.668444 260.110637,36.0308148" id="Fill-5" fill="#FEFEFE"></path>
            </g>
        </g>
    </g>
</svg>