<?xml version="1.0" encoding="UTF-8"?>
<svg width="320px" height="320px" viewBox="0 0 320 320" version="1.1" xmlns="http://www.w3.org/2000/svg" xmlns:xlink="http://www.w3.org/1999/xlink">
     
    <title>PN_LOGO</title>
     
    <defs>
        <linearGradient x1="49.9736565%" y1="163.8269%" x2="49.9736565%" y2="-0.586881776%" id="linearGradient-1">
            <stop stop-color="#6B1685" offset="20%"></stop>
            <stop stop-color="#5B0973" offset="66%"></stop>
            <stop stop-color="#510067" offset="90%"></stop>
        </linearGradient>
        <linearGradient x1="49.9960574%" y1="99.8869385%" x2="49.9960574%" y2="0.0520043453%" id="linearGradient-2">
            <stop stop-color="#6B1685" offset="10%"></stop>
            <stop stop-color="#5C0B73" offset="55%"></stop>
            <stop stop-color="#4D0061" offset="90%"></stop>
        </linearGradient>
        <linearGradient x1="49.9845449%" y1="100.013598%" x2="49.9845449%" y2="-0.500080756%" id="linearGradient-3">
            <stop stop-color="#6B1685" offset="10%"></stop>
            <stop stop-color="#5B0973" offset="62%"></stop>
            <stop stop-color="#510067" offset="90%"></stop>
        </linearGradient>
    </defs>
    <g id="页面-1" stroke="none" stroke-width="1" fill="none" fill-rule="evenodd">
        <g id="航司LOGO备份-3" transform="translate(-109.000000, -2679.000000)">
            <g id="切图" transform="translate(109.000000, 80.000000)"></g>
            <g id="西部航空竖版" transform="translate(109.000000, 2704.000000)" fill-rule="nonzero">
                <path d="M249.884539,50.2034142 C260.119443,32.8762742 273.497014,10.0707002 278.508295,1.57700412 C279.782349,-0.588888385 281.226277,-0.461482943 282.415395,1.57700412 C282.627737,2.0441574 311.930989,55.3845688 312.780358,56.7860287 C323.312541,75.9393133 322.250829,93.5637327 309.38288,115.265126 C299.147976,132.592266 285.770405,155.39784 280.759124,163.891536 C279.48507,166.057429 278.041141,165.930023 276.894492,163.891536 L246.48706,108.682512 C235.954877,89.5292271 237.016589,71.9048077 249.884539,50.2034142 Z" id="路径" fill="url(#linearGradient-1)"></path>
                <path d="M130.250829,50.2458827 C140.528202,32.9187427 152.376908,12.6612775 157.388188,4.16758142 C158.619774,2.00168892 163.248839,2.46884221 164.395488,4.59226623 L250.903782,162.022923 C261.393497,181.176208 260.331785,198.800627 247.506304,220.502021 C237.228932,237.829161 223.85136,260.634735 218.882548,269.128431 C217.608494,271.294323 216.122097,271.166918 214.975448,269.128431 L126.853351,108.72498 C116.321168,89.5292271 117.38288,71.9472762 130.250829,50.2458827 Z" id="路径" fill="url(#linearGradient-2)"></path>
                <path d="M166.051758,0.939976911 C161.80491,0.939976911 158.832117,1.66194108 157.218315,4.37992383 C149.828799,17.120468 135.984074,40.7329431 130.250829,50.2458827 C124.636992,59.2686875 121.0842,69.4195231 119.846052,79.973819 C123.328467,52.1569643 148.469808,40.81788 172.294625,29.0116425 C192.976775,18.6918017 229.074983,1.27972475 229.074983,1.27972475 L166.051758,0.939976911 Z" id="路径" fill="#C7000B"></path>
                <path d="M10.6171201,50.4157566 C20.8944924,33.1310851 34.2720637,10.2830426 39.2408759,1.78934652 C40.5149303,-0.376545983 42.0013271,-0.249140541 43.1479761,1.78934652 C43.7850033,3.02093245 127.362973,155.143029 131.227605,162.192797 C141.759788,181.346082 140.698076,198.928033 127.830126,220.629426 C117.595222,237.956566 104.217651,260.76214 99.2063703,269.255836 C97.9747843,271.421729 96.4883875,271.294323 95.3417386,269.255836 L7.21964167,108.894854 C-3.31254147,89.7415695 -2.12342402,72.1171501 10.6171201,50.4157566 Z" id="路径" fill="url(#linearGradient-3)"></path>
            </g>
        </g>
    </g>
</svg>