<?xml version="1.0" encoding="UTF-8"?>
<svg width="320px" height="320px" viewBox="0 0 320 320" version="1.1" xmlns="http://www.w3.org/2000/svg" xmlns:xlink="http://www.w3.org/1999/xlink">
     
    <title>QW_LOGO</title>
     
    <g id="页面-1" stroke="none" stroke-width="1" fill="none" fill-rule="evenodd">
        <g id="航司LOGO备份-3" transform="translate(-647.000000, -4748.000000)">
            <g id="切图" transform="translate(109.000000, 80.000000)"></g>
            <g id="青岛航空1" transform="translate(647.000000, 4783.000000)">
                <path d="M160.172954,149.751741 C160.595835,148.378565 172.792873,110.841908 228.922054,67.9835985 C228.922054,67.9835985 212.576978,-23.8766785 171.49572,5.96258803 C170.193816,6.83210805 166.691978,9.759017 165.551624,10.9088741 C164.796139,11.8306603 163.997892,12.7571981 163.422963,13.3321266 C162.225591,14.705303 161.54613,15.2089595 160.172954,15.4322788 C158.799777,15.2089595 158.120316,14.705303 156.922944,13.3321266 C156.400282,12.7571981 155.602034,11.8306603 154.770526,10.9088741 C153.62542,9.759017 150.152092,6.83210805 148.82643,5.96258803 C107.811693,-23.8766785 91.4238539,67.9835985 91.4238539,67.9835985 C147.553035,110.841908 159.797587,148.378565 160.172954,149.751741" id="Fill-43" fill="#CE1531"></path>
                <path d="M151.802279,154.851025 C148.599785,129.758482 128.58657,108.866244 128.58657,108.866244 C87.2249749,55.9158008 56.1408219,58.6669052 56.1408219,58.6669052 C26.8527265,56.3624395 34.2745313,90.2784721 34.2745313,90.2784721 C31.4996696,88.8245205 26.6246557,88.1022963 22.9612681,88.05003 C-22.1064776,91.7514295 14.3088311,155.80132 14.3088311,155.80132 C41.6915847,213.873854 85.8185382,236.172529 85.8185382,236.172529 C89.9760793,199.904516 101.640952,174.393844 101.640952,174.393844 C121.160013,125.586687 151.802279,154.851025 151.802279,154.851025" id="Fill-45" fill="#CE1531"></path>
                <path d="M297.395093,88.0519306 C293.693693,88.0994454 288.842437,88.8264211 286.067575,90.2756212 C286.067575,90.2756212 293.536894,56.3643401 264.210787,58.6640543 C264.210787,58.6640543 233.069617,55.9177014 191.760288,108.868145 C191.760288,108.868145 171.789836,129.760383 168.492312,154.852925 C168.492312,154.852925 199.210602,125.588588 218.696403,174.390993 C218.696403,174.390993 230.318512,199.906417 234.490308,236.169678 C234.490308,236.169678 278.626764,213.875755 306.038027,155.798469 C306.038027,155.798469 342.448584,91.7485786 297.395093,88.0519306" id="Fill-47" fill="#CE1531"></path>
                <path d="M182.49206,156.651359 C178.662371,157.801216 175.141527,159.849102 170.390052,163.45072 C169.092899,164.420021 166.289528,167.047587 164.792813,167.997883 C162.322046,169.594378 160.245651,169.670402 160.174379,169.670402 C160.069847,169.670402 158.026712,169.594378 155.494176,167.997883 C154.049727,167.047587 151.303374,164.420021 150.00147,163.45072 C145.20248,159.849102 141.733903,157.801216 137.851947,156.651359 C99.3412376,145.276326 87.9709566,237.944354 87.8806786,237.64026 C95.2217083,242.287203 109.518898,248.117263 109.518898,248.117263 C132.93417,227.571883 159.841776,228.598202 160.174379,228.645717 C160.544994,228.598202 187.438346,227.571883 210.82986,248.117263 C210.82986,248.117263 225.12705,242.287203 232.472831,237.64026 C232.368299,237.944354 220.950503,145.276326 182.49206,156.651359" id="Fill-49" fill="#CE1531"></path>
                <path d="M128.963837,92.000882 C128.963837,92.000882 139.906485,104.696825 147.81294,126.087968 L144.306351,121.065658 C140.804514,113.339759 136.18608,103.318897 129.410476,94.7519863 C128.906819,94.2008151 128.303382,93.1982538 127.81398,92.6233252 C127.81398,92.6233252 127.733205,92.000882 127.81398,92.7991298 C127.733205,92.000882 128.963837,92.000882 128.963837,92.000882" id="Fill-51" fill="#FFE000"></path>
                <path d="M127.158751,86.3770355 C128.85978,86.5005738 130.161684,88.0780637 130.014388,89.8503641 C129.857589,91.6511733 128.360875,92.9483262 126.636089,92.8247878 C124.906552,92.6774921 123.666417,91.128511 123.761446,89.3514592 C123.913493,87.5506499 125.438717,86.2534971 127.158751,86.3770355" id="Fill-53" fill="#FFE000"></path>
                <path d="M133.678251,75.581683 C135.412539,75.481902 136.852237,76.8598299 136.937763,78.6796451 C137.009035,80.4329396 135.683374,81.9819206 133.963339,82.005678 C132.205293,82.105459 130.756093,80.727531 130.708579,78.9552307 C130.608798,77.1781788 131.934459,75.6339493 133.678251,75.581683" id="Fill-55" fill="#FFE000"></path>
                <path d="M144.976785,82.4794001 C146.753836,82.4033765 148.184031,83.7527955 148.274309,85.5536048 C148.350332,87.3306566 147.029422,88.8273714 145.25237,88.9271524 C143.598857,89.003176 142.106893,87.6062422 142.002361,85.8291904 C141.950095,84.0806473 143.275756,82.5316663 144.976785,82.4794001" id="Fill-57" fill="#FFE000"></path>
                <path d="M153.22202,94.5994639 C154.904042,94.5234403 156.400757,95.948883 156.476781,97.7259348 C156.543302,99.4744779 155.198634,100.971193 153.502357,101.047216 C151.744311,101.12324 150.304614,99.7738208 150.252348,97.996769 C150.152567,96.2007112 151.497234,94.7230023 153.22202,94.5994639" id="Fill-59" fill="#FFE000"></path>
                <path d="M160.001425,71.2084249 C161.692951,71.1609102 163.142151,72.5340866 163.246683,74.3348958 C163.317955,76.1071962 161.992294,77.6086625 160.296017,77.6561772 C158.547474,77.7559582 157.046008,76.3827818 157.02225,74.5819726 C156.927221,72.8049207 158.248131,71.3319633 160.001425,71.2084249" id="Fill-61" fill="#FFE000"></path>
                <path d="M154.451702,100.898495 C154.451702,100.898495 158.195865,128.461805 157.996303,144.331733 L156.69915,141.580629 C156.69915,138.4304 156.475831,125.639428 153.102283,101.045791 L152.950236,99.2734904 L154.451702,100.898495 Z" id="Fill-63" fill="#FFE000"></path>
                <path d="M135.460054,81.5561884 C134.913635,81.2806028 148.00395,112.792389 151.448769,131.959841 L148.849712,127.764288 C148.802198,127.612241 149.381878,123.03657 134.134393,82.0028271 L133.801789,78.7813267 L135.460054,81.5561884 Z" id="Fill-65" fill="#FFE000"></path>
                <path d="M146.456869,88.6254337 C146.124266,88.6254337 153.57458,118.716528 155.047537,138.359128 L154.049727,136.558319 L153.22297,134.957072 C153.22297,134.957072 153.056669,133.460357 152.895119,132.082429 C152.486492,127.815604 151.550451,117.566671 144.974409,88.9247767 L145.159716,85.7032762 L146.456869,88.6254337 Z" id="Fill-67" fill="#FFE000"></path>
                <polygon id="Fill-69" fill="#FFE000" points="159.393712 77.5792033 160.895178 77.5792033 160.895178 147.777503 160.172954 149.830141 159.393712 147.653965"></polygon>
                <path d="M191.438138,92.000882 C191.438138,92.000882 180.443224,104.696825 172.565277,126.059459 L176.014848,121.065658 C179.488177,113.339759 184.111363,103.295139 190.939233,94.7519863 C191.438138,94.1770578 192.032072,93.1982538 192.578492,92.6233252 C192.578492,92.6233252 192.607001,92.000882 192.578492,92.7991298 C192.607001,92.000882 191.438138,92.000882 191.438138,92.000882" id="Fill-71" fill="#FFE000"></path>
                <path d="M193.18288,86.3770355 C191.486603,86.5005738 190.184699,88.0780637 190.331995,89.8503641 C190.460284,91.6226645 191.985508,92.9483262 193.710294,92.8010304 C195.411322,92.6774921 196.736984,91.128511 196.561179,89.3514592 C196.380623,87.5506499 194.907665,86.2534971 193.18288,86.3770355" id="Fill-73" fill="#FFE000"></path>
                <path d="M186.686662,75.581683 C184.990386,75.481902 183.484168,76.8598299 183.436653,78.6558877 C183.336872,80.4044307 184.634025,81.9534117 186.363562,82.005678 C188.088348,82.0817016 189.556554,80.727531 189.637329,78.9552307 C189.73711,77.1306641 188.382939,75.6339493 186.686662,75.581683" id="Fill-75" fill="#FFE000"></path>
                <path d="M175.318282,82.4794001 C173.593496,82.3796191 172.163302,83.7527955 172.063521,85.5298474 C171.997001,87.3306566 173.313159,88.8273714 175.042696,88.903395 C176.738973,89.003176 178.235688,87.6062422 178.297457,85.8291904 C178.387735,84.05689 177.033565,82.5316663 175.318282,82.4794001" id="Fill-77" fill="#FFE000"></path>
                <path d="M167.096329,94.5994639 C165.400052,94.5234403 163.941349,95.948883 163.893834,97.7259348 C163.798805,99.4744779 165.091206,100.971193 166.844501,101.047216 C168.597795,101.12324 170.018486,99.7738208 170.089758,97.9730116 C170.194291,96.2007112 168.868629,94.6754875 167.096329,94.5994639" id="Fill-79" fill="#FFE000"></path>
                <path d="M165.848116,100.872837 C165.848116,100.872837 162.194231,128.364875 162.370036,144.230052 L163.643431,141.507456 C163.643431,138.304962 163.89526,125.513989 167.192784,101.024884 L167.344831,99.2478325 L165.848116,100.872837 Z" id="Fill-81" fill="#FFE000"></path>
                <path d="M184.886328,81.5561884 C185.432748,81.2806028 172.294918,112.792389 168.869104,131.959841 L171.49667,127.712022 C171.539434,127.612241 170.964505,123.012813 186.207239,82.0028271 L186.539842,78.7813267 L184.886328,81.5561884 Z" id="Fill-83" fill="#FFE000"></path>
                <path d="M173.935603,88.6254337 C174.168425,88.6254337 166.741869,118.716528 165.29742,138.335371 L166.290478,136.558319 L167.098229,134.938066 C167.098229,134.957072 167.321549,133.4366 167.445087,132.063423 C167.896477,127.787095 168.765997,117.566671 175.318282,88.9057708 L175.199495,85.7032762 L173.935603,88.6254337 Z" id="Fill-85" fill="#FFE000"></path>
            </g>
        </g>
    </g>
</svg>