<?xml version="1.0" encoding="UTF-8"?>
<svg width="320px" height="320px" viewBox="0 0 320 320" version="1.1" xmlns="http://www.w3.org/2000/svg" xmlns:xlink="http://www.w3.org/1999/xlink">
     
    <title>RY_LOGO</title>
     
    <g id="页面-1" stroke="none" stroke-width="1" fill="none" fill-rule="evenodd">
        <g id="航司LOGO备份-3" transform="translate(-109.000000, -6401.000000)">
            <g id="切图" transform="translate(109.000000, 80.000000)"></g>
            <g id="江西航空" transform="translate(110.000000, 6401.000000)" fill="#00449A">
                <path d="M158.652479,272.15808 C175.641293,282.248094 195.165478,287.997925 215.939916,287.997925 C236.018662,287.997925 254.928514,282.624996 271.51552,273.152636 C242.597012,301.971523 202.701857,319.790518 158.649158,319.790518 C114.594798,319.790518 74.7013036,301.971523 45.7827954,273.149316 C62.3664815,282.624996 81.2813145,287.997925 101.361721,287.997925 C122.134498,287.997925 141.658683,282.248094 158.652479,272.15808 M301.499981,182.201379 C329.144992,151.609227 313.300166,90.3219803 281.361461,64.5714409 C268.076913,53.8604518 251.013382,46.99984 230.282114,46.6793903 C212.351875,46.4054308 195.593851,52.7762361 181.351274,63.3411134 C231.846174,113.714807 231.846174,206.085673 181.351274,256.456046 C195.593851,267.022584 212.348555,273.069618 230.282114,273.12149 C279.599818,273.265541 313.203866,234.281924 317.293335,179.328955 C301.079909,211.59143 263.846313,212.760324 244.956385,187.325253 C231.711685,169.494636 234.378225,138.625204 248.771895,123.874556 C259.017983,113.372773 275.204843,122.109592 274.723338,135.086974 C274.240173,148.162318 262.926473,149.666605 259.999256,161.423621 C254.08339,185.196671 283.905135,201.670773 301.499981,182.201379 M15.7950146,137.590799 C-11.8948265,168.136461 3.99482867,229.468537 35.9318733,255.217416 C59.3180586,274.077458 89.920173,276.740677 118.214385,269.446711 C139.639684,263.92601 156.608574,252.52099 165.098,239.311158 C183.825212,210.173482 170.196969,177.295012 146.724445,141.447818 C137.766797,127.766443 138.779617,119.746899 147.992961,114.4188 L181.663422,94.9494066 C183.662497,93.199386 183.252388,91.2169149 179.866912,92.141736 L143.174593,107.686036 C127.268334,106.487255 120.143725,117.060435 127.127204,130.564151 C134.062532,143.983189 142.973689,155.703677 147.02165,173.05113 C158.265615,221.196619 106.880761,231.027616 100.146337,184.720147 C93.8253421,141.27514 104.811951,94.3931856 135.943721,63.3344719 C121.702804,52.7695946 104.949761,46.7225597 87.0128808,46.6690372 C37.6935164,46.5266371 4.09112961,85.5085937 0,140.463223 C16.2184067,108.479689 52.5935964,107.52 72.3369495,132.463604 C85.988438,149.713095 82.0500616,177.05592 66.1271992,192.673276 C51.3300616,207.193134 32.3919836,187.575968 46.1530559,173.46456 C50.4384477,169.069584 56.4721998,166.643796 58.4264447,158.791949 C64.3356697,135.0189 33.9593644,117.558543 15.7950146,137.590799 M158.649158,0 C202.701857,0 242.597012,17.8189947 271.51552,46.6395417 C254.928514,37.1671819 236.018662,31.7925932 215.939916,31.7925932 C195.165478,31.7925932 175.641293,37.5440839 158.652479,47.6324376 C141.658683,37.5440839 122.134498,31.7925932 101.361721,31.7925932 C81.2813145,31.7925932 62.3664815,37.1671819 45.7827954,46.6428624 C74.7013036,17.8189947 114.594798,0 158.649158,0" id="Fill-1"></path>
            </g>
        </g>
    </g>
</svg>