<?xml version="1.0" encoding="UTF-8"?>
<svg width="320px" height="320px" viewBox="0 0 320 320" version="1.1" xmlns="http://www.w3.org/2000/svg" xmlns:xlink="http://www.w3.org/1999/xlink">
     
    <title>SC_LOGO</title>
     
    <defs>
        <polygon id="path-1" points="0 0.378207608 317.97354 0.378207608 317.97354 318.367427 0 318.367427"></polygon>
    </defs>
    <g id="页面-1" stroke="none" stroke-width="1" fill="none" fill-rule="evenodd">
        <g id="航司LOGO备份-3" transform="translate(-1167.000000, -1119.000000)">
            <g id="切图" transform="translate(109.000000, 80.000000)"></g>
            <g id="山东航空公司" transform="translate(1168.000000, 1119.000000)">
                <g id="编组" transform="translate(0.000000, 0.478659)">
                    <mask id="mask-2" fill="white">
                        <use xlink:href="#path-1"></use>
                    </mask>
                    <g id="Clip-36"></g>
                    <path d="M312.380013,114.631979 C276.633269,134.669632 288.02205,157.892843 287.811605,166.050677 C298.569052,247.798195 229.992908,274.355513 229.992908,274.355513 L63.1885235,274.293617 C233.199097,199.742489 41.5333333,114.029529 188.209284,3.50058027 C179.052869,1.86241135 169.599355,1 159.972534,1 C72.1757576,1 1,72.1798839 1,159.980787 C1,247.798195 72.1757576,318.990458 159.972534,318.990458 C247.777563,318.990458 318.973952,247.798195 318.973952,159.980787 C318.973952,144.222179 316.663185,129.008253 312.380013,114.631979 M213.854674,246.568536 C285.405932,176.069504 184.619342,125.228498 290.510251,69.2088975 C287.865248,65.4167634 285.030432,61.7319149 282.071825,58.1749839 C178.318375,128.009671 271.722888,170.672211 213.854674,246.568536 M165.468859,244.278401 C241.290909,167.763121 120.532689,104.613153 249.617924,28.6796905 C245.730883,26.0058027 241.703546,23.5134752 237.57305,21.1985816 C115.589297,116.179368 226.753707,147.321083 165.468859,244.278401" id="Fill-35" fill="#00396C" mask="url(#mask-2)"></path>
                </g>
            </g>
        </g>
    </g>
</svg>