<?xml version="1.0" encoding="UTF-8"?>
<svg width="277px" height="320px" viewBox="0 0 277 320" version="1.1" xmlns="http://www.w3.org/2000/svg" xmlns:xlink="http://www.w3.org/1999/xlink">
    <!-- Generator: Sketch 61 (89581) - https://sketch.com -->
    <title>西藏航空TV</title>
     
    <defs>
        <polygon id="path-1" points="0.961651452 0.702530035 140.887005 0.702530035 140.887005 165.088339 0.961651452 165.088339"></polygon>
    </defs>
    <g id="页面-1" stroke="none" stroke-width="1" fill="none" fill-rule="evenodd">
        <g id="西藏航空TV" transform="translate(-21.000000, 0.000000)">
            <g id="编组" transform="translate(21.000000, 0.000000)">
                <path d="M0,226.125908 C0.558586572,225.375095 0.60155477,224.475025 0.654699647,223.605484 C1.33088339,212.363647 4.66657244,201.88506 9.71420495,191.897216 C13.8165371,183.779618 18.9308834,176.329159 24.6852297,169.304989 C32.1334276,160.212693 40.4930035,152.023859 49.415689,144.394742 C63.2130035,132.599972 78.0969611,122.32718 93.5745583,112.884353 C105.893993,105.368311 118.602403,98.5612438 131.453286,92.0131166 C148.917597,83.1153074 166.410177,74.2740353 183.850742,65.3298657 C197.1347,58.5182756 210.273922,51.4386996 223.056961,43.7157314 C232.543887,37.984 241.786572,31.8904311 250.510247,25.0358728 C257.694982,19.3900777 264.461343,13.2897244 270.465583,6.3820212 C272.246502,4.33311661 274.080565,2.31926502 275.523392,0.000113074205 C276.695972,0.882091873 275.948551,2.00831095 275.910106,3.04520141 C275.894276,3.25325795 275.879576,3.46131449 275.864876,3.66937102 C275.429541,4.69382332 276.027703,5.83700353 275.500777,6.85240989 L275.422756,6.95983039 L275.481555,7.07968905 C275.101625,7.85085512 275.584452,8.7430106 275.142332,9.50739223 C275.046219,9.5899364 275.036042,9.68265724 275.110671,9.78442403 C274.688905,10.529583 275.242968,11.4273922 274.737527,12.1589823 L274.746572,12.138629 C274.324806,12.7254841 274.807633,13.4751661 274.398304,14.0642827 C274.30106,14.1513498 274.28636,14.2497244 274.354205,14.3605371 C273.948269,14.9666148 274.461625,15.7490883 273.973145,16.3393357 L273.983322,16.3155901 C273.609046,16.7746714 274.004806,17.4022332 273.642968,17.863576 C273.545724,17.9483816 273.528763,18.0467562 273.593216,18.1575689 C273.242686,18.6403958 273.640707,19.2939647 273.229117,19.7632226 L273.232509,19.748523 C272.829965,20.1951661 273.268693,20.844212 272.860495,21.2885936 L272.773428,21.3847067 L272.815265,21.5079576 C272.591378,21.9127633 272.802827,22.4317739 272.473781,22.8105724 L272.388975,22.8942473 L272.434205,23.0050601 C272.219364,23.4177809 272.433074,23.9480989 272.068975,24.3178516 L272.080283,24.294106 C271.774982,24.6288057 272.049753,25.1342473 271.734276,25.4666855 C271.63364,25.5254841 271.614417,25.6057668 271.677739,25.7041413 C271.434629,26.0931166 271.690177,26.6313498 271.296678,26.9750954 L271.311378,26.9445654 C271.017385,27.2815265 271.305724,27.8061908 270.935972,28.1205371 L270.945018,28.1001837 C270.625018,28.4247067 270.924664,28.9516325 270.563958,29.2625866 L270.569611,29.2467562 C270.238304,29.563364 270.549258,30.0970742 270.179505,30.4012438 L270.18742,30.3831519 C269.857244,30.6997597 270.178375,31.2436466 269.784876,31.5376396 L269.798445,31.5116325 C269.478445,31.8316325 269.817668,32.3924806 269.374417,32.6672509 L269.395901,32.6288057 C269.245512,32.8854841 269.288481,33.2179223 269.071378,33.4474629 L268.979788,33.5254841 L269.009187,33.6419505 C268.909682,33.9630813 268.915336,34.3249187 268.641696,34.5770742 L268.656396,34.5499364 C268.474346,34.7851307 268.527491,35.1198304 268.322827,35.3459788 C268.219929,35.388947 268.196184,35.4601837 268.249329,35.5574276 C268.140777,35.8695124 268.161131,36.2358728 267.872792,36.4744594 L267.889753,36.4427986 C267.720141,36.6870389 267.760848,37.0251307 267.538092,37.2467562 L267.539223,37.243364 C267.168339,37.5203958 267.564099,38.1298657 267.060919,38.3503604 L267.091449,38.3073922 C266.974982,38.584424 267.020212,38.9349541 266.716042,39.1260495 L266.737527,39.0898657 C266.583746,39.3442827 266.632367,39.6948127 266.360989,39.8960848 L266.37682,39.8700777 C266.192509,40.1064028 266.246784,40.4558021 265.998021,40.6615972 L266.007067,40.644636 C265.804664,40.8673922 265.863463,41.2167915 265.629399,41.4248481 L265.633922,41.4146714 C265.419081,41.6283816 265.482403,41.9789117 265.255124,42.1869682 L265.257385,42.1801837 C265.03689,42.3882403 265.102473,42.7410318 264.874064,42.9468269 L264.877456,42.9389117 C264.656961,43.1480989 264.724806,43.5042827 264.486219,43.7032933 L264.491873,43.6919859 C264.279293,43.9068269 264.348269,44.2675336 264.092721,44.458629 L264.102898,44.4394064 C263.905018,44.664424 263.972862,45.0319152 263.691307,45.2117032 L263.71053,45.1834346 C263.530742,45.4208905 263.601979,45.7974276 263.28311,45.9591237 L263.309117,45.9218092 C263.156466,46.1762261 263.23788,46.5663322 262.866996,46.6952367 L262.911095,46.6466148 C262.90318,46.8659788 262.732438,46.9847067 262.610318,47.1328339 L262.606926,47.1384876 C262.364947,47.3273216 262.448622,47.6993357 262.188551,47.8779929 L262.200989,47.8565088 C262.001979,48.0803958 262.082261,48.4659788 261.756608,48.6152367 L261.793922,48.5700071 C261.762261,48.7724099 261.585866,48.8809611 261.48523,49.0381343 L261.476184,49.0562261 C261.216113,49.2269682 261.308834,49.6068975 261.047633,49.7776396 L261.061201,49.7572862 C260.858799,49.9766502 260.948127,50.3746714 260.60212,50.5047067 L260.643958,50.4572155 C260.614558,50.6686643 260.452862,50.788523 260.322827,50.9298657 L260.322827,50.9298657 C260.086502,51.1209611 260.178092,51.5167208 259.864876,51.6591943 L259.902191,51.6173569 C259.856961,51.814106 259.68735,51.923788 259.577668,52.0753074 L259.572014,52.0866148 C259.318728,52.2618799 259.414841,52.6587703 259.114064,52.8035053 L259.147986,52.7650601 C259.091449,52.953894 258.92636,53.063576 258.820071,53.2173569 L258.813286,53.2297951 C258.556608,53.4005371 258.656113,53.8053428 258.345159,53.9387703 L258.381343,53.8969329 C258.324806,54.089159 258.172155,54.2101484 258.045512,54.3514912 L258.044382,54.3537527 C257.802403,54.5358021 257.90417,54.9507845 257.561555,55.0627279 L257.604523,55.0163675 C257.570601,55.23347 257.413428,55.3567208 257.256254,55.4799717 L257.267562,55.4652721 C256.992792,55.8418092 256.834488,56.3008905 256.451166,56.5982756 L256.485088,56.5620919 C256.420636,56.7509258 256.272509,56.8741767 256.135689,57.0076042 L256.137951,57.004212 C255.836042,57.3558728 255.696961,57.828523 255.310247,58.1179929 L255.3453,58.0818092 C255.279717,58.2717739 255.13159,58.3972862 254.987986,58.5239293 L254.99477,58.5148834 C254.873781,58.6426572 254.764099,58.7783463 254.663463,58.924212 L254.641979,58.954742 C254.364947,59.0938233 254.479152,59.5268975 254.14106,59.6207491 L254.185159,59.5766502 C254.146714,59.7971449 253.992933,59.9249187 253.812014,60.028947 L253.838021,60.0006784 C253.757739,60.1770742 253.608481,60.2946714 253.477314,60.4280989 L253.479576,60.4258375 C253.354064,60.5468269 253.240989,60.6791237 253.143746,60.8249894 L253.121131,60.853258 C252.84523,60.9900777 252.962827,61.4355901 252.605512,61.5079576 L252.651873,61.4627279 C252.629258,61.7024452 252.474346,61.8313498 252.26742,61.913894 L252.302473,61.8765795 C252.23689,62.0755901 252.091025,62.2056254 251.921413,62.3141767 L251.942898,62.2904311 C251.851307,62.4566502 251.707703,62.5776396 251.576537,62.7088057 L251.578799,62.7065442 C251.419364,62.8897244 251.335689,63.1271802 251.166078,63.303576 C250.843816,63.5478163 250.713781,63.9797597 250.328198,64.1640707 L250.373428,64.1211025 C250.345159,64.3653428 250.195901,64.4976396 249.973145,64.5654841 L250.012721,64.5236466 C249.958445,64.7396184 249.81258,64.8741767 249.6147,64.9601131 L249.648622,64.9239293 C249.572862,65.1172862 249.430389,65.249583 249.255124,65.3513498 L249.28,65.324212 C249.187279,65.4949541 249.049329,65.6261201 248.893286,65.7391943 L248.909117,65.7222332 C248.803958,65.8771449 248.667138,66.0015265 248.530318,66.1270389 L248.535972,66.1202544 C248.417244,66.2548127 248.286078,66.3780636 248.16735,66.5126219 L248.163958,66.5171449 C246.412438,68.5615265 244.499223,70.444212 242.475194,72.2183463 L242.466148,72.2273922 C242.33159,72.3415972 242.202686,72.4637173 242.081696,72.5914912 L242.080565,72.5926219 C241.949399,72.7170035 241.825018,72.8493004 241.685936,72.964636 L241.693852,72.9578516 C241.572862,73.0991943 241.446219,73.2348834 241.290177,73.3377809 L241.307138,73.3219505 C241.196325,73.4791237 241.065159,73.6170742 240.893286,73.7109258 L240.919293,73.6849187 C240.819788,73.8601837 240.68636,74.0015265 240.495265,74.0806784 L240.530318,74.0467562 C240.444382,74.2423746 240.308693,74.3871095 240.097244,74.4470389 L240.13682,74.4074629 C240.066714,74.6256961 239.933286,74.7738233 239.696961,74.8100071 L239.74106,74.7647774 C239.355477,75.2917032 238.774276,75.5958728 238.299364,76.0210318 L238.285795,76.0312085 C238.14106,76.1352367 238.023463,76.2709258 237.888905,76.3862615 L237.895689,76.3806078 C237.769046,76.5185583 237.646926,76.6610318 237.479576,76.7537527 L237.503322,76.7322686 C237.39477,76.9018799 237.264735,77.0454841 237.071378,77.1178516 L237.107562,77.0827986 C237.021625,77.2840707 236.890459,77.4344594 236.662049,77.4740353 L236.703887,77.4299364 C236.476608,77.8709258 235.945159,77.9466855 235.648905,78.3051307 L235.629682,78.3198304 C235.48947,78.4283816 235.356042,78.5437173 235.227138,78.6658375 L235.233922,78.6601837 C235.10841,78.8003958 234.98629,78.9451307 234.812155,79.0299364 L234.840424,79.0050601 C234.736396,79.1825866 234.60636,79.3307138 234.396042,79.3861201 L234.436749,79.3465442 C234.36212,79.5670389 234.234346,79.724212 233.98106,79.7309965 L234.025159,79.6823746 C233.967491,80.0589117 233.516325,79.9413145 233.369329,80.2059081 L233.348975,80.219477 C233.196325,80.3155901 233.083251,80.4558021 232.940777,80.5632226 L232.952085,80.5541767 C232.828834,80.7023039 232.702191,80.8459081 232.519011,80.9227986 L232.551802,80.8911378 C232.45682,81.0844947 232.329046,81.2382756 232.099505,81.2710671 L232.142473,81.2269682 C231.902756,81.6702191 231.396184,81.7753781 231.052438,82.0874629 L231.05583,82.0852014 C230.924664,82.2197597 230.805936,82.3712792 230.623887,82.4459081 L230.655548,82.4176396 C230.554912,82.604212 230.427138,82.7579929 230.200989,82.7919152 L230.245088,82.7455548 C230.158021,83.0915618 229.722686,82.9773569 229.580212,83.2509965 L229.551943,83.2702191 C229.408339,83.3731166 229.271519,83.4850601 229.140353,83.603788 L229.151661,83.5958728 C229.027279,83.7428693 228.901767,83.888735 228.712933,83.958841 L228.747986,83.9249187 C228.656396,84.1250601 228.530883,84.2856254 228.286643,84.2969329 L228.331873,84.2494417 C228.256113,84.6203251 227.818516,84.5072509 227.653428,84.7594064 L227.643251,84.7661908 C227.498516,84.8781343 227.38318,85.0273922 227.21583,85.1133286 L227.241837,85.0907138 C227.131025,85.2637173 227.005512,85.418629 226.786148,85.4582049 L226.831378,85.4129753 C226.733004,85.7499364 226.304452,85.6391237 226.156325,85.909371 L226.129187,85.9263322 C225.973145,86.0156608 225.861201,86.1615265 225.711943,86.2599011 L225.727774,86.2474629 C225.606784,86.4035053 225.482403,86.553894 225.28,86.6093004 L225.319576,86.5697244 C225.041413,86.97453 224.565371,87.1102191 224.204664,87.4030813 L224.21258,87.3985583 C224.085936,87.5432933 223.960424,87.6925512 223.767067,87.7536113 L223.804382,87.7174276 C223.518304,88.1097951 223.045654,88.2500071 222.687208,88.5451307 L222.692862,88.5417385 C222.563958,88.684212 222.440707,88.83347 222.24735,88.89453 L222.284664,88.8583463 C221.995194,89.2484523 221.527067,89.3954488 221.161837,89.6826572 L221.170883,89.6758728 C221.04424,89.824 220.920989,89.9743887 220.721979,90.0309258 L220.762686,89.9913498 C220.646219,90.3056961 220.228975,90.1960141 220.085371,90.4730459 L220.051449,90.49453 C219.889753,90.5748127 219.780071,90.7218092 219.634205,90.8213145 L219.648905,90.8100071 C219.526784,90.9649187 219.401272,91.1164382 219.196608,91.1673216 L219.239576,91.1254841 C219.126502,91.4477456 218.706996,91.3391943 218.558869,91.6105724 L218.530601,91.6286643 C218.372297,91.7168622 218.259223,91.8627279 218.108834,91.958841 L218.125795,91.9452721 C218.007067,92.1047067 217.881555,92.2573569 217.672367,92.3025866 L217.715336,92.2607491 C217.605654,92.5897951 217.185018,92.4823746 217.031237,92.7469682 L217.007491,92.7627986 C216.85258,92.8577809 216.740636,93.0059081 216.581201,93.0963675 L216.603816,93.0771449 C216.48735,93.2444947 216.362968,93.4016678 216.143604,93.4355901 L216.188834,93.3914912 C216.087067,93.734106 215.66417,93.6266855 215.500212,93.883364 L215.484382,93.8935406 C215.335124,93.9986996 215.222049,94.1502191 215.052438,94.2316325 L215.079576,94.2078869 C214.968763,94.3854134 214.844382,94.5437173 214.615972,94.5685936 L214.662332,94.5222332 C214.56735,94.8772862 214.14106,94.7709965 213.969187,95.0174982 L213.961272,95.0231519 C213.816537,95.1396184 213.702332,95.29453 213.523675,95.3668975 L213.554205,95.3397597 C213.450177,95.5263322 213.326926,95.6880283 213.087208,95.6993357 L213.132438,95.6518445 C213.048763,96.0227279 212.617951,95.9130459 212.439293,96.153894 L212.438163,96.1550247 C212.300212,96.2794064 212.184876,96.4354488 212.000565,96.5010318 L212.027703,96.473894 C211.945159,96.6570742 211.823039,96.7950247 211.614982,96.8368622 L211.587845,96.8278163 C211.495124,97.0064735 211.350389,97.1218092 211.155901,97.1738233 C207.691307,99.0146714 204.148693,100.706261 200.597032,102.36506 C191.020777,106.839406 181.463746,111.357852 171.810601,115.66711 C162.098657,120.003505 152.353922,124.268664 142.534558,128.356297 C132.422332,132.566049 122.399435,136.965767 112.505442,141.676438 C96.2985159,149.393753 80.6580919,158.088028 65.735689,168.065696 C53.5304594,176.227392 42.1902473,185.447463 32.284947,196.302587 C23.3068551,206.140042 16.0056537,217.084495 12.8248763,230.225979 C8.56310954,247.831633 12.0978092,263.900608 23.3306007,278.134389 C30.1478445,286.770996 38.864735,293.148382 48.5122261,298.287604 C63.0592226,306.03658 78.645371,310.783435 94.6996466,314.165484 C97.3625442,314.726332 100.046926,315.182021 102.7053,315.763223 C103.492297,315.936226 104.358445,315.949795 104.966784,316.619194 C104.94417,317.011562 104.687491,317.121244 104.349399,317.134813 C103.520565,317.031915 102.653286,317.371138 101.858375,316.909795 L101.886643,316.927887 C100.917597,316.428099 99.7766784,317.144989 98.8291166,316.494813 L98.8664311,316.526473 C98.134841,316.122799 97.2517314,316.676862 96.5371025,316.161244 L96.5608481,316.172551 C95.7252297,315.680678 94.7007774,316.360254 93.8866431,315.739477 L93.9239576,315.768876 C93.2048057,315.335802 92.295689,315.969018 91.6081979,315.356155 L91.6455124,315.385555 C91.0450883,315.007887 90.2773145,315.511067 89.6983746,315.018064 L89.7221201,315.030502 C89.0233216,314.544283 88.0983746,315.231774 87.4323675,314.58612 L87.4708127,314.620042 C86.8783039,314.231067 86.0811307,314.802092 85.5315901,314.207322 L85.5711661,314.238982 C85.08947,313.922375 84.4528622,314.31135 83.9937809,313.892975 L84.0096113,313.898629 C83.4408481,313.446332 82.6515901,314.018488 82.099788,313.485908 L82.1291873,313.501739 C81.6667138,313.139901 81.0221908,313.554883 80.5721555,313.13877 L80.5845936,313.142163 C80.1390813,312.74188 79.4945583,313.171562 79.0479152,312.776933 L78.9416254,312.689866 L78.8115901,312.729442 C78.3095406,312.401527 77.6231802,312.828947 77.1652297,312.324636 L77.2025442,312.348382 C76.8463604,312.086049 76.3522261,312.33142 76.0084806,312.023859 L75.8976678,311.935661 L75.7597173,311.969583 C75.3696113,311.728735 74.8551237,311.951491 74.4865018,311.631491 L74.3949117,311.544424 L74.275053,311.585131 C73.8702473,311.364636 73.345583,311.576085 72.9746996,311.228947 L72.9916608,311.236862 C72.5574558,310.825272 71.8688339,311.327322 71.465159,310.80718 L71.5013428,310.828664 C71.149682,310.560678 70.6408481,310.824141 70.3129329,310.475873 L70.325371,310.480396 C70.0042403,310.152481 69.4942756,310.44082 69.1686219,310.126473 L69.0645936,310.037145 L68.9300353,310.066544 C68.5421908,309.822304 68.0005654,310.083505 67.660212,309.680961 L67.6918728,309.697922 C67.3537809,309.407322 66.8279859,309.697922 66.5170318,309.320254 L66.5373852,309.330431 C66.2106007,309.018346 65.6848057,309.31347 65.3738516,308.951633 L65.3885512,308.957286 C65.069682,308.630502 64.5404947,308.933541 64.2329329,308.573965 L64.2465018,308.578488 C63.9310247,308.24718 63.3973145,308.558134 63.0942756,308.188382 L63.1112367,308.195166 C62.794629,307.867251 62.2518728,308.187251 61.9578799,307.794883 L61.9816254,307.806191 C61.6604947,307.489583 61.1053004,307.823152 60.8248763,307.388947 L60.8599293,307.410431 C60.6100353,307.253258 60.2821201,307.295095 60.0491873,307.092693 L59.9530742,306.999972 L59.8207774,307.022587 C59.5166078,306.909512 59.16947,306.912905 58.91053,306.679972 L58.9184452,306.683364 C58.6187986,306.332834 58.0534276,306.684495 57.784311,306.252551 L57.8159717,306.272905 C57.1759717,306.004919 56.469258,305.90089 55.8812721,305.500608 L55.9118021,305.5187 C55.6653004,305.349088 55.3328622,305.387534 55.1044523,305.176085 L55.0999293,305.174954 C54.8217668,304.797286 54.2337809,305.176085 53.9906714,304.718134 L54.0279859,304.74188 C53.7679152,304.597145 53.4286926,304.636721 53.2138516,304.387958 L53.229682,304.395873 C52.629258,304.050996 51.875053,304.054389 51.3390813,303.561385 L51.3786572,303.589654 C51.1095406,303.460749 50.7601413,303.505979 50.564523,303.215378 L50.595053,303.234601 C50.3485512,303.068382 50.0002827,303.118134 49.7967491,302.859194 L49.8159717,302.870502 C49.5864311,302.678276 49.2392933,302.733682 49.030106,302.497357 L49.0402827,302.50188 C48.824311,302.2893 48.4783039,302.35036 48.2668551,302.129866 L48.2668551,302.129866 C48.0621908,301.903717 47.715053,301.9693 47.504735,301.756721 L47.4990813,301.754459 C47.3023322,301.519265 46.9529329,301.58824 46.7437456,301.379053 L46.7358304,301.375661 C46.5424735,301.137074 46.1919435,301.208311 45.9838869,300.996862 L45.9782332,300.994601 C45.7826148,300.757145 45.4286926,300.830643 45.2262898,300.607887 L45.2274205,300.609018 C45.0250177,300.381739 44.6677032,300.454106 44.4709541,300.215519 L44.48,300.221173 C44.2674205,300.007463 43.9044523,300.077569 43.7167491,299.817498 L43.7371025,299.829936 C43.5098233,299.634318 43.1389399,299.704424 42.9659364,299.412693 L42.9964664,299.431915 C42.7544876,299.261173 42.3734276,299.335802 42.2230389,298.998841 L42.2682686,299.038417 C42.0624735,299.016933 41.9561837,298.834883 41.7944876,298.742163 L41.7650883,298.729724 C41.6022615,298.459477 41.2347703,298.552198 41.0470671,298.32718 L41.0493286,298.328311 C40.8480565,298.099901 40.4726502,298.181314 40.3019081,297.904283 L40.3279152,297.920113 C40.0961131,297.733541 39.7037456,297.818346 39.570318,297.468947 L39.6166784,297.511915 C39.4074912,297.485908 39.2887633,297.323081 39.1417668,297.200961 L39.1315901,297.196438 C38.9484099,296.952198 38.5662191,297.040396 38.4011307,296.763364 L38.4271378,296.780325 C38.1998587,296.591491 37.7939223,296.685343 37.6831095,296.312198 L37.7306007,296.357428 C37.5033216,296.350643 37.3834629,296.183293 37.2511661,296.035166 L37.260212,296.04082 C37.0555477,295.821456 36.6563958,295.913046 36.5240989,295.579477 L36.5681979,295.620184 C36.3657951,295.580608 36.2448057,295.422304 36.1045936,295.293399 L36.1012014,295.291138 C35.9134982,295.053682 35.5132155,295.148664 35.3786572,294.828664 L35.4216254,294.86711 C35.2248763,294.816226 35.1038869,294.661314 34.9625442,294.535802 L34.9591519,294.53241 C34.774841,294.291562 34.3689046,294.389936 34.2433922,294.06089 L34.2874912,294.101597 C34.0839576,294.057498 33.9607067,293.901456 33.8284099,293.761244 L33.8329329,293.764636 C33.6407067,293.535095 33.2200707,293.639124 33.1216961,293.276155 L33.1691873,293.321385 C32.9373852,293.304424 32.815265,293.143859 32.6999293,292.971986 L32.7236749,292.992339 C32.5619788,292.906403 32.4500353,292.756014 32.2939929,292.662163 L32.2691166,292.646332 C32.1153357,292.379477 31.6980919,292.486898 31.5816254,292.164636 L31.6245936,292.205343 C31.4210601,292.154459 31.2955477,292.001809 31.1734276,291.848028 L31.1881272,291.859336 C31.0411307,291.7587 30.9314488,291.612834 30.7708834,291.53029 L30.7414841,291.509936 C30.5967491,291.235166 30.1715901,291.34711 30.0675618,291.016933 L30.1116608,291.059901 C29.8979505,291.014671 29.7713074,290.862021 29.659364,290.69241 L29.6831095,290.712763 C29.5191519,290.623435 29.4026855,290.476438 29.2590813,290.363364 L29.2511661,290.35658 C28.9277739,290.023011 28.4245936,289.918982 28.1679152,289.501739 L28.2086219,289.543576 C27.9971731,289.490431 27.8682686,289.341173 27.7631095,289.163647 L27.7902473,289.188523 C27.6161131,289.103717 27.4962544,288.957852 27.3673498,288.821032 L27.3730035,288.825555 C27.2463604,288.702304 27.1140636,288.586968 26.9738516,288.480678 L26.9534982,288.464848 C26.660636,288.103011 26.1201413,288.034035 25.9053004,287.581739 L25.9482686,287.625837 C25.709682,287.594177 25.5785159,287.444919 25.5050177,287.227816 L25.5445936,287.266261 C25.3342756,287.206332 25.2008481,287.061597 25.1115194,286.869371 L25.144311,286.901032 C24.9566078,286.819618 24.824311,286.679406 24.7214134,286.506403 L24.7462898,286.531279 C24.5789399,286.435166 24.4489046,286.298346 24.3346996,286.143435 L24.3493993,286.159265 C24.1967491,286.051845 24.0712367,285.917286 23.9479859,285.779336 L23.9547703,285.784989 C23.8179505,285.666261 23.6946996,285.535095 23.5624028,285.412975 L23.5601413,285.410714 C23.4391519,285.280678 23.3113781,285.158558 23.180212,285.040961 L23.1722968,285.034177 C23.0580919,284.900749 22.9314488,284.77976 22.7968905,284.667816 L22.785583,284.65877 C22.3366784,284.35347 21.9578799,283.976933 21.6559717,283.525767 L21.6457951,283.51559 C21.5338516,283.381032 21.4117314,283.254389 21.2794346,283.140184 L21.2726502,283.133399 C21.1584452,282.99658 21.0295406,282.874459 20.9040283,282.747816 L20.9040283,282.748947 C20.7773852,282.618912 20.6450883,282.495661 20.5297527,282.354318 L20.5376678,282.363364 C20.3951943,282.242375 20.2595053,282.116862 20.1566078,281.958558 L20.1735689,281.977781 C20.015265,281.865837 19.8773145,281.734671 19.7845936,281.560537 L19.8106007,281.589936 C19.6330742,281.4893 19.4917314,281.357004 19.414841,281.162516 L19.4510247,281.1987 C19.2508834,281.112763 19.1038869,280.979336 19.0530035,280.758841 L19.0937102,280.801809 C18.8675618,280.737357 18.7160424,280.60506 18.695689,280.356297 L18.7420495,280.399265 C18.2727915,280.192339 18.200424,279.654106 17.8566784,279.342021 L17.849894,279.334106 C17.7379505,279.191633 17.595477,279.074035 17.4959717,278.919124 L17.5106714,278.937216 C17.3523675,278.82188 17.2076325,278.692975 17.1363958,278.50188 L17.170318,278.539194 C16.9690459,278.447604 16.8130035,278.31983 16.7915194,278.081244 L16.8401413,278.127604 C16.4794346,278.050714 16.5936396,277.609724 16.3279152,277.459336 L16.3132155,277.438982 C16.2182332,277.285201 16.0734982,277.172127 15.9751237,277.020608 L15.9898233,277.037569 C15.8303887,276.918841 15.6811307,276.793329 15.6257244,276.589795 L15.6664311,276.632763 C15.3486926,276.518558 15.4595053,276.097922 15.1813428,275.95658 L15.1598587,275.922657 C15.0807067,275.760961 14.9325795,275.651279 14.8342049,275.503152 L14.8455124,275.520113 C14.6906007,275.395731 14.535689,275.272481 14.4927208,275.061032 L14.535689,275.107392 C14.2043816,274.992057 14.3061484,274.577074 14.0539929,274.406332 L14.0460777,274.395025 C13.9363958,274.244636 13.7769611,274.132693 13.7113781,273.949512 L13.7441696,273.985696 C13.4513074,273.843223 13.5542049,273.44294 13.2850883,273.285767 L13.2703887,273.25976 C13.1776678,273.101456 13.019364,272.990643 12.9469965,272.81764 L12.975265,272.850431 C12.6937102,272.697781 12.7920848,272.305413 12.5263604,272.141456 L12.5139223,272.118841 C12.4178092,271.960537 12.2515901,271.850855 12.195053,271.664283 L12.2278445,271.704989 C11.9293286,271.552339 12.0186572,271.162233 11.7800707,270.973399 L11.7789399,270.970007 C11.6500353,270.826403 11.4860777,270.706544 11.4623322,270.493965 L11.5064311,270.542587 C11.1536396,270.412551 11.239576,270.015661 11.0496113,269.787251 L11.0677032,269.814389 C10.7929329,269.641385 10.8766078,269.264848 10.6414134,269.07036 C10.5102473,268.925625 10.3372438,268.806898 10.3383746,268.580749 L10.3858657,268.630502 C10.0002827,268.508382 10.0862191,268.116014 9.93922261,267.855943 L9.96749117,267.895519 C9.63957597,267.737216 9.71081272,267.359548 9.54120141,267.115307 L9.56268551,267.148099 C9.26756184,266.971703 9.33540636,266.603081 9.14883392,266.369018 L9.16466431,266.395025 C8.89215548,266.20506 8.95660777,265.844353 8.76325088,265.614813 L8.77681979,265.637428 C8.51448763,265.441809 8.57441696,265.084495 8.38558304,264.852693 L8.39915194,264.877569 C8.13342756,264.679689 8.18996466,264.324636 8.01130742,264.083788 L8.02939929,264.114318 C7.75123675,263.917569 7.80212014,263.563647 7.644947,263.31036 L7.66869258,263.346544 C7.36452297,263.15658 7.41088339,262.803788 7.28876325,262.529018 L7.32042403,262.571986 C6.82289753,262.34923 7.21639576,261.742021 6.84325088,261.46612 L6.84325088,261.468382 C6.62388693,261.244495 6.66459364,260.907534 6.49272085,260.663293 L6.51081272,260.693823 C6.22360424,260.448452 6.23717314,260.082092 6.13314488,259.763223 L6.16254417,259.645625 L6.06869258,259.566473 C5.85611307,259.339194 5.90473498,259.004495 5.73738516,258.757993 L5.75660777,258.793046 C5.33371025,258.514883 5.67293286,257.955166 5.33484099,257.645343 L5.34162544,257.662304 C4.97300353,257.364919 5.29865724,256.825555 4.94360424,256.523647 L4.94473498,256.527039 C4.60438163,256.217216 4.91420495,255.69029 4.56254417,255.383859 L4.56367491,255.387251 C4.23010601,255.068382 4.52183746,254.549371 4.19279152,254.22824 L4.19844523,254.241809 C3.84565371,253.919548 4.12268551,253.403929 3.83434629,253.060184 L3.85243816,253.095237 C3.35717314,252.684777 3.85017668,252.001809 3.43067138,251.570996 L3.43519435,251.584565 C3.10501767,251.206898 3.30742049,250.687887 3.0869258,250.28082 L3.13328622,250.162092 L3.04621908,250.069371 C2.63689046,249.621597 3.06996466,248.972551 2.67646643,248.522516 L2.68325088,248.541739 C2.26826855,248.054389 2.63575972,247.396297 2.32254417,246.886332 C2.39830389,246.79135 2.38360424,246.712198 2.2829682,246.647746 C1.91095406,246.135519 2.23434629,245.484212 1.94487633,244.955025 L2.00254417,244.846473 L1.92113074,244.752622 C1.47448763,244.111491 1.90756184,243.319972 1.56155477,242.66188 L1.62487633,242.564636 L1.55137809,242.475307 C1.0165371,241.601244 1.61469965,240.57453 1.17597173,239.688028 C1.2585159,239.593046 1.25060071,239.50824 1.15335689,239.430219 C0.637738516,238.292693 1.24720848,237.040961 0.793780919,235.897781 C0.875194346,235.800537 0.868409894,235.711208 0.770035336,235.628664 C0.310954064,233.755025 0.465865724,231.798841 0,229.926332 L0,226.125908 Z" id="Fill-1" fill="#E12129"></path>
                <path d="M104.858686,316.638304 C92.8976961,314.51364 81.0814417,311.808905 69.5727491,307.860353 C62.5033498,305.437173 55.6137385,302.586572 48.9977668,299.095972 C42.7617244,295.806643 36.8626431,292.00735 31.5368481,287.378092 C25.2657527,281.929046 19.9885795,275.665866 16.3091449,268.154346 C13.8429965,263.121413 12.2271661,257.827279 11.3135265,252.292297 C10.6169894,248.079152 10.421371,243.851307 10.7345866,239.617809 C11.1032085,234.618799 12.1672367,229.740777 13.8328198,225.000707 C16.2853993,218.017244 19.8381908,211.620636 24.1270954,205.616396 C29.7887208,197.691025 36.5324664,190.760707 43.8031378,184.32 C54.0702756,175.224311 65.2838445,167.431237 76.9655406,160.283816 C87.6069541,153.771873 98.5864594,147.879576 109.797767,142.416961 C120.320452,137.292438 131.021795,132.563675 141.842996,128.105159 C149.677908,124.87689 157.456283,121.511802 165.202996,118.076608 C179.487661,111.745583 193.664905,105.182756 207.736989,98.3937809 C208.929922,97.8182332 210.162431,97.3274912 211.376848,96.7971731 C211.476353,97.0018375 211.426186,97.1567491 211.223067,97.2607774 L211.266035,97.2257244 C211.174445,97.4145583 211.050064,97.56947 210.839746,97.6339223 L210.878191,97.5932155 C210.805823,97.8057951 210.669004,97.9493993 210.447378,98.0048057 L210.488085,97.9618375 C210.428155,98.1879859 210.292466,98.3327208 210.056141,98.3734276 L210.097979,98.3236749 C210.032396,98.6685512 209.578968,98.5475618 209.471548,98.8426855 L209.417272,98.8901767 C209.263491,98.954629 209.149286,99.0620495 209.076919,99.2101767 L209.033951,99.2497527 C208.884693,99.3300353 208.767095,99.4442403 208.675505,99.585583 L208.649498,99.6093286 C208.507025,99.7077032 208.382643,99.8253004 208.275223,99.9598587 L208.263915,99.9700353 C208.120311,100.077456 208.001583,100.208622 207.873809,100.333004 L207.876071,100.330742 C207.746035,100.458516 207.622784,100.595336 207.475788,100.706148 L207.490488,100.69258 C207.37176,100.840707 207.243986,100.978657 207.081159,101.080424 L207.103774,101.057809 C206.995223,101.221767 206.861795,101.359717 206.687661,101.453569 L206.718191,101.42417 C206.618686,101.602827 206.484127,101.743039 206.295293,101.825583 L206.329216,101.79053 C206.242148,101.983887 206.106459,102.12636 205.900664,102.196466 L205.94024,102.15689 C205.864481,102.364947 205.728792,102.509682 205.508297,102.565088 L205.549004,102.523251 C205.487943,102.747138 205.352254,102.893004 205.115929,102.93371 L205.158898,102.882827 C205.089922,103.229965 204.638756,103.110106 204.524551,103.401837 L204.475929,103.444806 C204.323279,103.514912 204.207943,103.623463 204.128792,103.770459 L204.091477,103.80212 C203.945611,103.890318 203.823491,104.005654 203.725117,104.143604 L203.705894,104.160565 C203.566813,104.267986 203.439039,104.386714 203.321442,104.516749 L203.31918,104.51788 C203.184622,104.638869 203.061371,104.773428 202.921159,104.888763 L202.931336,104.878587 C202.809216,105.02106 202.683703,105.159011 202.525399,105.261908 L202.545753,105.242686 C202.433809,105.40212 202.301512,105.53894 202.13077,105.636184 L202.159039,105.607915 C202.056141,105.782049 201.922714,105.922261 201.736141,106.008198 L201.771194,105.973145 C201.679604,106.16311 201.545046,106.306714 201.342643,106.377951 L201.381088,106.338375 C201.303067,106.5453 201.167378,106.690035 200.949145,106.746572 L200.989852,106.704735 C200.92653,106.928622 200.790841,107.074488 200.555647,107.114064 L200.597484,107.06318 C200.52964,107.410318 200.077343,107.289329 199.965399,107.582191 L199.914516,107.62629 C199.762996,107.695265 199.648792,107.803816 199.56964,107.950813 L199.532325,107.983604 C199.385329,108.071802 199.263208,108.184876 199.165965,108.323958 L199.145611,108.342049 C199.007661,108.448339 198.878756,108.565936 198.76342,108.698233 L198.758898,108.700495 C198.623208,108.819223 198.499958,108.95265 198.363138,109.070247 L198.372184,109.061201 C198.248933,109.201413 198.12229,109.338233 197.966247,109.443392 L197.98547,109.4253 C197.872396,109.581343 197.74123,109.718163 197.572749,109.817668 L197.599887,109.79053 C197.495859,109.962403 197.362431,110.102615 197.179251,110.189682 L197.212042,110.158021 C197.119322,110.343463 196.983633,110.485936 196.785753,110.560565 L196.824198,110.523251 C196.742784,110.725654 196.607095,110.869258 196.392254,110.930318 L196.432961,110.889611 C196.365117,111.107845 196.229428,111.25258 195.999887,111.29894 L196.039463,111.251449 C195.825753,111.693569 195.275081,111.750106 195.01388,112.139081 L194.973173,112.175265 C194.822784,112.252155 194.706318,112.36523 194.620382,112.508834 L194.589852,112.537102 C194.446247,112.630954 194.321866,112.745159 194.220099,112.88424 L194.204269,112.897809 C194.066318,113.007491 193.938544,113.12735 193.820947,113.257385 L193.818686,113.259647 C193.682996,113.379505 193.560876,113.512933 193.421795,113.63053 L193.431972,113.621484 C193.308721,113.761696 193.182078,113.897385 193.027166,114.003675 L193.045258,113.986714 C192.932184,114.141625 192.801018,114.278445 192.635929,114.379081 L192.660806,114.354205 C192.555647,114.522686 192.421088,114.660636 192.244693,114.753357 L192.275223,114.723958 C192.177979,114.902615 192.04342,115.043958 191.853456,115.127633 L191.888509,115.09258 C191.800311,115.284806 191.664622,115.426148 191.462219,115.499647 L191.501795,115.461201 C191.423774,115.665866 191.286954,115.80947 191.072113,115.871661 L191.11282,115.829823 C191.046106,116.048057 190.908155,116.19053 190.683138,116.242544 L190.723845,116.200707 C190.668438,116.429117 190.530488,116.573852 190.294163,116.614558 L190.333739,116.567067 C190.131336,117.018233 189.571618,117.065724 189.319463,117.461484 L189.274233,117.502191 C189.121583,117.572297 189.00964,117.68424 188.932749,117.832367 L188.892042,117.870813 C188.743915,117.951095 188.627449,118.0653 188.539251,118.208905 L188.509852,118.237173 C188.365117,118.329894 188.244127,118.44636 188.146883,118.586572 L188.12653,118.604664 C187.986318,118.708693 187.861936,118.82629 187.753385,118.961979 L187.742078,118.972155 C187.606389,119.08636 187.479746,119.20735 187.362148,119.338516 L187.357625,119.341908 C187.223067,119.459505 187.099816,119.589541 186.972042,119.715053 L186.975435,119.711661 C186.84653,119.840565 186.719887,119.970601 186.584198,120.092721 L186.592113,120.084806 C186.467731,120.221625 186.341088,120.353922 186.196353,120.469258 L186.208792,120.455689 C186.091194,120.602686 185.96229,120.736113 185.80964,120.845795 L185.82547,120.829965 C185.713527,120.982615 185.58236,121.117173 185.424057,121.223463 L185.443279,121.20424 C185.333597,121.361413 185.2013,121.495972 185.039604,121.602261 L185.062219,121.579647 C184.954799,121.741343 184.821371,121.875901 184.657413,121.98106 L184.681159,121.958445 C184.574869,122.122403 184.441442,122.258092 184.274092,122.359859 L184.298968,122.334982 C184.196071,122.502332 184.061512,122.639152 183.89077,122.738657 L183.917908,122.711519 C183.817272,122.882261 183.681583,123.019081 183.507449,123.116325 L183.535717,123.088057 C183.438473,123.262191 183.301654,123.399011 183.126389,123.496254 L183.155788,123.467986 C183.058544,123.64212 182.921724,123.77894 182.746459,123.876184 L182.775859,123.846784 C182.678615,124.022049 182.541795,124.158869 182.36653,124.256113 L182.395929,124.226714 C182.298686,124.40311 182.161866,124.538799 181.986601,124.636042 L182.016,124.607774 C181.917625,124.783039 181.781936,124.918728 181.606671,125.017102 L181.636071,124.987703 C181.537696,125.162968 181.402007,125.297527 181.230134,125.398163 L181.257272,125.371025 C181.157767,125.542898 181.020947,125.677456 180.851336,125.778092 L180.877343,125.752085 C180.777837,125.921696 180.642148,126.056254 180.475929,126.160283 L180.499675,126.136537 C180.396777,126.301625 180.261088,126.435053 180.100523,126.542473 L180.122007,126.520989 C180.015717,126.681555 179.881159,126.813852 179.723986,126.924664 L179.743208,126.905442 C179.636919,127.062615 179.50236,127.19265 179.351972,127.307986 L179.366671,127.293286 C179.254728,127.442544 179.1213,127.570318 178.979958,127.691307 L178.990134,127.682261 C178.872537,127.821343 178.74024,127.946855 178.611336,128.07576 L178.613597,128.072367 C178.489216,128.200141 178.358049,128.322261 178.242714,128.460212 L178.238191,128.464735 C178.105894,128.580071 177.986035,128.706714 177.877484,128.844664 L177.862784,128.860495 C177.725965,128.963392 177.608367,129.085512 177.513385,129.229117 L177.488509,129.257385 C177.343774,129.345583 177.23183,129.464311 177.152678,129.613569 L177.118756,129.650883 C176.730912,129.914346 176.676636,130.466148 176.227731,130.677597 L176.275223,130.63689 C176.234516,130.869823 176.087519,131.005512 175.867025,131.072226 L175.908862,131.031519 C175.850064,131.24636 175.705329,131.382049 175.504057,131.464594 L175.541371,131.427279 C175.465611,131.622898 175.323138,131.758587 175.141088,131.85583 L175.172749,131.82417 C175.08229,132.001696 174.942078,132.133993 174.779251,132.243675 L174.800735,132.222191 C174.70123,132.382756 174.561018,132.507138 174.423067,132.633781 L174.429852,132.624735 C174.313385,132.759293 174.177696,132.878021 174.073668,133.023887 L174.06236,133.036325 C173.92441,133.139223 173.813597,133.265866 173.72653,133.411731 L173.697131,133.449046 C173.415576,133.579081 173.532042,134.021201 173.187166,134.102615 L173.235788,134.058516 C173.195081,134.289187 173.045823,134.421484 172.838898,134.500636 L172.877343,134.462191 C172.808367,134.663463 172.663633,134.79576 172.486106,134.897527 L172.514375,134.868127 C172.421654,135.04 172.282572,135.167774 172.136707,135.291025 L172.148014,135.278587 C172.037201,135.419929 171.89812,135.535265 171.798615,135.685654 L171.786177,135.701484 C171.439039,136.011307 171.336141,136.513357 170.936989,136.782473 L170.978827,136.745159 C170.909852,136.941908 170.763986,137.071943 170.596636,137.182756 L170.619251,137.159011 C170.525399,137.320707 170.379534,137.439435 170.263067,137.580777 L170.259675,137.586431 C169.935152,137.918869 169.807378,138.400565 169.426318,138.690035 L169.463633,138.653852 C169.389004,138.839293 169.243138,138.965936 169.097272,139.091449 L169.107449,139.079011 C168.986459,139.206784 168.877908,139.345866 168.778403,139.490601 L168.755788,139.525654 C168.476495,139.670389 168.583915,140.081979 168.282007,140.210883 L168.321583,140.172438 C168.251477,140.359011 168.10335,140.483392 167.963138,140.614558 L167.968792,140.606643 C167.740382,140.802261 167.838756,141.216113 167.485965,141.326926 L167.534587,141.281696 C167.500664,141.504452 167.344622,141.629965 167.171618,141.741908 L167.195364,141.71477 C167.110558,141.878728 166.957908,141.990671 166.865187,142.147845 L166.850488,142.172721 C166.582502,142.333286 166.682007,142.730177 166.395929,142.879435 L166.428721,142.843251 C166.356353,143.019647 166.19918,143.13159 166.097413,143.285371 L166.087237,143.304594 C165.826035,143.473074 165.922148,143.864311 165.641724,144.021484 L165.671124,143.988693 C165.594233,144.157173 165.438191,144.267986 165.351124,144.429682 L165.334163,144.461343 C165.059392,144.617385 165.157767,144.999576 164.907873,145.170318 L164.91918,145.153357 C164.709993,145.370459 164.789145,145.754912 164.479322,145.912085 L164.517767,145.870247 C164.465753,146.060212 164.298403,146.168763 164.201159,146.327067 L164.189852,146.350813 C163.925258,146.519293 164.014587,146.887915 163.783915,147.075618 L163.788438,147.067703 C163.565682,147.27576 163.63918,147.64212 163.37911,147.828693 L163.393809,147.806078 C163.19706,148.034488 163.262643,148.399717 162.985611,148.584028 L163.003703,148.55576 C162.822784,148.794346 162.883845,149.156184 162.60229,149.343887 L162.621512,149.313357 C162.445117,149.554205 162.502784,149.91265 162.229145,150.107138 L162.246106,150.078869 C162.064057,150.316325 162.117201,150.665724 161.869569,150.871519 L161.879746,150.855689 C161.673951,151.075053 161.740664,151.418799 161.529216,151.635901 C161.434233,151.682261 161.412749,151.752367 161.462502,151.843958 C161.353951,152.158304 161.36865,152.521272 161.090488,152.767774 L161.106318,152.740636 C160.925399,152.9747 160.976283,153.304876 160.781795,153.533286 C160.687943,153.6 160.664198,153.685936 160.710558,153.791095 C160.578261,154.076042 160.595223,154.416396 160.390558,154.675336 C160.296707,154.730742 160.274092,154.806502 160.321583,154.903746 C160.266177,155.100495 160.157625,155.259929 159.993668,155.38318 C155.748862,156.867845 151.350276,157.80636 147.020664,158.987986 C126.040876,164.712933 105.446671,171.551661 85.6801696,180.665442 C72.2616537,186.852862 59.3497102,193.961837 47.8070954,203.330035 C39.5719011,210.014982 32.365682,217.564947 27.5826431,227.166078 C23.6996749,234.961413 22.410629,243.183039 23.1704876,251.859223 C23.7019364,257.913216 24.9039152,263.75576 27.2569894,269.337102 C30.5044806,277.04311 35.4175548,283.546007 41.6728198,289.099081 C47.3061767,294.101484 53.5750106,298.138233 60.2825724,301.459223 C67.8981201,305.229117 75.8732438,308.115901 84.0699929,310.390954 C95.9914064,313.699505 108.123138,315.873922 120.404127,317.281696 C121.264622,317.381201 122.189569,317.416254 122.832961,318.168198 C122.635081,318.946148 121.993951,318.551519 121.540523,318.657809 C120.68342,318.600141 119.815011,318.785583 118.966954,318.537951 C118.239887,318.426007 117.510558,318.341201 116.774445,318.442968 C115.073809,317.971449 113.255576,318.661201 111.583208,317.916042 C111.005399,317.701201 110.401583,317.702332 109.797767,317.711378 C109.295717,317.695548 108.789145,317.747562 108.298403,317.598304 C107.216283,317.041979 105.813032,317.644664 104.858686,316.638304" id="Fill-3" fill="#FFE100"></path>
                <g transform="translate(21.484099, 154.390389)">
                    <mask id="mask-2" fill="white">
                        <use xlink:href="#path-1"></use>
                    </mask>
                    <g id="Clip-6"></g>
                    <path d="M101.239519,163.739703 C97.1711095,163.205993 93.0891307,162.762742 89.0365512,162.118219 C83.3647491,161.219279 77.7166926,160.181258 72.108212,158.909173 C65.6301908,157.439208 59.2448905,155.665074 52.9726643,153.483873 C48.8488481,152.048961 44.8166219,150.396947 40.8511095,148.562883 C35.5513216,146.111435 30.5183887,143.216735 25.7692721,139.824509 C22.157682,137.243025 18.7745018,134.38564 15.7554205,131.127972 C10.352735,125.300127 6.24587986,118.673979 3.77860071,111.090092 C2.80163958,108.08571 2.08022615,105.013484 1.66072085,101.870021 C1.19937809,98.4189965 0.888424028,94.9634488 0.976621908,91.4796325 C1.12927208,85.4686078 2.36291166,79.6961696 4.84489046,74.2086784 C6.94241696,69.5703746 9.67655124,65.3300919 12.917258,61.4052862 C14.9740777,58.9142615 17.0851731,56.4718587 19.4518163,54.2736961 C23.1142898,50.872424 26.9339364,47.6543322 30.9887774,44.7211873 C36.4796608,40.7477597 42.208,37.156523 48.1285654,33.8581484 C53.2734417,30.9928481 58.5370459,28.3593498 63.8752792,25.8841555 C71.1606502,22.5054982 78.5975406,19.4694558 86.122629,16.6573004 C92.4615689,14.2883958 98.8626996,12.1026714 105.310191,10.0503746 C112.114996,7.88613428 118.950332,5.82366078 125.860297,4.01786572 C130.076834,2.91539223 134.29224,1.80839576 138.507647,0.702530035 C138.764325,1.07680565 138.788071,1.44316608 138.480509,1.80048057 L138.490686,1.78238869 C138.098318,2.2290318 138.547223,2.88825442 138.102841,3.32245936 L138.111887,3.30323675 C137.67429,3.88104594 138.212523,4.65673498 137.721781,5.22323675 L137.731958,5.20288339 C137.274007,5.91864311 137.843901,6.80062191 137.361074,7.5129894 C137.275138,7.59666431 137.267223,7.68712367 137.337329,7.78549823 C137.063689,10.0153216 137.074996,12.2451449 137.331675,14.4760989 C137.259307,14.5665583 137.267223,14.6491025 137.35542,14.7259929 C137.819025,15.3060636 137.305668,16.0749682 137.726304,16.6640848 L137.710473,16.6392085 C138.174078,17.0734134 137.726304,17.7348975 138.10058,18.1894558 L138.081357,18.162318 C138.473724,18.5128481 138.227223,19.052212 138.461286,19.4502332 C138.404749,19.5429541 138.422841,19.6164523 138.516693,19.6729894 C138.734926,19.9341908 138.720226,20.2801979 138.842346,20.5764523 C138.793724,20.6770883 138.81747,20.757371 138.911322,20.8173004 C139.114855,21.0389258 139.054926,21.3747562 139.248283,21.6009046 L139.236975,21.5828127 C139.495915,21.787477 139.447293,22.1334841 139.606728,22.3822473 L139.586375,22.3539788 C139.88489,22.5348975 139.824961,22.8956042 139.984396,23.146629 L139.961781,23.1172297 C140.26482,23.2845795 140.192452,23.6565936 140.381286,23.887265 L140.367717,23.8680424 C140.637965,24.032 140.541852,24.4141908 140.794007,24.5883251 L140.808707,24.6120707 C140.927435,24.8099505 140.910473,24.9953922 140.762346,25.1695265 C139.593159,26.1374417 138.114148,25.9237314 136.770827,26.1611873 C118.249272,29.4233781 99.6655265,32.4481131 81.7410035,38.3505866 C66.8660919,43.2500919 52.6877173,49.5958163 40.4022049,59.5847915 C29.877258,68.1445088 22.3713922,78.646841 19.1759152,92.0246502 C16.8024876,101.960481 17.8506855,111.392 22.2662332,120.643731 C26.7564099,130.053767 33.8947845,136.77942 42.5596608,142.147053 C52.5113216,148.310728 63.3969753,152.208396 74.6184594,155.274968 C87.4173286,158.771223 100.471746,160.902671 113.639237,162.350021 C117.153583,162.736735 120.674714,163.191293 124.225244,163.218431 C125.247435,163.226346 126.223265,163.519208 127.204749,163.782671 C127.619731,164.063095 128.378459,164.015604 128.219025,164.843307 C124.155138,165.270728 120.079943,164.940551 116.010403,165.008396 C114.773371,165.028749 113.509201,165.25829 112.285739,164.834261 C111.557541,164.687265 110.827081,164.658996 110.09436,164.800339 C109.293795,164.454332 108.425385,164.80147 107.614643,164.561753 C105.475279,164.396664 103.306516,164.459986 101.239519,163.739703" id="Fill-5" fill="#72B436" mask="url(#mask-2)"></path>
                </g>
                <path d="M148.582671,318.49012 C145.560198,318.225527 142.535463,317.989201 139.516382,317.687293 C136.625074,317.398954 133.73829,317.056339 130.852636,316.711463 C128.593413,316.441216 126.337583,316.155138 124.085145,315.829484 C121.334049,315.433724 118.580693,315.043618 115.844297,314.55853 C109.123166,313.366728 102.45518,311.923901 95.8652155,310.130544 C86.2584311,307.517399 76.9128481,304.214502 68.1201979,299.484608 C62.2957456,296.352452 56.8885371,292.634572 52.1835194,287.949908 C48.0936254,283.879237 44.9467703,279.177611 42.7350389,273.848424 C42.4681837,273.206163 42.2024594,272.56277 41.9073357,271.932947 C40.2191378,268.338318 39.3043675,264.554855 39.0940495,260.592735 C39.0341201,259.45747 38.8351095,258.324466 38.8384589,257.191463 C38.8475477,252.483053 39.6085371,247.887717 40.937159,243.368141 C43.2201272,235.596551 47.0488198,228.694502 52.3192085,222.55118 C56.5527067,217.616622 61.421682,213.410261 66.72147,209.687859 C74.7395618,204.057894 83.4428834,199.722629 92.5204806,196.092947 C102.465357,192.114996 112.713272,189.129837 123.135322,186.727011 C127.935322,185.620014 132.785074,184.732382 137.638219,183.870756 C140.934332,183.287293 144.195392,182.512735 147.482459,181.876127 C150.954968,181.202205 154.434261,180.558813 157.945216,180.105385 C159.385781,179.918813 160.815039,179.653088 162.249951,179.423548 C162.392424,179.239237 162.503237,179.256198 162.582389,179.475562 L162.571081,179.44164 C162.792707,179.498177 162.936311,179.627081 162.958926,179.865668 L162.927265,179.836269 C163.354686,180.187929 163.72783,180.598389 164.113413,180.993018 L164.086276,180.964749 C164.30564,181.004325 164.433413,181.14906 164.515958,181.343548 L164.494473,181.322064 C164.684438,181.384254 164.803166,181.528989 164.912848,181.685032 L164.912848,181.685032 C165.046276,181.790191 165.176311,181.899873 165.305216,182.012947 L165.350445,182.043477 C165.507618,182.294502 165.916947,182.182558 166.020975,182.509343 L165.994968,182.482205 C166.199633,182.52065 166.31836,182.667647 166.433696,182.820297 L166.442742,182.825951 C166.641753,183.035138 167.045428,182.93111 167.148325,183.287293 L167.123449,183.259025 C167.33942,183.272594 167.454756,183.427505 167.573484,183.577894 L167.584792,183.585809 C167.789456,183.792735 168.171647,183.701145 168.309597,184.017753 L168.288113,183.996269 C168.480339,184.030191 168.582106,184.190756 168.722318,184.298177 L168.774332,184.325314 C168.941682,184.572947 169.300127,184.475703 169.474261,184.712028 L169.494615,184.723336 C169.698148,184.933654 170.053201,184.853371 170.232989,185.110049 L170.236382,185.11118 C170.455746,185.304537 170.808537,185.23217 170.992848,185.493371 L170.993979,185.493371 C171.215604,185.682205 171.562742,185.61436 171.752707,185.865385 L171.762883,185.869908 C171.977724,186.064396 172.314686,185.998813 172.515958,186.2227 L172.54988,186.237399 C172.744367,186.461286 173.075675,186.377611 173.285993,186.564184 C173.349314,186.672735 173.439774,186.702134 173.55511,186.653512 C173.835534,186.780155 174.174756,186.75641 174.414473,186.987081 L174.447265,186.999519 C174.743519,187.336481 175.265922,187.016481 175.553131,187.379449 L175.573484,187.386233 C175.890092,187.709625 176.40458,187.403194 176.715534,187.744678 L176.811647,187.835138 L176.93829,187.7933 C177.343095,188.016057 177.863237,187.802346 178.238643,188.134784 L178.334756,188.222982 L178.455746,188.170968 C178.973625,188.458177 179.614756,188.133654 180.116806,188.504537 L180.089668,188.57012 C180.110021,189.444184 179.107053,188.869767 178.895604,189.415915 C178.171929,189.561781 177.406417,189.250827 176.704226,189.616057 L176.69518,189.611534 C175.873131,190.157682 174.878078,189.522205 174.045852,189.997117 L174.034544,189.994855 C173.290516,190.491251 172.394968,189.97111 171.63511,190.355562 L171.508466,190.297894 L171.399915,190.3827 C170.695463,190.884749 169.815746,190.309201 169.102247,190.755845 L169.094332,190.751322 C168.400057,191.275986 167.52147,190.688 166.814756,191.133512 L166.810233,191.116551 C166.123873,191.672876 165.23624,191.062276 164.531788,191.51118 L164.527265,191.491958 C163.846558,192.058459 162.955534,191.436551 162.254473,191.893371 L162.249951,191.878671 C161.568113,192.433866 160.680481,191.816481 159.982813,192.276693 L159.972636,192.2733 C159.409527,192.762912 158.648537,192.243901 158.069597,192.647576 L158.065074,192.628353 C157.518926,193.168848 156.740975,192.611392 156.16882,193.027505 L156.165428,193.010544 C155.623802,193.551039 154.844721,192.983406 154.280481,193.41535 L154.272565,193.411958 C153.726417,193.914007 152.959774,193.359943 152.401187,193.804325 L152.371788,193.81111 C151.935322,194.226092 151.300975,193.804325 150.853201,194.172947 L150.848678,194.16164 C150.308184,194.682912 149.534756,194.118671 148.978431,194.561922 L148.951293,194.568707 C148.515958,194.988212 147.87935,194.563053 147.432707,194.932806 L147.429314,194.922629 C146.892212,195.445032 146.117654,194.874007 145.565852,195.326304 L145.530799,195.33535 C145.096594,195.744678 144.463378,195.321781 144.020127,195.694926 L144.011081,195.692664 C143.580269,196.139307 142.936876,195.707364 142.48458,196.063548 L142.482318,196.047717 C141.952,196.598389 141.169527,196.012664 140.616594,196.4627 L140.590587,196.469484 C140.158643,196.89012 139.520905,196.460438 139.078784,196.834714 L139.070869,196.832452 C138.642318,197.282488 137.996664,196.84376 137.546629,197.205597 L137.543237,197.193159 C137.122601,197.674855 136.472424,197.230473 136.015604,197.570827 L136.014473,197.552735 C135.495463,198.135067 134.701682,197.526728 134.153272,197.981286 L134.129527,197.98694 C133.700975,198.41436 133.060975,197.979025 132.621117,198.355562 L132.609809,198.355562 C132.183519,198.801074 131.536735,198.358954 131.093484,198.73323 L131.08783,198.725314 C130.666064,199.188919 130.013625,198.740014 129.568113,199.108636 L129.56359,199.095067 C129.146346,199.575633 128.490516,199.123336 128.041611,199.48065 L128.03935,199.46482 C127.626629,199.964608 126.967406,199.502134 126.518502,199.857187 L126.51624,199.839095 C126.106912,200.350191 125.445428,199.883194 124.995392,200.232594 L124.993131,200.213371 C124.588325,200.734643 123.923449,200.261993 123.474544,200.612523 L123.472283,200.5933 C123.069739,201.115703 122.403731,200.639661 121.955958,200.993583 L121.953696,200.975491 C121.551152,201.494502 120.884014,201.017329 120.438502,201.378035 L120.43624,201.361074 C120.033696,201.87217 119.364297,201.391604 118.925569,201.767011 L118.923307,201.755703 C118.517371,202.241922 117.853625,201.76588 117.421682,202.157117 L117.408113,202.159378 C117.097159,202.523477 116.592848,202.246445 116.251364,202.508777 L116.252495,202.495208 C115.866912,203.023265 115.187336,202.515562 114.7667,202.919237 L114.747477,202.92489 C114.444438,203.285597 113.929951,202.989343 113.607689,203.288989 L113.604297,203.282205 C113.309173,203.677965 112.787901,203.376057 112.455463,203.654219 L112.455463,203.644042 C112.173908,204.071463 111.64359,203.757117 111.310021,204.026233 L111.310021,204.014926 C111.036382,204.459307 110.50041,204.134784 110.167972,204.405032 L110.169102,204.393724 C109.902247,204.841498 109.359491,204.507929 109.033837,204.794007 L109.033837,204.78383 C108.764721,205.214643 108.219703,204.879943 107.905357,205.188636 L107.903095,205.182982 C107.626064,205.583265 107.090092,205.253088 106.785922,205.579873 L106.7667,205.586657 C106.167406,205.923618 105.490092,206.059307 104.86253,206.326163 L104.861399,206.320509 C104.281329,206.709484 103.585922,206.807859 102.960622,207.08489 L102.961753,207.079237 C102.389597,207.473866 101.686276,207.548495 101.079067,207.857187 L101.065498,207.86171 C100.867618,208.112735 100.529527,208.056198 100.29094,208.214502 L100.293201,208.207717 C100.111152,208.502841 99.7707986,208.448565 99.5062049,208.56277 L99.5129894,208.551463 C98.997371,209.05012 98.252212,209.036551 97.6676184,209.381428 L97.6461343,209.391604 C97.4527774,209.631322 97.1101625,209.562346 96.8941908,209.755703 L96.8851449,209.759095 C96.696311,210.012382 96.3491731,209.945668 96.126417,210.13224 L96.1241555,210.13224 C95.9387138,210.394572 95.5881837,210.326728 95.3642968,210.509908 L95.3631661,210.507647 C95.1811166,210.775633 94.8283251,210.705527 94.6044382,210.890968 L94.6044382,210.889837 C94.4235194,211.154431 94.0695972,211.082064 93.851364,211.27542 L93.8457102,211.277682 C93.6636608,211.53323 93.3108693,211.45747 93.101682,211.658742 L93.0858516,211.667788 C92.9060636,211.910898 92.5532721,211.827223 92.3610459,212.048848 L92.3282544,212.06694 C91.9505866,212.321357 91.5944028,212.616481 91.1443675,212.746516 L91.1534134,212.736339 C91.0177244,213.0733 90.6400565,212.986233 90.4093852,213.159237 L90.4161696,213.153583 C90.2544735,213.439661 89.8869823,213.353724 89.682318,213.56065 L89.6653569,213.570827 C89.3057809,213.859166 88.9258516,214.112452 88.4950389,214.284325 L88.5063463,214.275279 C88.362742,214.583972 87.9839435,214.492382 87.7815406,214.701569 L87.7657102,214.711746 C87.4140495,215.005739 87.0160283,215.227364 86.6157456,215.446728 L86.6191378,215.444466 C86.2878304,215.776905 85.877371,215.989484 85.4657809,216.19641 L85.4714346,216.191887 C85.1570883,216.54694 84.7341908,216.741428 84.3282544,216.960792 L84.3339081,216.955138 C84.0218233,217.30906 83.5876184,217.483194 83.2065583,217.73535 L83.2042968,217.737611 C83.0934841,217.898177 82.9747562,218.049696 82.7610459,218.075703 L82.7859223,218.047435 C82.686417,218.390049 82.2770883,218.279237 82.1040848,218.514431 L82.072424,218.537046 C81.9503039,218.667081 81.8123534,218.776763 81.6619647,218.871746 L81.6755336,218.858177 C81.5782898,219.039095 81.4573004,219.190615 81.2322827,219.208707 L81.257159,219.178177 C81.1734841,219.530968 80.7539788,219.416763 80.5888905,219.657611 L80.5538375,219.682488 C80.4294558,219.805739 80.297159,219.917682 80.156947,220.02058 L80.1637314,220.013795 C80.056311,220.177753 79.9341908,220.321357 79.7329187,220.37224 L79.7544028,220.346233 C79.5011166,220.75217 79.0081131,220.852806 78.6903746,221.178459 L78.6553216,221.206728 C78.5309399,221.323194 78.4031661,221.436269 78.2708693,221.54482 L78.2663463,221.548212 C78.1555336,221.69747 78.0356749,221.836551 77.8604099,221.913442 L77.8751095,221.897611 C77.7823887,222.077399 77.6557456,222.218742 77.4510813,222.273018 L77.4759576,222.248141 C77.4092438,222.460721 77.28147,222.605456 77.0485371,222.631463 L77.0745442,222.602064 C75.1534134,224.502841 73.2254982,226.397965 71.3507279,228.343972 L71.3823887,228.313442 C71.3450742,228.537329 71.1992085,228.666233 70.9979364,228.745385 L71.0239435,228.719378 C70.9583604,228.911604 70.8170177,229.038247 70.6519293,229.143406 L70.6632367,229.13323 C70.5739081,229.291534 70.4359576,229.408 70.3093145,229.534643 L70.2957456,229.551604 C69.9836608,229.887435 69.8785018,230.3827 69.4533428,230.630332 L69.487265,230.598671 C69.447689,230.813512 69.2984311,230.936763 69.1242968,231.041922 L69.1401272,231.024961 C69.0598445,231.190049 68.9151095,231.303124 68.8009046,231.439943 L68.7839435,231.463689 C68.5397032,231.634431 68.6482544,232.050544 68.3033781,232.150049 L68.3406926,232.113866 C68.312424,232.332099 68.1586431,232.453088 67.9935548,232.566163 L67.9980777,232.558247 C67.7481837,232.946092 67.5683958,233.382558 67.212212,233.698035 L67.2246502,233.679943 C67.0086784,234.093795 66.7983604,234.509908 66.4591378,234.842346 L66.4704452,234.826516 C66.2544735,235.234714 66.0204099,235.631604 65.7332014,235.994572 L65.7320707,235.997965 C65.5160989,236.20376 65.5975124,236.579166 65.3080424,236.741993 L65.3238728,236.719378 C65.1508693,236.956834 65.2322827,237.339025 64.8896678,237.481498 L64.9134134,237.450968 C64.7890318,237.91118 64.4701625,238.265102 64.2372297,238.664254 L64.227053,238.683477 C63.9862049,238.87118 64.0630954,239.219449 63.8527774,239.422982 L63.8459929,239.439943 C63.4491025,240.004184 63.4977244,240.774219 62.9911519,241.288707 L63.017159,241.252523 C62.8939081,241.525032 62.9380071,241.868777 62.6530601,242.067788 L62.6688905,242.042912 C62.5015406,242.286021 62.5433781,242.620721 62.3228834,242.842346 L62.3206219,242.848 C61.9610459,243.138601 62.311576,243.699449 61.8954629,243.970827 L61.912424,243.94482 C61.6048622,244.270473 61.9418233,244.830191 61.4906572,245.1027 L61.5155336,245.068777 C61.2407633,245.412523 61.557371,245.957541 61.1129894,246.243618 L61.136735,246.209696 C60.8698799,246.561357 61.1514346,247.082629 60.7669823,247.395845 L60.7794205,247.37323 C60.3859223,247.81535 60.8766643,248.50171 60.3587845,248.909908 L60.3836608,248.875986 C60.032,249.340721 60.4695972,249.998813 60.00147,250.435279 L60.0173004,250.410403 C59.5977951,250.994996 60.1315053,251.770686 59.6294558,252.338318 L59.6430247,252.314572 C59.1975124,253.034855 59.7504452,253.912311 59.2811873,254.629201 C59.1850742,254.716269 59.177159,254.811251 59.2551802,254.913018 C58.9804099,258.408141 58.9917173,261.904396 59.247265,265.40065 C59.1635901,265.489979 59.1715053,265.571392 59.2687491,265.646021 C59.7640141,266.358389 59.1929894,267.24376 59.6407633,267.964042 L59.6271943,267.939166 C60.1394205,268.497753 59.5819647,269.280226 60.0308693,269.851251 L60.0240848,269.837682 C60.461682,270.267364 60.0059929,270.926587 60.4153216,271.363053 L60.4130601,271.355138 C60.7568057,271.679661 60.4809046,272.193018 60.7737668,272.53111 L60.7579364,272.505102 C61.1616113,272.802488 60.8529187,273.33959 61.1514346,273.673159 L61.1356042,273.646021 C61.5483251,273.928707 61.2136254,274.480509 61.5483251,274.791463 L61.5426714,274.780155 C61.7880424,274.998389 61.7552509,275.331958 61.8830247,275.598813 L61.8581484,275.562629 C62.3364523,275.797823 61.9542615,276.391463 62.3183604,276.674148 L62.3206219,276.675279 C62.5445088,276.887859 62.4891025,277.230473 62.6835901,277.456622 L62.6768057,277.443053 C62.9312226,277.642064 62.8712933,277.993724 63.0578657,278.224396 L63.0465583,278.206304 C63.3134134,278.395138 63.2478304,278.753583 63.4411873,278.979731 L63.4332721,278.966163 C63.692212,279.151604 63.6187138,279.512311 63.8312933,279.722629 L63.8312933,279.721498 C64.0687491,279.905809 63.9805512,280.268777 64.2304452,280.445173 L64.2440141,280.47118 C64.3525654,280.621569 64.5266996,280.726728 64.551576,280.931392 L64.5153922,280.892947 C64.8478304,281.030898 64.761894,281.421004 64.9609046,281.638106 L64.9541201,281.627929 C65.2718587,281.973936 65.4878304,282.384396 65.7105866,282.791463 L65.6992792,282.774502 C66.0430247,283.097894 66.2262049,283.532099 66.4817527,283.91542 L66.4783604,283.909767 C66.6377951,284.025102 66.7904452,284.147223 66.826629,284.357541 L66.7904452,284.322488 C67.1240141,284.425385 67.0143322,284.841498 67.2687491,284.999802 L67.2924947,285.033724 C67.4066996,285.166021 67.5175124,285.30058 67.6260636,285.43853 L67.6181484,285.430615 C67.777583,285.542558 67.922318,285.66694 67.9811166,285.862558 L67.9505866,285.83429 C68.4164523,286.271887 68.7782898,286.79542 69.1559576,287.305385 L69.1706572,287.323477 C69.2984311,287.444466 69.417159,287.575633 69.5257102,287.713583 L69.5234488,287.710191 C69.6772297,287.818742 69.8129187,287.941993 69.8999859,288.113866 L69.8830247,288.096905 C70.0560283,288.194148 70.1928481,288.324184 70.2708693,288.508495 L70.2482544,288.487011 C70.4370883,288.569555 70.5750389,288.701852 70.6428834,288.900862 L70.6168763,288.874855 C70.8181484,288.946092 70.9549682,289.079519 71.017159,289.287576 L70.9900212,289.259307 C71.1980777,289.32376 71.3360283,289.459449 71.3948269,289.670898 L71.3665583,289.642629 C71.5791378,289.702558 71.7148269,289.838247 71.7747562,290.050827 L71.7476184,290.022558 C71.9579364,290.081357 72.0924947,290.219307 72.1603392,290.425102 L72.1332014,290.399095 C72.336735,290.462417 72.4690318,290.600367 72.5459223,290.797117 L72.5221767,290.77224 C72.7155336,290.844608 72.8455689,290.981428 72.9337668,291.163477 L72.9156749,291.144254 C73.0977244,291.222276 73.2232367,291.360226 73.322742,291.525314 L73.3136961,291.515138 C73.4742615,291.607859 73.5963816,291.741286 73.7071943,291.88489 L73.7151095,291.891675 C73.8451449,292.001357 73.971788,292.117823 74.0950389,292.236551 L74.1233074,292.260297 C74.6219647,292.64588 75.1454982,293.000933 75.5808339,293.462276 L75.5582191,293.439661 C75.7527067,293.497329 75.8759576,293.639802 75.9833781,293.800367 L75.9799859,293.794714 C76.1179364,293.899873 76.2491025,294.012947 76.3746148,294.133936 L76.4096678,294.158813 C76.7341908,294.476551 77.202318,294.600933 77.4929187,294.965032 L77.4759576,294.948071 C77.6534841,295.013654 77.7654276,295.159519 77.8909399,295.287293 L77.9158163,295.305385 C78.0944735,295.534926 78.5071943,295.424113 78.5987845,295.778035 L78.5727774,295.748636 C78.7955336,295.764466 78.9142615,295.919378 79.021682,296.086728 L79.0137668,296.078813 C79.1528481,296.18058 79.2874064,296.285739 79.4174417,296.398813 L79.4717173,296.431604 C79.6277597,296.688283 80.0178657,296.580862 80.152424,296.869201 L80.1354629,296.85111 C80.2881131,296.940438 80.4283251,297.046728 80.5549682,297.169979 L80.5979364,297.197117 C80.7675477,297.442488 81.152,297.33959 81.2933428,297.627929 L81.2775124,297.610968 C81.4279011,297.700297 81.5669823,297.804325 81.6970177,297.923053 L81.7501625,297.952452 C81.9129894,298.206869 82.2861343,298.105102 82.4444382,298.366304 L82.4421767,298.364042 C82.6570177,298.55853 83.0471237,298.463548 83.1692438,298.807293 L83.1443675,298.781286 C83.356947,298.791463 83.4598445,298.959943 83.5898799,299.088848 L83.6204099,299.105809 C83.8103746,299.331958 84.1778657,299.242629 84.3418233,299.512876 L84.3373004,299.509484 C84.5589258,299.693795 84.9388551,299.606728 85.0779364,299.935774 L85.0564523,299.912028 C85.2532014,299.935774 85.3549682,300.100862 85.4951802,300.207152 L85.5494558,300.23429 C85.7156749,300.484184 86.0695972,300.388071 86.2482544,300.614219 L86.2753922,300.628919 C86.4710106,300.847152 86.8271943,300.764608 87.0047208,301.015633 L87.0137668,301.020155 C87.2286078,301.218035 87.5859223,301.141145 87.762318,301.411392 L87.7600565,301.408 C87.9862049,301.592311 88.3446502,301.517682 88.5187845,301.800367 L88.5131307,301.794714 C88.7460636,301.967717 89.1022473,301.896481 89.2763816,302.183689 L89.2707279,302.178035 C89.5059223,302.346516 89.8598445,302.277541 90.037371,302.561357 L90.0328481,302.555703 C90.2680424,302.726445 90.6185724,302.659731 90.8017527,302.933371 L90.7994912,302.929979 C91.0279011,303.107505 91.3750389,303.044184 91.5650035,303.300862 L91.5706572,303.301993 C91.7888905,303.491958 92.1315053,303.426375 92.3271237,303.666092 L92.347477,303.674007 C92.5532721,303.879802 92.8879717,303.811958 93.0903746,304.022276 L93.1356042,304.041498 C93.4024594,304.407859 93.9791378,304.026799 94.206417,304.487011 L94.197371,304.476834 C94.4506572,304.614784 94.7887491,304.56277 94.9854982,304.827364 L94.986629,304.825102 C95.2093852,305.008283 95.5418233,304.950615 95.7487491,305.169979 L95.7894558,305.184678 C96.0698799,305.539731 96.6250742,305.181286 96.8772297,305.606445 L96.8727067,305.599661 C97.1101625,305.760226 97.4403392,305.709343 97.6483958,305.936622 L97.6800565,305.94906 C97.9706572,306.292806 98.5168057,305.947929 98.7813993,306.358389 L98.7791378,306.353866 C99.0143322,306.529131 99.3479011,306.465809 99.5661343,306.682912 L99.6543322,306.779025 L99.7809753,306.746233 C100.087406,306.848 100.432283,306.850261 100.6867,307.088848 L100.708184,307.095633 C101.011223,307.423548 101.543802,307.097894 101.826488,307.488 L101.82988,307.484608 C102.143095,307.797823 102.682459,307.469908 102.960622,307.881498 L102.95836,307.874714 C103.192424,308.045456 103.515816,307.99118 103.740834,308.183406 C103.813201,308.289696 103.908184,308.314572 104.02465,308.261428 C104.297159,308.397117 104.626205,308.373371 104.880622,308.563336 C104.956382,308.667364 105.052495,308.693371 105.170092,308.639095 C105.534191,308.899166 106.061117,308.625527 106.38564,309.013371 L106.38677,309.006587 C106.709032,309.309625 107.228042,309.006587 107.527689,309.37747 L107.538996,309.379731 C107.854473,309.691816 108.361046,309.398954 108.668608,309.737046 L108.705922,309.748353 C109.010092,310.084184 109.506488,309.787929 109.821965,310.087576 C109.901117,310.191604 109.999491,310.21535 110.117088,310.158813 C110.481187,310.412099 110.986629,310.167859 111.328113,310.502558 L111.359774,310.510473 C111.669597,310.838389 112.158078,310.553442 112.480339,310.839519 C112.571929,310.942417 112.680481,310.966163 112.805993,310.910756 C113.159915,311.186657 113.658572,310.934502 114.00458,311.238671 C114.08147,311.341569 114.176452,311.361922 114.289527,311.300862 C114.664933,311.547364 115.166982,311.316693 115.527689,311.626516 C115.597795,311.729413 115.685993,311.748636 115.792283,311.681922 C116.177866,311.918247 116.677654,311.703406 117.046276,312.003053 C117.122035,312.105951 117.215887,312.125173 117.325569,312.060721 C117.704367,312.300438 118.19624,312.088989 118.563731,312.371675 C118.65306,312.473442 118.758219,312.492664 118.879208,312.432735 C119.350728,312.77535 119.991859,312.373936 120.448678,312.787788 L120.475816,312.793442 C120.916806,313.179025 121.540975,312.766304 121.986488,313.139449 C122.072424,313.238954 122.174191,313.258177 122.291788,313.193724 C122.778007,313.527293 123.414615,313.147364 123.890657,313.532947 C123.965286,313.635845 124.054615,313.652806 124.159774,313.580438 C124.661823,313.892523 125.302954,313.532947 125.790304,313.915138 C125.866064,314.018035 125.955392,314.033866 126.05942,313.960367 C126.56147,314.267929 127.194686,313.923053 127.687689,314.28489 C127.775887,314.384396 127.877654,314.401357 127.99412,314.333512 C128.480339,314.656905 129.097724,314.31429 129.582813,314.644466 C129.788608,314.670473 129.996664,314.696481 130.202459,314.722488 C130.723731,315.006304 131.353555,314.701004 131.86465,315.033442 C131.97094,315.129555 132.088537,315.145385 132.216311,315.082064 C132.809951,315.478954 133.549456,315.023265 134.144226,315.409979 C134.352283,315.433724 134.560339,315.45747 134.767265,315.481216 C135.411788,315.820438 136.17617,315.405456 136.809385,315.810261 C136.903237,315.908636 137.008396,315.922205 137.123731,315.850968 C137.863237,316.258035 138.73617,315.743548 139.470021,316.191322 C139.566134,316.288565 139.672424,316.301004 139.78776,316.229767 C140.526134,316.63118 141.38889,316.14383 142.126134,316.55429 C142.344367,316.575774 142.562601,316.597258 142.780834,316.618742 C143.540693,316.989625 144.409102,316.537329 145.165569,316.930827 C145.393979,316.952311 145.622389,316.972664 145.850799,316.993018 C146.727124,317.402346 147.712,316.89012 148.586064,317.315279 C148.815604,317.334502 149.045145,317.353724 149.274686,317.372947 C150.278784,317.798106 151.38465,317.254219 152.387618,317.69747 C152.620551,317.714431 152.854615,317.732523 153.088678,317.749484 C153.85306,318.176905 154.774615,317.608141 155.525428,318.135067 C155.558219,318.374784 155.472283,318.557965 155.266488,318.684608 C154.056594,319.0227 152.819562,318.768283 151.59836,318.863265 C150.551293,319.072452 149.575463,318.711746 148.582671,318.49012" id="Fill-7" fill="#0072BC"></path>
            </g>
        </g>
    </g>
</svg>