<?xml version="1.0" encoding="UTF-8"?>
<svg width="320px" height="320px" viewBox="0 0 320 320" version="1.1" xmlns="http://www.w3.org/2000/svg" xmlns:xlink="http://www.w3.org/1999/xlink">
     
    <title>UQ_LOGO</title>
     
    <defs>
        <linearGradient x1="1.1462884%" y1="51.5192613%" x2="99.2014183%" y2="48.9785839%" id="linearGradient-1">
            <stop stop-color="#A50082" offset="0%"></stop>
            <stop stop-color="#E4007F" offset="100%"></stop>
        </linearGradient>
        <linearGradient x1="1.15450662%" y1="51.062862%" x2="99.1484491%" y2="49.229642%" id="linearGradient-2">
            <stop stop-color="#FDD000" offset="0%"></stop>
            <stop stop-color="#F39800" offset="100%"></stop>
        </linearGradient>
        <linearGradient x1="30.6205862%" y1="57.6733789%" x2="78.6562537%" y2="50.7136827%" id="linearGradient-3">
            <stop stop-color="#920783" offset="0%"></stop>
            <stop stop-color="#E4007F" offset="100%"></stop>
        </linearGradient>
        <linearGradient x1="88.9529538%" y1="55.5755779%" x2="42.8779055%" y2="48.9470494%" id="linearGradient-4">
            <stop stop-color="#920783" offset="0%"></stop>
            <stop stop-color="#E4007F" offset="100%"></stop>
        </linearGradient>
        <linearGradient x1="65.4596395%" y1="47.7317247%" x2="3.61466039%" y2="54.4925135%" id="linearGradient-5">
            <stop stop-color="#37BEF0" offset="0%"></stop>
            <stop stop-color="#009944" offset="100%"></stop>
        </linearGradient>
        <linearGradient x1="242.680644%" y1="-5407.92524%" x2="341.08324%" y2="-5407.92524%" id="linearGradient-6">
            <stop stop-color="#F6AB00" offset="0%"></stop>
            <stop stop-color="#FDD000" offset="50%"></stop>
            <stop stop-color="#F6AB00" offset="100%"></stop>
        </linearGradient>
    </defs>
    <g id="页面-1" stroke="none" stroke-width="1" fill="none" fill-rule="evenodd">
        <g id="航司LOGO备份-3" transform="translate(-1167.000000, -4748.000000)">
            <g id="切图" transform="translate(109.000000, 80.000000)"></g>
            <g id="乌鲁木齐航空" transform="translate(1167.000000, 4850.000000)" fill-rule="nonzero">
                <path d="M61.4376881,75.7326911 C61.4376881,75.7326911 81.0885009,112.337146 117.577363,95.6146899 C143.33534,83.7856713 156.801927,90.9139073 159.556893,93.3220951 C159.556893,93.3220951 160.616496,51.0921132 118.559904,76.0987357 C93.3606261,91.0680313 68.5466586,78.140879 61.4376881,75.7326911 Z" id="路径" fill="url(#linearGradient-1)"></path>
                <path d="M58.1432872,72.9199278 C58.1432872,72.9199278 82.5912101,94.2661048 118.213125,74.7501505 C132.161349,67.0439494 144.49127,64.7513546 164.450331,75.8675497 C185.892836,87.8121613 205.717038,110.776641 244.710415,105.536424 C244.710415,105.536424 223.518362,116.787477 194.350391,109.389524 C161.387116,100.951234 149.827815,78.56472 121.835039,85.7122216 C112.472005,88.1204094 107.501505,91.0680313 96.077062,91.4918724 C77.1968694,92.1854305 61.8422637,75.3473811 58.1432872,72.9199278 Z" id="路径" fill="url(#linearGradient-2)"></path>
                <path d="M148.459964,63.2871764 C198.453943,47.4509332 225.772426,86.4057797 263.609874,67.1402769 C293.548465,52.0168573 288.250452,14.4683925 319.113787,-9.91207116e-13 C314.412607,2.80866561 310.784813,7.10777118 308.806743,12.2143287 C304.163757,24.1204094 313.083685,33.9843468 306.032511,47.5857917 C303.837342,52.3250896 305.092936,57.9476263 309.095725,61.3028296 C304.92464,70.1660652 298.923361,78.0452058 291.487056,84.4214329 C250.451535,120.486454 197.201686,74.615292 148.459964,63.2871764 Z" id="路径" fill="url(#linearGradient-3)"></path>
                <path d="M280.274533,92.1854305 C280.274533,92.1854305 259.08248,101.413606 223.422035,86.6177002 C185.064419,70.7236604 158.805539,46.7188441 112.510536,78.0060205 C112.510536,78.0060205 109.042745,79.3738712 112.510536,78.0060205 C134.858519,69.7218543 157.090909,74.384106 187.0295,93.8807947 C212.864539,110.834437 247.638772,116.093919 280.274533,92.1854305 Z" id="路径" fill="url(#linearGradient-4)"></path>
                <path d="M88.2552679,73.3052378 C70.3383504,78.8537026 58.1047562,71.7832631 51.8627333,68.6044551 C51.8627333,68.6044551 51.3425647,68.4310656 51.2655027,68.7778447 C54.4945678,70.5668298 57.4905185,72.7474678 60.1854305,75.2703191 C77.6399759,88.8524985 103.590608,88.4671884 130.350391,66.5045154 C140.955439,57.3655001 153.602176,50.9099858 167.224564,47.6821192 C176.849392,45.357859 186.834158,44.9260146 196.623721,46.410596 C174.526189,36.4310656 154.355208,36.5659241 134.781457,45.5436484 C118.6177,52.9608669 104.380494,68.3347381 88.2552679,73.3052378 Z" id="路径" fill="url(#linearGradient-5)"></path>
                <path d="M5.1159077e-13,65.8880193 C4.85490668,63.961469 25.6809151,54.5984347 45.986755,64.9247441 C52.1770993,68.2246271 57.8929185,72.3462382 62.9789284,77.1776039 C77.1968694,89.7579771 84.6333534,101.317279 101.664058,99.6989765 C110.834437,98.8127634 119.195665,93.1872366 126.208308,90.2588802 C135.153962,86.0514956 145.535117,86.1793074 154.374473,90.6056592 C145.04997,87.7543648 137.497893,90.6056592 130.986153,94.9211318 C120.833233,101.664058 111.951836,112.587598 95.768814,114.514148 C53.9434076,119.465382 36.5081276,61.1679711 5.1159077e-13,65.8880193 Z" id="路径" fill="url(#linearGradient-6)"></path>
            </g>
        </g>
    </g>
</svg>