<?xml version="1.0" encoding="UTF-8"?>
<svg width="320px" height="320px" viewBox="0 0 320 320" version="1.1" xmlns="http://www.w3.org/2000/svg" xmlns:xlink="http://www.w3.org/1999/xlink">
     
    <title>Y8_LOGO</title>
     
    <defs>
        <polygon id="path-1" points="0 244.972702 154.12241 244.972702 154.12241 316.833745 0 316.833745"></polygon>
    </defs>
    <g id="页面-1" stroke="none" stroke-width="1" fill="none" fill-rule="evenodd">
        <g id="航司LOGO备份-3" transform="translate(-647.000000, -5837.000000)">
            <g id="切图" transform="translate(109.000000, 80.000000)"></g>
            <g id="金鹏航空" transform="translate(671.000000, 5838.000000)">
                <path d="M108.572049,194.088066 C150.13386,179.18107 172.477235,164.698107 192.477893,148.143704 C216.346206,128.3893 235.904395,101.97679 253.509663,60.1384362 C263.747029,35.8421399 271.180774,0.316872428 271.180774,0.316872428 C271.449416,2.60164609 272.113119,19.7051852 267.373695,45.37893 C254.929251,112.764609 226.991802,155.61037 197.862584,179.132346 C165.183078,205.513251 129.170568,214.096626 99.4843128,221.372346 C61.7466996,230.618107 34.3992099,240.353745 22.3959177,249.255802 C47.3769877,221.629136 59.9215144,211.735473 108.572049,194.088066" id="Fill-3" fill="#D61819"></path>
                <path d="M202.493761,214.588346 C173.134091,233.744889 128.35121,236.261432 113.083391,235.88744 C171.266765,216.654519 202.930963,193.042996 220.561251,172.22456 C238.878947,150.59493 250.770305,130.750979 263.001416,89.2523786 C267.518288,73.9253004 271.33923,53.1463704 271.33923,53.1463704 C271.387259,68.2192922 268.882568,104.002667 260.866765,128.420115 C245.404049,175.606288 228.476971,197.636247 202.493761,214.588346" id="Fill-5" fill="#D61819"></path>
                <path d="M251.83921,200.154239 C230.246453,234.669465 190.595424,236.033745 182.337317,236.056132 C207.157728,225.893827 236.538469,208.22535 254.574354,167.969877 C262.359704,150.624033 267.894519,128.769218 271.371062,107.267325 C271.181432,117.675885 275.73386,158.573992 251.83921,200.154239" id="Fill-7" fill="#D61819"></path>
                <mask id="mask-2" fill="white">
                    <use xlink:href="#path-1"></use>
                </mask>
                <g id="Clip-10"></g>
                <path d="M91.0669959,276.224165 C100.670947,273.757663 108.331193,276.573136 110.097119,277.971654 C108.641975,277.710914 105.914733,277.317169 103.125597,277.622683 C95.4561317,278.469432 91.7596708,282.140872 91.7596708,287.321449 C91.7596708,291.507786 96.64,295.511078 102.763457,296.378897 C108.893498,297.238815 115.095967,296.083918 119.084774,292.067457 C121.715885,289.416593 124.963292,283.007374 119.084774,275.409021 C114.741728,269.793877 105.690864,264.332807 92.8460905,260.494123 C75.2500412,255.251654 47.3916049,252.378239 13.6111934,253.1947 C12.7736626,253.210502 0,254.447045 0,254.447045 C0,254.447045 0.931028807,254.241613 12.1231276,251.742189 C17.4538272,250.55042 38.679177,243.465646 80.908642,245.263177 C124.144198,247.105481 145.497284,260.829926 152.323951,277.363259 C158.232757,291.697416 149.648066,310.456263 125.586173,315.5947 C113.547325,318.171819 97.2760494,316.745646 87.8788477,311.164741 C78.0483951,305.346798 75.1960494,298.899391 75.4673251,292.652148 C75.6885597,287.255605 80.0895473,279.039638 91.0669959,276.224165" id="Fill-9" fill="#D61819" mask="url(#mask-2)"></path>
            </g>
        </g>
    </g>
</svg>