<?xml version="1.0" encoding="UTF-8"?>
<svg width="320px" height="320px" viewBox="0 0 320 320" version="1.1" xmlns="http://www.w3.org/2000/svg" xmlns:xlink="http://www.w3.org/1999/xlink">
     
    <title>ZH_LOGO</title>
     
    <g id="页面-1" stroke="none" stroke-width="1" fill="none" fill-rule="evenodd">
        <g id="航司LOGO备份-3" transform="translate(-647.000000, -2149.000000)">
            <g id="切图" transform="translate(109.000000, 80.000000)"></g>
            <g id="深圳航空竖版" transform="translate(654.000000, 2149.000000)" fill="#D10C23">
                <path d="M100.844355,283.984038 C86.8540342,304.890101 79.2457648,303.952965 66.6754424,302.606032 C63.7973246,302.285182 63.8386221,302.736278 62.555223,304.829743 L59.2164793,310.182534 C57.7901273,312.485663 57.8727223,312.80016 61.2273497,314.191568 C85.0973023,324.239566 106.832492,322.451067 124.447462,295.934898 L205.298429,174.154936 C213.326027,162.05477 216.868081,155.529765 228.180418,155.005605 C235.172402,154.681578 240.178929,159.268777 241.51951,165.025013 C242.151679,167.830066 243.835346,168.004786 245.442772,167.531453 L266.510848,161.25741 C267.673531,160.904793 268.521718,159.233833 268.604313,157.219786 C268.864805,150.936213 265.154384,141.873001 259.4458,137.416048 C243.381074,124.937851 219.028258,129.242321 200.949485,132.743078 C171.860164,138.340477 136.229956,149.884715 105.615804,165.072664 C97.5882064,169.0404 88.671124,173.163796 83.7122478,180.524281 C75.2812052,193.154961 51.665391,229.687361 42.532291,242.022605 C27.293515,262.553814 20.9305239,261.870817 8.08064924,260.562004 C6.17461097,260.34281 5.97130023,260.587418 4.94839302,262.201197 L1.17443725,268.367231 C-0.128022237,270.463873 -0.0104832105,270.79743 1.79072295,271.588436 C26.1308317,282.205069 47.316447,282.103413 65.6271213,254.650109 L103.963904,197.052809 C109.631192,188.485167 119.047021,183.402398 126.147013,180.98173 L71.653379,262.836543 C57.6884719,283.76802 50.3819919,282.795941 37.8307299,281.449007 C34.9748492,281.137687 34.9462587,281.642788 33.7232174,283.625067 L30.3368228,289.098574 C29.250381,290.804478 28.672216,291.477945 31.7187005,292.739107 C57.6884719,303.65753 78.2482714,300.50939 95.259663,274.793757 L162.393508,173.20827 C165.941915,167.830066 174.379312,163.585954 182.378319,161.873696 L100.844355,283.984038 Z M238.342779,33.2288198 C231.233256,36.9551246 216.62665,38.71821 210.644866,32.4664045 C204.094448,42.5969979 216.658417,52.2320214 231.169722,46.8569935 C239.623002,43.7501511 248.498786,39.7601776 257.800253,38.4608949 C267.555992,37.0917241 279.195533,38.4608949 283.37611,42.6732395 C247.253508,44.8524765 200.949485,64.6339771 166.427955,88.9391417 C139.609997,107.856572 122.906748,124.937851 102.77263,151.809814 C100.056526,155.637774 100.447264,158.490478 105.317192,155.990391 C128.952066,143.896578 159.445502,133.962942 185.736123,127.393464 C206.756548,122.164565 229.171558,117.231103 250.573191,123.069934 C261.399489,126.02747 271.383953,133.060751 275.278624,143.871165 C280.316919,157.772537 276.422247,174.250238 259.80477,176.788446 C251.523034,178.059138 246.074941,174.879231 243.028457,170.581114 C241.53857,168.455882 240.823806,168.385994 239.645239,168.751318 L218.284903,175.289029 C217.055508,175.67659 215.486204,177.31896 216.359804,179.463253 C218.338908,184.418952 222.907046,190.829594 227.964401,194.600373 C241.563984,204.715083 259.388618,205.836469 274.919654,199.77209 C296.311756,191.43635 307.6368,169.0404 304.428303,145.335637 C301.518418,123.625861 285.67924,105.648744 265.252863,98.64723 C244.728007,91.6234789 216.591706,94.7430283 194.043273,102.977114 C188.042429,105.200825 186.647845,106.090309 190.097774,103.196308 C206.118025,90.2034804 238.20618,75.1076573 265.154384,67.3882023 C283.573067,62.1211833 300.625756,60.8695515 305.556042,64.9452966 C310.60069,34.1850157 285.031187,14.1049025 253.81028,22.0943796 C264.785883,15.1023959 256.119763,-0.066492014 240.360003,3.16010103e-13 C214.237748,0.108228161 189.389363,11.9987302 164.938069,14.6640071 C151.243184,16.1824842 135.013268,13.4028451 124.215561,7.80226931 C122.093505,29.3786225 148.301531,45.2019169 173.3024,39.9698418 C190.834775,36.3356622 207.071045,27.793434 223.348611,24.1624311 C237.72967,20.9412264 245.106038,29.6645283 238.342779,33.2288198 L238.342779,33.2288198 Z" id="Fill-90"></path>
            </g>
        </g>
    </g>
</svg>